solid PuzzleTarget
   facet normal 0.000000e+000 1.000000e+000 0.000000e+000
      outer loop
         vertex 1.991977e-001 8.100000e-001 2.000000e-002
         vertex 8.091977e-001 8.100000e-001 2.000000e-002
         vertex 1.991977e-001 8.100000e-001 0.000000e+000
      endloop
   endfacet
   facet normal 0.000000e+000 1.000000e+000 0.000000e+000
      outer loop
         vertex 1.991977e-001 8.100000e-001 0.000000e+000
         vertex 8.091977e-001 8.100000e-001 2.000000e-002
         vertex 8.091977e-001 8.100000e-001 0.000000e+000
      endloop
   endfacet
   facet normal -1.000000e+000 0.000000e+000 0.000000e+000
      outer loop
         vertex 1.991977e-001 6.100000e-001 2.000000e-002
         vertex 1.991977e-001 8.100000e-001 2.000000e-002
         vertex 1.991977e-001 6.100000e-001 0.000000e+000
      endloop
   endfacet
   facet normal -1.000000e+000 0.000000e+000 0.000000e+000
      outer loop
         vertex 1.991977e-001 6.100000e-001 0.000000e+000
         vertex 1.991977e-001 8.100000e-001 2.000000e-002
         vertex 1.991977e-001 8.100000e-001 0.000000e+000
      endloop
   endfacet
   facet normal 0.000000e+000 1.000000e+000 0.000000e+000
      outer loop
         vertex 7.500002e-002 6.100000e-001 2.000000e-002
         vertex 1.991977e-001 6.100000e-001 2.000000e-002
         vertex 7.500002e-002 6.100000e-001 0.000000e+000
      endloop
   endfacet
   facet normal 0.000000e+000 1.000000e+000 0.000000e+000
      outer loop
         vertex 7.500002e-002 6.100000e-001 0.000000e+000
         vertex 1.991977e-001 6.100000e-001 2.000000e-002
         vertex 1.991977e-001 6.100000e-001 0.000000e+000
      endloop
   endfacet
   facet normal -5.807913e-002 9.983119e-001 0.000000e+000
      outer loop
         vertex 7.500002e-002 6.100000e-001 2.000000e-002
         vertex 7.500002e-002 6.100000e-001 0.000000e+000
         vertex 6.197640e-002 6.088606e-001 0.000000e+000
      endloop
   endfacet
   facet normal -1.161583e-001 9.932307e-001 0.000000e+000
      outer loop
         vertex 7.500002e-002 6.100000e-001 2.000000e-002
         vertex 6.197640e-002 6.088606e-001 0.000000e+000
         vertex 6.197640e-002 6.088606e-001 2.000000e-002
      endloop
   endfacet
   facet normal -2.305519e-001 9.730600e-001 0.000000e+000
      outer loop
         vertex 6.197640e-002 6.088606e-001 2.000000e-002
         vertex 6.197640e-002 6.088606e-001 0.000000e+000
         vertex 4.934851e-002 6.054770e-001 0.000000e+000
      endloop
   endfacet
   facet normal -2.868663e-001 9.579706e-001 0.000000e+000
      outer loop
         vertex 6.197640e-002 6.088606e-001 2.000000e-002
         vertex 4.934851e-002 6.054770e-001 0.000000e+000
         vertex 4.934851e-002 6.054770e-001 2.000000e-002
      endloop
   endfacet
   facet normal -3.960194e-001 9.182422e-001 0.000000e+000
      outer loop
         vertex 4.934851e-002 6.054770e-001 2.000000e-002
         vertex 4.934851e-002 6.054770e-001 0.000000e+000
         vertex 3.750002e-002 5.999519e-001 0.000000e+000
      endloop
   endfacet
   facet normal -4.488580e-001 8.936031e-001 0.000000e+000
      outer loop
         vertex 4.934851e-002 6.054770e-001 2.000000e-002
         vertex 3.750002e-002 5.999519e-001 0.000000e+000
         vertex 3.750002e-002 5.999519e-001 2.000000e-002
      endloop
   endfacet
   facet normal -5.494540e-001 8.355240e-001 0.000000e+000
      outer loop
         vertex 3.750002e-002 5.999519e-001 2.000000e-002
         vertex 3.750002e-002 5.999519e-001 0.000000e+000
         vertex 2.679095e-002 5.924534e-001 0.000000e+000
      endloop
   endfacet
   facet normal -5.972114e-001 8.020838e-001 0.000000e+000
      outer loop
         vertex 3.750002e-002 5.999519e-001 2.000000e-002
         vertex 2.679095e-002 5.924534e-001 0.000000e+000
         vertex 2.679095e-002 5.924534e-001 2.000000e-002
      endloop
   endfacet
   facet normal -6.861938e-001 7.274188e-001 0.000000e+000
      outer loop
         vertex 2.679095e-002 5.924534e-001 2.000000e-002
         vertex 2.679095e-002 5.924534e-001 0.000000e+000
         vertex 1.754670e-002 5.832091e-001 0.000000e+000
      endloop
   endfacet
   facet normal -7.274188e-001 6.861938e-001 0.000000e+000
      outer loop
         vertex 2.679095e-002 5.924534e-001 2.000000e-002
         vertex 1.754670e-002 5.832091e-001 0.000000e+000
         vertex 1.754670e-002 5.832091e-001 2.000000e-002
      endloop
   endfacet
   facet normal -8.020838e-001 5.972114e-001 0.000000e+000
      outer loop
         vertex 1.754670e-002 5.832091e-001 2.000000e-002
         vertex 1.754670e-002 5.832091e-001 0.000000e+000
         vertex 1.004810e-002 5.725000e-001 0.000000e+000
      endloop
   endfacet
   facet normal -8.355240e-001 5.494540e-001 0.000000e+000
      outer loop
         vertex 1.754670e-002 5.832091e-001 2.000000e-002
         vertex 1.004810e-002 5.725000e-001 0.000000e+000
         vertex 1.004810e-002 5.725000e-001 2.000000e-002
      endloop
   endfacet
   facet normal -8.936031e-001 4.488580e-001 0.000000e+000
      outer loop
         vertex 1.004810e-002 5.725000e-001 2.000000e-002
         vertex 1.004810e-002 5.725000e-001 0.000000e+000
         vertex 4.523084e-003 5.606515e-001 0.000000e+000
      endloop
   endfacet
   facet normal -9.182422e-001 3.960194e-001 0.000000e+000
      outer loop
         vertex 1.004810e-002 5.725000e-001 2.000000e-002
         vertex 4.523084e-003 5.606515e-001 0.000000e+000
         vertex 4.523084e-003 5.606515e-001 2.000000e-002
      endloop
   endfacet
   facet normal -9.579706e-001 2.868663e-001 0.000000e+000
      outer loop
         vertex 4.523084e-003 5.606515e-001 2.000000e-002
         vertex 4.523084e-003 5.606515e-001 0.000000e+000
         vertex 1.139415e-003 5.480236e-001 0.000000e+000
      endloop
   endfacet
   facet normal -9.730600e-001 2.305519e-001 0.000000e+000
      outer loop
         vertex 4.523084e-003 5.606515e-001 2.000000e-002
         vertex 1.139415e-003 5.480236e-001 0.000000e+000
         vertex 1.139415e-003 5.480236e-001 2.000000e-002
      endloop
   endfacet
   facet normal -9.932307e-001 1.161583e-001 0.000000e+000
      outer loop
         vertex 1.139415e-003 5.480236e-001 2.000000e-002
         vertex 1.139415e-003 5.480236e-001 0.000000e+000
         vertex 0.000000e+000 5.350000e-001 0.000000e+000
      endloop
   endfacet
   facet normal -9.983119e-001 5.807913e-002 0.000000e+000
      outer loop
         vertex 1.139415e-003 5.480236e-001 2.000000e-002
         vertex 0.000000e+000 5.350000e-001 0.000000e+000
         vertex 0.000000e+000 5.350000e-001 2.000000e-002
      endloop
   endfacet
   facet normal -1.000000e+000 1.807004e-015 0.000000e+000
      outer loop
         vertex 0.000000e+000 4.750000e-001 2.000000e-002
         vertex 0.000000e+000 5.350000e-001 2.000000e-002
         vertex 0.000000e+000 4.750000e-001 0.000000e+000
      endloop
   endfacet
   facet normal -1.000000e+000 1.807004e-015 0.000000e+000
      outer loop
         vertex 0.000000e+000 4.750000e-001 0.000000e+000
         vertex 0.000000e+000 5.350000e-001 2.000000e-002
         vertex 0.000000e+000 5.350000e-001 0.000000e+000
      endloop
   endfacet
   facet normal -9.983119e-001 -5.807913e-002 0.000000e+000
      outer loop
         vertex 0.000000e+000 4.750000e-001 2.000000e-002
         vertex 0.000000e+000 4.750000e-001 0.000000e+000
         vertex 1.139415e-003 4.619764e-001 0.000000e+000
      endloop
   endfacet
   facet normal -9.932307e-001 -1.161583e-001 0.000000e+000
      outer loop
         vertex 0.000000e+000 4.750000e-001 2.000000e-002
         vertex 1.139415e-003 4.619764e-001 0.000000e+000
         vertex 1.139415e-003 4.619764e-001 2.000000e-002
      endloop
   endfacet
   facet normal -9.730600e-001 -2.305519e-001 0.000000e+000
      outer loop
         vertex 1.139415e-003 4.619764e-001 2.000000e-002
         vertex 1.139415e-003 4.619764e-001 0.000000e+000
         vertex 4.523084e-003 4.493485e-001 0.000000e+000
      endloop
   endfacet
   facet normal -9.579706e-001 -2.868663e-001 0.000000e+000
      outer loop
         vertex 1.139415e-003 4.619764e-001 2.000000e-002
         vertex 4.523084e-003 4.493485e-001 0.000000e+000
         vertex 4.523084e-003 4.493485e-001 2.000000e-002
      endloop
   endfacet
   facet normal -9.182422e-001 -3.960194e-001 0.000000e+000
      outer loop
         vertex 4.523084e-003 4.493485e-001 2.000000e-002
         vertex 4.523084e-003 4.493485e-001 0.000000e+000
         vertex 1.004810e-002 4.375000e-001 0.000000e+000
      endloop
   endfacet
   facet normal -8.936031e-001 -4.488580e-001 0.000000e+000
      outer loop
         vertex 4.523084e-003 4.493485e-001 2.000000e-002
         vertex 1.004810e-002 4.375000e-001 0.000000e+000
         vertex 1.004810e-002 4.375000e-001 2.000000e-002
      endloop
   endfacet
   facet normal -8.355240e-001 -5.494540e-001 0.000000e+000
      outer loop
         vertex 1.004810e-002 4.375000e-001 2.000000e-002
         vertex 1.004810e-002 4.375000e-001 0.000000e+000
         vertex 1.754670e-002 4.267909e-001 0.000000e+000
      endloop
   endfacet
   facet normal -8.020838e-001 -5.972114e-001 0.000000e+000
      outer loop
         vertex 1.004810e-002 4.375000e-001 2.000000e-002
         vertex 1.754670e-002 4.267909e-001 0.000000e+000
         vertex 1.754670e-002 4.267909e-001 2.000000e-002
      endloop
   endfacet
   facet normal -7.274188e-001 -6.861938e-001 0.000000e+000
      outer loop
         vertex 1.754670e-002 4.267909e-001 2.000000e-002
         vertex 1.754670e-002 4.267909e-001 0.000000e+000
         vertex 2.679095e-002 4.175467e-001 0.000000e+000
      endloop
   endfacet
   facet normal -6.861938e-001 -7.274188e-001 0.000000e+000
      outer loop
         vertex 1.754670e-002 4.267909e-001 2.000000e-002
         vertex 2.679095e-002 4.175467e-001 0.000000e+000
         vertex 2.679095e-002 4.175467e-001 2.000000e-002
      endloop
   endfacet
   facet normal -5.972114e-001 -8.020838e-001 0.000000e+000
      outer loop
         vertex 2.679095e-002 4.175467e-001 2.000000e-002
         vertex 2.679095e-002 4.175467e-001 0.000000e+000
         vertex 3.750002e-002 4.100481e-001 0.000000e+000
      endloop
   endfacet
   facet normal -5.494540e-001 -8.355240e-001 0.000000e+000
      outer loop
         vertex 2.679095e-002 4.175467e-001 2.000000e-002
         vertex 3.750002e-002 4.100481e-001 0.000000e+000
         vertex 3.750002e-002 4.100481e-001 2.000000e-002
      endloop
   endfacet
   facet normal -4.488580e-001 -8.936031e-001 0.000000e+000
      outer loop
         vertex 3.750002e-002 4.100481e-001 2.000000e-002
         vertex 3.750002e-002 4.100481e-001 0.000000e+000
         vertex 4.934851e-002 4.045230e-001 0.000000e+000
      endloop
   endfacet
   facet normal -3.960194e-001 -9.182422e-001 0.000000e+000
      outer loop
         vertex 3.750002e-002 4.100481e-001 2.000000e-002
         vertex 4.934851e-002 4.045230e-001 0.000000e+000
         vertex 4.934851e-002 4.045230e-001 2.000000e-002
      endloop
   endfacet
   facet normal -2.868663e-001 -9.579706e-001 0.000000e+000
      outer loop
         vertex 4.934851e-002 4.045230e-001 2.000000e-002
         vertex 4.934851e-002 4.045230e-001 0.000000e+000
         vertex 6.197640e-002 4.011394e-001 0.000000e+000
      endloop
   endfacet
   facet normal -2.305519e-001 -9.730600e-001 0.000000e+000
      outer loop
         vertex 4.934851e-002 4.045230e-001 2.000000e-002
         vertex 6.197640e-002 4.011394e-001 0.000000e+000
         vertex 6.197640e-002 4.011394e-001 2.000000e-002
      endloop
   endfacet
   facet normal -1.161583e-001 -9.932307e-001 0.000000e+000
      outer loop
         vertex 6.197640e-002 4.011394e-001 2.000000e-002
         vertex 6.197640e-002 4.011394e-001 0.000000e+000
         vertex 7.500002e-002 4.000000e-001 0.000000e+000
      endloop
   endfacet
   facet normal -5.807913e-002 -9.983119e-001 0.000000e+000
      outer loop
         vertex 6.197640e-002 4.011394e-001 2.000000e-002
         vertex 7.500002e-002 4.000000e-001 0.000000e+000
         vertex 7.500002e-002 4.000000e-001 2.000000e-002
      endloop
   endfacet
   facet normal -1.091206e-016 -1.000000e+000 0.000000e+000
      outer loop
         vertex 1.991977e-001 4.000000e-001 2.000000e-002
         vertex 7.500002e-002 4.000000e-001 2.000000e-002
         vertex 1.991977e-001 4.000000e-001 0.000000e+000
      endloop
   endfacet
   facet normal -1.091206e-016 -1.000000e+000 0.000000e+000
      outer loop
         vertex 1.991977e-001 4.000000e-001 0.000000e+000
         vertex 7.500002e-002 4.000000e-001 2.000000e-002
         vertex 7.500002e-002 4.000000e-001 0.000000e+000
      endloop
   endfacet
   facet normal -1.000000e+000 0.000000e+000 0.000000e+000
      outer loop
         vertex 1.991977e-001 2.000000e-001 2.000000e-002
         vertex 1.991977e-001 4.000000e-001 2.000000e-002
         vertex 1.991977e-001 2.000000e-001 0.000000e+000
      endloop
   endfacet
   facet normal -1.000000e+000 0.000000e+000 0.000000e+000
      outer loop
         vertex 1.991977e-001 2.000000e-001 0.000000e+000
         vertex 1.991977e-001 4.000000e-001 2.000000e-002
         vertex 1.991977e-001 4.000000e-001 0.000000e+000
      endloop
   endfacet
   facet normal 0.000000e+000 -1.000000e+000 0.000000e+000
      outer loop
         vertex 3.991977e-001 2.000000e-001 2.000000e-002
         vertex 1.991977e-001 2.000000e-001 2.000000e-002
         vertex 3.991977e-001 2.000000e-001 0.000000e+000
      endloop
   endfacet
   facet normal 0.000000e+000 -1.000000e+000 0.000000e+000
      outer loop
         vertex 3.991977e-001 2.000000e-001 0.000000e+000
         vertex 1.991977e-001 2.000000e-001 2.000000e-002
         vertex 1.991977e-001 2.000000e-001 0.000000e+000
      endloop
   endfacet
   facet normal -1.000000e+000 0.000000e+000 0.000000e+000
      outer loop
         vertex 3.991977e-001 7.499999e-002 2.000000e-002
         vertex 3.991977e-001 2.000000e-001 2.000000e-002
         vertex 3.991977e-001 7.499999e-002 0.000000e+000
      endloop
   endfacet
   facet normal -1.000000e+000 0.000000e+000 0.000000e+000
      outer loop
         vertex 3.991977e-001 7.499999e-002 0.000000e+000
         vertex 3.991977e-001 2.000000e-001 2.000000e-002
         vertex 3.991977e-001 2.000000e-001 0.000000e+000
      endloop
   endfacet
   facet normal -9.983119e-001 -5.807913e-002 0.000000e+000
      outer loop
         vertex 3.991977e-001 7.499999e-002 2.000000e-002
         vertex 3.991977e-001 7.499999e-002 0.000000e+000
         vertex 4.003371e-001 6.197637e-002 0.000000e+000
      endloop
   endfacet
   facet normal -9.932307e-001 -1.161583e-001 0.000000e+000
      outer loop
         vertex 3.991977e-001 7.499999e-002 2.000000e-002
         vertex 4.003371e-001 6.197637e-002 0.000000e+000
         vertex 4.003371e-001 6.197637e-002 2.000000e-002
      endloop
   endfacet
   facet normal -9.730600e-001 -2.305519e-001 0.000000e+000
      outer loop
         vertex 4.003371e-001 6.197637e-002 2.000000e-002
         vertex 4.003371e-001 6.197637e-002 0.000000e+000
         vertex 4.037207e-001 4.934848e-002 0.000000e+000
      endloop
   endfacet
   facet normal -9.579706e-001 -2.868663e-001 0.000000e+000
      outer loop
         vertex 4.003371e-001 6.197637e-002 2.000000e-002
         vertex 4.037207e-001 4.934848e-002 0.000000e+000
         vertex 4.037207e-001 4.934848e-002 2.000000e-002
      endloop
   endfacet
   facet normal -9.182422e-001 -3.960194e-001 0.000000e+000
      outer loop
         vertex 4.037207e-001 4.934848e-002 2.000000e-002
         vertex 4.037207e-001 4.934848e-002 0.000000e+000
         vertex 4.092458e-001 3.749999e-002 0.000000e+000
      endloop
   endfacet
   facet normal -8.936031e-001 -4.488580e-001 0.000000e+000
      outer loop
         vertex 4.037207e-001 4.934848e-002 2.000000e-002
         vertex 4.092458e-001 3.749999e-002 0.000000e+000
         vertex 4.092458e-001 3.749999e-002 2.000000e-002
      endloop
   endfacet
   facet normal -8.355240e-001 -5.494540e-001 0.000000e+000
      outer loop
         vertex 4.092458e-001 3.749999e-002 2.000000e-002
         vertex 4.092458e-001 3.749999e-002 0.000000e+000
         vertex 4.167443e-001 2.679092e-002 0.000000e+000
      endloop
   endfacet
   facet normal -8.020838e-001 -5.972114e-001 0.000000e+000
      outer loop
         vertex 4.092458e-001 3.749999e-002 2.000000e-002
         vertex 4.167443e-001 2.679092e-002 0.000000e+000
         vertex 4.167443e-001 2.679092e-002 2.000000e-002
      endloop
   endfacet
   facet normal -7.274188e-001 -6.861938e-001 0.000000e+000
      outer loop
         vertex 4.167443e-001 2.679092e-002 2.000000e-002
         vertex 4.167443e-001 2.679092e-002 0.000000e+000
         vertex 4.259886e-001 1.754667e-002 0.000000e+000
      endloop
   endfacet
   facet normal -6.861938e-001 -7.274188e-001 0.000000e+000
      outer loop
         vertex 4.167443e-001 2.679092e-002 2.000000e-002
         vertex 4.259886e-001 1.754667e-002 0.000000e+000
         vertex 4.259886e-001 1.754667e-002 2.000000e-002
      endloop
   endfacet
   facet normal -5.972114e-001 -8.020838e-001 0.000000e+000
      outer loop
         vertex 4.259886e-001 1.754667e-002 2.000000e-002
         vertex 4.259886e-001 1.754667e-002 0.000000e+000
         vertex 4.366977e-001 1.004810e-002 0.000000e+000
      endloop
   endfacet
   facet normal -5.494540e-001 -8.355240e-001 0.000000e+000
      outer loop
         vertex 4.259886e-001 1.754667e-002 2.000000e-002
         vertex 4.366977e-001 1.004810e-002 0.000000e+000
         vertex 4.366977e-001 1.004810e-002 2.000000e-002
      endloop
   endfacet
   facet normal -4.488580e-001 -8.936031e-001 0.000000e+000
      outer loop
         vertex 4.366977e-001 1.004810e-002 2.000000e-002
         vertex 4.366977e-001 1.004810e-002 0.000000e+000
         vertex 4.485462e-001 4.523056e-003 0.000000e+000
      endloop
   endfacet
   facet normal -3.960194e-001 -9.182422e-001 0.000000e+000
      outer loop
         vertex 4.366977e-001 1.004810e-002 2.000000e-002
         vertex 4.485462e-001 4.523056e-003 0.000000e+000
         vertex 4.485462e-001 4.523056e-003 2.000000e-002
      endloop
   endfacet
   facet normal -2.868663e-001 -9.579706e-001 0.000000e+000
      outer loop
         vertex 4.485462e-001 4.523056e-003 2.000000e-002
         vertex 4.485462e-001 4.523056e-003 0.000000e+000
         vertex 4.611741e-001 1.139415e-003 0.000000e+000
      endloop
   endfacet
   facet normal -2.305519e-001 -9.730600e-001 0.000000e+000
      outer loop
         vertex 4.485462e-001 4.523056e-003 2.000000e-002
         vertex 4.611741e-001 1.139415e-003 0.000000e+000
         vertex 4.611741e-001 1.139415e-003 2.000000e-002
      endloop
   endfacet
   facet normal -1.161583e-001 -9.932307e-001 0.000000e+000
      outer loop
         vertex 4.611741e-001 1.139415e-003 2.000000e-002
         vertex 4.611741e-001 1.139415e-003 0.000000e+000
         vertex 4.741977e-001 0.000000e+000 0.000000e+000
      endloop
   endfacet
   facet normal -5.807913e-002 -9.983119e-001 0.000000e+000
      outer loop
         vertex 4.611741e-001 1.139415e-003 2.000000e-002
         vertex 4.741977e-001 0.000000e+000 0.000000e+000
         vertex 4.741977e-001 0.000000e+000 2.000000e-002
      endloop
   endfacet
   facet normal 0.000000e+000 -1.000000e+000 0.000000e+000
      outer loop
         vertex 5.341977e-001 0.000000e+000 2.000000e-002
         vertex 4.741977e-001 0.000000e+000 2.000000e-002
         vertex 5.341977e-001 0.000000e+000 0.000000e+000
      endloop
   endfacet
   facet normal 0.000000e+000 -1.000000e+000 0.000000e+000
      outer loop
         vertex 5.341977e-001 0.000000e+000 0.000000e+000
         vertex 4.741977e-001 0.000000e+000 2.000000e-002
         vertex 4.741977e-001 0.000000e+000 0.000000e+000
      endloop
   endfacet
   facet normal 5.807913e-002 -9.983119e-001 0.000000e+000
      outer loop
         vertex 5.341977e-001 0.000000e+000 2.000000e-002
         vertex 5.341977e-001 0.000000e+000 0.000000e+000
         vertex 5.472213e-001 1.139415e-003 0.000000e+000
      endloop
   endfacet
   facet normal 1.161583e-001 -9.932307e-001 0.000000e+000
      outer loop
         vertex 5.341977e-001 0.000000e+000 2.000000e-002
         vertex 5.472213e-001 1.139415e-003 0.000000e+000
         vertex 5.472213e-001 1.139415e-003 2.000000e-002
      endloop
   endfacet
   facet normal 2.305519e-001 -9.730600e-001 0.000000e+000
      outer loop
         vertex 5.472213e-001 1.139415e-003 2.000000e-002
         vertex 5.472213e-001 1.139415e-003 0.000000e+000
         vertex 5.598492e-001 4.523056e-003 0.000000e+000
      endloop
   endfacet
   facet normal 2.868663e-001 -9.579706e-001 0.000000e+000
      outer loop
         vertex 5.472213e-001 1.139415e-003 2.000000e-002
         vertex 5.598492e-001 4.523056e-003 0.000000e+000
         vertex 5.598492e-001 4.523056e-003 2.000000e-002
      endloop
   endfacet
   facet normal 3.960194e-001 -9.182422e-001 0.000000e+000
      outer loop
         vertex 5.598492e-001 4.523056e-003 2.000000e-002
         vertex 5.598492e-001 4.523056e-003 0.000000e+000
         vertex 5.716977e-001 1.004810e-002 0.000000e+000
      endloop
   endfacet
   facet normal 4.488580e-001 -8.936031e-001 0.000000e+000
      outer loop
         vertex 5.598492e-001 4.523056e-003 2.000000e-002
         vertex 5.716977e-001 1.004810e-002 0.000000e+000
         vertex 5.716977e-001 1.004810e-002 2.000000e-002
      endloop
   endfacet
   facet normal 5.494540e-001 -8.355240e-001 0.000000e+000
      outer loop
         vertex 5.716977e-001 1.004810e-002 2.000000e-002
         vertex 5.716977e-001 1.004810e-002 0.000000e+000
         vertex 5.824068e-001 1.754667e-002 0.000000e+000
      endloop
   endfacet
   facet normal 5.972114e-001 -8.020838e-001 0.000000e+000
      outer loop
         vertex 5.716977e-001 1.004810e-002 2.000000e-002
         vertex 5.824068e-001 1.754667e-002 0.000000e+000
         vertex 5.824068e-001 1.754667e-002 2.000000e-002
      endloop
   endfacet
   facet normal 6.861938e-001 -7.274188e-001 0.000000e+000
      outer loop
         vertex 5.824068e-001 1.754667e-002 2.000000e-002
         vertex 5.824068e-001 1.754667e-002 0.000000e+000
         vertex 5.916510e-001 2.679092e-002 0.000000e+000
      endloop
   endfacet
   facet normal 7.274188e-001 -6.861938e-001 0.000000e+000
      outer loop
         vertex 5.824068e-001 1.754667e-002 2.000000e-002
         vertex 5.916510e-001 2.679092e-002 0.000000e+000
         vertex 5.916510e-001 2.679092e-002 2.000000e-002
      endloop
   endfacet
   facet normal 8.020838e-001 -5.972114e-001 0.000000e+000
      outer loop
         vertex 5.916510e-001 2.679092e-002 2.000000e-002
         vertex 5.916510e-001 2.679092e-002 0.000000e+000
         vertex 5.991496e-001 3.749999e-002 0.000000e+000
      endloop
   endfacet
   facet normal 8.355240e-001 -5.494540e-001 0.000000e+000
      outer loop
         vertex 5.916510e-001 2.679092e-002 2.000000e-002
         vertex 5.991496e-001 3.749999e-002 0.000000e+000
         vertex 5.991496e-001 3.749999e-002 2.000000e-002
      endloop
   endfacet
   facet normal 8.936031e-001 -4.488580e-001 0.000000e+000
      outer loop
         vertex 5.991496e-001 3.749999e-002 2.000000e-002
         vertex 5.991496e-001 3.749999e-002 0.000000e+000
         vertex 6.046746e-001 4.934848e-002 0.000000e+000
      endloop
   endfacet
   facet normal 9.182422e-001 -3.960194e-001 0.000000e+000
      outer loop
         vertex 5.991496e-001 3.749999e-002 2.000000e-002
         vertex 6.046746e-001 4.934848e-002 0.000000e+000
         vertex 6.046746e-001 4.934848e-002 2.000000e-002
      endloop
   endfacet
   facet normal 9.579706e-001 -2.868663e-001 0.000000e+000
      outer loop
         vertex 6.046746e-001 4.934848e-002 2.000000e-002
         vertex 6.046746e-001 4.934848e-002 0.000000e+000
         vertex 6.080582e-001 6.197637e-002 0.000000e+000
      endloop
   endfacet
   facet normal 9.730600e-001 -2.305519e-001 0.000000e+000
      outer loop
         vertex 6.046746e-001 4.934848e-002 2.000000e-002
         vertex 6.080582e-001 6.197637e-002 0.000000e+000
         vertex 6.080582e-001 6.197637e-002 2.000000e-002
      endloop
   endfacet
   facet normal 9.932307e-001 -1.161583e-001 0.000000e+000
      outer loop
         vertex 6.080582e-001 6.197637e-002 2.000000e-002
         vertex 6.080582e-001 6.197637e-002 0.000000e+000
         vertex 6.091977e-001 7.499999e-002 0.000000e+000
      endloop
   endfacet
   facet normal 9.983119e-001 -5.807913e-002 0.000000e+000
      outer loop
         vertex 6.080582e-001 6.197637e-002 2.000000e-002
         vertex 6.091977e-001 7.499999e-002 0.000000e+000
         vertex 6.091977e-001 7.499999e-002 2.000000e-002
      endloop
   endfacet
   facet normal 1.000000e+000 1.084202e-016 0.000000e+000
      outer loop
         vertex 6.091977e-001 2.000000e-001 2.000000e-002
         vertex 6.091977e-001 7.499999e-002 2.000000e-002
         vertex 6.091977e-001 2.000000e-001 0.000000e+000
      endloop
   endfacet
   facet normal 1.000000e+000 1.084202e-016 0.000000e+000
      outer loop
         vertex 6.091977e-001 2.000000e-001 0.000000e+000
         vertex 6.091977e-001 7.499999e-002 2.000000e-002
         vertex 6.091977e-001 7.499999e-002 0.000000e+000
      endloop
   endfacet
   facet normal -2.710505e-016 -1.000000e+000 0.000000e+000
      outer loop
         vertex 8.091977e-001 2.000000e-001 2.000000e-002
         vertex 6.091977e-001 2.000000e-001 2.000000e-002
         vertex 8.091977e-001 2.000000e-001 0.000000e+000
      endloop
   endfacet
   facet normal -2.710505e-016 -1.000000e+000 0.000000e+000
      outer loop
         vertex 8.091977e-001 2.000000e-001 0.000000e+000
         vertex 6.091977e-001 2.000000e-001 2.000000e-002
         vertex 6.091977e-001 2.000000e-001 0.000000e+000
      endloop
   endfacet
   facet normal 1.000000e+000 -8.886903e-017 0.000000e+000
      outer loop
         vertex 8.091977e-001 8.100000e-001 2.000000e-002
         vertex 8.091977e-001 2.000000e-001 2.000000e-002
         vertex 8.091977e-001 8.100000e-001 0.000000e+000
      endloop
   endfacet
   facet normal 1.000000e+000 -8.886903e-017 0.000000e+000
      outer loop
         vertex 8.091977e-001 8.100000e-001 0.000000e+000
         vertex 8.091977e-001 2.000000e-001 2.000000e-002
         vertex 8.091977e-001 2.000000e-001 0.000000e+000
      endloop
   endfacet
   facet normal 0.000000e+000 0.000000e+000 1.000000e+000
      outer loop
         vertex 8.091977e-001 8.100000e-001 2.000000e-002
         vertex 1.991977e-001 8.100000e-001 2.000000e-002
         vertex 1.991977e-001 6.100000e-001 2.000000e-002
      endloop
   endfacet
   facet normal 0.000000e+000 0.000000e+000 1.000000e+000
      outer loop
         vertex 1.991977e-001 6.100000e-001 2.000000e-002
         vertex 0.000000e+000 5.350000e-001 2.000000e-002
         vertex 0.000000e+000 4.750000e-001 2.000000e-002
      endloop
   endfacet
   facet normal 0.000000e+000 0.000000e+000 1.000000e+000
      outer loop
         vertex 8.091977e-001 2.000000e-001 2.000000e-002
         vertex 8.091977e-001 8.100000e-001 2.000000e-002
         vertex 6.091977e-001 2.000000e-001 2.000000e-002
      endloop
   endfacet
   facet normal 0.000000e+000 0.000000e+000 1.000000e+000
      outer loop
         vertex 6.091977e-001 2.000000e-001 2.000000e-002
         vertex 8.091977e-001 8.100000e-001 2.000000e-002
         vertex 1.991977e-001 6.100000e-001 2.000000e-002
      endloop
   endfacet
   facet normal 0.000000e+000 0.000000e+000 1.000000e+000
      outer loop
         vertex 6.091977e-001 2.000000e-001 2.000000e-002
         vertex 1.991977e-001 6.100000e-001 2.000000e-002
         vertex 3.991977e-001 2.000000e-001 2.000000e-002
      endloop
   endfacet
   facet normal 0.000000e+000 0.000000e+000 1.000000e+000
      outer loop
         vertex 3.991977e-001 2.000000e-001 2.000000e-002
         vertex 1.991977e-001 6.100000e-001 2.000000e-002
         vertex 1.991977e-001 4.000000e-001 2.000000e-002
      endloop
   endfacet
   facet normal 0.000000e+000 0.000000e+000 1.000000e+000
      outer loop
         vertex 3.991977e-001 2.000000e-001 2.000000e-002
         vertex 1.991977e-001 4.000000e-001 2.000000e-002
         vertex 1.991977e-001 2.000000e-001 2.000000e-002
      endloop
   endfacet
   facet normal 0.000000e+000 0.000000e+000 1.000000e+000
      outer loop
         vertex 1.004810e-002 5.725000e-001 2.000000e-002
         vertex 4.523084e-003 5.606515e-001 2.000000e-002
         vertex 6.197640e-002 6.088606e-001 2.000000e-002
      endloop
   endfacet
   facet normal 0.000000e+000 0.000000e+000 1.000000e+000
      outer loop
         vertex 4.934851e-002 6.054770e-001 2.000000e-002
         vertex 3.750002e-002 5.999519e-001 2.000000e-002
         vertex 2.679095e-002 5.924534e-001 2.000000e-002
      endloop
   endfacet
   facet normal 0.000000e+000 0.000000e+000 1.000000e+000
      outer loop
         vertex 1.991977e-001 6.100000e-001 2.000000e-002
         vertex 7.500002e-002 6.100000e-001 2.000000e-002
         vertex 0.000000e+000 5.350000e-001 2.000000e-002
      endloop
   endfacet
   facet normal 0.000000e+000 0.000000e+000 1.000000e+000
      outer loop
         vertex 0.000000e+000 5.350000e-001 2.000000e-002
         vertex 7.500002e-002 6.100000e-001 2.000000e-002
         vertex 6.197640e-002 6.088606e-001 2.000000e-002
      endloop
   endfacet
   facet normal 0.000000e+000 0.000000e+000 1.000000e+000
      outer loop
         vertex 0.000000e+000 5.350000e-001 2.000000e-002
         vertex 6.197640e-002 6.088606e-001 2.000000e-002
         vertex 1.139415e-003 5.480236e-001 2.000000e-002
      endloop
   endfacet
   facet normal 0.000000e+000 0.000000e+000 1.000000e+000
      outer loop
         vertex 1.139415e-003 5.480236e-001 2.000000e-002
         vertex 6.197640e-002 6.088606e-001 2.000000e-002
         vertex 4.523084e-003 5.606515e-001 2.000000e-002
      endloop
   endfacet
   facet normal 0.000000e+000 0.000000e+000 1.000000e+000
      outer loop
         vertex 3.750002e-002 4.100481e-001 2.000000e-002
         vertex 4.934851e-002 4.045230e-001 2.000000e-002
         vertex 1.991977e-001 6.100000e-001 2.000000e-002
      endloop
   endfacet
   facet normal 0.000000e+000 0.000000e+000 1.000000e+000
      outer loop
         vertex 3.991977e-001 7.499999e-002 2.000000e-002
         vertex 4.003371e-001 6.197637e-002 2.000000e-002
         vertex 4.741977e-001 0.000000e+000 2.000000e-002
      endloop
   endfacet
   facet normal 0.000000e+000 0.000000e+000 1.000000e+000
      outer loop
         vertex 4.741977e-001 0.000000e+000 2.000000e-002
         vertex 4.003371e-001 6.197637e-002 2.000000e-002
         vertex 4.037207e-001 4.934848e-002 2.000000e-002
      endloop
   endfacet
   facet normal 0.000000e+000 0.000000e+000 1.000000e+000
      outer loop
         vertex 4.037207e-001 4.934848e-002 2.000000e-002
         vertex 4.092458e-001 3.749999e-002 2.000000e-002
         vertex 4.741977e-001 0.000000e+000 2.000000e-002
      endloop
   endfacet
   facet normal 0.000000e+000 0.000000e+000 1.000000e+000
      outer loop
         vertex 4.741977e-001 0.000000e+000 2.000000e-002
         vertex 4.092458e-001 3.749999e-002 2.000000e-002
         vertex 4.167443e-001 2.679092e-002 2.000000e-002
      endloop
   endfacet
   facet normal 0.000000e+000 0.000000e+000 1.000000e+000
      outer loop
         vertex 4.741977e-001 0.000000e+000 2.000000e-002
         vertex 4.167443e-001 2.679092e-002 2.000000e-002
         vertex 4.259886e-001 1.754667e-002 2.000000e-002
      endloop
   endfacet
   facet normal 0.000000e+000 0.000000e+000 1.000000e+000
      outer loop
         vertex 3.991977e-001 7.499999e-002 2.000000e-002
         vertex 4.741977e-001 0.000000e+000 2.000000e-002
         vertex 3.991977e-001 2.000000e-001 2.000000e-002
      endloop
   endfacet
   facet normal 0.000000e+000 0.000000e+000 1.000000e+000
      outer loop
         vertex 3.991977e-001 2.000000e-001 2.000000e-002
         vertex 4.741977e-001 0.000000e+000 2.000000e-002
         vertex 5.341977e-001 0.000000e+000 2.000000e-002
      endloop
   endfacet
   facet normal 0.000000e+000 0.000000e+000 1.000000e+000
      outer loop
         vertex 3.991977e-001 2.000000e-001 2.000000e-002
         vertex 5.341977e-001 0.000000e+000 2.000000e-002
         vertex 5.472213e-001 1.139415e-003 2.000000e-002
      endloop
   endfacet
   facet normal 0.000000e+000 0.000000e+000 1.000000e+000
      outer loop
         vertex 4.934851e-002 6.054770e-001 2.000000e-002
         vertex 2.679095e-002 5.924534e-001 2.000000e-002
         vertex 6.197640e-002 6.088606e-001 2.000000e-002
      endloop
   endfacet
   facet normal 0.000000e+000 0.000000e+000 1.000000e+000
      outer loop
         vertex 6.197640e-002 6.088606e-001 2.000000e-002
         vertex 2.679095e-002 5.924534e-001 2.000000e-002
         vertex 1.754670e-002 5.832091e-001 2.000000e-002
      endloop
   endfacet
   facet normal 0.000000e+000 0.000000e+000 1.000000e+000
      outer loop
         vertex 6.197640e-002 6.088606e-001 2.000000e-002
         vertex 1.754670e-002 5.832091e-001 2.000000e-002
         vertex 1.004810e-002 5.725000e-001 2.000000e-002
      endloop
   endfacet
   facet normal 0.000000e+000 0.000000e+000 1.000000e+000
      outer loop
         vertex 0.000000e+000 4.750000e-001 2.000000e-002
         vertex 1.139415e-003 4.619764e-001 2.000000e-002
         vertex 1.991977e-001 6.100000e-001 2.000000e-002
      endloop
   endfacet
   facet normal 0.000000e+000 0.000000e+000 1.000000e+000
      outer loop
         vertex 1.991977e-001 6.100000e-001 2.000000e-002
         vertex 1.139415e-003 4.619764e-001 2.000000e-002
         vertex 4.523084e-003 4.493485e-001 2.000000e-002
      endloop
   endfacet
   facet normal 0.000000e+000 0.000000e+000 1.000000e+000
      outer loop
         vertex 1.991977e-001 6.100000e-001 2.000000e-002
         vertex 4.523084e-003 4.493485e-001 2.000000e-002
         vertex 1.004810e-002 4.375000e-001 2.000000e-002
      endloop
   endfacet
   facet normal 0.000000e+000 0.000000e+000 1.000000e+000
      outer loop
         vertex 4.934851e-002 4.045230e-001 2.000000e-002
         vertex 6.197640e-002 4.011394e-001 2.000000e-002
         vertex 1.991977e-001 6.100000e-001 2.000000e-002
      endloop
   endfacet
   facet normal 0.000000e+000 0.000000e+000 1.000000e+000
      outer loop
         vertex 1.991977e-001 6.100000e-001 2.000000e-002
         vertex 6.197640e-002 4.011394e-001 2.000000e-002
         vertex 7.500002e-002 4.000000e-001 2.000000e-002
      endloop
   endfacet
   facet normal 0.000000e+000 0.000000e+000 1.000000e+000
      outer loop
         vertex 1.991977e-001 6.100000e-001 2.000000e-002
         vertex 7.500002e-002 4.000000e-001 2.000000e-002
         vertex 1.991977e-001 4.000000e-001 2.000000e-002
      endloop
   endfacet
   facet normal 0.000000e+000 0.000000e+000 1.000000e+000
      outer loop
         vertex 4.259886e-001 1.754667e-002 2.000000e-002
         vertex 4.366977e-001 1.004810e-002 2.000000e-002
         vertex 4.741977e-001 0.000000e+000 2.000000e-002
      endloop
   endfacet
   facet normal 0.000000e+000 0.000000e+000 1.000000e+000
      outer loop
         vertex 4.741977e-001 0.000000e+000 2.000000e-002
         vertex 4.366977e-001 1.004810e-002 2.000000e-002
         vertex 4.485462e-001 4.523056e-003 2.000000e-002
      endloop
   endfacet
   facet normal 0.000000e+000 0.000000e+000 1.000000e+000
      outer loop
         vertex 4.741977e-001 0.000000e+000 2.000000e-002
         vertex 4.485462e-001 4.523056e-003 2.000000e-002
         vertex 4.611741e-001 1.139415e-003 2.000000e-002
      endloop
   endfacet
   facet normal 0.000000e+000 0.000000e+000 1.000000e+000
      outer loop
         vertex 5.472213e-001 1.139415e-003 2.000000e-002
         vertex 5.598492e-001 4.523056e-003 2.000000e-002
         vertex 3.991977e-001 2.000000e-001 2.000000e-002
      endloop
   endfacet
   facet normal 0.000000e+000 0.000000e+000 1.000000e+000
      outer loop
         vertex 3.991977e-001 2.000000e-001 2.000000e-002
         vertex 5.598492e-001 4.523056e-003 2.000000e-002
         vertex 5.716977e-001 1.004810e-002 2.000000e-002
      endloop
   endfacet
   facet normal 0.000000e+000 0.000000e+000 1.000000e+000
      outer loop
         vertex 3.991977e-001 2.000000e-001 2.000000e-002
         vertex 5.716977e-001 1.004810e-002 2.000000e-002
         vertex 5.824068e-001 1.754667e-002 2.000000e-002
      endloop
   endfacet
   facet normal 0.000000e+000 0.000000e+000 1.000000e+000
      outer loop
         vertex 1.004810e-002 4.375000e-001 2.000000e-002
         vertex 1.754670e-002 4.267909e-001 2.000000e-002
         vertex 1.991977e-001 6.100000e-001 2.000000e-002
      endloop
   endfacet
   facet normal 0.000000e+000 0.000000e+000 1.000000e+000
      outer loop
         vertex 1.991977e-001 6.100000e-001 2.000000e-002
         vertex 1.754670e-002 4.267909e-001 2.000000e-002
         vertex 2.679095e-002 4.175467e-001 2.000000e-002
      endloop
   endfacet
   facet normal 0.000000e+000 0.000000e+000 1.000000e+000
      outer loop
         vertex 1.991977e-001 6.100000e-001 2.000000e-002
         vertex 2.679095e-002 4.175467e-001 2.000000e-002
         vertex 3.750002e-002 4.100481e-001 2.000000e-002
      endloop
   endfacet
   facet normal 0.000000e+000 0.000000e+000 1.000000e+000
      outer loop
         vertex 6.046746e-001 4.934848e-002 2.000000e-002
         vertex 6.080582e-001 6.197637e-002 2.000000e-002
         vertex 3.991977e-001 2.000000e-001 2.000000e-002
      endloop
   endfacet
   facet normal 0.000000e+000 0.000000e+000 1.000000e+000
      outer loop
         vertex 3.991977e-001 2.000000e-001 2.000000e-002
         vertex 6.080582e-001 6.197637e-002 2.000000e-002
         vertex 6.091977e-001 7.499999e-002 2.000000e-002
      endloop
   endfacet
   facet normal 0.000000e+000 0.000000e+000 1.000000e+000
      outer loop
         vertex 3.991977e-001 2.000000e-001 2.000000e-002
         vertex 6.091977e-001 7.499999e-002 2.000000e-002
         vertex 6.091977e-001 2.000000e-001 2.000000e-002
      endloop
   endfacet
   facet normal 0.000000e+000 0.000000e+000 1.000000e+000
      outer loop
         vertex 5.824068e-001 1.754667e-002 2.000000e-002
         vertex 5.916510e-001 2.679092e-002 2.000000e-002
         vertex 3.991977e-001 2.000000e-001 2.000000e-002
      endloop
   endfacet
   facet normal 0.000000e+000 0.000000e+000 1.000000e+000
      outer loop
         vertex 3.991977e-001 2.000000e-001 2.000000e-002
         vertex 5.916510e-001 2.679092e-002 2.000000e-002
         vertex 5.991496e-001 3.749999e-002 2.000000e-002
      endloop
   endfacet
   facet normal 0.000000e+000 0.000000e+000 1.000000e+000
      outer loop
         vertex 3.991977e-001 2.000000e-001 2.000000e-002
         vertex 5.991496e-001 3.749999e-002 2.000000e-002
         vertex 6.046746e-001 4.934848e-002 2.000000e-002
      endloop
   endfacet
   facet normal 0.000000e+000 0.000000e+000 -1.000000e+000
      outer loop
         vertex 7.500002e-002 6.100000e-001 0.000000e+000
         vertex 1.991977e-001 6.100000e-001 0.000000e+000
         vertex 0.000000e+000 5.350000e-001 0.000000e+000
      endloop
   endfacet
   facet normal 0.000000e+000 0.000000e+000 -1.000000e+000
      outer loop
         vertex 3.991977e-001 7.499999e-002 0.000000e+000
         vertex 3.991977e-001 2.000000e-001 0.000000e+000
         vertex 4.741977e-001 0.000000e+000 0.000000e+000
      endloop
   endfacet
   facet normal 0.000000e+000 0.000000e+000 -1.000000e+000
      outer loop
         vertex 1.991977e-001 6.100000e-001 0.000000e+000
         vertex 1.991977e-001 8.100000e-001 0.000000e+000
         vertex 6.091977e-001 2.000000e-001 0.000000e+000
      endloop
   endfacet
   facet normal 0.000000e+000 0.000000e+000 -1.000000e+000
      outer loop
         vertex 6.091977e-001 2.000000e-001 0.000000e+000
         vertex 1.991977e-001 8.100000e-001 0.000000e+000
         vertex 8.091977e-001 8.100000e-001 0.000000e+000
      endloop
   endfacet
   facet normal 0.000000e+000 0.000000e+000 -1.000000e+000
      outer loop
         vertex 6.091977e-001 2.000000e-001 0.000000e+000
         vertex 8.091977e-001 8.100000e-001 0.000000e+000
         vertex 8.091977e-001 2.000000e-001 0.000000e+000
      endloop
   endfacet
   facet normal 0.000000e+000 0.000000e+000 -1.000000e+000
      outer loop
         vertex 3.991977e-001 2.000000e-001 0.000000e+000
         vertex 6.091977e-001 2.000000e-001 0.000000e+000
         vertex 6.091977e-001 7.499999e-002 0.000000e+000
      endloop
   endfacet
   facet normal 0.000000e+000 0.000000e+000 -1.000000e+000
      outer loop
         vertex 0.000000e+000 5.350000e-001 0.000000e+000
         vertex 1.991977e-001 6.100000e-001 0.000000e+000
         vertex 0.000000e+000 4.750000e-001 0.000000e+000
      endloop
   endfacet
   facet normal 0.000000e+000 0.000000e+000 -1.000000e+000
      outer loop
         vertex 3.991977e-001 2.000000e-001 0.000000e+000
         vertex 1.991977e-001 2.000000e-001 0.000000e+000
         vertex 1.991977e-001 4.000000e-001 0.000000e+000
      endloop
   endfacet
   facet normal 0.000000e+000 0.000000e+000 -1.000000e+000
      outer loop
         vertex 6.091977e-001 2.000000e-001 0.000000e+000
         vertex 3.991977e-001 2.000000e-001 0.000000e+000
         vertex 1.991977e-001 6.100000e-001 0.000000e+000
      endloop
   endfacet
   facet normal 0.000000e+000 0.000000e+000 -1.000000e+000
      outer loop
         vertex 1.991977e-001 6.100000e-001 0.000000e+000
         vertex 3.991977e-001 2.000000e-001 0.000000e+000
         vertex 1.991977e-001 4.000000e-001 0.000000e+000
      endloop
   endfacet
   facet normal 0.000000e+000 0.000000e+000 -1.000000e+000
      outer loop
         vertex 1.991977e-001 6.100000e-001 0.000000e+000
         vertex 1.991977e-001 4.000000e-001 0.000000e+000
         vertex 7.500002e-002 4.000000e-001 0.000000e+000
      endloop
   endfacet
   facet normal 0.000000e+000 0.000000e+000 -1.000000e+000
      outer loop
         vertex 3.991977e-001 2.000000e-001 0.000000e+000
         vertex 5.716977e-001 1.004810e-002 0.000000e+000
         vertex 5.598492e-001 4.523056e-003 0.000000e+000
      endloop
   endfacet
   facet normal 0.000000e+000 0.000000e+000 -1.000000e+000
      outer loop
         vertex 4.092458e-001 3.749999e-002 0.000000e+000
         vertex 4.741977e-001 0.000000e+000 0.000000e+000
         vertex 4.167443e-001 2.679092e-002 0.000000e+000
      endloop
   endfacet
   facet normal 0.000000e+000 0.000000e+000 -1.000000e+000
      outer loop
         vertex 4.167443e-001 2.679092e-002 0.000000e+000
         vertex 4.741977e-001 0.000000e+000 0.000000e+000
         vertex 4.259886e-001 1.754667e-002 0.000000e+000
      endloop
   endfacet
   facet normal 0.000000e+000 0.000000e+000 -1.000000e+000
      outer loop
         vertex 4.092458e-001 3.749999e-002 0.000000e+000
         vertex 4.037207e-001 4.934848e-002 0.000000e+000
         vertex 4.741977e-001 0.000000e+000 0.000000e+000
      endloop
   endfacet
   facet normal 0.000000e+000 0.000000e+000 -1.000000e+000
      outer loop
         vertex 4.741977e-001 0.000000e+000 0.000000e+000
         vertex 4.037207e-001 4.934848e-002 0.000000e+000
         vertex 4.003371e-001 6.197637e-002 0.000000e+000
      endloop
   endfacet
   facet normal 0.000000e+000 0.000000e+000 -1.000000e+000
      outer loop
         vertex 4.741977e-001 0.000000e+000 0.000000e+000
         vertex 4.003371e-001 6.197637e-002 0.000000e+000
         vertex 3.991977e-001 7.499999e-002 0.000000e+000
      endloop
   endfacet
   facet normal 0.000000e+000 0.000000e+000 -1.000000e+000
      outer loop
         vertex 5.598492e-001 4.523056e-003 0.000000e+000
         vertex 5.472213e-001 1.139415e-003 0.000000e+000
         vertex 3.991977e-001 2.000000e-001 0.000000e+000
      endloop
   endfacet
   facet normal 0.000000e+000 0.000000e+000 -1.000000e+000
      outer loop
         vertex 3.991977e-001 2.000000e-001 0.000000e+000
         vertex 5.472213e-001 1.139415e-003 0.000000e+000
         vertex 5.341977e-001 0.000000e+000 0.000000e+000
      endloop
   endfacet
   facet normal 0.000000e+000 0.000000e+000 -1.000000e+000
      outer loop
         vertex 3.991977e-001 2.000000e-001 0.000000e+000
         vertex 5.341977e-001 0.000000e+000 0.000000e+000
         vertex 4.741977e-001 0.000000e+000 0.000000e+000
      endloop
   endfacet
   facet normal 0.000000e+000 0.000000e+000 -1.000000e+000
      outer loop
         vertex 4.611741e-001 1.139415e-003 0.000000e+000
         vertex 4.485462e-001 4.523056e-003 0.000000e+000
         vertex 4.741977e-001 0.000000e+000 0.000000e+000
      endloop
   endfacet
   facet normal 0.000000e+000 0.000000e+000 -1.000000e+000
      outer loop
         vertex 4.741977e-001 0.000000e+000 0.000000e+000
         vertex 4.485462e-001 4.523056e-003 0.000000e+000
         vertex 4.366977e-001 1.004810e-002 0.000000e+000
      endloop
   endfacet
   facet normal 0.000000e+000 0.000000e+000 -1.000000e+000
      outer loop
         vertex 4.741977e-001 0.000000e+000 0.000000e+000
         vertex 4.366977e-001 1.004810e-002 0.000000e+000
         vertex 4.259886e-001 1.754667e-002 0.000000e+000
      endloop
   endfacet
   facet normal 0.000000e+000 0.000000e+000 -1.000000e+000
      outer loop
         vertex 7.500002e-002 6.100000e-001 0.000000e+000
         vertex 0.000000e+000 5.350000e-001 0.000000e+000
         vertex 6.197640e-002 6.088606e-001 0.000000e+000
      endloop
   endfacet
   facet normal 0.000000e+000 0.000000e+000 -1.000000e+000
      outer loop
         vertex 6.197640e-002 6.088606e-001 0.000000e+000
         vertex 0.000000e+000 5.350000e-001 0.000000e+000
         vertex 1.139415e-003 5.480236e-001 0.000000e+000
      endloop
   endfacet
   facet normal 0.000000e+000 0.000000e+000 -1.000000e+000
      outer loop
         vertex 6.197640e-002 6.088606e-001 0.000000e+000
         vertex 1.139415e-003 5.480236e-001 0.000000e+000
         vertex 4.523084e-003 5.606515e-001 0.000000e+000
      endloop
   endfacet
   facet normal 0.000000e+000 0.000000e+000 -1.000000e+000
      outer loop
         vertex 6.197640e-002 6.088606e-001 0.000000e+000
         vertex 2.679095e-002 5.924534e-001 0.000000e+000
         vertex 4.934851e-002 6.054770e-001 0.000000e+000
      endloop
   endfacet
   facet normal 0.000000e+000 0.000000e+000 -1.000000e+000
      outer loop
         vertex 4.934851e-002 6.054770e-001 0.000000e+000
         vertex 2.679095e-002 5.924534e-001 0.000000e+000
         vertex 3.750002e-002 5.999519e-001 0.000000e+000
      endloop
   endfacet
   facet normal 0.000000e+000 0.000000e+000 -1.000000e+000
      outer loop
         vertex 6.091977e-001 7.499999e-002 0.000000e+000
         vertex 6.080582e-001 6.197637e-002 0.000000e+000
         vertex 3.991977e-001 2.000000e-001 0.000000e+000
      endloop
   endfacet
   facet normal 0.000000e+000 0.000000e+000 -1.000000e+000
      outer loop
         vertex 3.991977e-001 2.000000e-001 0.000000e+000
         vertex 6.080582e-001 6.197637e-002 0.000000e+000
         vertex 6.046746e-001 4.934848e-002 0.000000e+000
      endloop
   endfacet
   facet normal 0.000000e+000 0.000000e+000 -1.000000e+000
      outer loop
         vertex 3.991977e-001 2.000000e-001 0.000000e+000
         vertex 6.046746e-001 4.934848e-002 0.000000e+000
         vertex 5.991496e-001 3.749999e-002 0.000000e+000
      endloop
   endfacet
   facet normal 0.000000e+000 0.000000e+000 -1.000000e+000
      outer loop
         vertex 7.500002e-002 4.000000e-001 0.000000e+000
         vertex 6.197640e-002 4.011394e-001 0.000000e+000
         vertex 1.991977e-001 6.100000e-001 0.000000e+000
      endloop
   endfacet
   facet normal 0.000000e+000 0.000000e+000 -1.000000e+000
      outer loop
         vertex 1.991977e-001 6.100000e-001 0.000000e+000
         vertex 6.197640e-002 4.011394e-001 0.000000e+000
         vertex 4.934851e-002 4.045230e-001 0.000000e+000
      endloop
   endfacet
   facet normal 0.000000e+000 0.000000e+000 -1.000000e+000
      outer loop
         vertex 1.991977e-001 6.100000e-001 0.000000e+000
         vertex 4.934851e-002 4.045230e-001 0.000000e+000
         vertex 3.750002e-002 4.100481e-001 0.000000e+000
      endloop
   endfacet
   facet normal 0.000000e+000 0.000000e+000 -1.000000e+000
      outer loop
         vertex 3.750002e-002 4.100481e-001 0.000000e+000
         vertex 2.679095e-002 4.175467e-001 0.000000e+000
         vertex 1.991977e-001 6.100000e-001 0.000000e+000
      endloop
   endfacet
   facet normal 0.000000e+000 0.000000e+000 -1.000000e+000
      outer loop
         vertex 1.991977e-001 6.100000e-001 0.000000e+000
         vertex 2.679095e-002 4.175467e-001 0.000000e+000
         vertex 1.754670e-002 4.267909e-001 0.000000e+000
      endloop
   endfacet
   facet normal 0.000000e+000 0.000000e+000 -1.000000e+000
      outer loop
         vertex 1.991977e-001 6.100000e-001 0.000000e+000
         vertex 1.754670e-002 4.267909e-001 0.000000e+000
         vertex 1.004810e-002 4.375000e-001 0.000000e+000
      endloop
   endfacet
   facet normal 0.000000e+000 0.000000e+000 -1.000000e+000
      outer loop
         vertex 1.004810e-002 4.375000e-001 0.000000e+000
         vertex 4.523084e-003 4.493485e-001 0.000000e+000
         vertex 1.991977e-001 6.100000e-001 0.000000e+000
      endloop
   endfacet
   facet normal 0.000000e+000 0.000000e+000 -1.000000e+000
      outer loop
         vertex 1.991977e-001 6.100000e-001 0.000000e+000
         vertex 4.523084e-003 4.493485e-001 0.000000e+000
         vertex 1.139415e-003 4.619764e-001 0.000000e+000
      endloop
   endfacet
   facet normal 0.000000e+000 0.000000e+000 -1.000000e+000
      outer loop
         vertex 1.991977e-001 6.100000e-001 0.000000e+000
         vertex 1.139415e-003 4.619764e-001 0.000000e+000
         vertex 0.000000e+000 4.750000e-001 0.000000e+000
      endloop
   endfacet
   facet normal 0.000000e+000 0.000000e+000 -1.000000e+000
      outer loop
         vertex 4.523084e-003 5.606515e-001 0.000000e+000
         vertex 1.004810e-002 5.725000e-001 0.000000e+000
         vertex 6.197640e-002 6.088606e-001 0.000000e+000
      endloop
   endfacet
   facet normal 0.000000e+000 0.000000e+000 -1.000000e+000
      outer loop
         vertex 6.197640e-002 6.088606e-001 0.000000e+000
         vertex 1.004810e-002 5.725000e-001 0.000000e+000
         vertex 1.754670e-002 5.832091e-001 0.000000e+000
      endloop
   endfacet
   facet normal 0.000000e+000 0.000000e+000 -1.000000e+000
      outer loop
         vertex 6.197640e-002 6.088606e-001 0.000000e+000
         vertex 1.754670e-002 5.832091e-001 0.000000e+000
         vertex 2.679095e-002 5.924534e-001 0.000000e+000
      endloop
   endfacet
   facet normal 0.000000e+000 0.000000e+000 -1.000000e+000
      outer loop
         vertex 5.991496e-001 3.749999e-002 0.000000e+000
         vertex 5.916510e-001 2.679092e-002 0.000000e+000
         vertex 3.991977e-001 2.000000e-001 0.000000e+000
      endloop
   endfacet
   facet normal 0.000000e+000 0.000000e+000 -1.000000e+000
      outer loop
         vertex 3.991977e-001 2.000000e-001 0.000000e+000
         vertex 5.916510e-001 2.679092e-002 0.000000e+000
         vertex 5.824068e-001 1.754667e-002 0.000000e+000
      endloop
   endfacet
   facet normal 0.000000e+000 0.000000e+000 -1.000000e+000
      outer loop
         vertex 3.991977e-001 2.000000e-001 0.000000e+000
         vertex 5.824068e-001 1.754667e-002 0.000000e+000
         vertex 5.716977e-001 1.004810e-002 0.000000e+000
      endloop
   endfacet
endsolid