solid SquarePipe
   facet normal 1.000000e+000 0.000000e+000 0.000000e+000
      outer loop
         vertex 1.500000e-002 6.150000e-001 3.000000e-002
         vertex 1.500000e-002 1.500000e-002 3.000000e-002
         vertex 1.500000e-002 6.150000e-001 0.000000e+000
      endloop
   endfacet
   facet normal 1.000000e+000 0.000000e+000 0.000000e+000
      outer loop
         vertex 1.500000e-002 6.150000e-001 0.000000e+000
         vertex 1.500000e-002 1.500000e-002 3.000000e-002
         vertex 1.500000e-002 1.500000e-002 0.000000e+000
      endloop
   endfacet
   facet normal -9.939315e-001 0.000000e+000 1.100013e-001
      outer loop
         vertex 5.125185e-005 6.299488e-001 1.623869e-002
         vertex 0.000000e+000 0.000000e+000 1.500000e-002
         vertex 2.045999e-004 2.045999e-004 1.746892e-002
      endloop
   endfacet
   facet normal -9.757949e-001 0.000000e+000 2.186879e-001
      outer loop
         vertex 5.125185e-005 6.299488e-001 1.623869e-002
         vertex 2.045999e-004 2.045999e-004 1.746892e-002
         vertex 4.589965e-004 6.295410e-001 1.868228e-002
      endloop
   endfacet
   facet normal -9.622699e-001 0.000000e+000 2.720967e-001
      outer loop
         vertex 4.589965e-004 6.295410e-001 1.868228e-002
         vertex 2.045999e-004 2.045999e-004 1.746892e-002
         vertex 8.127536e-004 8.127536e-004 1.987049e-002
      endloop
   endfacet
   facet normal -9.264914e-001 0.000000e+000 3.763158e-001
      outer loop
         vertex 4.589965e-004 6.295410e-001 1.868228e-002
         vertex 8.127536e-004 8.127536e-004 1.987049e-002
         vertex 1.263426e-003 6.287366e-001 2.102543e-002
      endloop
   endfacet
   facet normal -9.043602e-001 0.000000e+000 4.267701e-001
      outer loop
         vertex 1.263426e-003 6.287366e-001 2.102543e-002
         vertex 8.127536e-004 8.127536e-004 1.987049e-002
         vertex 1.807901e-003 1.807901e-003 2.213921e-002
      endloop
   endfacet
   facet normal -8.519158e-001 0.000000e+000 5.236789e-001
      outer loop
         vertex 1.263426e-003 6.287366e-001 2.102543e-002
         vertex 1.807901e-003 1.807901e-003 2.213921e-002
         vertex 2.442510e-003 6.275575e-001 2.320422e-002
      endloop
   endfacet
   facet normal -8.057982e-001 0.000000e+000 5.921901e-001
      outer loop
         vertex 2.442510e-003 6.275575e-001 2.320422e-002
         vertex 1.807901e-003 1.807901e-003 2.213921e-002
         vertex 3.964146e-003 3.964146e-003 2.515922e-002
      endloop
   endfacet
   facet normal -7.718811e-001 0.000000e+000 6.357669e-001
      outer loop
         vertex 2.442510e-003 6.275575e-001 2.320422e-002
         vertex 3.964146e-003 3.964146e-003 2.515922e-002
         vertex 3.964146e-003 6.260359e-001 2.515922e-002
      endloop
   endfacet
   facet normal -6.973369e-001 0.000000e+000 7.167435e-001
      outer loop
         vertex 3.964146e-003 6.260359e-001 2.515922e-002
         vertex 3.964146e-003 3.964146e-003 2.515922e-002
         vertex 5.786831e-003 5.786831e-003 2.683711e-002
      endloop
   endfacet
   facet normal -6.567098e-001 0.000000e+000 7.541434e-001
      outer loop
         vertex 3.964146e-003 6.260359e-001 2.515922e-002
         vertex 5.786831e-003 5.786831e-003 2.683711e-002
         vertex 5.786831e-003 6.242132e-001 2.683711e-002
      endloop
   endfacet
   facet normal -5.698540e-001 0.000000e+000 8.217459e-001
      outer loop
         vertex 5.786831e-003 6.242132e-001 2.683711e-002
         vertex 5.786831e-003 5.786831e-003 2.683711e-002
         vertex 7.860799e-003 7.860799e-003 2.819210e-002
      endloop
   endfacet
   facet normal -5.236253e-001 0.000000e+000 8.519487e-001
      outer loop
         vertex 5.786831e-003 6.242132e-001 2.683711e-002
         vertex 7.860799e-003 7.860799e-003 2.819210e-002
         vertex 7.860799e-003 6.221392e-001 2.819210e-002
      endloop
   endfacet
   facet normal -4.268270e-001 0.000000e+000 9.043333e-001
      outer loop
         vertex 7.860799e-003 6.221392e-001 2.819210e-002
         vertex 7.860799e-003 7.860799e-003 2.819210e-002
         vertex 1.012953e-002 1.012953e-002 2.918726e-002
      endloop
   endfacet
   facet normal -3.762575e-001 0.000000e+000 9.265151e-001
      outer loop
         vertex 7.860799e-003 6.221392e-001 2.819210e-002
         vertex 1.012953e-002 1.012953e-002 2.918726e-002
         vertex 1.012953e-002 6.198705e-001 2.918726e-002
      endloop
   endfacet
   facet normal -2.721573e-001 0.000000e+000 9.622528e-001
      outer loop
         vertex 1.012953e-002 6.198705e-001 2.918726e-002
         vertex 1.012953e-002 1.012953e-002 2.918726e-002
         vertex 1.253109e-002 1.253109e-002 2.979542e-002
      endloop
   endfacet
   facet normal -2.186265e-001 0.000000e+000 9.758086e-001
      outer loop
         vertex 1.012953e-002 6.198705e-001 2.918726e-002
         vertex 1.253109e-002 1.253109e-002 2.979542e-002
         vertex 1.253109e-002 6.174690e-001 2.979542e-002
      endloop
   endfacet
   facet normal -1.100638e-001 0.000000e+000 9.939246e-001
      outer loop
         vertex 1.253109e-002 6.174690e-001 2.979542e-002
         vertex 1.253109e-002 1.253109e-002 2.979542e-002
         vertex 1.500000e-002 1.500000e-002 3.000000e-002
      endloop
   endfacet
   facet normal -5.503191e-002 0.000000e+000 9.984846e-001
      outer loop
         vertex 1.253109e-002 6.174690e-001 2.979542e-002
         vertex 1.500000e-002 1.500000e-002 3.000000e-002
         vertex 1.500000e-002 6.150000e-001 3.000000e-002
      endloop
   endfacet
   facet normal -9.996205e-001 0.000000e+000 2.754737e-002
      outer loop
         vertex 0.000000e+000 0.000000e+000 1.500000e-002
         vertex 5.125185e-005 6.299488e-001 1.623869e-002
         vertex 5.125185e-005 6.299488e-001 1.376131e-002
      endloop
   endfacet
   facet normal -9.996205e-001 0.000000e+000 -2.754737e-002
      outer loop
         vertex 0.000000e+000 0.000000e+000 1.500000e-002
         vertex 5.125185e-005 6.299488e-001 1.376131e-002
         vertex 2.045999e-004 2.045999e-004 1.253108e-002
      endloop
   endfacet
   facet normal -9.905211e-001 0.000000e+000 -1.373605e-001
      outer loop
         vertex 2.045999e-004 2.045999e-004 1.253108e-002
         vertex 5.125185e-005 6.299488e-001 1.376131e-002
         vertex 4.589965e-004 6.295410e-001 1.131772e-002
      endloop
   endfacet
   facet normal -9.814529e-001 0.000000e+000 -1.917038e-001
      outer loop
         vertex 2.045999e-004 2.045999e-004 1.253108e-002
         vertex 4.589965e-004 6.295410e-001 1.131772e-002
         vertex 8.127536e-004 8.127536e-004 1.012951e-002
      endloop
   endfacet
   facet normal -9.544029e-001 0.000000e+000 -2.985215e-001
      outer loop
         vertex 8.127536e-004 8.127536e-004 1.012951e-002
         vertex 4.589965e-004 6.295410e-001 1.131772e-002
         vertex 1.263426e-003 6.287366e-001 8.974568e-003
      endloop
   endfacet
   facet normal -9.043602e-001 0.000000e+000 -4.267701e-001
      outer loop
         vertex 8.127536e-004 8.127536e-004 1.012951e-002
         vertex 1.263426e-003 6.287366e-001 8.974568e-003
         vertex 1.807901e-003 1.807901e-003 7.860788e-003
      endloop
   endfacet
   facet normal -8.922510e-001 0.000000e+000 -4.515396e-001
      outer loop
         vertex 1.807901e-003 1.807901e-003 7.860788e-003
         vertex 1.263426e-003 6.287366e-001 8.974568e-003
         vertex 2.442510e-003 6.275575e-001 6.795777e-003
      endloop
   endfacet
   facet normal -8.057982e-001 0.000000e+000 -5.921901e-001
      outer loop
         vertex 1.807901e-003 1.807901e-003 7.860788e-003
         vertex 2.442510e-003 6.275575e-001 6.795777e-003
         vertex 3.964146e-003 6.260359e-001 4.840776e-003
      endloop
   endfacet
   facet normal -7.718811e-001 0.000000e+000 -6.357669e-001
      outer loop
         vertex 1.807901e-003 1.807901e-003 7.860788e-003
         vertex 3.964146e-003 6.260359e-001 4.840776e-003
         vertex 3.964146e-003 3.964146e-003 4.840776e-003
      endloop
   endfacet
   facet normal -6.973369e-001 0.000000e+000 -7.167435e-001
      outer loop
         vertex 3.964146e-003 3.964146e-003 4.840776e-003
         vertex 3.964146e-003 6.260359e-001 4.840776e-003
         vertex 5.786831e-003 6.242132e-001 3.162893e-003
      endloop
   endfacet
   facet normal -6.567098e-001 0.000000e+000 -7.541434e-001
      outer loop
         vertex 3.964146e-003 3.964146e-003 4.840776e-003
         vertex 5.786831e-003 6.242132e-001 3.162893e-003
         vertex 5.786831e-003 5.786831e-003 3.162893e-003
      endloop
   endfacet
   facet normal -5.698540e-001 0.000000e+000 -8.217459e-001
      outer loop
         vertex 5.786831e-003 5.786831e-003 3.162893e-003
         vertex 5.786831e-003 6.242132e-001 3.162893e-003
         vertex 7.860799e-003 6.221392e-001 1.807894e-003
      endloop
   endfacet
   facet normal -5.236253e-001 0.000000e+000 -8.519487e-001
      outer loop
         vertex 5.786831e-003 5.786831e-003 3.162893e-003
         vertex 7.860799e-003 6.221392e-001 1.807894e-003
         vertex 7.860799e-003 7.860799e-003 1.807894e-003
      endloop
   endfacet
   facet normal -4.268270e-001 0.000000e+000 -9.043333e-001
      outer loop
         vertex 7.860799e-003 7.860799e-003 1.807894e-003
         vertex 7.860799e-003 6.221392e-001 1.807894e-003
         vertex 1.012953e-002 6.198705e-001 8.127408e-004
      endloop
   endfacet
   facet normal -3.762575e-001 0.000000e+000 -9.265151e-001
      outer loop
         vertex 7.860799e-003 7.860799e-003 1.807894e-003
         vertex 1.012953e-002 6.198705e-001 8.127408e-004
         vertex 1.012953e-002 1.012953e-002 8.127408e-004
      endloop
   endfacet
   facet normal -2.721573e-001 0.000000e+000 -9.622528e-001
      outer loop
         vertex 1.012953e-002 1.012953e-002 8.127408e-004
         vertex 1.012953e-002 6.198705e-001 8.127408e-004
         vertex 1.253109e-002 6.174690e-001 2.045799e-004
      endloop
   endfacet
   facet normal -2.186265e-001 0.000000e+000 -9.758086e-001
      outer loop
         vertex 1.012953e-002 1.012953e-002 8.127408e-004
         vertex 1.253109e-002 6.174690e-001 2.045799e-004
         vertex 1.253109e-002 1.253109e-002 2.045799e-004
      endloop
   endfacet
   facet normal -1.100638e-001 0.000000e+000 -9.939246e-001
      outer loop
         vertex 1.253109e-002 1.253109e-002 2.045799e-004
         vertex 1.253109e-002 6.174690e-001 2.045799e-004
         vertex 1.500000e-002 6.150000e-001 0.000000e+000
      endloop
   endfacet
   facet normal -5.503191e-002 0.000000e+000 -9.984846e-001
      outer loop
         vertex 1.253109e-002 1.253109e-002 2.045799e-004
         vertex 1.500000e-002 6.150000e-001 0.000000e+000
         vertex 1.500000e-002 1.500000e-002 0.000000e+000
      endloop
   endfacet
   facet normal 0.000000e+000 5.503191e-002 9.984846e-001
      outer loop
         vertex 1.500000e-002 6.150000e-001 3.000000e-002
         vertex 3.150000e-001 6.150000e-001 3.000000e-002
         vertex 3.150000e-001 6.174690e-001 2.979542e-002
      endloop
   endfacet
   facet normal 1.208337e-015 1.100638e-001 9.939246e-001
      outer loop
         vertex 1.500000e-002 6.150000e-001 3.000000e-002
         vertex 3.150000e-001 6.174690e-001 2.979542e-002
         vertex 1.253109e-002 6.174690e-001 2.979542e-002
      endloop
   endfacet
   facet normal 1.208337e-015 2.186265e-001 9.758086e-001
      outer loop
         vertex 1.253109e-002 6.174690e-001 2.979542e-002
         vertex 3.150000e-001 6.174690e-001 2.979542e-002
         vertex 3.150000e-001 6.198705e-001 2.918726e-002
      endloop
   endfacet
   facet normal 2.416674e-015 2.721573e-001 9.622528e-001
      outer loop
         vertex 1.253109e-002 6.174690e-001 2.979542e-002
         vertex 3.150000e-001 6.198705e-001 2.918726e-002
         vertex 1.012953e-002 6.198705e-001 2.918726e-002
      endloop
   endfacet
   facet normal 1.208337e-015 3.762575e-001 9.265151e-001
      outer loop
         vertex 1.012953e-002 6.198705e-001 2.918726e-002
         vertex 3.150000e-001 6.198705e-001 2.918726e-002
         vertex 3.150000e-001 6.221392e-001 2.819210e-002
      endloop
   endfacet
   facet normal 2.416674e-015 4.268270e-001 9.043333e-001
      outer loop
         vertex 1.012953e-002 6.198705e-001 2.918726e-002
         vertex 3.150000e-001 6.221392e-001 2.819210e-002
         vertex 7.860799e-003 6.221392e-001 2.819210e-002
      endloop
   endfacet
   facet normal 1.208337e-015 5.236253e-001 8.519487e-001
      outer loop
         vertex 7.860799e-003 6.221392e-001 2.819210e-002
         vertex 3.150000e-001 6.221392e-001 2.819210e-002
         vertex 3.150000e-001 6.242132e-001 2.683711e-002
      endloop
   endfacet
   facet normal 2.416674e-015 5.698540e-001 8.217459e-001
      outer loop
         vertex 7.860799e-003 6.221392e-001 2.819210e-002
         vertex 3.150000e-001 6.242132e-001 2.683711e-002
         vertex 5.786831e-003 6.242132e-001 2.683711e-002
      endloop
   endfacet
   facet normal 1.208337e-015 6.567098e-001 7.541434e-001
      outer loop
         vertex 5.786831e-003 6.242132e-001 2.683711e-002
         vertex 3.150000e-001 6.242132e-001 2.683711e-002
         vertex 3.150000e-001 6.260359e-001 2.515922e-002
      endloop
   endfacet
   facet normal 2.416674e-015 6.973369e-001 7.167435e-001
      outer loop
         vertex 5.786831e-003 6.242132e-001 2.683711e-002
         vertex 3.150000e-001 6.260359e-001 2.515922e-002
         vertex 3.964146e-003 6.260359e-001 2.515922e-002
      endloop
   endfacet
   facet normal 1.208337e-015 7.718811e-001 6.357669e-001
      outer loop
         vertex 3.964146e-003 6.260359e-001 2.515922e-002
         vertex 3.150000e-001 6.260359e-001 2.515922e-002
         vertex 3.150000e-001 6.275575e-001 2.320422e-002
      endloop
   endfacet
   facet normal 2.416674e-015 8.057982e-001 5.921901e-001
      outer loop
         vertex 3.964146e-003 6.260359e-001 2.515922e-002
         vertex 3.150000e-001 6.275575e-001 2.320422e-002
         vertex 2.442510e-003 6.275575e-001 2.320422e-002
      endloop
   endfacet
   facet normal 2.411169e-015 8.519158e-001 5.236788e-001
      outer loop
         vertex 2.442510e-003 6.275575e-001 2.320422e-002
         vertex 3.150000e-001 6.275575e-001 2.320422e-002
         vertex 1.263426e-003 6.287366e-001 2.102543e-002
      endloop
   endfacet
   facet normal 1.207418e-015 8.794737e-001 4.759474e-001
      outer loop
         vertex 1.263426e-003 6.287366e-001 2.102543e-002
         vertex 3.150000e-001 6.275575e-001 2.320422e-002
         vertex 3.150000e-001 6.287366e-001 2.102543e-002
      endloop
   endfacet
   facet normal 2.411169e-015 9.264914e-001 3.763159e-001
      outer loop
         vertex 1.263426e-003 6.287366e-001 2.102543e-002
         vertex 3.150000e-001 6.287366e-001 2.102543e-002
         vertex 4.589965e-004 6.295410e-001 1.868228e-002
      endloop
   endfacet
   facet normal 1.207418e-015 9.458172e-001 3.246995e-001
      outer loop
         vertex 4.589965e-004 6.295410e-001 1.868228e-002
         vertex 3.150000e-001 6.287366e-001 2.102543e-002
         vertex 3.150000e-001 6.295410e-001 1.868228e-002
      endloop
   endfacet
   facet normal 2.411169e-015 9.757949e-001 2.186879e-001
      outer loop
         vertex 4.589965e-004 6.295410e-001 1.868228e-002
         vertex 3.150000e-001 6.295410e-001 1.868228e-002
         vertex 5.125185e-005 6.299488e-001 1.623869e-002
      endloop
   endfacet
   facet normal 1.207418e-015 9.863613e-001 1.645946e-001
      outer loop
         vertex 5.125185e-005 6.299488e-001 1.623869e-002
         vertex 3.150000e-001 6.295410e-001 1.868228e-002
         vertex 3.150000e-001 6.299488e-001 1.623869e-002
      endloop
   endfacet
   facet normal 2.411169e-015 9.984812e-001 5.509473e-002
      outer loop
         vertex 5.125185e-005 6.299488e-001 1.623869e-002
         vertex 3.150000e-001 6.299488e-001 1.623869e-002
         vertex 5.125185e-005 6.299488e-001 1.376131e-002
      endloop
   endfacet
   facet normal 1.207418e-015 1.000000e+000 0.000000e+000
      outer loop
         vertex 5.125185e-005 6.299488e-001 1.376131e-002
         vertex 3.150000e-001 6.299488e-001 1.623869e-002
         vertex 3.150000e-001 6.299488e-001 1.376131e-002
      endloop
   endfacet
   facet normal 2.411169e-015 9.939315e-001 -1.100013e-001
      outer loop
         vertex 5.125185e-005 6.299488e-001 1.376131e-002
         vertex 3.150000e-001 6.299488e-001 1.376131e-002
         vertex 4.589965e-004 6.295410e-001 1.131772e-002
      endloop
   endfacet
   facet normal 1.207418e-015 9.863613e-001 -1.645946e-001
      outer loop
         vertex 4.589965e-004 6.295410e-001 1.131772e-002
         vertex 3.150000e-001 6.299488e-001 1.376131e-002
         vertex 3.150000e-001 6.295410e-001 1.131772e-002
      endloop
   endfacet
   facet normal 2.411169e-015 9.622699e-001 -2.720967e-001
      outer loop
         vertex 4.589965e-004 6.295410e-001 1.131772e-002
         vertex 3.150000e-001 6.295410e-001 1.131772e-002
         vertex 1.263426e-003 6.287366e-001 8.974568e-003
      endloop
   endfacet
   facet normal 1.207418e-015 9.458172e-001 -3.246995e-001
      outer loop
         vertex 1.263426e-003 6.287366e-001 8.974568e-003
         vertex 3.150000e-001 6.295410e-001 1.131772e-002
         vertex 3.150000e-001 6.287366e-001 8.974568e-003
      endloop
   endfacet
   facet normal 2.411169e-015 9.043602e-001 -4.267701e-001
      outer loop
         vertex 1.263426e-003 6.287366e-001 8.974568e-003
         vertex 3.150000e-001 6.287366e-001 8.974568e-003
         vertex 2.442510e-003 6.275575e-001 6.795777e-003
      endloop
   endfacet
   facet normal 1.207418e-015 8.794737e-001 -4.759474e-001
      outer loop
         vertex 2.442510e-003 6.275575e-001 6.795777e-003
         vertex 3.150000e-001 6.287366e-001 8.974568e-003
         vertex 3.150000e-001 6.275575e-001 6.795777e-003
      endloop
   endfacet
   facet normal 1.208337e-015 8.057982e-001 -5.921901e-001
      outer loop
         vertex 2.442510e-003 6.275575e-001 6.795777e-003
         vertex 3.150000e-001 6.275575e-001 6.795777e-003
         vertex 3.150000e-001 6.260359e-001 4.840776e-003
      endloop
   endfacet
   facet normal 2.416674e-015 7.718811e-001 -6.357669e-001
      outer loop
         vertex 2.442510e-003 6.275575e-001 6.795777e-003
         vertex 3.150000e-001 6.260359e-001 4.840776e-003
         vertex 3.964146e-003 6.260359e-001 4.840776e-003
      endloop
   endfacet
   facet normal 1.208337e-015 6.973369e-001 -7.167435e-001
      outer loop
         vertex 3.964146e-003 6.260359e-001 4.840776e-003
         vertex 3.150000e-001 6.260359e-001 4.840776e-003
         vertex 3.150000e-001 6.242132e-001 3.162893e-003
      endloop
   endfacet
   facet normal 2.416674e-015 6.567098e-001 -7.541434e-001
      outer loop
         vertex 3.964146e-003 6.260359e-001 4.840776e-003
         vertex 3.150000e-001 6.242132e-001 3.162893e-003
         vertex 5.786831e-003 6.242132e-001 3.162893e-003
      endloop
   endfacet
   facet normal 1.208337e-015 5.698540e-001 -8.217459e-001
      outer loop
         vertex 5.786831e-003 6.242132e-001 3.162893e-003
         vertex 3.150000e-001 6.242132e-001 3.162893e-003
         vertex 3.150000e-001 6.221392e-001 1.807894e-003
      endloop
   endfacet
   facet normal 2.416674e-015 5.236253e-001 -8.519487e-001
      outer loop
         vertex 5.786831e-003 6.242132e-001 3.162893e-003
         vertex 3.150000e-001 6.221392e-001 1.807894e-003
         vertex 7.860799e-003 6.221392e-001 1.807894e-003
      endloop
   endfacet
   facet normal 1.208337e-015 4.268270e-001 -9.043333e-001
      outer loop
         vertex 7.860799e-003 6.221392e-001 1.807894e-003
         vertex 3.150000e-001 6.221392e-001 1.807894e-003
         vertex 3.150000e-001 6.198705e-001 8.127408e-004
      endloop
   endfacet
   facet normal 2.416674e-015 3.762575e-001 -9.265151e-001
      outer loop
         vertex 7.860799e-003 6.221392e-001 1.807894e-003
         vertex 3.150000e-001 6.198705e-001 8.127408e-004
         vertex 1.012953e-002 6.198705e-001 8.127408e-004
      endloop
   endfacet
   facet normal 1.208337e-015 2.721573e-001 -9.622528e-001
      outer loop
         vertex 1.012953e-002 6.198705e-001 8.127408e-004
         vertex 3.150000e-001 6.198705e-001 8.127408e-004
         vertex 3.150000e-001 6.174690e-001 2.045799e-004
      endloop
   endfacet
   facet normal 2.416674e-015 2.186265e-001 -9.758086e-001
      outer loop
         vertex 1.012953e-002 6.198705e-001 8.127408e-004
         vertex 3.150000e-001 6.174690e-001 2.045799e-004
         vertex 1.253109e-002 6.174690e-001 2.045799e-004
      endloop
   endfacet
   facet normal 1.208337e-015 1.100638e-001 -9.939246e-001
      outer loop
         vertex 1.253109e-002 6.174690e-001 2.045799e-004
         vertex 3.150000e-001 6.174690e-001 2.045799e-004
         vertex 3.150000e-001 6.150000e-001 0.000000e+000
      endloop
   endfacet
   facet normal 1.208337e-015 5.503191e-002 -9.984846e-001
      outer loop
         vertex 1.253109e-002 6.174690e-001 2.045799e-004
         vertex 3.150000e-001 6.150000e-001 0.000000e+000
         vertex 1.500000e-002 6.150000e-001 0.000000e+000
      endloop
   endfacet
   facet normal 0.000000e+000 -1.000000e+000 0.000000e+000
      outer loop
         vertex 3.150000e-001 6.150000e-001 0.000000e+000
         vertex 3.150000e-001 6.150000e-001 3.000000e-002
         vertex 1.500000e-002 6.150000e-001 0.000000e+000
      endloop
   endfacet
   facet normal 0.000000e+000 -1.000000e+000 0.000000e+000
      outer loop
         vertex 1.500000e-002 6.150000e-001 0.000000e+000
         vertex 3.150000e-001 6.150000e-001 3.000000e-002
         vertex 1.500000e-002 6.150000e-001 3.000000e-002
      endloop
   endfacet
   facet normal 0.000000e+000 5.503191e-002 -9.984846e-001
      outer loop
         vertex 3.150000e-001 6.150000e-001 0.000000e+000
         vertex 3.150000e-001 6.174690e-001 2.045799e-004
         vertex 6.150000e-001 6.150000e-001 0.000000e+000
      endloop
   endfacet
   facet normal 0.000000e+000 1.100638e-001 -9.939246e-001
      outer loop
         vertex 6.150000e-001 6.150000e-001 0.000000e+000
         vertex 3.150000e-001 6.174690e-001 2.045799e-004
         vertex 6.174690e-001 6.174690e-001 2.045799e-004
      endloop
   endfacet
   facet normal 0.000000e+000 2.216038e-001 -9.751368e-001
      outer loop
         vertex 6.174690e-001 6.174690e-001 2.045799e-004
         vertex 3.150000e-001 6.174690e-001 2.045799e-004
         vertex 3.150000e-001 6.198705e-001 8.127408e-004
      endloop
   endfacet
   facet normal 0.000000e+000 2.750798e-001 -9.614214e-001
      outer loop
         vertex 6.174690e-001 6.174690e-001 2.045799e-004
         vertex 3.150000e-001 6.198705e-001 8.127408e-004
         vertex 6.198705e-001 6.198705e-001 8.127408e-004
      endloop
   endfacet
   facet normal 0.000000e+000 3.819112e-001 -9.241990e-001
      outer loop
         vertex 6.198705e-001 6.198705e-001 8.127408e-004
         vertex 3.150000e-001 6.198705e-001 8.127408e-004
         vertex 3.150000e-001 6.221392e-001 1.807894e-003
      endloop
   endfacet
   facet normal 0.000000e+000 4.323200e-001 -9.017202e-001
      outer loop
         vertex 6.198705e-001 6.198705e-001 8.127408e-004
         vertex 3.150000e-001 6.221392e-001 1.807894e-003
         vertex 6.221392e-001 6.221392e-001 1.807894e-003
      endloop
   endfacet
   facet normal 0.000000e+000 5.314171e-001 -8.471103e-001
      outer loop
         vertex 6.221392e-001 6.221392e-001 1.807894e-003
         vertex 3.150000e-001 6.221392e-001 1.807894e-003
         vertex 3.150000e-001 6.242132e-001 3.162893e-003
      endloop
   endfacet
   facet normal 0.000000e+000 5.773345e-001 -8.165077e-001
      outer loop
         vertex 6.221392e-001 6.221392e-001 1.807894e-003
         vertex 3.150000e-001 6.242132e-001 3.162893e-003
         vertex 6.242132e-001 6.242132e-001 3.162893e-003
      endloop
   endfacet
   facet normal 0.000000e+000 6.658897e-001 -7.460502e-001
      outer loop
         vertex 6.242132e-001 6.242132e-001 3.162893e-003
         vertex 3.150000e-001 6.242132e-001 3.162893e-003
         vertex 3.150000e-001 6.260359e-001 4.840776e-003
      endloop
   endfacet
   facet normal 0.000000e+000 7.060193e-001 -7.081925e-001
      outer loop
         vertex 6.242132e-001 6.242132e-001 3.162893e-003
         vertex 3.150000e-001 6.260359e-001 4.840776e-003
         vertex 6.260359e-001 6.260359e-001 4.840776e-003
      endloop
   endfacet
   facet normal 0.000000e+000 7.815225e-001 -6.238770e-001
      outer loop
         vertex 6.260359e-001 6.260359e-001 4.840776e-003
         vertex 3.150000e-001 6.260359e-001 4.840776e-003
         vertex 3.150000e-001 6.275575e-001 6.795777e-003
      endloop
   endfacet
   facet normal 0.000000e+000 8.147319e-001 -5.798378e-001
      outer loop
         vertex 6.260359e-001 6.260359e-001 4.840776e-003
         vertex 3.150000e-001 6.275575e-001 6.795777e-003
         vertex 6.275575e-001 6.275575e-001 6.795777e-003
      endloop
   endfacet
   facet normal 0.000000e+000 8.750547e-001 -4.840241e-001
      outer loop
         vertex 6.275575e-001 6.275575e-001 6.795777e-003
         vertex 3.150000e-001 6.275575e-001 6.795777e-003
         vertex 3.150000e-001 6.287366e-001 8.974568e-003
      endloop
   endfacet
   facet normal 0.000000e+000 9.004059e-001 -4.350508e-001
      outer loop
         vertex 6.275575e-001 6.275575e-001 6.795777e-003
         vertex 3.150000e-001 6.287366e-001 8.974568e-003
         vertex 6.287366e-001 6.287366e-001 8.974568e-003
      endloop
   endfacet
   facet normal 0.000000e+000 9.438065e-001 -3.304986e-001
      outer loop
         vertex 6.287366e-001 6.287366e-001 8.974568e-003
         vertex 3.150000e-001 6.287366e-001 8.974568e-003
         vertex 3.150000e-001 6.295410e-001 1.131772e-002
      endloop
   endfacet
   facet normal 0.000000e+000 9.605871e-001 -2.779790e-001
      outer loop
         vertex 6.287366e-001 6.287366e-001 8.974568e-003
         vertex 3.150000e-001 6.295410e-001 1.131772e-002
         vertex 6.295410e-001 6.295410e-001 1.131772e-002
      endloop
   endfacet
   facet normal 0.000000e+000 9.858515e-001 -1.676209e-001
      outer loop
         vertex 6.295410e-001 6.295410e-001 1.131772e-002
         vertex 3.150000e-001 6.295410e-001 1.131772e-002
         vertex 3.150000e-001 6.299488e-001 1.376131e-002
      endloop
   endfacet
   facet normal 0.000000e+000 9.935902e-001 -1.130416e-001
      outer loop
         vertex 6.295410e-001 6.295410e-001 1.131772e-002
         vertex 3.150000e-001 6.299488e-001 1.376131e-002
         vertex 6.299488e-001 6.299488e-001 1.376131e-002
      endloop
   endfacet
   facet normal 0.000000e+000 1.000000e+000 0.000000e+000
      outer loop
         vertex 6.299488e-001 6.299488e-001 1.376131e-002
         vertex 3.150000e-001 6.299488e-001 1.376131e-002
         vertex 3.150000e-001 6.299488e-001 1.623869e-002
      endloop
   endfacet
   facet normal 0.000000e+000 9.984812e-001 5.509473e-002
      outer loop
         vertex 6.299488e-001 6.299488e-001 1.376131e-002
         vertex 3.150000e-001 6.299488e-001 1.623869e-002
         vertex 6.299488e-001 6.299488e-001 1.623869e-002
      endloop
   endfacet
   facet normal 0.000000e+000 9.858515e-001 1.676209e-001
      outer loop
         vertex 6.299488e-001 6.299488e-001 1.623869e-002
         vertex 3.150000e-001 6.299488e-001 1.623869e-002
         vertex 3.150000e-001 6.295410e-001 1.868228e-002
      endloop
   endfacet
   facet normal 0.000000e+000 9.751211e-001 2.216727e-001
      outer loop
         vertex 6.299488e-001 6.299488e-001 1.623869e-002
         vertex 3.150000e-001 6.295410e-001 1.868228e-002
         vertex 6.295410e-001 6.295410e-001 1.868228e-002
      endloop
   endfacet
   facet normal 0.000000e+000 9.605871e-001 2.779790e-001
      outer loop
         vertex 6.295410e-001 6.295410e-001 1.868228e-002
         vertex 3.150000e-001 6.295410e-001 1.868228e-002
         vertex 6.287366e-001 6.287366e-001 2.102543e-002
      endloop
   endfacet
   facet normal 0.000000e+000 9.438065e-001 3.304986e-001
      outer loop
         vertex 6.287366e-001 6.287366e-001 2.102543e-002
         vertex 3.150000e-001 6.295410e-001 1.868228e-002
         vertex 3.150000e-001 6.287366e-001 2.102543e-002
      endloop
   endfacet
   facet normal 0.000000e+000 9.004059e-001 4.350508e-001
      outer loop
         vertex 6.287366e-001 6.287366e-001 2.102543e-002
         vertex 3.150000e-001 6.287366e-001 2.102543e-002
         vertex 6.275575e-001 6.275575e-001 2.320422e-002
      endloop
   endfacet
   facet normal 0.000000e+000 8.750547e-001 4.840241e-001
      outer loop
         vertex 6.275575e-001 6.275575e-001 2.320422e-002
         vertex 3.150000e-001 6.287366e-001 2.102543e-002
         vertex 3.150000e-001 6.275575e-001 2.320422e-002
      endloop
   endfacet
   facet normal 0.000000e+000 7.719042e-001 6.357389e-001
      outer loop
         vertex 3.150000e-001 6.260359e-001 2.515922e-002
         vertex 6.260044e-001 6.260044e-001 2.512806e-002
         vertex 3.150000e-001 6.275575e-001 2.320422e-002
      endloop
   endfacet
   facet normal 0.000000e+000 8.147496e-001 5.798129e-001
      outer loop
         vertex 3.150000e-001 6.275575e-001 2.320422e-002
         vertex 6.260044e-001 6.260044e-001 2.512806e-002
         vertex 6.275575e-001 6.275575e-001 2.320422e-002
      endloop
   endfacet
   facet normal 0.000000e+000 5.236545e-001 8.519307e-001
      outer loop
         vertex 3.150000e-001 6.242132e-001 2.683711e-002
         vertex 3.150000e-001 6.221392e-001 2.819210e-002
         vertex 6.221262e-001 6.221262e-001 2.816471e-002
      endloop
   endfacet
   facet normal 0.000000e+000 5.773894e-001 8.164690e-001
      outer loop
         vertex 3.150000e-001 6.242132e-001 2.683711e-002
         vertex 6.221262e-001 6.221262e-001 2.816471e-002
         vertex 6.241912e-001 6.241912e-001 2.680618e-002
      endloop
   endfacet
   facet normal 0.000000e+000 6.567377e-001 7.541190e-001
      outer loop
         vertex 3.150000e-001 6.242132e-001 2.683711e-002
         vertex 6.241912e-001 6.241912e-001 2.680618e-002
         vertex 3.150000e-001 6.260359e-001 2.515922e-002
      endloop
   endfacet
   facet normal 0.000000e+000 7.060677e-001 7.081443e-001
      outer loop
         vertex 3.150000e-001 6.260359e-001 2.515922e-002
         vertex 6.241912e-001 6.241912e-001 2.680618e-002
         vertex 6.260044e-001 6.260044e-001 2.512806e-002
      endloop
   endfacet
   facet normal 0.000000e+000 2.751205e-001 9.614097e-001
      outer loop
         vertex 3.150000e-001 6.198705e-001 2.918726e-002
         vertex 6.174678e-001 6.174678e-001 2.978410e-002
         vertex 6.198647e-001 6.198647e-001 2.916656e-002
      endloop
   endfacet
   facet normal 0.000000e+000 3.762832e-001 9.265047e-001
      outer loop
         vertex 3.150000e-001 6.198705e-001 2.918726e-002
         vertex 6.198647e-001 6.198647e-001 2.916656e-002
         vertex 3.150000e-001 6.221392e-001 2.819210e-002
      endloop
   endfacet
   facet normal 0.000000e+000 4.323730e-001 9.016948e-001
      outer loop
         vertex 3.150000e-001 6.221392e-001 2.819210e-002
         vertex 6.198647e-001 6.198647e-001 2.916656e-002
         vertex 6.221262e-001 6.221262e-001 2.816471e-002
      endloop
   endfacet
   facet normal 0.000000e+000 2.186426e-001 9.758050e-001
      outer loop
         vertex 3.150000e-001 6.198705e-001 2.918726e-002
         vertex 3.150000e-001 6.174690e-001 2.979542e-002
         vertex 6.174678e-001 6.174678e-001 2.978410e-002
      endloop
   endfacet
   facet normal 0.000000e+000 1.100802e-001 9.939227e-001
      outer loop
         vertex 6.174678e-001 6.174678e-001 2.978410e-002
         vertex 3.150000e-001 6.174690e-001 2.979542e-002
         vertex 3.150000e-001 6.150000e-001 3.000000e-002
      endloop
   endfacet
   facet normal 0.000000e+000 5.504831e-002 9.984837e-001
      outer loop
         vertex 6.174678e-001 6.174678e-001 2.978410e-002
         vertex 3.150000e-001 6.150000e-001 3.000000e-002
         vertex 6.150000e-001 6.150000e-001 3.000000e-002
      endloop
   endfacet
   facet normal 0.000000e+000 -1.000000e+000 0.000000e+000
      outer loop
         vertex 6.150000e-001 6.150000e-001 3.000000e-002
         vertex 3.150000e-001 6.150000e-001 3.000000e-002
         vertex 6.150000e-001 6.150000e-001 0.000000e+000
      endloop
   endfacet
   facet normal 0.000000e+000 -1.000000e+000 0.000000e+000
      outer loop
         vertex 6.150000e-001 6.150000e-001 0.000000e+000
         vertex 3.150000e-001 6.150000e-001 3.000000e-002
         vertex 3.150000e-001 6.150000e-001 0.000000e+000
      endloop
   endfacet
   facet normal 0.000000e+000 1.000000e+000 0.000000e+000
      outer loop
         vertex 1.500000e-002 1.500000e-002 3.000000e-002
         vertex 6.150000e-001 1.500000e-002 3.000000e-002
         vertex 1.500000e-002 1.500000e-002 0.000000e+000
      endloop
   endfacet
   facet normal 0.000000e+000 1.000000e+000 0.000000e+000
      outer loop
         vertex 1.500000e-002 1.500000e-002 0.000000e+000
         vertex 6.150000e-001 1.500000e-002 3.000000e-002
         vertex 6.150000e-001 1.500000e-002 0.000000e+000
      endloop
   endfacet
   facet normal -1.087503e-014 -5.503191e-002 9.984846e-001
      outer loop
         vertex 6.150000e-001 1.500000e-002 3.000000e-002
         vertex 1.500000e-002 1.500000e-002 3.000000e-002
         vertex 1.253109e-002 1.253109e-002 2.979542e-002
      endloop
   endfacet
   facet normal -1.087330e-014 -2.216182e-001 9.751335e-001
      outer loop
         vertex 1.012953e-002 1.012953e-002 2.918726e-002
         vertex 6.174678e-001 1.253223e-002 2.978410e-002
         vertex 1.253109e-002 1.253109e-002 2.979542e-002
      endloop
   endfacet
   facet normal -7.250028e-015 -1.100802e-001 9.939227e-001
      outer loop
         vertex 1.253109e-002 1.253109e-002 2.979542e-002
         vertex 6.174678e-001 1.253223e-002 2.978410e-002
         vertex 6.150000e-001 1.500000e-002 3.000000e-002
      endloop
   endfacet
   facet normal -1.087177e-014 -3.819340e-001 9.241896e-001
      outer loop
         vertex 7.860799e-003 7.860799e-003 2.819210e-002
         vertex 6.198647e-001 1.013532e-002 2.916656e-002
         vertex 1.012953e-002 1.012953e-002 2.918726e-002
      endloop
   endfacet
   facet normal -7.247649e-015 -2.751205e-001 9.614097e-001
      outer loop
         vertex 1.012953e-002 1.012953e-002 2.918726e-002
         vertex 6.198647e-001 1.013532e-002 2.916656e-002
         vertex 6.174678e-001 1.253223e-002 2.978410e-002
      endloop
   endfacet
   facet normal -1.087044e-014 -5.314426e-001 8.470942e-001
      outer loop
         vertex 5.786831e-003 5.786831e-003 2.683711e-002
         vertex 6.225000e-001 7.499999e-003 2.799038e-002
         vertex 7.860799e-003 7.860799e-003 2.819210e-002
      endloop
   endfacet
   facet normal -7.245406e-015 -4.323730e-001 9.016948e-001
      outer loop
         vertex 7.860799e-003 7.860799e-003 2.819210e-002
         vertex 6.225000e-001 7.499999e-003 2.799038e-002
         vertex 6.198647e-001 1.013532e-002 2.916656e-002
      endloop
   endfacet
   facet normal -1.086932e-014 -6.659136e-001 7.460288e-001
      outer loop
         vertex 3.964146e-003 3.964146e-003 2.515922e-002
         vertex 6.246418e-001 5.358190e-003 2.649067e-002
         vertex 5.786831e-003 5.786831e-003 2.683711e-002
      endloop
   endfacet
   facet normal -7.243298e-015 -5.773893e-001 8.164690e-001
      outer loop
         vertex 5.786831e-003 5.786831e-003 2.683711e-002
         vertex 6.246418e-001 5.358190e-003 2.649067e-002
         vertex 6.225000e-001 7.499999e-003 2.799038e-002
      endloop
   endfacet
   facet normal -1.085128e-014 -9.900957e-001 1.403938e-001
      outer loop
         vertex 0.000000e+000 0.000000e+000 1.500000e-002
         vertex 6.299488e-001 5.125185e-005 1.623869e-002
         vertex 2.045999e-004 2.045999e-004 1.746892e-002
      endloop
   endfacet
   facet normal -7.232963e-015 -9.808609e-001 1.947093e-001
      outer loop
         vertex 2.045999e-004 2.045999e-004 1.746892e-002
         vertex 6.299488e-001 5.125185e-005 1.623869e-002
         vertex 6.295410e-001 4.589965e-004 1.868228e-002
      endloop
   endfacet
   facet normal -1.085250e-014 -9.525564e-001 3.043622e-001
      outer loop
         vertex 2.045999e-004 2.045999e-004 1.746892e-002
         vertex 6.295410e-001 4.589965e-004 1.868228e-002
         vertex 8.127536e-004 8.127536e-004 1.987049e-002
      endloop
   endfacet
   facet normal -7.232557e-015 -9.343479e-001 3.563622e-001
      outer loop
         vertex 8.127536e-004 8.127536e-004 1.987049e-002
         vertex 6.295410e-001 4.589965e-004 1.868228e-002
         vertex 6.287366e-001 1.263426e-003 2.102543e-002
      endloop
   endfacet
   facet normal -1.085392e-014 -8.880647e-001 4.597184e-001
      outer loop
         vertex 8.127536e-004 8.127536e-004 1.987049e-002
         vertex 6.287366e-001 1.263426e-003 2.102543e-002
         vertex 1.807901e-003 1.807901e-003 2.213921e-002
      endloop
   endfacet
   facet normal -7.232285e-015 -8.613973e-001 5.079318e-001
      outer loop
         vertex 1.807901e-003 1.807901e-003 2.213921e-002
         vertex 6.287366e-001 1.263426e-003 2.102543e-002
         vertex 6.275575e-001 2.442510e-003 2.320422e-002
      endloop
   endfacet
   facet normal -7.239480e-015 -8.147496e-001 5.798129e-001
      outer loop
         vertex 1.807901e-003 1.807901e-003 2.213921e-002
         vertex 6.275575e-001 2.442510e-003 2.320422e-002
         vertex 6.264907e-001 3.509340e-003 2.464181e-002
      endloop
   endfacet
   facet normal -1.086840e-014 -7.815416e-001 6.238531e-001
      outer loop
         vertex 1.807901e-003 1.807901e-003 2.213921e-002
         vertex 6.264907e-001 3.509340e-003 2.464181e-002
         vertex 3.964146e-003 3.964146e-003 2.515922e-002
      endloop
   endfacet
   facet normal -7.241326e-015 -7.060677e-001 7.081443e-001
      outer loop
         vertex 3.964146e-003 3.964146e-003 2.515922e-002
         vertex 6.264907e-001 3.509340e-003 2.464181e-002
         vertex 6.246418e-001 5.358190e-003 2.649067e-002
      endloop
   endfacet
   facet normal -1.087503e-014 -7.718811e-001 -6.357669e-001
      outer loop
         vertex 1.807901e-003 1.807901e-003 7.860788e-003
         vertex 3.964146e-003 3.964146e-003 4.840776e-003
         vertex 6.260359e-001 3.964146e-003 4.840776e-003
      endloop
   endfacet
   facet normal -7.239498e-015 -8.147319e-001 -5.798378e-001
      outer loop
         vertex 1.807901e-003 1.807901e-003 7.860788e-003
         vertex 6.260359e-001 3.964146e-003 4.840776e-003
         vertex 6.275575e-001 2.442510e-003 6.795777e-003
      endloop
   endfacet
   facet normal -1.085392e-014 -8.880647e-001 -4.597184e-001
      outer loop
         vertex 1.807901e-003 1.807901e-003 7.860788e-003
         vertex 6.275575e-001 2.442510e-003 6.795777e-003
         vertex 8.127536e-004 8.127536e-004 1.012951e-002
      endloop
   endfacet
   facet normal -7.237782e-015 -9.004059e-001 -4.350508e-001
      outer loop
         vertex 8.127536e-004 8.127536e-004 1.012951e-002
         vertex 6.275575e-001 2.442510e-003 6.795777e-003
         vertex 6.287366e-001 1.263426e-003 8.974568e-003
      endloop
   endfacet
   facet normal -7.236221e-015 -9.605871e-001 -2.779790e-001
      outer loop
         vertex 8.127536e-004 8.127536e-004 1.012951e-002
         vertex 6.287366e-001 1.263426e-003 8.974568e-003
         vertex 6.295410e-001 4.589965e-004 1.131772e-002
      endloop
   endfacet
   facet normal -1.085026e-014 -9.757949e-001 -2.186879e-001
      outer loop
         vertex 8.127536e-004 8.127536e-004 1.012951e-002
         vertex 6.295410e-001 4.589965e-004 1.131772e-002
         vertex 2.045999e-004 2.045999e-004 1.253108e-002
      endloop
   endfacet
   facet normal -7.234796e-015 -9.935902e-001 -1.130416e-001
      outer loop
         vertex 2.045999e-004 2.045999e-004 1.253108e-002
         vertex 6.295410e-001 4.589965e-004 1.131772e-002
         vertex 6.299488e-001 5.125185e-005 1.376131e-002
      endloop
   endfacet
   facet normal -1.085026e-014 -9.984812e-001 -5.509473e-002
      outer loop
         vertex 2.045999e-004 2.045999e-004 1.253108e-002
         vertex 6.299488e-001 5.125185e-005 1.376131e-002
         vertex 0.000000e+000 0.000000e+000 1.500000e-002
      endloop
   endfacet
   facet normal -7.233507e-015 -9.984812e-001 5.509473e-002
      outer loop
         vertex 0.000000e+000 0.000000e+000 1.500000e-002
         vertex 6.299488e-001 5.125185e-005 1.376131e-002
         vertex 6.299488e-001 5.125185e-005 1.623869e-002
      endloop
   endfacet
   facet normal -1.087503e-014 -5.236253e-001 -8.519487e-001
      outer loop
         vertex 5.786831e-003 5.786831e-003 3.162893e-003
         vertex 7.860799e-003 7.860799e-003 1.807894e-003
         vertex 6.221392e-001 7.860799e-003 1.807894e-003
      endloop
   endfacet
   facet normal -7.243307e-015 -5.773345e-001 -8.165077e-001
      outer loop
         vertex 5.786831e-003 5.786831e-003 3.162893e-003
         vertex 6.221392e-001 7.860799e-003 1.807894e-003
         vertex 6.242132e-001 5.786831e-003 3.162893e-003
      endloop
   endfacet
   facet normal -1.087503e-014 -6.567098e-001 -7.541434e-001
      outer loop
         vertex 5.786831e-003 5.786831e-003 3.162893e-003
         vertex 6.242132e-001 5.786831e-003 3.162893e-003
         vertex 3.964146e-003 3.964146e-003 4.840776e-003
      endloop
   endfacet
   facet normal -7.241335e-015 -7.060193e-001 -7.081925e-001
      outer loop
         vertex 3.964146e-003 3.964146e-003 4.840776e-003
         vertex 6.242132e-001 5.786831e-003 3.162893e-003
         vertex 6.260359e-001 3.964146e-003 4.840776e-003
      endloop
   endfacet
   facet normal -7.247650e-015 -2.750798e-001 -9.614214e-001
      outer loop
         vertex 1.012953e-002 1.012953e-002 8.127408e-004
         vertex 6.174690e-001 1.253109e-002 2.045799e-004
         vertex 6.198705e-001 1.012953e-002 8.127408e-004
      endloop
   endfacet
   facet normal -1.087503e-014 -3.762575e-001 -9.265151e-001
      outer loop
         vertex 1.012953e-002 1.012953e-002 8.127408e-004
         vertex 6.198705e-001 1.012953e-002 8.127408e-004
         vertex 7.860799e-003 7.860799e-003 1.807894e-003
      endloop
   endfacet
   facet normal -7.245411e-015 -4.323200e-001 -9.017202e-001
      outer loop
         vertex 7.860799e-003 7.860799e-003 1.807894e-003
         vertex 6.198705e-001 1.012953e-002 8.127408e-004
         vertex 6.221392e-001 7.860799e-003 1.807894e-003
      endloop
   endfacet
   facet normal -1.087503e-014 -2.186265e-001 -9.758086e-001
      outer loop
         vertex 1.012953e-002 1.012953e-002 8.127408e-004
         vertex 1.253109e-002 1.253109e-002 2.045799e-004
         vertex 6.174690e-001 1.253109e-002 2.045799e-004
      endloop
   endfacet
   facet normal -6.041684e-015 -1.100638e-001 -9.939246e-001
      outer loop
         vertex 6.174690e-001 1.253109e-002 2.045799e-004
         vertex 1.253109e-002 1.253109e-002 2.045799e-004
         vertex 1.500000e-002 1.500000e-002 0.000000e+000
      endloop
   endfacet
   facet normal -2.416674e-015 -5.503191e-002 -9.984846e-001
      outer loop
         vertex 6.174690e-001 1.253109e-002 2.045799e-004
         vertex 1.500000e-002 1.500000e-002 0.000000e+000
         vertex 6.150000e-001 1.500000e-002 0.000000e+000
      endloop
   endfacet
   facet normal -1.000000e+000 0.000000e+000 0.000000e+000
      outer loop
         vertex 6.150000e-001 1.500000e-002 0.000000e+000
         vertex 6.150000e-001 1.500000e-002 3.000000e-002
         vertex 6.150000e-001 6.150000e-001 0.000000e+000
      endloop
   endfacet
   facet normal -1.000000e+000 0.000000e+000 0.000000e+000
      outer loop
         vertex 6.150000e-001 6.150000e-001 0.000000e+000
         vertex 6.150000e-001 1.500000e-002 3.000000e-002
         vertex 6.150000e-001 6.150000e-001 3.000000e-002
      endloop
   endfacet
   facet normal 5.503191e-002 0.000000e+000 -9.984846e-001
      outer loop
         vertex 6.150000e-001 1.500000e-002 0.000000e+000
         vertex 6.150000e-001 6.150000e-001 0.000000e+000
         vertex 6.174690e-001 1.253109e-002 2.045799e-004
      endloop
   endfacet
   facet normal 1.100638e-001 0.000000e+000 -9.939246e-001
      outer loop
         vertex 6.174690e-001 1.253109e-002 2.045799e-004
         vertex 6.150000e-001 6.150000e-001 0.000000e+000
         vertex 6.174690e-001 6.174690e-001 2.045799e-004
      endloop
   endfacet
   facet normal 2.245781e-001 0.000000e+000 -9.744561e-001
      outer loop
         vertex 6.174690e-001 1.253109e-002 2.045799e-004
         vertex 6.174690e-001 6.174690e-001 2.045799e-004
         vertex 6.198705e-001 1.012953e-002 8.127408e-004
      endloop
   endfacet
   facet normal 2.750798e-001 0.000000e+000 -9.614214e-001
      outer loop
         vertex 6.198705e-001 1.012953e-002 8.127408e-004
         vertex 6.174690e-001 6.174690e-001 2.045799e-004
         vertex 6.198705e-001 6.198705e-001 8.127408e-004
      endloop
   endfacet
   facet normal 3.875470e-001 0.000000e+000 -9.218500e-001
      outer loop
         vertex 6.198705e-001 1.012953e-002 8.127408e-004
         vertex 6.198705e-001 6.198705e-001 8.127408e-004
         vertex 6.221392e-001 7.860799e-003 1.807894e-003
      endloop
   endfacet
   facet normal 4.323200e-001 0.000000e+000 -9.017202e-001
      outer loop
         vertex 6.221392e-001 7.860799e-003 1.807894e-003
         vertex 6.198705e-001 6.198705e-001 8.127408e-004
         vertex 6.221392e-001 6.221392e-001 1.807894e-003
      endloop
   endfacet
   facet normal 5.391570e-001 0.000000e+000 -8.422053e-001
      outer loop
         vertex 6.221392e-001 7.860799e-003 1.807894e-003
         vertex 6.221392e-001 6.221392e-001 1.807894e-003
         vertex 6.242132e-001 5.786831e-003 3.162893e-003
      endloop
   endfacet
   facet normal 5.773345e-001 0.000000e+000 -8.165077e-001
      outer loop
         vertex 6.242132e-001 5.786831e-003 3.162893e-003
         vertex 6.221392e-001 6.221392e-001 1.807894e-003
         vertex 6.242132e-001 6.242132e-001 3.162893e-003
      endloop
   endfacet
   facet normal 6.749589e-001 0.000000e+000 -7.378553e-001
      outer loop
         vertex 6.242132e-001 5.786831e-003 3.162893e-003
         vertex 6.242132e-001 6.242132e-001 3.162893e-003
         vertex 6.260359e-001 3.964146e-003 4.840776e-003
      endloop
   endfacet
   facet normal 7.060193e-001 0.000000e+000 -7.081925e-001
      outer loop
         vertex 6.260359e-001 3.964146e-003 4.840776e-003
         vertex 6.242132e-001 6.242132e-001 3.162893e-003
         vertex 6.260359e-001 6.260359e-001 4.840776e-003
      endloop
   endfacet
   facet normal 7.909672e-001 0.000000e+000 -6.118585e-001
      outer loop
         vertex 6.260359e-001 3.964146e-003 4.840776e-003
         vertex 6.260359e-001 6.260359e-001 4.840776e-003
         vertex 6.275575e-001 2.442510e-003 6.795777e-003
      endloop
   endfacet
   facet normal 8.147319e-001 0.000000e+000 -5.798378e-001
      outer loop
         vertex 6.275575e-001 2.442510e-003 6.795777e-003
         vertex 6.260359e-001 6.260359e-001 4.840776e-003
         vertex 6.275575e-001 6.275575e-001 6.795777e-003
      endloop
   endfacet
   facet normal 8.838009e-001 0.000000e+000 -4.678633e-001
      outer loop
         vertex 6.275575e-001 2.442510e-003 6.795777e-003
         vertex 6.275575e-001 6.275575e-001 6.795777e-003
         vertex 6.287366e-001 1.263426e-003 8.974568e-003
      endloop
   endfacet
   facet normal 9.004059e-001 0.000000e+000 -4.350508e-001
      outer loop
         vertex 6.287366e-001 1.263426e-003 8.974568e-003
         vertex 6.275575e-001 6.275575e-001 6.795777e-003
         vertex 6.287366e-001 6.287366e-001 8.974568e-003
      endloop
   endfacet
   facet normal 9.506733e-001 0.000000e+000 -3.101937e-001
      outer loop
         vertex 6.287366e-001 1.263426e-003 8.974568e-003
         vertex 6.287366e-001 6.287366e-001 8.974568e-003
         vertex 6.295410e-001 4.589965e-004 1.131772e-002
      endloop
   endfacet
   facet normal 9.605871e-001 0.000000e+000 -2.779790e-001
      outer loop
         vertex 6.295410e-001 4.589965e-004 1.131772e-002
         vertex 6.287366e-001 6.287366e-001 8.974568e-003
         vertex 6.295410e-001 6.295410e-001 1.131772e-002
      endloop
   endfacet
   facet normal 9.896610e-001 0.000000e+000 -1.434264e-001
      outer loop
         vertex 6.295410e-001 4.589965e-004 1.131772e-002
         vertex 6.295410e-001 6.295410e-001 1.131772e-002
         vertex 6.299488e-001 6.299488e-001 1.376131e-002
      endloop
   endfacet
   facet normal 9.935902e-001 0.000000e+000 -1.130416e-001
      outer loop
         vertex 6.295410e-001 4.589965e-004 1.131772e-002
         vertex 6.299488e-001 6.299488e-001 1.376131e-002
         vertex 6.299488e-001 5.125185e-005 1.376131e-002
      endloop
   endfacet
   facet normal 9.996205e-001 0.000000e+000 2.754737e-002
      outer loop
         vertex 6.299488e-001 5.125185e-005 1.376131e-002
         vertex 6.299488e-001 6.299488e-001 1.376131e-002
         vertex 6.299488e-001 5.125185e-005 1.623869e-002
      endloop
   endfacet
   facet normal 9.984812e-001 0.000000e+000 5.509473e-002
      outer loop
         vertex 6.299488e-001 5.125185e-005 1.623869e-002
         vertex 6.299488e-001 6.299488e-001 1.376131e-002
         vertex 6.299488e-001 6.299488e-001 1.623869e-002
      endloop
   endfacet
   facet normal 9.802600e-001 0.000000e+000 1.977126e-001
      outer loop
         vertex 6.299488e-001 5.125185e-005 1.623869e-002
         vertex 6.299488e-001 6.299488e-001 1.623869e-002
         vertex 6.295410e-001 6.295410e-001 1.868228e-002
      endloop
   endfacet
   facet normal 9.751211e-001 0.000000e+000 2.216727e-001
      outer loop
         vertex 6.299488e-001 5.125185e-005 1.623869e-002
         vertex 6.295410e-001 6.295410e-001 1.868228e-002
         vertex 6.295410e-001 4.589965e-004 1.868228e-002
      endloop
   endfacet
   facet normal 9.605871e-001 0.000000e+000 2.779790e-001
      outer loop
         vertex 6.295410e-001 4.589965e-004 1.868228e-002
         vertex 6.295410e-001 6.295410e-001 1.868228e-002
         vertex 6.287366e-001 6.287366e-001 2.102543e-002
      endloop
   endfacet
   facet normal 9.241710e-001 0.000000e+000 3.819791e-001
      outer loop
         vertex 6.295410e-001 4.589965e-004 1.868228e-002
         vertex 6.287366e-001 6.287366e-001 2.102543e-002
         vertex 6.287366e-001 1.263426e-003 2.102543e-002
      endloop
   endfacet
   facet normal 9.004059e-001 0.000000e+000 4.350508e-001
      outer loop
         vertex 6.287366e-001 1.263426e-003 2.102543e-002
         vertex 6.287366e-001 6.287366e-001 2.102543e-002
         vertex 6.275575e-001 6.275575e-001 2.320422e-002
      endloop
   endfacet
   facet normal 7.910047e-001 0.000000e+000 6.118101e-001
      outer loop
         vertex 6.260044e-001 6.260044e-001 2.512806e-002
         vertex 6.264907e-001 3.509340e-003 2.464181e-002
         vertex 6.275575e-001 6.275575e-001 2.320422e-002
      endloop
   endfacet
   facet normal 8.147496e-001 0.000000e+000 5.798129e-001
      outer loop
         vertex 6.275575e-001 6.275575e-001 2.320422e-002
         vertex 6.264907e-001 3.509340e-003 2.464181e-002
         vertex 6.275575e-001 2.442510e-003 2.320422e-002
      endloop
   endfacet
   facet normal 8.566949e-001 0.000000e+000 5.158235e-001
      outer loop
         vertex 6.275575e-001 6.275575e-001 2.320422e-002
         vertex 6.275575e-001 2.442510e-003 2.320422e-002
         vertex 6.287366e-001 1.263426e-003 2.102543e-002
      endloop
   endfacet
   facet normal 7.168317e-001 0.000000e+000 6.972462e-001
      outer loop
         vertex 6.264907e-001 3.509340e-003 2.464181e-002
         vertex 6.260044e-001 6.260044e-001 2.512806e-002
         vertex 6.246418e-001 5.358190e-003 2.649067e-002
      endloop
   endfacet
   facet normal 6.750329e-001 0.000000e+000 7.377876e-001
      outer loop
         vertex 6.246418e-001 5.358190e-003 2.649067e-002
         vertex 6.260044e-001 6.260044e-001 2.512806e-002
         vertex 6.241912e-001 6.241912e-001 2.680618e-002
      endloop
   endfacet
   facet normal 5.873531e-001 0.000000e+000 8.093308e-001
      outer loop
         vertex 6.246418e-001 5.358190e-003 2.649067e-002
         vertex 6.241912e-001 6.241912e-001 2.680618e-002
         vertex 6.225000e-001 7.499999e-003 2.799038e-002
      endloop
   endfacet
   facet normal 5.392388e-001 0.000000e+000 8.421528e-001
      outer loop
         vertex 6.225000e-001 7.499999e-003 2.799038e-002
         vertex 6.241912e-001 6.241912e-001 2.680618e-002
         vertex 6.221262e-001 6.221262e-001 2.816471e-002
      endloop
   endfacet
   facet normal 4.406454e-001 0.000000e+000 8.976812e-001
      outer loop
         vertex 6.225000e-001 7.499999e-003 2.799038e-002
         vertex 6.221262e-001 6.221262e-001 2.816471e-002
         vertex 6.198647e-001 1.013532e-002 2.916656e-002
      endloop
   endfacet
   facet normal 3.876238e-001 0.000000e+000 9.218176e-001
      outer loop
         vertex 6.198647e-001 1.013532e-002 2.916656e-002
         vertex 6.221262e-001 6.221262e-001 2.816471e-002
         vertex 6.198647e-001 6.198647e-001 2.916656e-002
      endloop
   endfacet
   facet normal 2.810100e-001 0.000000e+000 9.597048e-001
      outer loop
         vertex 6.198647e-001 1.013532e-002 2.916656e-002
         vertex 6.198647e-001 6.198647e-001 2.916656e-002
         vertex 6.174678e-001 1.253223e-002 2.978410e-002
      endloop
   endfacet
   facet normal 2.246337e-001 0.000000e+000 9.744433e-001
      outer loop
         vertex 6.174678e-001 1.253223e-002 2.978410e-002
         vertex 6.198647e-001 6.198647e-001 2.916656e-002
         vertex 6.174678e-001 6.174678e-001 2.978410e-002
      endloop
   endfacet
   facet normal 1.131274e-001 0.000000e+000 9.935805e-001
      outer loop
         vertex 6.174678e-001 1.253223e-002 2.978410e-002
         vertex 6.174678e-001 6.174678e-001 2.978410e-002
         vertex 6.150000e-001 1.500000e-002 3.000000e-002
      endloop
   endfacet
   facet normal 5.504831e-002 0.000000e+000 9.984837e-001
      outer loop
         vertex 6.150000e-001 1.500000e-002 3.000000e-002
         vertex 6.174678e-001 6.174678e-001 2.978410e-002
         vertex 6.150000e-001 6.150000e-001 3.000000e-002
      endloop
   endfacet
endsolid