ply
format ascii 1.0
comment VCGLIB generated
element vertex 84
property float x
property float y
property float z
property float nx
property float ny
property float nz
property uchar red
property uchar green
property uchar blue
property uchar alpha
element face 168
property list uchar int vertex_indices
end_header
-0.404843 -0.3 -0.025 0 1.50838 0 0 0 0 255 
0.395157 -0.3 0.025 0 1.50838 0 0 0 0 255 
0.400863 -0.304113 0.0246402 0.000116109 -0.623943 2.42242 0 0 0 255 
0.411635 -0.311877 0.0219413 2.59487e-011 -0.00223209 0.00478673 0 0 0 255 
0.420603 -0.318341 0.0168802 1.59411e-011 -0.0036458 0.0036458 0 0 0 255 
-0.423994 -0.319151 0.0160697 0 -1.7091 1.19673 0 0 0 255 
0.427751 -0.323492 0.0085505 0 -0.938367 0.437567 0 0 0 255 
0.429316 -0.32462 0.0043412 0 -1.17935 0.316005 0 0 0 255 
0.429724 -0.324915 0.00206448 0 -1.62669 0.06728 0 0 0 255 
-0.429757 -0.324915 0.00206448 0 -1.60832 0.0665202 0 0 0 255 
0.429843 -0.325 0 0 -1.50982 -0.0624461 0 0 0 255 
-0.429078 -0.324235 -0.00613714 0 -0.00473119 -0.000789494 0 0 0 255 
0.428781 -0.324235 -0.00613714 0 -1.77083 -0.295499 0 0 0 255 
0.426921 -0.322894 -0.0100424 -0.000212701 -0.869916 -0.470617 0 0 0 255 
-0.428335 -0.323492 -0.0085505 -1.04217e-006 -0.00426231 -0.00230587 0 0 0 255 
-0.42394 -0.319097 -0.0160274 -1.09472e-006 -0.00332436 -0.00360957 0 0 0 255 
0.400866 -0.304115 -0.024659 2.61669e-008 -0.00139985 -0.00515088 0 0 0 255 
0.40642 -0.308117 -0.0236454 -5.88448e-005 -0.157158 -0.620279 0 0 0 255 
-0.41338 -0.308537 -0.0234613 3.35757e-005 -0.981363 -2.08779 0 0 0 255 
-0.417317 -0.312474 -0.0216107 6.50344e-005 -1.29937 -1.84551 0 0 0 255 
0.411666 -0.311899 -0.0219868 -0.00043651 -1.32662 -2.02962 0 0 0 255 
-0.404843 -0.3 0.025 0.0831408 0 0 0 0 0 255 
-0.409184 0.304341 0.0246202 -0.067992 0 0.777142 0 0 0 255 
-0.413393 -0.30855 0.0234923 -0.97205 0 2.08457 0 0 0 255 
-0.409184 -0.304341 0.0246202 -0.605339 0 2.25917 0 0 0 255 
-0.417343 0.3125 0.0216506 -0.349714 0 0.749965 0 0 0 255 
-0.417343 -0.3125 0.0216506 -1.29065 0 1.84323 0 0 0 255 
-0.420913 -0.31607 0.0191511 -0.00485221 0 0.00485221 0 0 0 255 
-0.420913 0.31607 0.0191511 -1.54593 0 1.54593 0 0 0 255 
-0.426493 -0.321651 0.0125 -0.854565 0 0.598374 0 0 0 255 
-0.426493 0.321651 0.0125 -1.786 0 0.832824 0 0 0 255 
-0.428335 -0.323492 0.0085505 -1.06124 0 0.494862 0 0 0 255 
-0.429463 -0.32462 0.0043412 -0.00350872 0 0.000453736 0 0 0 255 
-0.429843 -0.325 0 -1.52501 0 0.0630746 0 0 0 255 
-0.429757 -0.324915 -0.00206448 -1.60754 0 -0.0664881 0 0 0 255 
-0.429757 0.324915 -0.00206448 -1.6107 0 -0.0666188 0 0 0 255 
-0.429078 0.324235 -0.00613714 -0.00627035 0 -0.00104633 0 0 0 255 
-0.426493 -0.321651 -0.0125 -0.84102 -0.000167945 -0.608923 0 0 0 255 
-0.423236 0.318393 -0.016932 -0.635606 -0.000277331 -0.690151 0 0 0 255 
-0.420198 0.315355 -0.0197285 -0.00484402 4.3135e-007 -0.00482345 0 0 0 255 
-0.420873 -0.31603 -0.0191075 -1.54955 0.000137984 -1.54297 0 0 0 255 
-0.41296 0.308118 -0.0236454 -0.0029849 1.35788e-007 -0.00635012 0 0 0 255 
-0.40918 -0.304337 -0.0246028 -0.613246 0 -2.25654 0 0 0 255 
0.201008 0.308118 -0.0236454 0.820908 0.273636 -1.97276 0 0 0 255 
0.198122 0.304113 0.0246402 0.514513 0.171504 2.10504 0 0 0 255 
0.406406 -0.308108 0.023611 0.00150909 0.000503029 0.00617415 0 0 0 255 
0.201001 0.308108 0.0236109 0.825077 0.275026 1.96313 0 0 0 255 
0.41641 -0.315319 0.0196771 0.367906 0.122635 0.589492 0 0 0 255 
0.203718 0.311877 0.0219411 1.09835 0.366117 1.7599 0 0 0 255 
0.425196 -0.321651 0.0125 0.655524 0.218508 0.522147 0 0 0 255 
0.208376 0.318341 0.01688 1.46763 0.488667 1.24845 0 0 0 255 
0.211658 0.322894 0.0100424 1.60527 0.53509 0.512253 0 0 0 255 
0.429724 -0.324915 -0.00206448 1.25413 0.418043 -0.22061 0 0 0 255 
0.213176 0.325 0 0.00287178 0.000957259 0.000125238 0 0 0 255 
0.424195 -0.320929 -0.0136737 0.643029 0.214343 -0.527558 0 0 0 255 
0.420676 -0.318393 -0.016932 0.494071 0.164691 -0.565738 0 0 0 255 
0.206225 0.315355 -0.0197285 0.533356 0.177785 -0.860494 0 0 0 255 
0.416462 -0.315355 -0.0197285 0.00322482 0.00107494 -0.00520279 0 0 0 255 
0.203733 0.311899 -0.0219868 0.00322973 0.00107658 -0.00521085 0 0 0 255 
0.395157 -0.3 -0.025 0.000508204 0.000169401 -0.00646483 0 0 0 255 
0.195157 0.3 0.025 0 -0.0831408 0 0 0 0 255 
-0.404843 0.3 0.025 0 -1.5708 0 0 0 0 255 
0.195157 0.3 -0.025 0 0.181156 -2.18621 0 0 0 255 
-0.404843 0.3 -0.025 0 0.000565233 -0.00682129 0 0 0 255 
0.198123 0.304115 -0.024659 -4.25703e-007 0.000658651 -0.00719584 0 0 0 255 
-0.40918 0.304337 -0.0246028 -1.62787e-010 0.0016631 -0.00656733 0 0 0 255 
-0.416742 0.311899 -0.0219868 0 0.33314 -0.759484 0 0 0 255 
0.208414 0.318393 -0.016932 0 0.00444291 -0.00482652 0 0 0 255 
0.213115 0.324915 -0.00206448 0 1.43292 -0.239113 0 0 0 255 
0.212625 0.324235 -0.00613714 0 1.65949 -0.276922 0 0 0 255 
0.211658 0.322894 -0.0100424 0 1.09085 -0.59032 0 0 0 255 
-0.427737 0.322894 -0.0100424 0 0.985105 -0.533096 0 0 0 255 
-0.425772 0.320929 -0.0136737 0 0.804922 -0.626479 0 0 0 255 
0.210242 0.320929 -0.0136737 0 0.00514812 -0.00400683 0 0 0 255 
0.210242 0.320929 0.0136737 -0.000316752 0.893199 0.720876 0 0 0 255 
-0.428335 0.323492 0.0085505 0.000546733 1.76435 0.472617 0 0 0 255 
-0.429463 0.32462 0.0043412 0 0.00889174 0.00269169 0 0 0 255 
0.212902 0.32462 0.0043412 0 1.30637 0.395461 0 0 0 255 
-0.429757 0.324915 0.00206448 0 1.61072 0.0665937 0 0 0 255 
0.213115 0.324915 0.00206448 0 0.00321769 0.000133032 0 0 0 255 
-0.429843 0.325 0 0 1.52498 0.0630487 0 0 0 255 
-0.423994 0.319151 0.0160697 0.000240584 0.669731 0.669482 0 0 0 255 
0.206198 0.315319 0.0196769 -4.36288e-005 0.56625 0.860701 0 0 0 255 
-0.413393 0.308551 0.0234923 5.20651e-005 0.205868 0.76813 0 0 0 255 
3 21 1 0 
3 0 1 59 
3 2 1 21 
3 21 24 2 
3 2 24 45 
3 24 23 45 
3 45 23 3 
3 23 26 3 
3 3 26 47 
3 26 27 47 
3 47 27 4 
3 27 5 4 
3 4 5 49 
3 49 5 29 
3 49 29 6 
3 6 29 31 
3 6 31 7 
3 7 31 32 
3 7 32 8 
3 8 32 9 
3 8 9 10 
3 9 33 10 
3 10 33 34 
3 10 34 52 
3 52 34 11 
3 52 11 12 
3 12 11 14 
3 12 14 13 
3 13 14 54 
3 54 14 37 
3 54 37 55 
3 55 37 15 
3 55 15 57 
3 57 15 40 
3 0 59 42 
3 42 59 16 
3 42 16 18 
3 18 16 17 
3 18 17 19 
3 19 17 20 
3 19 20 40 
3 40 20 57 
3 61 21 63 
3 63 21 0 
3 61 22 21 
3 21 22 24 
3 25 26 23 
3 24 22 23 
3 23 22 83 
3 23 83 25 
3 28 27 26 
3 26 25 28 
3 81 5 27 
3 27 28 81 
3 5 81 29 
3 81 30 29 
3 29 30 75 
3 29 75 31 
3 31 75 76 
3 31 76 32 
3 32 76 78 
3 32 78 9 
3 9 78 33 
3 33 78 80 
3 33 80 34 
3 80 35 34 
3 34 35 36 
3 34 36 11 
3 72 38 15 
3 72 15 37 
3 72 37 71 
3 71 37 14 
3 71 14 36 
3 36 14 11 
3 15 38 39 
3 15 39 40 
3 40 39 66 
3 40 66 19 
3 19 66 41 
3 19 41 18 
3 18 41 65 
3 18 65 42 
3 42 65 63 
3 42 63 0 
3 1 60 59 
3 59 60 62 
3 43 58 17 
3 2 44 60 
3 2 60 1 
3 44 2 45 
3 44 45 46 
3 46 45 3 
3 46 3 48 
3 48 3 47 
3 48 47 82 
3 82 47 4 
3 82 4 50 
3 50 4 49 
3 50 49 74 
3 8 77 7 
3 7 77 51 
3 7 51 6 
3 6 51 74 
3 6 74 49 
3 54 67 73 
3 54 73 13 
3 13 73 70 
3 13 70 12 
3 12 70 69 
3 12 69 52 
3 52 69 68 
3 52 68 10 
3 10 68 53 
3 10 53 8 
3 8 53 79 
3 8 79 77 
3 54 55 67 
3 67 55 56 
3 55 57 56 
3 56 57 58 
3 58 57 20 
3 58 20 17 
3 43 17 64 
3 64 17 16 
3 64 16 59 
3 64 59 62 
3 62 60 63 
3 63 60 61 
3 64 62 63 
3 63 65 64 
3 64 65 43 
3 65 41 43 
3 43 41 58 
3 41 66 58 
3 58 66 56 
3 66 39 56 
3 56 39 67 
3 39 38 67 
3 67 38 73 
3 80 68 35 
3 35 68 69 
3 35 69 36 
3 36 69 70 
3 36 70 71 
3 71 70 73 
3 71 73 72 
3 72 73 38 
3 81 50 30 
3 30 50 74 
3 30 74 75 
3 75 74 51 
3 75 51 76 
3 76 51 77 
3 76 77 78 
3 78 77 79 
3 78 79 80 
3 80 79 53 
3 80 53 68 
3 50 81 82 
3 82 81 28 
3 82 28 48 
3 48 28 25 
3 48 25 46 
3 46 25 83 
3 46 83 44 
3 44 83 22 
3 44 22 60 
3 60 22 61 
