solid TrapTarget
   facet normal -3.614007e-016 1.000000e+000 0.000000e+000
      outer loop
         vertex 0.000000e+000 6.000000e-001 3.500000e-002
         vertex 6.000000e-001 6.000000e-001 3.500000e-002
         vertex 0.000000e+000 6.000000e-001 1.500000e-002
      endloop
   endfacet
   facet normal -3.614007e-016 1.000000e+000 0.000000e+000
      outer loop
         vertex 0.000000e+000 6.000000e-001 1.500000e-002
         vertex 6.000000e-001 6.000000e-001 3.500000e-002
         vertex 6.000000e-001 6.000000e-001 1.500000e-002
      endloop
   endfacet
   facet normal -1.000000e+000 0.000000e+000 0.000000e+000
      outer loop
         vertex 0.000000e+000 2.168404e-016 3.500000e-002
         vertex 0.000000e+000 6.000000e-001 3.500000e-002
         vertex 0.000000e+000 2.168404e-016 1.500000e-002
      endloop
   endfacet
   facet normal -1.000000e+000 0.000000e+000 0.000000e+000
      outer loop
         vertex 0.000000e+000 2.168404e-016 1.500000e-002
         vertex 0.000000e+000 6.000000e-001 3.500000e-002
         vertex 0.000000e+000 6.000000e-001 1.500000e-002
      endloop
   endfacet
   facet normal 0.000000e+000 -1.000000e+000 0.000000e+000
      outer loop
         vertex 8.000000e-001 0.000000e+000 3.500000e-002
         vertex 0.000000e+000 0.000000e+000 3.500000e-002
         vertex 8.000000e-001 0.000000e+000 1.500000e-002
      endloop
   endfacet
   facet normal 0.000000e+000 -1.000000e+000 0.000000e+000
      outer loop
         vertex 8.000000e-001 0.000000e+000 1.500000e-002
         vertex 0.000000e+000 0.000000e+000 3.500000e-002
         vertex 0.000000e+000 0.000000e+000 1.500000e-002
      endloop
   endfacet
   facet normal 9.486833e-001 3.162278e-001 0.000000e+000
      outer loop
         vertex 6.000000e-001 6.000000e-001 3.500000e-002
         vertex 8.000000e-001 0.000000e+000 3.500000e-002
         vertex 6.000000e-001 6.000000e-001 1.500000e-002
      endloop
   endfacet
   facet normal 9.486833e-001 3.162278e-001 0.000000e+000
      outer loop
         vertex 6.000000e-001 6.000000e-001 1.500000e-002
         vertex 8.000000e-001 0.000000e+000 3.500000e-002
         vertex 8.000000e-001 0.000000e+000 1.500000e-002
      endloop
   endfacet
   facet normal 0.000000e+000 0.000000e+000 1.000000e+000
      outer loop
         vertex 0.000000e+000 0.000000e+000 3.500000e-002
         vertex 8.000000e-001 0.000000e+000 3.500000e-002
         vertex 0.000000e+000 6.000000e-001 3.500000e-002
      endloop
   endfacet
   facet normal 0.000000e+000 0.000000e+000 1.000000e+000
      outer loop
         vertex 0.000000e+000 6.000000e-001 3.500000e-002
         vertex 8.000000e-001 0.000000e+000 3.500000e-002
         vertex 6.000000e-001 6.000000e-001 3.500000e-002
      endloop
   endfacet
   facet normal 0.000000e+000 0.000000e+000 -1.000000e+000
      outer loop
         vertex 8.000000e-001 0.000000e+000 1.500000e-002
         vertex 0.000000e+000 0.000000e+000 1.500000e-002
         vertex 6.000000e-001 6.000000e-001 1.500000e-002
      endloop
   endfacet
   facet normal 0.000000e+000 0.000000e+000 -1.000000e+000
      outer loop
         vertex 6.000000e-001 6.000000e-001 1.500000e-002
         vertex 0.000000e+000 0.000000e+000 1.500000e-002
         vertex 0.000000e+000 6.000000e-001 1.500000e-002
      endloop
   endfacet
endsolid