solid TrapPipe
   facet normal 0.000000e+000 1.000000e+000 0.000000e+000
      outer loop
         vertex 2.500000e-002 2.500000e-002 5.000000e-002
         vertex 8.250000e-001 2.500000e-002 5.000000e-002
         vertex 2.500000e-002 2.500000e-002 0.000000e+000
      endloop
   endfacet
   facet normal 0.000000e+000 1.000000e+000 0.000000e+000
      outer loop
         vertex 2.500000e-002 2.500000e-002 0.000000e+000
         vertex 8.250000e-001 2.500000e-002 5.000000e-002
         vertex 8.250000e-001 2.500000e-002 0.000000e+000
      endloop
   endfacet
   facet normal -7.250034e-015 -5.504727e-002 9.984838e-001
      outer loop
         vertex 8.307063e-001 2.088711e-002 4.964017e-002
         vertex 8.250000e-001 2.500000e-002 5.000000e-002
         vertex 2.500000e-002 2.500000e-002 5.000000e-002
      endloop
   endfacet
   facet normal -1.232725e-014 -1.131274e-001 9.935805e-001
      outer loop
         vertex 2.500000e-002 2.500000e-002 5.000000e-002
         vertex 2.065879e-002 2.065879e-002 4.962019e-002
         vertex 8.307063e-001 2.088711e-002 4.964017e-002
      endloop
   endfacet
   facet normal -7.247659e-015 -2.246320e-001 9.744437e-001
      outer loop
         vertex 8.307063e-001 2.088711e-002 4.964017e-002
         vertex 2.065879e-002 2.065879e-002 4.962019e-002
         vertex 8.362489e-001 1.689230e-002 4.861096e-002
      endloop
   endfacet
   facet normal -1.232540e-014 -2.810100e-001 9.597048e-001
      outer loop
         vertex 2.065879e-002 2.065879e-002 4.962019e-002
         vertex 1.644950e-002 1.644950e-002 4.849232e-002
         vertex 8.362489e-001 1.689230e-002 4.861096e-002
      endloop
   endfacet
   facet normal -7.245416e-015 -3.876218e-001 9.218185e-001
      outer loop
         vertex 8.362489e-001 1.689230e-002 4.861096e-002
         vertex 1.644950e-002 1.644950e-002 4.849232e-002
         vertex 8.414781e-001 1.312325e-002 4.694126e-002
      endloop
   endfacet
   facet normal -1.232378e-014 -4.406454e-001 8.976812e-001
      outer loop
         vertex 1.644950e-002 1.644950e-002 4.849232e-002
         vertex 1.250000e-002 1.250000e-002 4.665064e-002
         vertex 8.414781e-001 1.312325e-002 4.694126e-002
      endloop
   endfacet
   facet normal -7.243309e-015 -5.392369e-001 8.421541e-001
      outer loop
         vertex 8.414781e-001 1.312325e-002 4.694126e-002
         vertex 1.250000e-002 1.250000e-002 4.665064e-002
         vertex 8.462533e-001 9.681442e-003 4.467706e-002
      endloop
   endfacet
   facet normal -1.232239e-014 -5.873531e-001 8.093308e-001
      outer loop
         vertex 1.250000e-002 1.250000e-002 4.665064e-002
         vertex 8.930309e-003 8.930309e-003 4.415111e-002
         vertex 8.462533e-001 9.681442e-003 4.467706e-002
      endloop
   endfacet
   facet normal -7.241335e-015 -6.750313e-001 7.377890e-001
      outer loop
         vertex 8.462533e-001 9.681442e-003 4.467706e-002
         vertex 8.930309e-003 8.930309e-003 4.415111e-002
         vertex 8.504462e-001 6.659422e-003 4.188022e-002
      endloop
   endfacet
   facet normal -1.232123e-014 -7.168316e-001 6.972463e-001
      outer loop
         vertex 8.930309e-003 8.930309e-003 4.415111e-002
         vertex 5.848888e-003 5.848888e-003 4.106969e-002
         vertex 8.504462e-001 6.659422e-003 4.188022e-002
      endloop
   endfacet
   facet normal -7.239481e-015 -7.910047e-001 6.118101e-001
      outer loop
         vertex 8.504462e-001 6.659422e-003 4.188022e-002
         vertex 5.848888e-003 5.848888e-003 4.106969e-002
         vertex 8.550386e-001 3.349363e-003 3.750000e-002
      endloop
   endfacet
   facet normal -1.230712e-014 -8.147496e-001 5.798129e-001
      outer loop
         vertex 8.550386e-001 3.349363e-003 3.750000e-002
         vertex 5.848888e-003 5.848888e-003 4.106969e-002
         vertex 3.349363e-003 3.349363e-003 3.750000e-002
      endloop
   endfacet
   facet normal -7.237783e-015 -8.838009e-001 4.678633e-001
      outer loop
         vertex 8.550386e-001 3.349363e-003 3.750000e-002
         vertex 3.349363e-003 3.349363e-003 3.750000e-002
         vertex 8.575938e-001 1.507684e-003 3.355050e-002
      endloop
   endfacet
   facet normal -1.230423e-014 -9.004059e-001 4.350508e-001
      outer loop
         vertex 8.575938e-001 1.507684e-003 3.355050e-002
         vertex 3.349363e-003 3.349363e-003 3.750000e-002
         vertex 1.507684e-003 1.507684e-003 3.355050e-002
      endloop
   endfacet
   facet normal -7.236221e-015 -9.506733e-001 3.101937e-001
      outer loop
         vertex 8.575938e-001 1.507684e-003 3.355050e-002
         vertex 1.507684e-003 1.507684e-003 3.355050e-002
         vertex 8.591587e-001 3.798050e-004 2.934120e-002
      endloop
   endfacet
   facet normal -1.230158e-014 -9.605871e-001 2.779790e-001
      outer loop
         vertex 8.591587e-001 3.798050e-004 2.934120e-002
         vertex 1.507684e-003 1.507684e-003 3.355050e-002
         vertex 3.798050e-004 3.798050e-004 2.934120e-002
      endloop
   endfacet
   facet normal -7.234796e-015 -9.896610e-001 1.434264e-001
      outer loop
         vertex 8.591587e-001 3.798050e-004 2.934120e-002
         vertex 3.798050e-004 3.798050e-004 2.934120e-002
         vertex 8.595672e-001 8.538700e-005 2.706448e-002
      endloop
   endfacet
   facet normal -1.229915e-014 -9.935902e-001 1.130416e-001
      outer loop
         vertex 8.595672e-001 8.538700e-005 2.706448e-002
         vertex 3.798050e-004 3.798050e-004 2.934120e-002
         vertex 8.538700e-005 8.538700e-005 2.706448e-002
      endloop
   endfacet
   facet normal -7.233507e-015 -9.984812e-001 5.509473e-002
      outer loop
         vertex 8.595672e-001 8.538700e-005 2.706448e-002
         vertex 8.538700e-005 8.538700e-005 2.706448e-002
         vertex 8.596857e-001 0.000000e+000 2.500000e-002
      endloop
   endfacet
   facet normal -1.229696e-014 -9.996205e-001 2.754737e-002
      outer loop
         vertex 8.538700e-005 8.538700e-005 2.706448e-002
         vertex 0.000000e+000 0.000000e+000 2.500000e-002
         vertex 8.596857e-001 0.000000e+000 2.500000e-002
      endloop
   endfacet
   facet normal -1.229696e-014 -9.996205e-001 -2.754737e-002
      outer loop
         vertex 8.596857e-001 0.000000e+000 2.500000e-002
         vertex 0.000000e+000 0.000000e+000 2.500000e-002
         vertex 8.538700e-005 8.538700e-005 2.293552e-002
      endloop
   endfacet
   facet normal -7.233507e-015 -9.984812e-001 -5.509473e-002
      outer loop
         vertex 8.596857e-001 0.000000e+000 2.500000e-002
         vertex 8.538700e-005 8.538700e-005 2.293552e-002
         vertex 8.595672e-001 8.538700e-005 2.293552e-002
      endloop
   endfacet
   facet normal -1.229915e-014 -9.935902e-001 -1.130416e-001
      outer loop
         vertex 8.595672e-001 8.538700e-005 2.293552e-002
         vertex 8.538700e-005 8.538700e-005 2.293552e-002
         vertex 7.649924e-004 7.649924e-004 1.886286e-002
      endloop
   endfacet
   facet normal -7.234796e-015 -9.896610e-001 -1.434264e-001
      outer loop
         vertex 8.595672e-001 8.538700e-005 2.293552e-002
         vertex 7.649924e-004 7.649924e-004 1.886286e-002
         vertex 8.586243e-001 7.649924e-004 1.886286e-002
      endloop
   endfacet
   facet normal -1.230158e-014 -9.605871e-001 -2.779790e-001
      outer loop
         vertex 8.586243e-001 7.649924e-004 1.886286e-002
         vertex 7.649924e-004 7.649924e-004 1.886286e-002
         vertex 1.507684e-003 1.507684e-003 1.644950e-002
      endloop
   endfacet
   facet normal -7.236221e-015 -9.506733e-001 -3.101937e-001
      outer loop
         vertex 8.586243e-001 7.649924e-004 1.886286e-002
         vertex 1.507684e-003 1.507684e-003 1.644950e-002
         vertex 8.567642e-001 2.105666e-003 1.495761e-002
      endloop
   endfacet
   facet normal -7.237782e-015 -9.004059e-001 -4.350508e-001
      outer loop
         vertex 8.567642e-001 2.105666e-003 1.495761e-002
         vertex 1.507684e-003 1.507684e-003 1.644950e-002
         vertex 8.540377e-001 4.070838e-003 1.132630e-002
      endloop
   endfacet
   facet normal -1.230423e-014 -8.838009e-001 -4.678633e-001
      outer loop
         vertex 8.540377e-001 4.070838e-003 1.132630e-002
         vertex 1.507684e-003 1.507684e-003 1.644950e-002
         vertex 3.349363e-003 3.349363e-003 1.250000e-002
      endloop
   endfacet
   facet normal -7.239497e-015 -8.147329e-001 -5.798365e-001
      outer loop
         vertex 8.540377e-001 4.070838e-003 1.132630e-002
         vertex 3.349363e-003 3.349363e-003 1.250000e-002
         vertex 8.505191e-001 6.606902e-003 8.067960e-003
      endloop
   endfacet
   facet normal -1.230715e-014 -7.909682e-001 -6.118572e-001
      outer loop
         vertex 8.505191e-001 6.606902e-003 8.067960e-003
         vertex 3.349363e-003 3.349363e-003 1.250000e-002
         vertex 5.902813e-003 5.902813e-003 8.972573e-003
      endloop
   endfacet
   facet normal -7.241334e-015 -7.060208e-001 -7.081912e-001
      outer loop
         vertex 8.505191e-001 6.606902e-003 8.067960e-003
         vertex 5.902813e-003 5.902813e-003 8.972573e-003
         vertex 8.463044e-001 9.644682e-003 5.271486e-003
      endloop
   endfacet
   facet normal -1.231027e-014 -6.749604e-001 -7.378539e-001
      outer loop
         vertex 8.463044e-001 9.644682e-003 5.271486e-003
         vertex 5.902813e-003 5.902813e-003 8.972573e-003
         vertex 8.970052e-003 8.970052e-003 5.892529e-003
      endloop
   endfacet
   facet normal -6.525019e-015 -5.503191e-002 -9.984846e-001
      outer loop
         vertex 2.500000e-002 2.500000e-002 0.000000e+000
         vertex 8.250000e-001 2.500000e-002 0.000000e+000
         vertex 2.066299e-002 2.066299e-002 3.972218e-004
      endloop
   endfacet
   facet normal -7.250022e-015 -1.100638e-001 -9.939246e-001
      outer loop
         vertex 2.066299e-002 2.066299e-002 3.972218e-004
         vertex 8.250000e-001 2.500000e-002 0.000000e+000
         vertex 8.307090e-001 2.088513e-002 3.409659e-004
      endloop
   endfacet
   facet normal -1.232100e-014 -2.245790e-001 -9.744559e-001
      outer loop
         vertex 2.066299e-002 2.066299e-002 3.972218e-004
         vertex 8.307090e-001 2.088513e-002 3.409659e-004
         vertex 1.646274e-002 1.646274e-002 1.538698e-003
      endloop
   endfacet
   facet normal -7.247649e-015 -2.750807e-001 -9.614211e-001
      outer loop
         vertex 1.646274e-002 1.646274e-002 1.538698e-003
         vertex 8.307090e-001 2.088513e-002 3.409659e-004
         vertex 8.362624e-001 1.688251e-002 1.354569e-003
      endloop
   endfacet
   facet normal -1.231720e-014 -3.875484e-001 -9.218493e-001
      outer loop
         vertex 1.646274e-002 1.646274e-002 1.538698e-003
         vertex 8.362624e-001 1.688251e-002 1.354569e-003
         vertex 1.252564e-002 1.252564e-002 3.389263e-003
      endloop
   endfacet
   facet normal -7.245411e-015 -4.323214e-001 -9.017196e-001
      outer loop
         vertex 1.252564e-002 1.252564e-002 3.389263e-003
         vertex 8.362624e-001 1.688251e-002 1.354569e-003
         vertex 8.415086e-001 1.310132e-002 3.013156e-003
      endloop
   endfacet
   facet normal -1.231362e-014 -5.391586e-001 -8.422042e-001
      outer loop
         vertex 1.252564e-002 1.252564e-002 3.389263e-003
         vertex 8.415086e-001 1.310132e-002 3.013156e-003
         vertex 8.970052e-003 8.970052e-003 5.892529e-003
      endloop
   endfacet
   facet normal -7.243305e-015 -5.773361e-001 -8.165066e-001
      outer loop
         vertex 8.970052e-003 8.970052e-003 5.892529e-003
         vertex 8.415086e-001 1.310132e-002 3.013156e-003
         vertex 8.463044e-001 9.644682e-003 5.271486e-003
      endloop
   endfacet
   facet normal 1.000000e+000 0.000000e+000 0.000000e+000
      outer loop
         vertex 2.500000e-002 6.250001e-001 5.000000e-002
         vertex 2.500000e-002 2.500000e-002 5.000000e-002
         vertex 2.500000e-002 6.250001e-001 0.000000e+000
      endloop
   endfacet
   facet normal 1.000000e+000 0.000000e+000 0.000000e+000
      outer loop
         vertex 2.500000e-002 6.250001e-001 0.000000e+000
         vertex 2.500000e-002 2.500000e-002 5.000000e-002
         vertex 2.500000e-002 2.500000e-002 0.000000e+000
      endloop
   endfacet
   facet normal -5.504831e-002 0.000000e+000 9.984837e-001
      outer loop
         vertex 2.500000e-002 6.250001e-001 5.000000e-002
         vertex 2.065879e-002 6.293412e-001 4.962019e-002
         vertex 2.500000e-002 2.500000e-002 5.000000e-002
      endloop
   endfacet
   facet normal -1.100966e-001 0.000000e+000 9.939209e-001
      outer loop
         vertex 2.500000e-002 2.500000e-002 5.000000e-002
         vertex 2.065879e-002 6.293412e-001 4.962019e-002
         vertex 2.065879e-002 2.065879e-002 4.962019e-002
      endloop
   endfacet
   facet normal -4.324040e-001 0.000000e+000 9.016800e-001
      outer loop
         vertex 1.250000e-002 6.375000e-001 4.665064e-002
         vertex 1.250000e-002 1.250000e-002 4.665064e-002
         vertex 1.644950e-002 1.644950e-002 4.849232e-002
      endloop
   endfacet
   facet normal -2.246337e-001 0.000000e+000 9.744433e-001
      outer loop
         vertex 2.065879e-002 2.065879e-002 4.962019e-002
         vertex 2.065879e-002 6.293412e-001 4.962019e-002
         vertex 1.644950e-002 1.644950e-002 4.849232e-002
      endloop
   endfacet
   facet normal -2.751472e-001 0.000000e+000 9.614021e-001
      outer loop
         vertex 1.644950e-002 1.644950e-002 4.849232e-002
         vertex 2.065879e-002 6.293412e-001 4.962019e-002
         vertex 1.644950e-002 6.335505e-001 4.849232e-002
      endloop
   endfacet
   facet normal -3.876238e-001 0.000000e+000 9.218176e-001
      outer loop
         vertex 1.644950e-002 1.644950e-002 4.849232e-002
         vertex 1.644950e-002 6.335505e-001 4.849232e-002
         vertex 1.250000e-002 6.375000e-001 4.665064e-002
      endloop
   endfacet
   facet normal -5.774195e-001 0.000000e+000 8.164476e-001
      outer loop
         vertex 8.930309e-003 6.410697e-001 4.415111e-002
         vertex 8.930309e-003 8.930309e-003 4.415111e-002
         vertex 1.250000e-002 1.250000e-002 4.665064e-002
      endloop
   endfacet
   facet normal -5.392388e-001 0.000000e+000 8.421528e-001
      outer loop
         vertex 1.250000e-002 1.250000e-002 4.665064e-002
         vertex 1.250000e-002 6.375000e-001 4.665064e-002
         vertex 8.930309e-003 6.410697e-001 4.415111e-002
      endloop
   endfacet
   facet normal -7.060934e-001 0.000000e+000 7.081187e-001
      outer loop
         vertex 5.848888e-003 6.441511e-001 4.106969e-002
         vertex 5.848888e-003 5.848888e-003 4.106969e-002
         vertex 8.930309e-003 8.930309e-003 4.415111e-002
      endloop
   endfacet
   facet normal -6.750329e-001 0.000000e+000 7.377876e-001
      outer loop
         vertex 8.930309e-003 8.930309e-003 4.415111e-002
         vertex 8.930309e-003 6.410697e-001 4.415111e-002
         vertex 5.848888e-003 6.441511e-001 4.106969e-002
      endloop
   endfacet
   facet normal -7.910047e-001 0.000000e+000 6.118101e-001
      outer loop
         vertex 5.848888e-003 5.848888e-003 4.106969e-002
         vertex 5.848888e-003 6.441511e-001 4.106969e-002
         vertex 3.349363e-003 3.349363e-003 3.750000e-002
      endloop
   endfacet
   facet normal -8.147496e-001 0.000000e+000 5.798129e-001
      outer loop
         vertex 5.848888e-003 6.441511e-001 4.106969e-002
         vertex 3.349363e-003 6.466507e-001 3.750000e-002
         vertex 3.349363e-003 3.349363e-003 3.750000e-002
      endloop
   endfacet
   facet normal -8.838009e-001 0.000000e+000 4.678633e-001
      outer loop
         vertex 3.349363e-003 3.349363e-003 3.750000e-002
         vertex 3.349363e-003 6.466507e-001 3.750000e-002
         vertex 1.507684e-003 6.484923e-001 3.355050e-002
      endloop
   endfacet
   facet normal -9.004059e-001 0.000000e+000 4.350508e-001
      outer loop
         vertex 3.349363e-003 3.349363e-003 3.750000e-002
         vertex 1.507684e-003 6.484923e-001 3.355050e-002
         vertex 1.507684e-003 1.507684e-003 3.355050e-002
      endloop
   endfacet
   facet normal -9.506733e-001 0.000000e+000 3.101937e-001
      outer loop
         vertex 1.507684e-003 1.507684e-003 3.355050e-002
         vertex 1.507684e-003 6.484923e-001 3.355050e-002
         vertex 3.798050e-004 6.496202e-001 2.934120e-002
      endloop
   endfacet
   facet normal -9.605871e-001 0.000000e+000 2.779790e-001
      outer loop
         vertex 1.507684e-003 1.507684e-003 3.355050e-002
         vertex 3.798050e-004 6.496202e-001 2.934120e-002
         vertex 3.798050e-004 3.798050e-004 2.934120e-002
      endloop
   endfacet
   facet normal -9.896610e-001 0.000000e+000 1.434264e-001
      outer loop
         vertex 3.798050e-004 3.798050e-004 2.934120e-002
         vertex 3.798050e-004 6.496202e-001 2.934120e-002
         vertex 8.538700e-005 6.499146e-001 2.706448e-002
      endloop
   endfacet
   facet normal -9.935902e-001 0.000000e+000 1.130416e-001
      outer loop
         vertex 3.798050e-004 3.798050e-004 2.934120e-002
         vertex 8.538700e-005 6.499146e-001 2.706448e-002
         vertex 8.538700e-005 8.538700e-005 2.706448e-002
      endloop
   endfacet
   facet normal -9.984812e-001 0.000000e+000 5.509473e-002
      outer loop
         vertex 8.538700e-005 8.538700e-005 2.706448e-002
         vertex 8.538700e-005 6.499146e-001 2.706448e-002
         vertex 0.000000e+000 0.000000e+000 2.500000e-002
      endloop
   endfacet
   facet normal -9.996205e-001 0.000000e+000 2.754737e-002
      outer loop
         vertex 0.000000e+000 0.000000e+000 2.500000e-002
         vertex 8.538700e-005 6.499146e-001 2.706448e-002
         vertex 0.000000e+000 6.500000e-001 2.500000e-002
      endloop
   endfacet
   facet normal -9.996205e-001 0.000000e+000 -2.754737e-002
      outer loop
         vertex 0.000000e+000 0.000000e+000 2.500000e-002
         vertex 0.000000e+000 6.500000e-001 2.500000e-002
         vertex 8.538700e-005 8.538700e-005 2.293552e-002
      endloop
   endfacet
   facet normal -9.984812e-001 0.000000e+000 -5.509473e-002
      outer loop
         vertex 0.000000e+000 6.500000e-001 2.500000e-002
         vertex 8.538700e-005 6.499146e-001 2.293552e-002
         vertex 8.538700e-005 8.538700e-005 2.293552e-002
      endloop
   endfacet
   facet normal -9.935902e-001 0.000000e+000 -1.130416e-001
      outer loop
         vertex 8.538700e-005 8.538700e-005 2.293552e-002
         vertex 8.538700e-005 6.499146e-001 2.293552e-002
         vertex 7.649924e-004 6.492350e-001 1.886286e-002
      endloop
   endfacet
   facet normal -9.896610e-001 0.000000e+000 -1.434264e-001
      outer loop
         vertex 8.538700e-005 8.538700e-005 2.293552e-002
         vertex 7.649924e-004 6.492350e-001 1.886286e-002
         vertex 7.649924e-004 7.649924e-004 1.886286e-002
      endloop
   endfacet
   facet normal -7.815225e-001 0.000000e+000 -6.238770e-001
      outer loop
         vertex 4.070838e-003 6.459292e-001 1.132630e-002
         vertex 6.606902e-003 6.433932e-001 8.067960e-003
         vertex 5.902813e-003 5.902813e-003 8.972573e-003
      endloop
   endfacet
   facet normal -8.147319e-001 0.000000e+000 -5.798378e-001
      outer loop
         vertex 4.070838e-003 6.459292e-001 1.132630e-002
         vertex 5.902813e-003 5.902813e-003 8.972573e-003
         vertex 3.349363e-003 3.349363e-003 1.250000e-002
      endloop
   endfacet
   facet normal -8.838009e-001 0.000000e+000 -4.678633e-001
      outer loop
         vertex 4.070838e-003 6.459292e-001 1.132630e-002
         vertex 3.349363e-003 3.349363e-003 1.250000e-002
         vertex 2.105666e-003 6.478943e-001 1.495761e-002
      endloop
   endfacet
   facet normal -9.004059e-001 0.000000e+000 -4.350508e-001
      outer loop
         vertex 2.105666e-003 6.478943e-001 1.495761e-002
         vertex 3.349363e-003 3.349363e-003 1.250000e-002
         vertex 1.507684e-003 1.507684e-003 1.644950e-002
      endloop
   endfacet
   facet normal -9.506733e-001 0.000000e+000 -3.101937e-001
      outer loop
         vertex 2.105666e-003 6.478943e-001 1.495761e-002
         vertex 1.507684e-003 1.507684e-003 1.644950e-002
         vertex 7.649924e-004 6.492350e-001 1.886286e-002
      endloop
   endfacet
   facet normal -9.605871e-001 0.000000e+000 -2.779790e-001
      outer loop
         vertex 7.649924e-004 6.492350e-001 1.886286e-002
         vertex 1.507684e-003 1.507684e-003 1.644950e-002
         vertex 7.649924e-004 7.649924e-004 1.886286e-002
      endloop
   endfacet
   facet normal -7.060193e-001 0.000000e+000 -7.081925e-001
      outer loop
         vertex 5.902813e-003 5.902813e-003 8.972573e-003
         vertex 6.606902e-003 6.433932e-001 8.067960e-003
         vertex 9.644682e-003 6.403553e-001 5.271486e-003
      endloop
   endfacet
   facet normal -6.749589e-001 0.000000e+000 -7.378553e-001
      outer loop
         vertex 5.902813e-003 5.902813e-003 8.972573e-003
         vertex 9.644682e-003 6.403553e-001 5.271486e-003
         vertex 8.970052e-003 8.970052e-003 5.892529e-003
      endloop
   endfacet
   facet normal -5.773346e-001 0.000000e+000 -8.165076e-001
      outer loop
         vertex 8.970052e-003 8.970052e-003 5.892529e-003
         vertex 9.644682e-003 6.403553e-001 5.271486e-003
         vertex 1.310132e-002 6.368987e-001 3.013156e-003
      endloop
   endfacet
   facet normal -5.391570e-001 0.000000e+000 -8.422053e-001
      outer loop
         vertex 8.970052e-003 8.970052e-003 5.892529e-003
         vertex 1.310132e-002 6.368987e-001 3.013156e-003
         vertex 1.252564e-002 1.252564e-002 3.389263e-003
      endloop
   endfacet
   facet normal -4.323200e-001 0.000000e+000 -9.017202e-001
      outer loop
         vertex 1.252564e-002 1.252564e-002 3.389263e-003
         vertex 1.310132e-002 6.368987e-001 3.013156e-003
         vertex 1.688251e-002 6.331175e-001 1.354569e-003
      endloop
   endfacet
   facet normal -3.875470e-001 0.000000e+000 -9.218500e-001
      outer loop
         vertex 1.252564e-002 1.252564e-002 3.389263e-003
         vertex 1.688251e-002 6.331175e-001 1.354569e-003
         vertex 1.646274e-002 1.646274e-002 1.538698e-003
      endloop
   endfacet
   facet normal -2.750798e-001 0.000000e+000 -9.614214e-001
      outer loop
         vertex 1.646274e-002 1.646274e-002 1.538698e-003
         vertex 1.688251e-002 6.331175e-001 1.354569e-003
         vertex 2.066299e-002 6.293370e-001 3.972218e-004
      endloop
   endfacet
   facet normal -2.245781e-001 0.000000e+000 -9.744561e-001
      outer loop
         vertex 1.646274e-002 1.646274e-002 1.538698e-003
         vertex 2.066299e-002 6.293370e-001 3.972218e-004
         vertex 2.066299e-002 2.066299e-002 3.972218e-004
      endloop
   endfacet
   facet normal -1.100638e-001 0.000000e+000 -9.939246e-001
      outer loop
         vertex 2.066299e-002 2.066299e-002 3.972218e-004
         vertex 2.066299e-002 6.293370e-001 3.972218e-004
         vertex 2.500000e-002 6.250001e-001 0.000000e+000
      endloop
   endfacet
   facet normal -5.503191e-002 0.000000e+000 -9.984846e-001
      outer loop
         vertex 2.066299e-002 2.066299e-002 3.972218e-004
         vertex 2.500000e-002 6.250001e-001 0.000000e+000
         vertex 2.500000e-002 2.500000e-002 0.000000e+000
      endloop
   endfacet
   facet normal -9.486833e-001 -3.162278e-001 0.000000e+000
      outer loop
         vertex 8.250000e-001 2.500000e-002 5.000000e-002
         vertex 6.250001e-001 6.250001e-001 5.000000e-002
         vertex 8.250000e-001 2.500000e-002 0.000000e+000
      endloop
   endfacet
   facet normal -9.486833e-001 -3.162278e-001 0.000000e+000
      outer loop
         vertex 8.250000e-001 2.500000e-002 0.000000e+000
         vertex 6.250001e-001 6.250001e-001 5.000000e-002
         vertex 6.250001e-001 6.250001e-001 0.000000e+000
      endloop
   endfacet
   facet normal 3.676594e-001 1.225531e-001 -9.218499e-001
      outer loop
         vertex 6.308508e-001 6.331175e-001 1.354569e-003
         vertex 6.335762e-001 6.368987e-001 3.013156e-003
         vertex 8.362624e-001 1.688251e-002 1.354569e-003
      endloop
   endfacet
   facet normal 1.044468e-001 3.481560e-002 9.939209e-001
      outer loop
         vertex 8.307063e-001 2.088711e-002 4.964017e-002
         vertex 6.279645e-001 6.291131e-001 4.964016e-002
         vertex 6.250001e-001 6.250001e-001 5.000000e-002
      endloop
   endfacet
   facet normal 5.222242e-002 1.740748e-002 9.984838e-001
      outer loop
         vertex 8.307063e-001 2.088711e-002 4.964017e-002
         vertex 6.250001e-001 6.250001e-001 5.000000e-002
         vertex 8.250000e-001 2.500000e-002 5.000000e-002
      endloop
   endfacet
   facet normal 2.131046e-001 7.103486e-002 9.744437e-001
      outer loop
         vertex 6.279645e-001 6.291131e-001 4.964016e-002
         vertex 8.307063e-001 2.088711e-002 4.964017e-002
         vertex 8.362489e-001 1.689230e-002 4.861096e-002
      endloop
   endfacet
   facet normal 2.610275e-001 8.700916e-002 9.614022e-001
      outer loop
         vertex 6.279645e-001 6.291131e-001 4.964016e-002
         vertex 8.362489e-001 1.689230e-002 4.861096e-002
         vertex 6.308439e-001 6.331080e-001 4.861090e-002
      endloop
   endfacet
   facet normal 3.677303e-001 1.225768e-001 9.218185e-001
      outer loop
         vertex 6.308439e-001 6.331080e-001 4.861090e-002
         vertex 8.362489e-001 1.689230e-002 4.861096e-002
         vertex 8.414781e-001 1.312325e-002 4.694126e-002
      endloop
   endfacet
   facet normal 4.102143e-001 1.367381e-001 9.016801e-001
      outer loop
         vertex 6.308439e-001 6.331080e-001 4.861090e-002
         vertex 8.414781e-001 1.312325e-002 4.694126e-002
         vertex 6.335605e-001 6.368770e-001 4.694113e-002
      endloop
   endfacet
   facet normal 5.115651e-001 1.705217e-001 8.421541e-001
      outer loop
         vertex 6.335605e-001 6.368770e-001 4.694113e-002
         vertex 8.414781e-001 1.312325e-002 4.694126e-002
         vertex 8.462533e-001 9.681442e-003 4.467706e-002
      endloop
   endfacet
   facet normal 5.477881e-001 1.825960e-001 8.164477e-001
      outer loop
         vertex 6.335605e-001 6.368770e-001 4.694113e-002
         vertex 8.462533e-001 9.681442e-003 4.467706e-002
         vertex 6.360412e-001 6.403189e-001 4.467687e-002
      endloop
   endfacet
   facet normal 6.403909e-001 2.134636e-001 7.377890e-001
      outer loop
         vertex 6.360412e-001 6.403189e-001 4.467687e-002
         vertex 8.462533e-001 9.681442e-003 4.467706e-002
         vertex 8.504462e-001 6.659422e-003 4.188022e-002
      endloop
   endfacet
   facet normal 6.698587e-001 2.232862e-001 7.081190e-001
      outer loop
         vertex 6.360412e-001 6.403189e-001 4.467687e-002
         vertex 8.504462e-001 6.659422e-003 4.188022e-002
         vertex 6.382193e-001 6.433408e-001 4.188002e-002
      endloop
   endfacet
   facet normal 7.504129e-001 2.501376e-001 6.118101e-001
      outer loop
         vertex 6.382193e-001 6.433408e-001 4.188002e-002
         vertex 8.504462e-001 6.659422e-003 4.188022e-002
         vertex 8.550386e-001 3.349363e-003 3.750000e-002
      endloop
   endfacet
   facet normal 7.729393e-001 2.576464e-001 5.798129e-001
      outer loop
         vertex 6.382193e-001 6.433408e-001 4.188002e-002
         vertex 8.550386e-001 3.349363e-003 3.750000e-002
         vertex 6.400849e-001 6.459292e-001 3.867370e-002
      endloop
   endfacet
   facet normal 9.388749e-001 3.129583e-001 1.434264e-001
      outer loop
         vertex 8.595672e-001 8.538700e-005 2.706448e-002
         vertex 6.427453e-001 6.496202e-001 2.934120e-002
         vertex 8.591587e-001 3.798050e-004 2.934120e-002
      endloop
   endfacet
   facet normal 9.112930e-001 3.037643e-001 2.779790e-001
      outer loop
         vertex 8.591587e-001 3.798050e-004 2.934120e-002
         vertex 6.427453e-001 6.496202e-001 2.934120e-002
         vertex 6.415013e-001 6.478943e-001 3.504239e-002
      endloop
   endfacet
   facet normal 9.018879e-001 3.006293e-001 3.101937e-001
      outer loop
         vertex 8.591587e-001 3.798050e-004 2.934120e-002
         vertex 6.415013e-001 6.478943e-001 3.504239e-002
         vertex 8.575938e-001 1.507684e-003 3.355050e-002
      endloop
   endfacet
   facet normal 8.542001e-001 2.847333e-001 4.350508e-001
      outer loop
         vertex 8.575938e-001 1.507684e-003 3.355050e-002
         vertex 6.415013e-001 6.478943e-001 3.504239e-002
         vertex 6.400849e-001 6.459292e-001 3.867370e-002
      endloop
   endfacet
   facet normal 8.384471e-001 2.794824e-001 4.678633e-001
      outer loop
         vertex 8.575938e-001 1.507684e-003 3.355050e-002
         vertex 6.400849e-001 6.459292e-001 3.867370e-002
         vertex 8.550386e-001 3.349363e-003 3.750000e-002
      endloop
   endfacet
   facet normal 7.729219e-001 2.576406e-001 -5.798389e-001
      outer loop
         vertex 8.540377e-001 4.070838e-003 1.132630e-002
         vertex 6.382570e-001 6.433932e-001 8.067960e-003
         vertex 6.400849e-001 6.459292e-001 1.132630e-002
      endloop
   endfacet
   facet normal 8.384471e-001 2.794824e-001 -4.678633e-001
      outer loop
         vertex 8.540377e-001 4.070838e-003 1.132630e-002
         vertex 6.400849e-001 6.459292e-001 1.132630e-002
         vertex 8.567642e-001 2.105666e-003 1.495761e-002
      endloop
   endfacet
   facet normal 8.542001e-001 2.847334e-001 -4.350508e-001
      outer loop
         vertex 8.567642e-001 2.105666e-003 1.495761e-002
         vertex 6.400849e-001 6.459292e-001 1.132630e-002
         vertex 6.415013e-001 6.478943e-001 1.495761e-002
      endloop
   endfacet
   facet normal 9.018879e-001 3.006293e-001 -3.101937e-001
      outer loop
         vertex 8.567642e-001 2.105666e-003 1.495761e-002
         vertex 6.415013e-001 6.478943e-001 1.495761e-002
         vertex 8.586243e-001 7.649924e-004 1.886286e-002
      endloop
   endfacet
   facet normal 9.112930e-001 3.037643e-001 -2.779790e-001
      outer loop
         vertex 8.586243e-001 7.649924e-004 1.886286e-002
         vertex 6.415013e-001 6.478943e-001 1.495761e-002
         vertex 6.424676e-001 6.492350e-001 1.886286e-002
      endloop
   endfacet
   facet normal 9.388749e-001 3.129583e-001 -1.434264e-001
      outer loop
         vertex 8.586243e-001 7.649924e-004 1.886286e-002
         vertex 6.424676e-001 6.492350e-001 1.886286e-002
         vertex 8.595672e-001 8.538700e-005 2.293552e-002
      endloop
   endfacet
   facet normal 9.426025e-001 3.142009e-001 -1.130416e-001
      outer loop
         vertex 8.595672e-001 8.538700e-005 2.293552e-002
         vertex 6.424676e-001 6.492350e-001 1.886286e-002
         vertex 6.429574e-001 6.499146e-001 2.293552e-002
      endloop
   endfacet
   facet normal 9.472424e-001 3.157475e-001 -5.509473e-002
      outer loop
         vertex 8.595672e-001 8.538700e-005 2.293552e-002
         vertex 6.429574e-001 6.499146e-001 2.293552e-002
         vertex 8.596857e-001 0.000000e+000 2.500000e-002
      endloop
   endfacet
   facet normal 9.483232e-001 3.161077e-001 -2.754736e-002
      outer loop
         vertex 8.596857e-001 0.000000e+000 2.500000e-002
         vertex 6.429574e-001 6.499146e-001 2.293552e-002
         vertex 6.430190e-001 6.500000e-001 2.500000e-002
      endloop
   endfacet
   facet normal 9.483232e-001 3.161077e-001 2.754736e-002
      outer loop
         vertex 8.596857e-001 0.000000e+000 2.500000e-002
         vertex 6.430190e-001 6.500000e-001 2.500000e-002
         vertex 8.595672e-001 8.538700e-005 2.706448e-002
      endloop
   endfacet
   facet normal 9.472424e-001 3.157474e-001 5.509473e-002
      outer loop
         vertex 8.595672e-001 8.538700e-005 2.706448e-002
         vertex 6.430190e-001 6.500000e-001 2.500000e-002
         vertex 6.429574e-001 6.499146e-001 2.706448e-002
      endloop
   endfacet
   facet normal 9.426025e-001 3.142008e-001 1.130416e-001
      outer loop
         vertex 8.595672e-001 8.538700e-005 2.706448e-002
         vertex 6.429574e-001 6.499146e-001 2.706448e-002
         vertex 6.427453e-001 6.496202e-001 2.934120e-002
      endloop
   endfacet
   facet normal 7.414183e-001 2.471395e-001 -6.238757e-001
      outer loop
         vertex 8.540377e-001 4.070838e-003 1.132630e-002
         vertex 8.505191e-001 6.606902e-003 8.067960e-003
         vertex 6.382570e-001 6.433932e-001 8.067960e-003
      endloop
   endfacet
   facet normal 6.697877e-001 2.232626e-001 -7.081936e-001
      outer loop
         vertex 6.382570e-001 6.433932e-001 8.067960e-003
         vertex 8.505191e-001 6.606902e-003 8.067960e-003
         vertex 6.360675e-001 6.403553e-001 5.271486e-003
      endloop
   endfacet
   facet normal 6.317198e-001 2.105733e-001 -7.460489e-001
      outer loop
         vertex 8.505191e-001 6.606902e-003 8.067960e-003
         vertex 8.463044e-001 9.644682e-003 5.271486e-003
         vertex 6.360675e-001 6.403553e-001 5.271486e-003
      endloop
   endfacet
   facet normal 5.477064e-001 1.825688e-001 -8.165087e-001
      outer loop
         vertex 6.360675e-001 6.403553e-001 5.271486e-003
         vertex 8.463044e-001 9.644682e-003 5.271486e-003
         vertex 6.335762e-001 6.368987e-001 3.013156e-003
      endloop
   endfacet
   facet normal 5.114894e-001 1.704965e-001 -8.422051e-001
      outer loop
         vertex 6.335762e-001 6.368987e-001 3.013156e-003
         vertex 8.463044e-001 9.644682e-003 5.271486e-003
         vertex 8.415086e-001 1.310132e-002 3.013156e-003
      endloop
   endfacet
   facet normal 4.101360e-001 1.367120e-001 -9.017196e-001
      outer loop
         vertex 6.335762e-001 6.368987e-001 3.013156e-003
         vertex 8.415086e-001 1.310132e-002 3.013156e-003
         vertex 8.362624e-001 1.688251e-002 1.354569e-003
      endloop
   endfacet
   facet normal 2.609628e-001 8.698761e-002 -9.614217e-001
      outer loop
         vertex 6.308508e-001 6.331175e-001 1.354569e-003
         vertex 8.362624e-001 1.688251e-002 1.354569e-003
         vertex 6.279659e-001 6.291149e-001 3.409659e-004
      endloop
   endfacet
   facet normal 2.130535e-001 7.101783e-002 -9.744561e-001
      outer loop
         vertex 6.279659e-001 6.291149e-001 3.409659e-004
         vertex 8.362624e-001 1.688251e-002 1.354569e-003
         vertex 8.307090e-001 2.088513e-002 3.409659e-004
      endloop
   endfacet
   facet normal 1.044157e-001 3.480523e-002 -9.939246e-001
      outer loop
         vertex 6.279659e-001 6.291149e-001 3.409659e-004
         vertex 8.307090e-001 2.088513e-002 3.409659e-004
         vertex 8.250000e-001 2.500000e-002 0.000000e+000
      endloop
   endfacet
   facet normal 5.220785e-002 1.740262e-002 -9.984846e-001
      outer loop
         vertex 6.279659e-001 6.291149e-001 3.409659e-004
         vertex 8.250000e-001 2.500000e-002 0.000000e+000
         vertex 6.250001e-001 6.250001e-001 0.000000e+000
      endloop
   endfacet
   facet normal 3.614007e-016 -1.000000e+000 0.000000e+000
      outer loop
         vertex 6.250001e-001 6.250001e-001 0.000000e+000
         vertex 6.250001e-001 6.250001e-001 5.000000e-002
         vertex 2.500000e-002 6.250001e-001 0.000000e+000
      endloop
   endfacet
   facet normal 3.614007e-016 -1.000000e+000 0.000000e+000
      outer loop
         vertex 2.500000e-002 6.250001e-001 0.000000e+000
         vertex 6.250001e-001 6.250001e-001 5.000000e-002
         vertex 2.500000e-002 6.250001e-001 5.000000e-002
      endloop
   endfacet
   facet normal -3.848939e-031 5.503191e-002 -9.984846e-001
      outer loop
         vertex 6.279659e-001 6.291149e-001 3.409659e-004
         vertex 6.250001e-001 6.250001e-001 0.000000e+000
         vertex 2.500000e-002 6.250001e-001 0.000000e+000
      endloop
   endfacet
   facet normal -1.924470e-031 1.100638e-001 -9.939246e-001
      outer loop
         vertex 2.500000e-002 6.250001e-001 0.000000e+000
         vertex 2.066299e-002 6.293370e-001 3.972218e-004
         vertex 6.279659e-001 6.291149e-001 3.409659e-004
      endloop
   endfacet
   facet normal 0.000000e+000 2.245772e-001 -9.744563e-001
      outer loop
         vertex 6.279659e-001 6.291149e-001 3.409659e-004
         vertex 2.066299e-002 6.293370e-001 3.972218e-004
         vertex 6.308508e-001 6.331175e-001 1.354569e-003
      endloop
   endfacet
   facet normal 0.000000e+000 2.750798e-001 -9.614214e-001
      outer loop
         vertex 2.066299e-002 6.293370e-001 3.972218e-004
         vertex 1.688251e-002 6.331175e-001 1.354569e-003
         vertex 6.308508e-001 6.331175e-001 1.354569e-003
      endloop
   endfacet
   facet normal 0.000000e+000 3.875456e-001 -9.218505e-001
      outer loop
         vertex 6.308508e-001 6.331175e-001 1.354569e-003
         vertex 1.688251e-002 6.331175e-001 1.354569e-003
         vertex 6.335762e-001 6.368987e-001 3.013156e-003
      endloop
   endfacet
   facet normal 0.000000e+000 4.323200e-001 -9.017202e-001
      outer loop
         vertex 1.688251e-002 6.331175e-001 1.354569e-003
         vertex 1.310132e-002 6.368987e-001 3.013156e-003
         vertex 6.335762e-001 6.368987e-001 3.013156e-003
      endloop
   endfacet
   facet normal 0.000000e+000 5.391555e-001 -8.422062e-001
      outer loop
         vertex 6.335762e-001 6.368987e-001 3.013156e-003
         vertex 1.310132e-002 6.368987e-001 3.013156e-003
         vertex 6.360675e-001 6.403553e-001 5.271486e-003
      endloop
   endfacet
   facet normal 0.000000e+000 5.773345e-001 -8.165077e-001
      outer loop
         vertex 1.310132e-002 6.368987e-001 3.013156e-003
         vertex 9.644682e-003 6.403553e-001 5.271486e-003
         vertex 6.360675e-001 6.403553e-001 5.271486e-003
      endloop
   endfacet
   facet normal 0.000000e+000 6.749578e-001 -7.378563e-001
      outer loop
         vertex 6.360675e-001 6.403553e-001 5.271486e-003
         vertex 9.644682e-003 6.403553e-001 5.271486e-003
         vertex 6.382570e-001 6.433932e-001 8.067960e-003
      endloop
   endfacet
   facet normal 0.000000e+000 7.060193e-001 -7.081925e-001
      outer loop
         vertex 9.644682e-003 6.403553e-001 5.271486e-003
         vertex 6.606902e-003 6.433932e-001 8.067960e-003
         vertex 6.382570e-001 6.433932e-001 8.067960e-003
      endloop
   endfacet
   facet normal 0.000000e+000 7.909665e-001 -6.118596e-001
      outer loop
         vertex 6.382570e-001 6.433932e-001 8.067960e-003
         vertex 6.606902e-003 6.433932e-001 8.067960e-003
         vertex 6.400849e-001 6.459292e-001 1.132630e-002
      endloop
   endfacet
   facet normal 0.000000e+000 9.984812e-001 -5.509473e-002
      outer loop
         vertex 0.000000e+000 6.500000e-001 2.500000e-002
         vertex 6.429574e-001 6.499146e-001 2.293552e-002
         vertex 8.538700e-005 6.499146e-001 2.293552e-002
      endloop
   endfacet
   facet normal 0.000000e+000 9.935902e-001 -1.130416e-001
      outer loop
         vertex 8.538700e-005 6.499146e-001 2.293552e-002
         vertex 6.429574e-001 6.499146e-001 2.293552e-002
         vertex 6.424676e-001 6.492350e-001 1.886286e-002
      endloop
   endfacet
   facet normal 0.000000e+000 9.896610e-001 -1.434264e-001
      outer loop
         vertex 8.538700e-005 6.499146e-001 2.293552e-002
         vertex 6.424676e-001 6.492350e-001 1.886286e-002
         vertex 7.649924e-004 6.492350e-001 1.886286e-002
      endloop
   endfacet
   facet normal 0.000000e+000 9.605871e-001 -2.779790e-001
      outer loop
         vertex 7.649924e-004 6.492350e-001 1.886286e-002
         vertex 6.424676e-001 6.492350e-001 1.886286e-002
         vertex 6.415013e-001 6.478943e-001 1.495761e-002
      endloop
   endfacet
   facet normal 0.000000e+000 9.506733e-001 -3.101937e-001
      outer loop
         vertex 7.649924e-004 6.492350e-001 1.886286e-002
         vertex 6.415013e-001 6.478943e-001 1.495761e-002
         vertex 2.105666e-003 6.478943e-001 1.495761e-002
      endloop
   endfacet
   facet normal 0.000000e+000 9.004059e-001 -4.350508e-001
      outer loop
         vertex 2.105666e-003 6.478943e-001 1.495761e-002
         vertex 6.415013e-001 6.478943e-001 1.495761e-002
         vertex 6.400849e-001 6.459292e-001 1.132630e-002
      endloop
   endfacet
   facet normal 0.000000e+000 8.838009e-001 -4.678633e-001
      outer loop
         vertex 2.105666e-003 6.478943e-001 1.495761e-002
         vertex 6.400849e-001 6.459292e-001 1.132630e-002
         vertex 4.070838e-003 6.459292e-001 1.132630e-002
      endloop
   endfacet
   facet normal 0.000000e+000 8.147319e-001 -5.798378e-001
      outer loop
         vertex 4.070838e-003 6.459292e-001 1.132630e-002
         vertex 6.400849e-001 6.459292e-001 1.132630e-002
         vertex 6.606902e-003 6.433932e-001 8.067960e-003
      endloop
   endfacet
   facet normal 0.000000e+000 7.910047e-001 6.118101e-001
      outer loop
         vertex 5.848888e-003 6.441511e-001 4.106969e-002
         vertex 6.382193e-001 6.433408e-001 4.188002e-002
         vertex 3.349363e-003 6.466507e-001 3.750000e-002
      endloop
   endfacet
   facet normal 0.000000e+000 8.147496e-001 5.798129e-001
      outer loop
         vertex 3.349363e-003 6.466507e-001 3.750000e-002
         vertex 6.382193e-001 6.433408e-001 4.188002e-002
         vertex 6.400849e-001 6.459292e-001 3.867370e-002
      endloop
   endfacet
   facet normal 0.000000e+000 8.838009e-001 4.678633e-001
      outer loop
         vertex 3.349363e-003 6.466507e-001 3.750000e-002
         vertex 6.400849e-001 6.459292e-001 3.867370e-002
         vertex 1.507684e-003 6.484923e-001 3.355050e-002
      endloop
   endfacet
   facet normal 0.000000e+000 9.004059e-001 4.350508e-001
      outer loop
         vertex 1.507684e-003 6.484923e-001 3.355050e-002
         vertex 6.400849e-001 6.459292e-001 3.867370e-002
         vertex 6.415013e-001 6.478943e-001 3.504239e-002
      endloop
   endfacet
   facet normal 0.000000e+000 9.506733e-001 3.101937e-001
      outer loop
         vertex 1.507684e-003 6.484923e-001 3.355050e-002
         vertex 6.415013e-001 6.478943e-001 3.504239e-002
         vertex 3.798050e-004 6.496202e-001 2.934120e-002
      endloop
   endfacet
   facet normal 0.000000e+000 9.605871e-001 2.779790e-001
      outer loop
         vertex 3.798050e-004 6.496202e-001 2.934120e-002
         vertex 6.415013e-001 6.478943e-001 3.504239e-002
         vertex 6.427453e-001 6.496202e-001 2.934120e-002
      endloop
   endfacet
   facet normal 0.000000e+000 9.896610e-001 1.434264e-001
      outer loop
         vertex 3.798050e-004 6.496202e-001 2.934120e-002
         vertex 6.427453e-001 6.496202e-001 2.934120e-002
         vertex 8.538700e-005 6.499146e-001 2.706448e-002
      endloop
   endfacet
   facet normal 0.000000e+000 9.935902e-001 1.130416e-001
      outer loop
         vertex 8.538700e-005 6.499146e-001 2.706448e-002
         vertex 6.427453e-001 6.496202e-001 2.934120e-002
         vertex 6.429574e-001 6.499146e-001 2.706448e-002
      endloop
   endfacet
   facet normal 0.000000e+000 9.984812e-001 5.509473e-002
      outer loop
         vertex 8.538700e-005 6.499146e-001 2.706448e-002
         vertex 6.429574e-001 6.499146e-001 2.706448e-002
         vertex 0.000000e+000 6.500000e-001 2.500000e-002
      endloop
   endfacet
   facet normal 0.000000e+000 9.996205e-001 2.754737e-002
      outer loop
         vertex 0.000000e+000 6.500000e-001 2.500000e-002
         vertex 6.429574e-001 6.499146e-001 2.706448e-002
         vertex 6.430190e-001 6.500000e-001 2.500000e-002
      endloop
   endfacet
   facet normal 0.000000e+000 9.996205e-001 -2.754737e-002
      outer loop
         vertex 0.000000e+000 6.500000e-001 2.500000e-002
         vertex 6.430190e-001 6.500000e-001 2.500000e-002
         vertex 6.429574e-001 6.499146e-001 2.293552e-002
      endloop
   endfacet
   facet normal 0.000000e+000 7.168328e-001 6.972450e-001
      outer loop
         vertex 6.382193e-001 6.433408e-001 4.188002e-002
         vertex 5.848888e-003 6.441511e-001 4.106969e-002
         vertex 6.360412e-001 6.403189e-001 4.467687e-002
      endloop
   endfacet
   facet normal 0.000000e+000 6.750329e-001 7.377876e-001
      outer loop
         vertex 6.360412e-001 6.403189e-001 4.467687e-002
         vertex 5.848888e-003 6.441511e-001 4.106969e-002
         vertex 8.930309e-003 6.410697e-001 4.415111e-002
      endloop
   endfacet
   facet normal 0.000000e+000 5.873547e-001 8.093296e-001
      outer loop
         vertex 6.360412e-001 6.403189e-001 4.467687e-002
         vertex 8.930309e-003 6.410697e-001 4.415111e-002
         vertex 6.335605e-001 6.368770e-001 4.694113e-002
      endloop
   endfacet
   facet normal 0.000000e+000 5.392388e-001 8.421528e-001
      outer loop
         vertex 6.335605e-001 6.368770e-001 4.694113e-002
         vertex 8.930309e-003 6.410697e-001 4.415111e-002
         vertex 1.250000e-002 6.375000e-001 4.665064e-002
      endloop
   endfacet
   facet normal 0.000000e+000 4.406473e-001 8.976804e-001
      outer loop
         vertex 6.335605e-001 6.368770e-001 4.694113e-002
         vertex 1.250000e-002 6.375000e-001 4.665064e-002
         vertex 6.308439e-001 6.331080e-001 4.861090e-002
      endloop
   endfacet
   facet normal 0.000000e+000 3.876238e-001 9.218176e-001
      outer loop
         vertex 6.308439e-001 6.331080e-001 4.861090e-002
         vertex 1.250000e-002 6.375000e-001 4.665064e-002
         vertex 1.644950e-002 6.335505e-001 4.849232e-002
      endloop
   endfacet
   facet normal 0.000000e+000 2.810116e-001 9.597043e-001
      outer loop
         vertex 6.308439e-001 6.331080e-001 4.861090e-002
         vertex 1.644950e-002 6.335505e-001 4.849232e-002
         vertex 6.279645e-001 6.291131e-001 4.964016e-002
      endloop
   endfacet
   facet normal 0.000000e+000 2.246337e-001 9.744433e-001
      outer loop
         vertex 6.279645e-001 6.291131e-001 4.964016e-002
         vertex 1.644950e-002 6.335505e-001 4.849232e-002
         vertex 2.065879e-002 6.293412e-001 4.962019e-002
      endloop
   endfacet
   facet normal 0.000000e+000 1.131285e-001 9.935804e-001
      outer loop
         vertex 6.279645e-001 6.291131e-001 4.964016e-002
         vertex 2.065879e-002 6.293412e-001 4.962019e-002
         vertex 6.250001e-001 6.250001e-001 5.000000e-002
      endloop
   endfacet
   facet normal -1.683821e-031 5.504831e-002 9.984837e-001
      outer loop
         vertex 6.250001e-001 6.250001e-001 5.000000e-002
         vertex 2.065879e-002 6.293412e-001 4.962019e-002
         vertex 2.500000e-002 6.250001e-001 5.000000e-002
      endloop
   endfacet
endsolid