ply
format ascii 1.0
comment VCGLIB generated
element vertex 6
property float x
property float y
property float z
property float nx
property float ny
property float nz
property uchar red
property uchar green
property uchar blue
property uchar alpha
element face 8
property list uchar int vertex_indices
end_header
-0.269675 0.131436 0.01 0.688199 1.41201 0 4 4 4 255 
0.269675 -0.131436 0.01 0.0145995 0.0299545 0 0 0 0 255 
-0.269675 0.131436 -0.01 0.6736 1.38206 0 0 0 0 255 
0.269675 -0.131436 -0.01 0.688199 1.41201 0 0 0 0 255 
-0.130325 -0.131436 0.01 -1.38785 -0.735706 0 0 0 0 255 
-0.130325 -0.131436 -0.01 -1.32855 -0.704269 0 0 0 0 255 
3 0 1 2 
3 2 1 3 
3 4 0 5 
3 5 0 2 
3 1 4 3 
3 3 4 5 
3 0 4 1 
3 3 5 2 
