solid TriangleTarget
   facet normal 4.381211e-001 8.989160e-001 0.000000e+000
      outer loop
         vertex 0.000000e+000 2.628726e-001 3.500000e-002
         vertex 5.393496e-001 0.000000e+000 3.500000e-002
         vertex 0.000000e+000 2.628726e-001 1.500000e-002
      endloop
   endfacet
   facet normal 4.381211e-001 8.989160e-001 0.000000e+000
      outer loop
         vertex 0.000000e+000 2.628726e-001 1.500000e-002
         vertex 5.393496e-001 0.000000e+000 3.500000e-002
         vertex 5.393496e-001 0.000000e+000 1.500000e-002
      endloop
   endfacet
   facet normal -8.835352e-001 -4.683647e-001 0.000000e+000
      outer loop
         vertex 1.393496e-001 0.000000e+000 3.500000e-002
         vertex 0.000000e+000 2.628726e-001 3.500000e-002
         vertex 1.393496e-001 0.000000e+000 1.500000e-002
      endloop
   endfacet
   facet normal -8.835352e-001 -4.683647e-001 0.000000e+000
      outer loop
         vertex 1.393496e-001 0.000000e+000 1.500000e-002
         vertex 0.000000e+000 2.628726e-001 3.500000e-002
         vertex 0.000000e+000 2.628726e-001 1.500000e-002
      endloop
   endfacet
   facet normal 0.000000e+000 -1.000000e+000 0.000000e+000
      outer loop
         vertex 5.393496e-001 0.000000e+000 3.500000e-002
         vertex 1.393496e-001 0.000000e+000 3.500000e-002
         vertex 5.393496e-001 0.000000e+000 1.500000e-002
      endloop
   endfacet
   facet normal 0.000000e+000 -1.000000e+000 0.000000e+000
      outer loop
         vertex 5.393496e-001 0.000000e+000 1.500000e-002
         vertex 1.393496e-001 0.000000e+000 3.500000e-002
         vertex 1.393496e-001 0.000000e+000 1.500000e-002
      endloop
   endfacet
   facet normal 0.000000e+000 0.000000e+000 1.000000e+000
      outer loop
         vertex 0.000000e+000 2.628726e-001 3.500000e-002
         vertex 1.393496e-001 0.000000e+000 3.500000e-002
         vertex 5.393496e-001 0.000000e+000 3.500000e-002
      endloop
   endfacet
   facet normal 0.000000e+000 0.000000e+000 -1.000000e+000
      outer loop
         vertex 5.393496e-001 0.000000e+000 1.500000e-002
         vertex 1.393496e-001 0.000000e+000 1.500000e-002
         vertex 0.000000e+000 2.628726e-001 1.500000e-002
      endloop
   endfacet
endsolid