solid TrianglePipe
   facet normal 8.835352e-001 4.683647e-001 0.000000e+000
      outer loop
         vertex 5.651283e-002 2.530993e-001 5.000000e-002
         vertex 1.765407e-001 2.667553e-002 5.000000e-002
         vertex 5.651283e-002 2.530993e-001 0.000000e+000
      endloop
   endfacet
   facet normal 8.835352e-001 4.683647e-001 0.000000e+000
      outer loop
         vertex 5.651283e-002 2.530993e-001 0.000000e+000
         vertex 1.765407e-001 2.667553e-002 5.000000e-002
         vertex 1.765407e-001 2.667553e-002 0.000000e+000
      endloop
   endfacet
   facet normal -7.922403e-001 -4.199690e-001 4.426978e-001
      outer loop
         vertex 1.640587e-001 5.931281e-003 3.461530e-002
         vertex 1.650497e-001 7.578332e-003 3.817813e-002
         vertex 1.218315e-002 2.959497e-001 3.817813e-002
      endloop
   endfacet
   facet normal -7.488180e-001 -3.969508e-001 5.307557e-001
      outer loop
         vertex 1.218315e-002 2.959497e-001 3.817813e-002
         vertex 1.650497e-001 7.578332e-003 3.817813e-002
         vertex 1.663171e-001 9.684714e-003 4.136261e-002
      endloop
   endfacet
   facet normal -7.239565e-001 -3.837716e-001 5.732419e-001
      outer loop
         vertex 1.218315e-002 2.959497e-001 3.817813e-002
         vertex 1.663171e-001 9.684714e-003 4.136261e-002
         vertex 1.707261e-002 2.912234e-001 4.136261e-002
      endloop
   endfacet
   facet normal -6.682544e-001 -3.542438e-001 6.541770e-001
      outer loop
         vertex 1.707261e-002 2.912234e-001 4.136261e-002
         vertex 1.663171e-001 9.684714e-003 4.136261e-002
         vertex 1.678186e-001 1.217997e-002 4.410407e-002
      endloop
   endfacet
   facet normal -6.373438e-001 -3.378579e-001 6.925640e-001
      outer loop
         vertex 1.707261e-002 2.912234e-001 4.136261e-002
         vertex 1.678186e-001 1.217997e-002 4.410407e-002
         vertex 2.286479e-002 2.856245e-001 4.410407e-002
      endloop
   endfacet
   facet normal -5.678355e-001 -3.010114e-001 7.661299e-001
      outer loop
         vertex 2.286479e-002 2.856245e-001 4.410407e-002
         vertex 1.678186e-001 1.217997e-002 4.410407e-002
         vertex 1.696130e-001 1.516211e-002 4.646980e-002
      endloop
   endfacet
   facet normal -5.289650e-001 -2.804060e-001 8.009797e-001
      outer loop
         vertex 2.286479e-002 2.856245e-001 4.410407e-002
         vertex 1.696130e-001 1.516211e-002 4.646980e-002
         vertex 2.978711e-002 2.789332e-001 4.646980e-002
      endloop
   endfacet
   facet normal -4.484111e-001 -2.377041e-001 8.616404e-001
      outer loop
         vertex 2.978711e-002 2.789332e-001 4.646980e-002
         vertex 1.696130e-001 1.516211e-002 4.646980e-002
         vertex 1.714458e-001 1.820808e-002 4.815752e-002
      endloop
   endfacet
   facet normal -4.068545e-001 -2.156748e-001 8.876676e-001
      outer loop
         vertex 2.978711e-002 2.789332e-001 4.646980e-002
         vertex 1.714458e-001 1.820808e-002 4.815752e-002
         vertex 3.685762e-002 2.720986e-001 4.815752e-002
      endloop
   endfacet
   facet normal -3.201066e-001 -1.696895e-001 9.320608e-001
      outer loop
         vertex 3.685762e-002 2.720986e-001 4.815752e-002
         vertex 1.714458e-001 1.820808e-002 4.815752e-002
         vertex 1.733697e-001 2.140553e-002 4.930287e-002
      endloop
   endfacet
   facet normal -2.748918e-001 -1.457210e-001 9.503683e-001
      outer loop
         vertex 3.685762e-002 2.720986e-001 4.815752e-002
         vertex 1.733697e-001 2.140553e-002 4.930287e-002
         vertex 4.427974e-002 2.649241e-001 4.930287e-002
      endloop
   endfacet
   facet normal -1.824371e-001 -9.671047e-002 9.784497e-001
      outer loop
         vertex 4.427974e-002 2.649241e-001 4.930287e-002
         vertex 1.733697e-001 2.140553e-002 4.930287e-002
         vertex 1.753331e-001 2.466849e-002 4.990010e-002
      endloop
   endfacet
   facet normal -1.351971e-001 -7.166841e-002 9.882234e-001
      outer loop
         vertex 4.427974e-002 2.649241e-001 4.930287e-002
         vertex 1.753331e-001 2.466849e-002 4.990010e-002
         vertex 5.185395e-002 2.576027e-001 4.990010e-002
      endloop
   endfacet
   facet normal -5.852989e-002 -3.102687e-002 9.978034e-001
      outer loop
         vertex 5.185395e-002 2.576027e-001 4.990010e-002
         vertex 1.753331e-001 2.466849e-002 4.990010e-002
         vertex 1.765407e-001 2.667553e-002 5.000000e-002
      endloop
   endfacet
   facet normal -2.926494e-002 -1.551344e-002 9.994513e-001
      outer loop
         vertex 5.185395e-002 2.576027e-001 4.990010e-002
         vertex 1.765407e-001 2.667553e-002 5.000000e-002
         vertex 5.651283e-002 2.530993e-001 5.000000e-002
      endloop
   endfacet
   facet normal -8.014247e-001 -4.248377e-001 4.209885e-001
      outer loop
         vertex 1.218315e-002 2.959497e-001 3.817813e-002
         vertex 1.021291e-002 2.978542e-001 3.651747e-002
         vertex 1.640587e-001 5.931281e-003 3.461530e-002
      endloop
   endfacet
   facet normal -8.190477e-001 -4.341797e-001 3.750318e-001
      outer loop
         vertex 1.640587e-001 5.931281e-003 3.461530e-002
         vertex 1.021291e-002 2.978542e-001 3.651747e-002
         vertex 8.359899e-003 2.996454e-001 3.461530e-002
      endloop
   endfacet
   facet normal -8.417508e-001 -4.462147e-001 3.038881e-001
      outer loop
         vertex 1.640587e-001 5.931281e-003 3.461530e-002
         vertex 8.359899e-003 2.996454e-001 3.461530e-002
         vertex 1.633814e-001 4.805763e-003 3.075306e-002
      endloop
   endfacet
   facet normal -8.478758e-001 -4.494616e-001 2.812313e-001
      outer loop
         vertex 8.359899e-003 2.996454e-001 3.461530e-002
         vertex 6.957634e-003 3.010009e-001 3.280934e-002
         vertex 1.633814e-001 4.805763e-003 3.075306e-002
      endloop
   endfacet
   facet normal -8.591626e-001 -4.554448e-001 2.332591e-001
      outer loop
         vertex 1.633814e-001 4.805763e-003 3.075306e-002
         vertex 6.957634e-003 3.010009e-001 3.280934e-002
         vertex 5.318185e-003 3.025856e-001 2.980100e-002
      endloop
   endfacet
   facet normal -8.722675e-001 -4.623918e-001 1.591952e-001
      outer loop
         vertex 1.633814e-001 4.805763e-003 3.075306e-002
         vertex 5.318185e-003 3.025856e-001 2.980100e-002
         vertex 1.630492e-001 4.253663e-003 2.668382e-002
      endloop
   endfacet
   facet normal -8.774024e-001 -4.651137e-001 1.176195e-001
      outer loop
         vertex 1.630492e-001 4.253663e-003 2.668382e-002
         vertex 5.318185e-003 3.025856e-001 2.980100e-002
         vertex 4.465688e-003 3.034096e-001 2.668382e-002
      endloop
   endfacet
   facet normal -8.834807e-001 -4.683358e-001 1.110689e-002
      outer loop
         vertex 1.630492e-001 4.253663e-003 2.668382e-002
         vertex 4.465688e-003 3.034096e-001 2.668382e-002
         vertex 1.630832e-001 4.310139e-003 2.255755e-002
      endloop
   endfacet
   facet normal -8.835344e-001 -4.683644e-001 -1.309247e-003
      outer loop
         vertex 1.630832e-001 4.310139e-003 2.255755e-002
         vertex 4.465688e-003 3.034096e-001 2.668382e-002
         vertex 4.417434e-003 3.034563e-001 2.370345e-002
      endloop
   endfacet
   facet normal -8.811023e-001 -4.670750e-001 -7.415977e-002
      outer loop
         vertex 1.630832e-001 4.310139e-003 2.255755e-002
         vertex 4.417434e-003 3.034563e-001 2.370345e-002
         vertex 4.880343e-003 3.030088e-001 2.143500e-002
      endloop
   endfacet
   facet normal -8.778499e-001 -4.653509e-001 -1.132611e-001
      outer loop
         vertex 1.630832e-001 4.310139e-003 2.255755e-002
         vertex 4.880343e-003 3.030088e-001 2.143500e-002
         vertex 1.632433e-001 4.576272e-003 2.046014e-002
      endloop
   endfacet
   facet normal -8.722251e-001 -4.623692e-001 -1.594932e-001
      outer loop
         vertex 1.632433e-001 4.576272e-003 2.046014e-002
         vertex 4.880343e-003 3.030088e-001 2.143500e-002
         vertex 6.202829e-003 3.017305e-001 1.839142e-002
      endloop
   endfacet
   facet normal -8.663129e-001 -4.592352e-001 -1.964817e-001
      outer loop
         vertex 1.632433e-001 4.576272e-003 2.046014e-002
         vertex 6.202829e-003 3.017305e-001 1.839142e-002
         vertex 1.634995e-001 5.002017e-003 1.839142e-002
      endloop
   endfacet
   facet normal -8.520161e-001 -4.516563e-001 -2.647171e-001
      outer loop
         vertex 1.634995e-001 5.002017e-003 1.839142e-002
         vertex 6.202829e-003 3.017305e-001 1.839142e-002
         vertex 1.638563e-001 5.594913e-003 1.633724e-002
      endloop
   endfacet
   facet normal -8.451713e-001 -4.480279e-001 -2.914729e-001
      outer loop
         vertex 1.638563e-001 5.594913e-003 1.633724e-002
         vertex 6.202829e-003 3.017305e-001 1.839142e-002
         vertex 7.668117e-003 3.003141e-001 1.622261e-002
      endloop
   endfacet
   facet normal -8.303776e-001 -4.401858e-001 -3.416277e-001
      outer loop
         vertex 1.638563e-001 5.594913e-003 1.633724e-002
         vertex 7.668117e-003 3.003141e-001 1.622261e-002
         vertex 1.643060e-001 6.342307e-003 1.435347e-002
      endloop
   endfacet
   facet normal -8.220678e-001 -4.357806e-001 -3.664694e-001
      outer loop
         vertex 1.643060e-001 6.342307e-003 1.435347e-002
         vertex 7.668117e-003 3.003141e-001 1.622261e-002
         vertex 9.313993e-003 2.987231e-001 1.435347e-002
      endloop
   endfacet
   facet normal -8.039808e-001 -4.261927e-001 -4.146985e-001
      outer loop
         vertex 1.643060e-001 6.342307e-003 1.435347e-002
         vertex 9.313993e-003 2.987231e-001 1.435347e-002
         vertex 1.648561e-001 7.256582e-003 1.241721e-002
      endloop
   endfacet
   facet normal -7.931556e-001 -4.204543e-001 -4.405931e-001
      outer loop
         vertex 1.648561e-001 7.256582e-003 1.241721e-002
         vertex 9.313993e-003 2.987231e-001 1.435347e-002
         vertex 1.154275e-002 2.965687e-001 1.233001e-002
      endloop
   endfacet
   facet normal -7.705741e-001 -4.084837e-001 -4.892409e-001
      outer loop
         vertex 1.648561e-001 7.256582e-003 1.241721e-002
         vertex 1.154275e-002 2.965687e-001 1.233001e-002
         vertex 1.654915e-001 8.312600e-003 1.058810e-002
      endloop
   endfacet
   facet normal -7.583401e-001 -4.019984e-001 -5.131449e-001
      outer loop
         vertex 1.154275e-002 2.965687e-001 1.233001e-002
         vertex 1.388758e-002 2.943022e-001 1.058810e-002
         vertex 1.654915e-001 8.312600e-003 1.058810e-002
      endloop
   endfacet
   facet normal -7.211191e-001 -3.822674e-001 -5.778052e-001
      outer loop
         vertex 1.654915e-001 8.312600e-003 1.058810e-002
         vertex 1.388758e-002 2.943022e-001 1.058810e-002
         vertex 1.909765e-002 2.892659e-001 7.579307e-003
      endloop
   endfacet
   facet normal -6.941617e-001 -3.679773e-001 -6.186535e-001
      outer loop
         vertex 1.654915e-001 8.312600e-003 1.058810e-002
         vertex 1.909765e-002 2.892659e-001 7.579307e-003
         vertex 1.668421e-001 1.055709e-002 7.579307e-003
      endloop
   endfacet
   facet normal -6.340753e-001 -3.361253e-001 -6.963966e-001
      outer loop
         vertex 1.668421e-001 1.055709e-002 7.579307e-003
         vertex 1.909765e-002 2.892659e-001 7.579307e-003
         vertex 2.521347e-002 2.833542e-001 5.000000e-003
      endloop
   endfacet
   facet normal -6.008340e-001 -3.185040e-001 -7.331805e-001
      outer loop
         vertex 1.668421e-001 1.055709e-002 7.579307e-003
         vertex 2.521347e-002 2.833542e-001 5.000000e-003
         vertex 1.684274e-001 1.319179e-002 5.000000e-003
      endloop
   endfacet
   facet normal -5.272738e-001 -2.795095e-001 -8.024068e-001
      outer loop
         vertex 1.684274e-001 1.319179e-002 5.000000e-003
         vertex 2.521347e-002 2.833542e-001 5.000000e-003
         vertex 3.230814e-002 2.764963e-001 2.854083e-003
      endloop
   endfacet
   facet normal -4.867464e-001 -2.580258e-001 -8.345661e-001
      outer loop
         vertex 1.684274e-001 1.319179e-002 5.000000e-003
         vertex 3.230814e-002 2.764963e-001 2.854083e-003
         vertex 1.702665e-001 1.624817e-002 2.854083e-003
      endloop
   endfacet
   facet normal -4.017129e-001 -2.129493e-001 -8.906623e-001
      outer loop
         vertex 1.702665e-001 1.624817e-002 2.854083e-003
         vertex 3.230814e-002 2.764963e-001 2.854083e-003
         vertex 3.976537e-002 2.692879e-001 1.323395e-003
      endloop
   endfacet
   facet normal -3.572193e-001 -1.893630e-001 -9.146234e-001
      outer loop
         vertex 1.702665e-001 1.624817e-002 2.854083e-003
         vertex 3.976537e-002 2.692879e-001 1.323395e-003
         vertex 1.721995e-001 1.946073e-002 1.323395e-003
      endloop
   endfacet
   facet normal -2.644874e-001 -1.402056e-001 -9.541430e-001
      outer loop
         vertex 1.721995e-001 1.946073e-002 1.323395e-003
         vertex 3.976537e-002 2.692879e-001 1.323395e-003
         vertex 4.759746e-002 2.617171e-001 3.678124e-004
      endloop
   endfacet
   facet normal -2.162137e-001 -1.146155e-001 -9.695952e-001
      outer loop
         vertex 1.721995e-001 1.946073e-002 1.323395e-003
         vertex 4.759746e-002 2.617171e-001 3.678124e-004
         vertex 1.742297e-001 2.283479e-002 3.678124e-004
      endloop
   endfacet
   facet normal -1.120527e-001 -5.939949e-002 -9.919254e-001
      outer loop
         vertex 1.742297e-001 2.283479e-002 3.678124e-004
         vertex 4.759746e-002 2.617171e-001 3.678124e-004
         vertex 5.651283e-002 2.530993e-001 0.000000e+000
      endloop
   endfacet
   facet normal -5.602636e-002 -2.969974e-002 -9.979874e-001
      outer loop
         vertex 1.742297e-001 2.283479e-002 3.678124e-004
         vertex 5.651283e-002 2.530993e-001 0.000000e+000
         vertex 1.765407e-001 2.667553e-002 0.000000e+000
      endloop
   endfacet
   facet normal 0.000000e+000 1.000000e+000 0.000000e+000
      outer loop
         vertex 1.765407e-001 2.667553e-002 5.000000e-002
         vertex 5.210783e-001 2.667553e-002 5.000000e-002
         vertex 1.765407e-001 2.667553e-002 0.000000e+000
      endloop
   endfacet
   facet normal 0.000000e+000 1.000000e+000 0.000000e+000
      outer loop
         vertex 1.765407e-001 2.667553e-002 0.000000e+000
         vertex 5.210783e-001 2.667553e-002 5.000000e-002
         vertex 5.210783e-001 2.667553e-002 0.000000e+000
      endloop
   endfacet
   facet normal 0.000000e+000 -8.161747e-001 -5.778052e-001
      outer loop
         vertex 6.006674e-001 8.312600e-003 1.058810e-002
         vertex 1.654915e-001 8.312600e-003 1.058810e-002
         vertex 1.668421e-001 1.055709e-002 7.579307e-003
      endloop
   endfacet
   facet normal 0.000000e+000 -9.564664e-001 -2.918422e-001
      outer loop
         vertex 6.122372e-001 5.643204e-003 1.619317e-002
         vertex 6.150162e-001 5.002017e-003 1.839142e-002
         vertex 1.638563e-001 5.594913e-003 1.633724e-002
      endloop
   endfacet
   facet normal 0.000000e+000 -8.193862e-001 5.732419e-001
      outer loop
         vertex 1.650497e-001 7.578332e-003 3.817813e-002
         vertex 5.947204e-001 9.684714e-003 4.136261e-002
         vertex 1.663171e-001 9.684714e-003 4.136261e-002
      endloop
   endfacet
   facet normal 0.000000e+000 -7.563416e-001 6.541769e-001
      outer loop
         vertex 1.663171e-001 9.684714e-003 4.136261e-002
         vertex 5.947204e-001 9.684714e-003 4.136261e-002
         vertex 5.839053e-001 1.217997e-002 4.410407e-002
      endloop
   endfacet
   facet normal 0.000000e+000 -7.213564e-001 6.925640e-001
      outer loop
         vertex 1.663171e-001 9.684714e-003 4.136261e-002
         vertex 5.839053e-001 1.217997e-002 4.410407e-002
         vertex 1.678186e-001 1.217997e-002 4.410407e-002
      endloop
   endfacet
   facet normal 0.000000e+000 -6.426858e-001 7.661299e-001
      outer loop
         vertex 1.678186e-001 1.217997e-002 4.410407e-002
         vertex 5.839053e-001 1.217997e-002 4.410407e-002
         vertex 5.709801e-001 1.516211e-002 4.646980e-002
      endloop
   endfacet
   facet normal 0.000000e+000 -5.986915e-001 8.009797e-001
      outer loop
         vertex 1.678186e-001 1.217997e-002 4.410407e-002
         vertex 5.709801e-001 1.516211e-002 4.646980e-002
         vertex 1.696130e-001 1.516211e-002 4.646980e-002
      endloop
   endfacet
   facet normal 0.000000e+000 -5.075192e-001 8.616404e-001
      outer loop
         vertex 1.696130e-001 1.516211e-002 4.646980e-002
         vertex 5.709801e-001 1.516211e-002 4.646980e-002
         vertex 5.577782e-001 1.820808e-002 4.815752e-002
      endloop
   endfacet
   facet normal 0.000000e+000 -4.604848e-001 8.876676e-001
      outer loop
         vertex 1.696130e-001 1.516211e-002 4.646980e-002
         vertex 5.577782e-001 1.820808e-002 4.815752e-002
         vertex 1.714458e-001 1.820808e-002 4.815752e-002
      endloop
   endfacet
   facet normal 0.000000e+000 -3.623020e-001 9.320608e-001
      outer loop
         vertex 1.714458e-001 1.820808e-002 4.815752e-002
         vertex 5.577782e-001 1.820808e-002 4.815752e-002
         vertex 5.439197e-001 2.140553e-002 4.930287e-002
      endloop
   endfacet
   facet normal 0.000000e+000 -3.111272e-001 9.503683e-001
      outer loop
         vertex 1.714458e-001 1.820808e-002 4.815752e-002
         vertex 5.439197e-001 2.140553e-002 4.930287e-002
         vertex 1.733697e-001 2.140553e-002 4.930287e-002
      endloop
   endfacet
   facet normal 0.000000e+000 -2.064854e-001 9.784497e-001
      outer loop
         vertex 1.733697e-001 2.140553e-002 4.930287e-002
         vertex 5.439197e-001 2.140553e-002 4.930287e-002
         vertex 5.297773e-001 2.466849e-002 4.990010e-002
      endloop
   endfacet
   facet normal 0.000000e+000 -1.530184e-001 9.882234e-001
      outer loop
         vertex 1.733697e-001 2.140553e-002 4.930287e-002
         vertex 5.297773e-001 2.466849e-002 4.990010e-002
         vertex 1.753331e-001 2.466849e-002 4.990010e-002
      endloop
   endfacet
   facet normal 0.000000e+000 -6.624511e-002 9.978034e-001
      outer loop
         vertex 1.753331e-001 2.466849e-002 4.990010e-002
         vertex 5.297773e-001 2.466849e-002 4.990010e-002
         vertex 5.210783e-001 2.667553e-002 5.000000e-002
      endloop
   endfacet
   facet normal 0.000000e+000 -3.312255e-002 9.994513e-001
      outer loop
         vertex 1.753331e-001 2.466849e-002 4.990010e-002
         vertex 5.210783e-001 2.667553e-002 5.000000e-002
         vertex 1.765407e-001 2.667553e-002 5.000000e-002
      endloop
   endfacet
   facet normal 0.000000e+000 -9.069352e-001 4.212702e-001
      outer loop
         vertex 1.640587e-001 5.931281e-003 3.461530e-002
         vertex 6.074841e-001 6.739843e-003 3.653948e-002
         vertex 1.650497e-001 7.578332e-003 3.817813e-002
      endloop
   endfacet
   facet normal 0.000000e+000 -8.847014e-001 4.661582e-001
      outer loop
         vertex 1.650497e-001 7.578332e-003 3.817813e-002
         vertex 6.074841e-001 6.739843e-003 3.653948e-002
         vertex 6.038499e-001 7.578332e-003 3.817813e-002
      endloop
   endfacet
   facet normal 0.000000e+000 -8.475249e-001 5.307558e-001
      outer loop
         vertex 1.650497e-001 7.578332e-003 3.817813e-002
         vertex 6.038499e-001 7.578332e-003 3.817813e-002
         vertex 5.947204e-001 9.684714e-003 4.136261e-002
      endloop
   endfacet
   facet normal 0.000000e+000 -9.594929e-001 2.817329e-001
      outer loop
         vertex 1.633814e-001 4.805763e-003 3.075306e-002
         vertex 6.135547e-001 5.339214e-003 3.284990e-002
         vertex 1.640587e-001 5.931281e-003 3.461530e-002
      endloop
   endfacet
   facet normal 0.000000e+000 -9.443308e-001 3.289976e-001
      outer loop
         vertex 1.640587e-001 5.931281e-003 3.461530e-002
         vertex 6.135547e-001 5.339214e-003 3.284990e-002
         vertex 6.109886e-001 5.931281e-003 3.461530e-002
      endloop
   endfacet
   facet normal 0.000000e+000 -9.268957e-001 3.753190e-001
      outer loop
         vertex 1.640587e-001 5.931281e-003 3.461530e-002
         vertex 6.109886e-001 5.931281e-003 3.461530e-002
         vertex 6.074841e-001 6.739843e-003 3.653948e-002
      endloop
   endfacet
   facet normal 0.000000e+000 -9.928967e-001 1.189797e-001
      outer loop
         vertex 1.630492e-001 4.253663e-003 2.668382e-002
         vertex 6.179777e-001 4.318725e-003 2.753792e-002
         vertex 6.158668e-001 4.805763e-003 3.075306e-002
      endloop
   endfacet
   facet normal 0.000000e+000 -9.889618e-001 1.481712e-001
      outer loop
         vertex 1.630492e-001 4.253663e-003 2.668382e-002
         vertex 6.158668e-001 4.805763e-003 3.075306e-002
         vertex 1.633814e-001 4.805763e-003 3.075306e-002
      endloop
   endfacet
   facet normal 0.000000e+000 -9.722928e-001 2.337661e-001
      outer loop
         vertex 1.633814e-001 4.805763e-003 3.075306e-002
         vertex 6.158668e-001 4.805763e-003 3.075306e-002
         vertex 6.135547e-001 5.339214e-003 3.284990e-002
      endloop
   endfacet
   facet normal 0.000000e+000 -9.974880e-001 7.083646e-002
      outer loop
         vertex 1.630492e-001 4.253663e-003 2.668382e-002
         vertex 6.184795e-001 4.202957e-003 2.486435e-002
         vertex 6.179777e-001 4.318725e-003 2.753792e-002
      endloop
   endfacet
   facet normal 0.000000e+000 -9.845580e-001 -1.750587e-001
      outer loop
         vertex 1.632433e-001 4.576272e-003 2.046014e-002
         vertex 6.150162e-001 5.002017e-003 1.839142e-002
         vertex 6.169342e-001 4.559508e-003 2.056234e-002
      endloop
   endfacet
   facet normal 0.000000e+000 -9.918479e-001 -1.274270e-001
      outer loop
         vertex 1.632433e-001 4.576272e-003 2.046014e-002
         vertex 6.169342e-001 4.559508e-003 2.056234e-002
         vertex 6.180150e-001 4.310139e-003 2.255755e-002
      endloop
   endfacet
   facet normal 0.000000e+000 -9.935653e-001 -1.132611e-001
      outer loop
         vertex 1.632433e-001 4.576272e-003 2.046014e-002
         vertex 6.180150e-001 4.310139e-003 2.255755e-002
         vertex 1.630832e-001 4.310139e-003 2.255755e-002
      endloop
   endfacet
   facet normal 0.000000e+000 -9.995981e-001 -2.834829e-002
      outer loop
         vertex 1.630832e-001 4.310139e-003 2.255755e-002
         vertex 6.180150e-001 4.310139e-003 2.255755e-002
         vertex 1.630492e-001 4.253663e-003 2.668382e-002
      endloop
   endfacet
   facet normal 0.000000e+000 -9.999509e-001 9.900546e-003
      outer loop
         vertex 1.630492e-001 4.253663e-003 2.668382e-002
         vertex 6.180150e-001 4.310139e-003 2.255755e-002
         vertex 6.184795e-001 4.202957e-003 2.486435e-002
      endloop
   endfacet
   facet normal 0.000000e+000 -9.767865e-001 -2.142151e-001
      outer loop
         vertex 6.150162e-001 5.002017e-003 1.839142e-002
         vertex 1.632433e-001 4.576272e-003 2.046014e-002
         vertex 1.634995e-001 5.002017e-003 1.839142e-002
      endloop
   endfacet
   facet normal 0.000000e+000 -9.643261e-001 -2.647171e-001
      outer loop
         vertex 6.150162e-001 5.002017e-003 1.839142e-002
         vertex 1.634995e-001 5.002017e-003 1.839142e-002
         vertex 1.638563e-001 5.594913e-003 1.633724e-002
      endloop
   endfacet
   facet normal 0.000000e+000 -9.397034e-001 -3.419906e-001
      outer loop
         vertex 6.122372e-001 5.643204e-003 1.619317e-002
         vertex 1.638563e-001 5.594913e-003 1.633724e-002
         vertex 6.092071e-001 6.342307e-003 1.435347e-002
      endloop
   endfacet
   facet normal 0.000000e+000 -9.309788e-001 -3.650733e-001
      outer loop
         vertex 6.092071e-001 6.342307e-003 1.435347e-002
         vertex 1.638563e-001 5.594913e-003 1.633724e-002
         vertex 1.643060e-001 6.342307e-003 1.435347e-002
      endloop
   endfacet
   facet normal 0.000000e+000 -9.099589e-001 -4.146984e-001
      outer loop
         vertex 6.092071e-001 6.342307e-003 1.435347e-002
         vertex 1.643060e-001 6.342307e-003 1.435347e-002
         vertex 1.648561e-001 7.256582e-003 1.241721e-002
      endloop
   endfacet
   facet normal 0.000000e+000 -8.589543e-001 -5.120524e-001
      outer loop
         vertex 1.654915e-001 8.312600e-003 1.058810e-002
         vertex 6.006674e-001 8.312600e-003 1.058810e-002
         vertex 1.648561e-001 7.256582e-003 1.241721e-002
      endloop
   endfacet
   facet normal 0.000000e+000 -8.719866e-001 -4.895298e-001
      outer loop
         vertex 1.648561e-001 7.256582e-003 1.241721e-002
         vertex 6.006674e-001 8.312600e-003 1.058810e-002
         vertex 6.049937e-001 7.314433e-003 1.230737e-002
      endloop
   endfacet
   facet normal 0.000000e+000 -8.975609e-001 -4.408905e-001
      outer loop
         vertex 1.648561e-001 7.256582e-003 1.241721e-002
         vertex 6.049937e-001 7.314433e-003 1.230737e-002
         vertex 6.092071e-001 6.342307e-003 1.435347e-002
      endloop
   endfacet
   facet normal 0.000000e+000 -6.341157e-002 -9.979874e-001
      outer loop
         vertex 1.765407e-001 2.667553e-002 0.000000e+000
         vertex 5.210783e-001 2.667553e-002 0.000000e+000
         vertex 1.742297e-001 2.283479e-002 3.678124e-004
      endloop
   endfacet
   facet normal 0.000000e+000 -1.268231e-001 -9.919254e-001
      outer loop
         vertex 1.742297e-001 2.283479e-002 3.678124e-004
         vertex 5.210783e-001 2.667553e-002 0.000000e+000
         vertex 5.377249e-001 2.283479e-002 3.678124e-004
      endloop
   endfacet
   facet normal 0.000000e+000 -2.447143e-001 -9.695952e-001
      outer loop
         vertex 1.742297e-001 2.283479e-002 3.678124e-004
         vertex 5.377249e-001 2.283479e-002 3.678124e-004
         vertex 1.721995e-001 1.946073e-002 1.323395e-003
      endloop
   endfacet
   facet normal 0.000000e+000 -2.993512e-001 -9.541430e-001
      outer loop
         vertex 1.721995e-001 1.946073e-002 1.323395e-003
         vertex 5.377249e-001 2.283479e-002 3.678124e-004
         vertex 5.523489e-001 1.946073e-002 1.323395e-003
      endloop
   endfacet
   facet normal 0.000000e+000 -4.043068e-001 -9.146234e-001
      outer loop
         vertex 1.721995e-001 1.946073e-002 1.323395e-003
         vertex 5.523489e-001 1.946073e-002 1.323395e-003
         vertex 1.702665e-001 1.624817e-002 2.854083e-003
      endloop
   endfacet
   facet normal 0.000000e+000 -4.546654e-001 -8.906623e-001
      outer loop
         vertex 1.702665e-001 1.624817e-002 2.854083e-003
         vertex 5.523489e-001 1.946073e-002 1.323395e-003
         vertex 5.662729e-001 1.624817e-002 2.854083e-003
      endloop
   endfacet
   facet normal 0.000000e+000 -5.509078e-001 -8.345661e-001
      outer loop
         vertex 1.702665e-001 1.624817e-002 2.854083e-003
         vertex 5.662729e-001 1.624817e-002 2.854083e-003
         vertex 1.684274e-001 1.319179e-002 5.000000e-003
      endloop
   endfacet
   facet normal 0.000000e+000 -5.967774e-001 -8.024068e-001
      outer loop
         vertex 1.684274e-001 1.319179e-002 5.000000e-003
         vertex 5.662729e-001 1.624817e-002 2.854083e-003
         vertex 5.795199e-001 1.319179e-002 5.000000e-003
      endloop
   endfacet
   facet normal 0.000000e+000 -6.800340e-001 -7.331805e-001
      outer loop
         vertex 1.684274e-001 1.319179e-002 5.000000e-003
         vertex 5.795199e-001 1.319179e-002 5.000000e-003
         vertex 1.668421e-001 1.055709e-002 7.579307e-003
      endloop
   endfacet
   facet normal 0.000000e+000 -7.176571e-001 -6.963966e-001
      outer loop
         vertex 1.668421e-001 1.055709e-002 7.579307e-003
         vertex 5.795199e-001 1.319179e-002 5.000000e-003
         vertex 5.909392e-001 1.055709e-002 7.579307e-003
      endloop
   endfacet
   facet normal 0.000000e+000 -7.856640e-001 -6.186535e-001
      outer loop
         vertex 1.668421e-001 1.055709e-002 7.579307e-003
         vertex 5.909392e-001 1.055709e-002 7.579307e-003
         vertex 6.006674e-001 8.312600e-003 1.058810e-002
      endloop
   endfacet
   facet normal -4.381211e-001 -8.989160e-001 0.000000e+000
      outer loop
         vertex 5.210783e-001 2.667553e-002 0.000000e+000
         vertex 5.210783e-001 2.667553e-002 5.000000e-002
         vertex 5.651283e-002 2.530993e-001 0.000000e+000
      endloop
   endfacet
   facet normal -4.381211e-001 -8.989160e-001 0.000000e+000
      outer loop
         vertex 5.651283e-002 2.530993e-001 0.000000e+000
         vertex 5.210783e-001 2.667553e-002 5.000000e-002
         vertex 5.651283e-002 2.530993e-001 5.000000e-002
      endloop
   endfacet
   facet normal 2.778194e-002 5.700167e-002 -9.979874e-001
      outer loop
         vertex 5.210783e-001 2.667553e-002 0.000000e+000
         vertex 5.651283e-002 2.530993e-001 0.000000e+000
         vertex 4.759746e-002 2.617171e-001 3.678124e-004
      endloop
   endfacet
   facet normal 5.556389e-002 1.140033e-001 -9.919254e-001
      outer loop
         vertex 5.210783e-001 2.667553e-002 0.000000e+000
         vertex 4.759746e-002 2.617171e-001 3.678124e-004
         vertex 5.377249e-001 2.283479e-002 3.678124e-004
      endloop
   endfacet
   facet normal 1.072145e-001 2.199776e-001 -9.695952e-001
      outer loop
         vertex 5.377249e-001 2.283479e-002 3.678124e-004
         vertex 4.759746e-002 2.617171e-001 3.678124e-004
         vertex 3.976537e-002 2.692879e-001 1.323395e-003
      endloop
   endfacet
   facet normal 1.311521e-001 2.690916e-001 -9.541430e-001
      outer loop
         vertex 5.377249e-001 2.283479e-002 3.678124e-004
         vertex 3.976537e-002 2.692879e-001 1.323395e-003
         vertex 5.523489e-001 1.946073e-002 1.323395e-003
      endloop
   endfacet
   facet normal 1.771353e-001 3.634378e-001 -9.146234e-001
      outer loop
         vertex 5.523489e-001 1.946073e-002 1.323395e-003
         vertex 3.976537e-002 2.692879e-001 1.323395e-003
         vertex 3.230814e-002 2.764963e-001 2.854083e-003
      endloop
   endfacet
   facet normal 1.991985e-001 4.087060e-001 -8.906623e-001
      outer loop
         vertex 5.523489e-001 1.946073e-002 1.323395e-003
         vertex 3.230814e-002 2.764963e-001 2.854083e-003
         vertex 5.662729e-001 1.624817e-002 2.854083e-003
      endloop
   endfacet
   facet normal 2.413643e-001 4.952198e-001 -8.345661e-001
      outer loop
         vertex 5.662729e-001 1.624817e-002 2.854083e-003
         vertex 3.230814e-002 2.764963e-001 2.854083e-003
         vertex 2.521347e-002 2.833542e-001 5.000000e-003
      endloop
   endfacet
   facet normal 2.614608e-001 5.364528e-001 -8.024068e-001
      outer loop
         vertex 5.662729e-001 1.624817e-002 2.854083e-003
         vertex 2.521347e-002 2.833542e-001 5.000000e-003
         vertex 5.795199e-001 1.319179e-002 5.000000e-003
      endloop
   endfacet
   facet normal 2.979372e-001 6.112934e-001 -7.331805e-001
      outer loop
         vertex 5.795199e-001 1.319179e-002 5.000000e-003
         vertex 2.521347e-002 2.833542e-001 5.000000e-003
         vertex 1.909765e-002 2.892659e-001 7.579307e-003
      endloop
   endfacet
   facet normal 3.144207e-001 6.451135e-001 -6.963966e-001
      outer loop
         vertex 5.795199e-001 1.319179e-002 5.000000e-003
         vertex 1.909765e-002 2.892659e-001 7.579307e-003
         vertex 5.909392e-001 1.055709e-002 7.579307e-003
      endloop
   endfacet
   facet normal 3.442159e-001 7.062459e-001 -6.186535e-001
      outer loop
         vertex 5.909392e-001 1.055709e-002 7.579307e-003
         vertex 1.909765e-002 2.892659e-001 7.579307e-003
         vertex 1.388758e-002 2.943022e-001 1.058810e-002
      endloop
   endfacet
   facet normal 3.575833e-001 7.336725e-001 -5.778052e-001
      outer loop
         vertex 5.909392e-001 1.055709e-002 7.579307e-003
         vertex 1.388758e-002 2.943022e-001 1.058810e-002
         vertex 6.006674e-001 8.312600e-003 1.058810e-002
      endloop
   endfacet
   facet normal 3.983804e-001 8.173779e-001 -4.161567e-001
      outer loop
         vertex 9.313993e-003 2.987231e-001 1.435347e-002
         vertex 6.092071e-001 6.342307e-003 1.435347e-002
         vertex 6.049937e-001 7.314433e-003 1.230737e-002
      endloop
   endfacet
   facet normal 3.759657e-001 7.713887e-001 -5.134288e-001
      outer loop
         vertex 6.006674e-001 8.312600e-003 1.058810e-002
         vertex 1.388758e-002 2.943022e-001 1.058810e-002
         vertex 6.049937e-001 7.314433e-003 1.230737e-002
      endloop
   endfacet
   facet normal 3.817622e-001 7.832815e-001 -4.906400e-001
      outer loop
         vertex 6.049937e-001 7.314433e-003 1.230737e-002
         vertex 1.388758e-002 2.943022e-001 1.058810e-002
         vertex 1.154275e-002 2.965687e-001 1.233001e-002
      endloop
   endfacet
   facet normal 3.929939e-001 8.063263e-001 -4.420335e-001
      outer loop
         vertex 6.049937e-001 7.314433e-003 1.230737e-002
         vertex 1.154275e-002 2.965687e-001 1.233001e-002
         vertex 9.313993e-003 2.987231e-001 1.435347e-002
      endloop
   endfacet
   facet normal 4.222721e-001 8.663979e-001 -2.665350e-001
      outer loop
         vertex 6.202829e-003 3.017305e-001 1.839142e-002
         vertex 6.150162e-001 5.002017e-003 1.839142e-002
         vertex 6.122372e-001 5.643204e-003 1.619317e-002
      endloop
   endfacet
   facet normal 4.075791e-001 8.362514e-001 -3.668283e-001
      outer loop
         vertex 6.092071e-001 6.342307e-003 1.435347e-002
         vertex 9.313993e-003 2.987231e-001 1.435347e-002
         vertex 6.122372e-001 5.643204e-003 1.619317e-002
      endloop
   endfacet
   facet normal 4.114784e-001 8.442518e-001 -3.434011e-001
      outer loop
         vertex 6.122372e-001 5.643204e-003 1.619317e-002
         vertex 9.313993e-003 2.987231e-001 1.435347e-002
         vertex 7.668117e-003 3.003141e-001 1.622261e-002
      endloop
   endfacet
   facet normal 4.188556e-001 8.593881e-001 -2.932782e-001
      outer loop
         vertex 6.122372e-001 5.643204e-003 1.619317e-002
         vertex 7.668117e-003 3.003141e-001 1.622261e-002
         vertex 6.202829e-003 3.017305e-001 1.839142e-002
      endloop
   endfacet
   facet normal 4.331701e-001 8.887579e-001 -1.499106e-001
      outer loop
         vertex 6.150162e-001 5.002017e-003 1.839142e-002
         vertex 4.880343e-003 3.030088e-001 2.143500e-002
         vertex 6.169342e-001 4.559508e-003 2.056234e-002
      endloop
   endfacet
   facet normal 4.315886e-001 8.855130e-001 -1.720406e-001
      outer loop
         vertex 6.150162e-001 5.002017e-003 1.839142e-002
         vertex 6.202829e-003 3.017305e-001 1.839142e-002
         vertex 4.880343e-003 3.030088e-001 2.143500e-002
      endloop
   endfacet
   facet normal 4.369147e-001 8.964407e-001 -7.415977e-002
      outer loop
         vertex 4.417434e-003 3.034563e-001 2.370345e-002
         vertex 6.180150e-001 4.310139e-003 2.255755e-002
         vertex 4.880343e-003 3.030088e-001 2.143500e-002
      endloop
   endfacet
   facet normal 4.358315e-001 8.942183e-001 -1.021005e-001
      outer loop
         vertex 4.880343e-003 3.030088e-001 2.143500e-002
         vertex 6.180150e-001 4.310139e-003 2.255755e-002
         vertex 6.169342e-001 4.559508e-003 2.056234e-002
      endloop
   endfacet
   facet normal 4.381040e-001 8.988810e-001 8.825542e-003
      outer loop
         vertex 6.180150e-001 4.310139e-003 2.255755e-002
         vertex 4.417434e-003 3.034563e-001 2.370345e-002
         vertex 4.465688e-003 3.034096e-001 2.668382e-002
      endloop
   endfacet
   facet normal 4.380996e-001 8.988720e-001 9.900546e-003
      outer loop
         vertex 6.180150e-001 4.310139e-003 2.255755e-002
         vertex 4.465688e-003 3.034096e-001 2.668382e-002
         vertex 6.184795e-001 4.202957e-003 2.486435e-002
      endloop
   endfacet
   facet normal 4.350800e-001 8.926764e-001 1.176195e-001
      outer loop
         vertex 4.465688e-003 3.034096e-001 2.668382e-002
         vertex 5.318185e-003 3.025856e-001 2.980100e-002
         vertex 6.184795e-001 4.202957e-003 2.486435e-002
      endloop
   endfacet
   facet normal 4.327256e-001 8.878459e-001 1.564552e-001
      outer loop
         vertex 6.158668e-001 4.805763e-003 3.075306e-002
         vertex 6.179777e-001 4.318725e-003 2.753792e-002
         vertex 5.318185e-003 3.025856e-001 2.980100e-002
      endloop
   endfacet
   facet normal 4.355341e-001 8.936082e-001 1.085106e-001
      outer loop
         vertex 5.318185e-003 3.025856e-001 2.980100e-002
         vertex 6.179777e-001 4.318725e-003 2.753792e-002
         vertex 6.184795e-001 4.202957e-003 2.486435e-002
      endloop
   endfacet
   facet normal 4.259819e-001 8.740096e-001 2.337661e-001
      outer loop
         vertex 6.158668e-001 4.805763e-003 3.075306e-002
         vertex 5.318185e-003 3.025856e-001 2.980100e-002
         vertex 6.135547e-001 5.339214e-003 3.284990e-002
      endloop
   endfacet
   facet normal 4.231757e-001 8.682517e-001 2.589619e-001
      outer loop
         vertex 6.135547e-001 5.339214e-003 3.284990e-002
         vertex 5.318185e-003 3.025856e-001 2.980100e-002
         vertex 6.957634e-003 3.010009e-001 3.280934e-002
      endloop
   endfacet
   facet normal 4.170260e-001 8.556341e-001 3.065611e-001
      outer loop
         vertex 6.135547e-001 5.339214e-003 3.284990e-002
         vertex 6.957634e-003 3.010009e-001 3.280934e-002
         vertex 6.109886e-001 5.931281e-003 3.461530e-002
      endloop
   endfacet
   facet normal 4.138063e-001 8.490282e-001 3.285050e-001
      outer loop
         vertex 6.109886e-001 5.931281e-003 3.461530e-002
         vertex 6.957634e-003 3.010009e-001 3.280934e-002
         vertex 8.359899e-003 2.996454e-001 3.461530e-002
      endloop
   endfacet
   facet normal 4.060926e-001 8.332013e-001 3.753190e-001
      outer loop
         vertex 6.109886e-001 5.931281e-003 3.461530e-002
         vertex 8.359899e-003 2.996454e-001 3.461530e-002
         vertex 6.074841e-001 6.739843e-003 3.653948e-002
      endloop
   endfacet
   facet normal 4.016668e-001 8.241209e-001 3.993601e-001
      outer loop
         vertex 6.074841e-001 6.739843e-003 3.653948e-002
         vertex 8.359899e-003 2.996454e-001 3.461530e-002
         vertex 1.021291e-002 2.978542e-001 3.651747e-002
      endloop
   endfacet
   facet normal 3.924035e-001 8.051148e-001 4.447580e-001
      outer loop
         vertex 6.074841e-001 6.739843e-003 3.653948e-002
         vertex 1.021291e-002 2.978542e-001 3.651747e-002
         vertex 6.038499e-001 7.578332e-003 3.817813e-002
      endloop
   endfacet
   facet normal 3.313692e-001 6.798876e-001 6.541769e-001
      outer loop
         vertex 2.286479e-002 2.856245e-001 4.410407e-002
         vertex 5.947204e-001 9.684714e-003 4.136261e-002
         vertex 1.707261e-002 2.912234e-001 4.136261e-002
      endloop
   endfacet
   facet normal 3.589903e-001 7.365593e-001 5.732419e-001
      outer loop
         vertex 1.707261e-002 2.912234e-001 4.136261e-002
         vertex 5.947204e-001 9.684714e-003 4.136261e-002
         vertex 6.038499e-001 7.578332e-003 3.817813e-002
      endloop
   endfacet
   facet normal 3.713185e-001 7.618536e-001 5.307557e-001
      outer loop
         vertex 1.707261e-002 2.912234e-001 4.136261e-002
         vertex 6.038499e-001 7.578332e-003 3.817813e-002
         vertex 1.218315e-002 2.959497e-001 3.817813e-002
      endloop
   endfacet
   facet normal 3.876696e-001 7.954021e-001 4.658841e-001
      outer loop
         vertex 1.218315e-002 2.959497e-001 3.817813e-002
         vertex 6.038499e-001 7.578332e-003 3.817813e-002
         vertex 1.021291e-002 2.978542e-001 3.651747e-002
      endloop
   endfacet
   facet normal 1.451169e-002 2.977440e-002 9.994513e-001
      outer loop
         vertex 5.651283e-002 2.530993e-001 5.000000e-002
         vertex 5.210783e-001 2.667553e-002 5.000000e-002
         vertex 5.185395e-002 2.576027e-001 4.990010e-002
      endloop
   endfacet
   facet normal 2.902338e-002 5.954879e-002 9.978034e-001
      outer loop
         vertex 5.185395e-002 2.576027e-001 4.990010e-002
         vertex 5.210783e-001 2.667553e-002 5.000000e-002
         vertex 5.297773e-001 2.466849e-002 4.990010e-002
      endloop
   endfacet
   facet normal 6.704057e-002 1.375507e-001 9.882234e-001
      outer loop
         vertex 5.185395e-002 2.576027e-001 4.990010e-002
         vertex 5.297773e-001 2.466849e-002 4.990010e-002
         vertex 4.427974e-002 2.649241e-001 4.930287e-002
      endloop
   endfacet
   facet normal 9.046560e-002 1.856130e-001 9.784497e-001
      outer loop
         vertex 4.427974e-002 2.649241e-001 4.930287e-002
         vertex 5.297773e-001 2.466849e-002 4.990010e-002
         vertex 5.439197e-001 2.140553e-002 4.930287e-002
      endloop
   endfacet
   facet normal 1.363114e-001 2.796772e-001 9.503683e-001
      outer loop
         vertex 4.427974e-002 2.649241e-001 4.930287e-002
         vertex 5.439197e-001 2.140553e-002 4.930287e-002
         vertex 3.685762e-002 2.720986e-001 4.815752e-002
      endloop
   endfacet
   facet normal 1.587322e-001 3.256791e-001 9.320608e-001
      outer loop
         vertex 3.685762e-002 2.720986e-001 4.815752e-002
         vertex 5.439197e-001 2.140553e-002 4.930287e-002
         vertex 5.577782e-001 1.820808e-002 4.815752e-002
      endloop
   endfacet
   facet normal 2.017481e-001 4.139371e-001 8.876676e-001
      outer loop
         vertex 3.685762e-002 2.720986e-001 4.815752e-002
         vertex 5.577782e-001 1.820808e-002 4.815752e-002
         vertex 2.978711e-002 2.789332e-001 4.646980e-002
      endloop
   endfacet
   facet normal 2.223548e-001 4.562171e-001 8.616404e-001
      outer loop
         vertex 2.978711e-002 2.789332e-001 4.646980e-002
         vertex 5.577782e-001 1.820808e-002 4.815752e-002
         vertex 5.709801e-001 1.516211e-002 4.646980e-002
      endloop
   endfacet
   facet normal 2.622993e-001 5.381733e-001 8.009797e-001
      outer loop
         vertex 2.978711e-002 2.789332e-001 4.646980e-002
         vertex 5.709801e-001 1.516211e-002 4.646980e-002
         vertex 2.286479e-002 2.856245e-001 4.410407e-002
      endloop
   endfacet
   facet normal 2.815742e-001 5.777205e-001 7.661299e-001
      outer loop
         vertex 2.286479e-002 2.856245e-001 4.410407e-002
         vertex 5.709801e-001 1.516211e-002 4.646980e-002
         vertex 5.839053e-001 1.217997e-002 4.410407e-002
      endloop
   endfacet
   facet normal 3.160414e-001 6.484388e-001 6.925640e-001
      outer loop
         vertex 2.286479e-002 2.856245e-001 4.410407e-002
         vertex 5.839053e-001 1.217997e-002 4.410407e-002
         vertex 5.947204e-001 9.684714e-003 4.136261e-002
      endloop
   endfacet
endsolid