ply
format ascii 1.0
comment VCGLIB generated
element vertex 52
property float x
property float y
property float z
property float nx
property float ny
property float nz
property int flags
element face 100
property list uchar int vertex_indices
property int flags
end_header
0.60057 0 0 0 -1.51094 0 0 
0.1 0 0 0 -1.5708 0 0 
0.60057 0.3 0 0.099668 0 0 0 
0.60057 0 0.03 1.47113 0 0 0 
0.4 0.3 0.03 0.123246 1.56595 0 0 
0.384357 0.301231 0 0.254191 1.05878 0 0 
0.369098 0.304894 0 0.366694 1.5274 0 0 
0.354601 0.310899 0 0.568935 0.928413 0 0 
0.341222 0.319098 0 0.312985 0.366461 0 0 
0.319098 0.341222 0.03 0.366461 0.312985 0 0 
0.319098 0.341222 0 0.410909 0.251807 0 0 
0.301231 0.384356 0 1.52739 0.366696 0 0 
0.3 0.4 0 1.56595 0.123246 0 0 
0.3 0.8 0 1.49594 0 0 0 
0 0.8 0.03 0 1.5708 0 0 
0.3 0.8 0.03 0 0.099668 0 0 
0 0.8 0 0 0.099668 0 0 
0 0.1 0.03 -1.5708 0 0 0 
0.00123118 0.0843565 0 -1.08551 -0.0854328 0 0 
0.00489436 0.0690983 0.03 -1.5274 -0.366695 0 0 
0.0190983 0.0412215 0.03 -0.827984 -0.707165 0 0 
0.0412215 0.0190983 0 -0.312986 -0.366459 0 0 
0.0412215 0.0190983 0.03 -1.02015 -1.19444 0 0 
0.054601 0.0108993 0 -0.601117 -1.45123 0 0 
0.0690983 0.00489433 0 -0.416692 -1.00599 0 0 
0.054601 0.0108993 0.03 -0.416692 -1.00599 0 0 
0.0690983 0.00489433 0.03 -0.254192 -1.05879 0 0 
0.0843566 0.00123115 0.03 -0.0378109 -0.48044 0 0 
0.3 0.4 0.03 0 0 0.863939 0 
0.384357 0.301231 0.03 0 0 2.24884 0 
0.60057 0.3 0.03 0 0 1.5708 0 
0.310899 0.354601 0.03 0 0 1.43441 0 
0.304894 0.369098 0.03 0 0 2.05829 0 
0.301231 0.384356 0.03 0 0 1.04983 0 
0.369098 0.304894 0.03 0 0 1.24038 0 
0.354601 0.310899 0.03 0 0 1.86427 0 
0.1 0 0.03 0 0 0.0388722 0 
0.341222 0.319098 0.03 0 0 1.598 0 
0.329289 0.329289 0.03 0 0 0.0330805 0 
0.00123118 0.0843565 0.03 0 0 1.97651 0 
0.0108994 0.0546009 0.03 0 0 1.73286 0 
0.0292893 0.0292893 0.03 0 0 1.49226 0 
0.304894 0.369098 0 0 0 -2.05829 0 
0 0.1 0 0 0 -0.380506 0 
0.4 0.3 0 0 0 -0.98148 0 
0.329289 0.329289 0 0 0 -0.0346766 0 
0.0843566 0.00123115 0 0 0 -1.97651 0 
0.0292893 0.0292893 0 0 0 -1.49226 0 
0.0190983 0.0412215 0 0 0 -1.37214 0 
0.310899 0.354601 0 0 0 -1.86427 0 
0.00489436 0.0690983 0 0 0 -1.13041 0 
0.0108994 0.0546009 0 0 0 -1.25165 0 
3 3 36 0 0 
3 0 36 1 0 
3 30 3 2 0 
3 2 3 0 0 
3 4 30 44 0 
3 44 30 2 0 
3 4 44 29 0 
3 29 44 5 0 
3 29 5 34 0 
3 34 5 6 0 
3 34 6 35 0 
3 35 6 7 0 
3 35 7 37 0 
3 37 7 8 0 
3 37 8 38 0 
3 38 8 45 0 
3 38 45 9 0 
3 9 45 10 0 
3 9 10 31 0 
3 31 10 49 0 
3 31 49 32 0 
3 32 49 42 0 
3 32 42 33 0 
3 33 42 11 0 
3 33 11 28 0 
3 28 11 12 0 
3 15 28 13 0 
3 13 28 12 0 
3 14 15 16 0 
3 16 15 13 0 
3 17 14 43 0 
3 43 14 16 0 
3 17 43 18 0 
3 17 18 39 0 
3 39 18 50 0 
3 39 50 19 0 
3 19 50 51 0 
3 19 51 40 0 
3 40 51 48 0 
3 40 48 20 0 
3 20 48 47 0 
3 20 47 41 0 
3 41 47 21 0 
3 41 21 22 0 
3 22 21 23 0 
3 22 23 25 0 
3 25 23 24 0 
3 25 24 26 0 
3 26 24 46 0 
3 26 46 27 0 
3 27 46 1 0 
3 27 1 36 0 
3 36 29 34 0 
3 15 14 28 0 
3 28 14 17 0 
3 28 17 33 0 
3 29 36 4 0 
3 4 36 3 0 
3 4 3 30 0 
3 25 38 22 0 
3 22 38 41 0 
3 9 31 17 0 
3 17 31 32 0 
3 17 32 33 0 
3 34 35 36 0 
3 36 35 37 0 
3 36 37 27 0 
3 27 37 38 0 
3 27 38 26 0 
3 26 38 25 0 
3 9 17 38 0 
3 38 17 39 0 
3 38 39 19 0 
3 19 40 38 0 
3 38 40 20 0 
3 38 20 41 0 
3 11 42 43 0 
3 16 13 43 0 
3 43 13 12 0 
3 43 12 11 0 
3 1 8 7 0 
3 7 6 1 0 
3 1 6 5 0 
3 1 5 0 0 
3 0 5 44 0 
3 0 44 2 0 
3 24 23 45 0 
3 45 23 21 0 
3 8 1 45 0 
3 45 1 46 0 
3 45 46 24 0 
3 21 47 45 0 
3 45 47 48 0 
3 45 48 51 0 
3 42 49 43 0 
3 43 49 10 0 
3 43 10 18 0 
3 18 10 45 0 
3 18 45 50 0 
3 50 45 51 0 
