ply
format ascii 1.0
comment VCGLIB generated
element vertex 8
property float x
property float y
property float z
property float nx
property float ny
property float nz
property int flags
element face 12
property list uchar int vertex_indices
property int flags
end_header
0.6 0 0.03 0.025219 -0.0145602 0 0 
0.6 0 0 1.36035 -0.785398 0 0 
0.515 0.892006 0.03 -0.025219 0.0145602 0 0 
0.515 0.892006 0 -1.36035 0.785398 0 0 
0 0 0.03 0 -0.0499581 0 0 
0 0 0 0 -1.5708 0 0 
1.115 0.892006 0.03 0 0 0.372453 0 
1.115 0.892006 0 0 0 -1.0472 0 
3 6 0 7 0 
3 7 0 1 0 
3 2 6 3 0 
3 3 6 7 0 
3 4 2 5 0 
3 5 2 3 0 
3 0 4 1 0 
3 1 4 5 0 
3 2 4 6 0 
3 6 4 0 0 
3 5 3 1 0 
3 1 3 7 0 
