solid ParallelogramTarget
   facet normal 8.660254e-001 -5.000000e-001 0.000000e+000
      outer loop
         vertex 1.115000e+000 8.920062e-001 3.000000e-002
         vertex 6.000000e-001 0.000000e+000 3.000000e-002
         vertex 1.115000e+000 8.920062e-001 0.000000e+000
      endloop
   endfacet
   facet normal 8.660254e-001 -5.000000e-001 0.000000e+000
      outer loop
         vertex 1.115000e+000 8.920062e-001 0.000000e+000
         vertex 6.000000e-001 0.000000e+000 3.000000e-002
         vertex 6.000000e-001 0.000000e+000 0.000000e+000
      endloop
   endfacet
   facet normal 0.000000e+000 1.000000e+000 0.000000e+000
      outer loop
         vertex 5.150000e-001 8.920062e-001 3.000000e-002
         vertex 1.115000e+000 8.920062e-001 3.000000e-002
         vertex 5.150000e-001 8.920062e-001 0.000000e+000
      endloop
   endfacet
   facet normal 0.000000e+000 1.000000e+000 0.000000e+000
      outer loop
         vertex 5.150000e-001 8.920062e-001 0.000000e+000
         vertex 1.115000e+000 8.920062e-001 3.000000e-002
         vertex 1.115000e+000 8.920062e-001 0.000000e+000
      endloop
   endfacet
   facet normal -8.660254e-001 5.000000e-001 0.000000e+000
      outer loop
         vertex 0.000000e+000 0.000000e+000 3.000000e-002
         vertex 5.150000e-001 8.920062e-001 3.000000e-002
         vertex 0.000000e+000 0.000000e+000 0.000000e+000
      endloop
   endfacet
   facet normal -8.660254e-001 5.000000e-001 0.000000e+000
      outer loop
         vertex 0.000000e+000 0.000000e+000 0.000000e+000
         vertex 5.150000e-001 8.920062e-001 3.000000e-002
         vertex 5.150000e-001 8.920062e-001 0.000000e+000
      endloop
   endfacet
   facet normal 0.000000e+000 -1.000000e+000 0.000000e+000
      outer loop
         vertex 6.000000e-001 0.000000e+000 3.000000e-002
         vertex 0.000000e+000 0.000000e+000 3.000000e-002
         vertex 6.000000e-001 0.000000e+000 0.000000e+000
      endloop
   endfacet
   facet normal 0.000000e+000 -1.000000e+000 0.000000e+000
      outer loop
         vertex 6.000000e-001 0.000000e+000 0.000000e+000
         vertex 0.000000e+000 0.000000e+000 3.000000e-002
         vertex 0.000000e+000 0.000000e+000 0.000000e+000
      endloop
   endfacet
   facet normal 0.000000e+000 0.000000e+000 1.000000e+000
      outer loop
         vertex 5.150000e-001 8.920062e-001 3.000000e-002
         vertex 0.000000e+000 0.000000e+000 3.000000e-002
         vertex 1.115000e+000 8.920062e-001 3.000000e-002
      endloop
   endfacet
   facet normal 0.000000e+000 0.000000e+000 1.000000e+000
      outer loop
         vertex 1.115000e+000 8.920062e-001 3.000000e-002
         vertex 0.000000e+000 0.000000e+000 3.000000e-002
         vertex 6.000000e-001 0.000000e+000 3.000000e-002
      endloop
   endfacet
   facet normal 0.000000e+000 0.000000e+000 -1.000000e+000
      outer loop
         vertex 0.000000e+000 0.000000e+000 0.000000e+000
         vertex 5.150000e-001 8.920062e-001 0.000000e+000
         vertex 6.000000e-001 0.000000e+000 0.000000e+000
      endloop
   endfacet
   facet normal 0.000000e+000 0.000000e+000 -1.000000e+000
      outer loop
         vertex 6.000000e-001 0.000000e+000 0.000000e+000
         vertex 5.150000e-001 8.920062e-001 0.000000e+000
         vertex 1.115000e+000 8.920062e-001 0.000000e+000
      endloop
   endfacet
endsolid