solid PuzzleTarget
   facet normal 0.000000e+000 -1.000000e+000 0.000000e+000
      outer loop
         vertex 7.991977e-001 2.000000e-001 3.000000e-002
         vertex 5.991976e-001 2.000000e-001 3.000000e-002
         vertex 7.991977e-001 2.000000e-001 0.000000e+000
      endloop
   endfacet
   facet normal 0.000000e+000 -1.000000e+000 0.000000e+000
      outer loop
         vertex 7.991977e-001 2.000000e-001 0.000000e+000
         vertex 5.991976e-001 2.000000e-001 3.000000e-002
         vertex 5.991976e-001 2.000000e-001 0.000000e+000
      endloop
   endfacet
   facet normal 1.000000e+000 1.807004e-016 0.000000e+000
      outer loop
         vertex 7.991977e-001 8.000000e-001 3.000000e-002
         vertex 7.991977e-001 2.000000e-001 3.000000e-002
         vertex 7.991977e-001 8.000000e-001 0.000000e+000
      endloop
   endfacet
   facet normal 1.000000e+000 1.807004e-016 0.000000e+000
      outer loop
         vertex 7.991977e-001 8.000000e-001 0.000000e+000
         vertex 7.991977e-001 2.000000e-001 3.000000e-002
         vertex 7.991977e-001 2.000000e-001 0.000000e+000
      endloop
   endfacet
   facet normal 0.000000e+000 1.000000e+000 0.000000e+000
      outer loop
         vertex 1.991976e-001 8.000000e-001 3.000000e-002
         vertex 7.991977e-001 8.000000e-001 3.000000e-002
         vertex 1.991976e-001 8.000000e-001 0.000000e+000
      endloop
   endfacet
   facet normal 0.000000e+000 1.000000e+000 0.000000e+000
      outer loop
         vertex 1.991976e-001 8.000000e-001 0.000000e+000
         vertex 7.991977e-001 8.000000e-001 3.000000e-002
         vertex 7.991977e-001 8.000000e-001 0.000000e+000
      endloop
   endfacet
   facet normal -1.000000e+000 0.000000e+000 0.000000e+000
      outer loop
         vertex 1.991976e-001 6.000000e-001 3.000000e-002
         vertex 1.991976e-001 8.000000e-001 3.000000e-002
         vertex 1.991976e-001 6.000000e-001 0.000000e+000
      endloop
   endfacet
   facet normal -1.000000e+000 0.000000e+000 0.000000e+000
      outer loop
         vertex 1.991976e-001 6.000000e-001 0.000000e+000
         vertex 1.991976e-001 8.000000e-001 3.000000e-002
         vertex 1.991976e-001 8.000000e-001 0.000000e+000
      endloop
   endfacet
   facet normal 1.136979e-016 1.000000e+000 0.000000e+000
      outer loop
         vertex 7.999997e-002 6.000000e-001 3.000000e-002
         vertex 1.991976e-001 6.000000e-001 3.000000e-002
         vertex 7.999997e-002 6.000000e-001 0.000000e+000
      endloop
   endfacet
   facet normal 1.136979e-016 1.000000e+000 0.000000e+000
      outer loop
         vertex 7.999997e-002 6.000000e-001 0.000000e+000
         vertex 1.991976e-001 6.000000e-001 3.000000e-002
         vertex 1.991976e-001 6.000000e-001 0.000000e+000
      endloop
   endfacet
   facet normal -5.228807e-002 9.986320e-001 0.000000e+000
      outer loop
         vertex 7.999997e-002 6.000000e-001 3.000000e-002
         vertex 7.999997e-002 6.000000e-001 0.000000e+000
         vertex 6.748524e-002 5.990151e-001 0.000000e+000
      endloop
   endfacet
   facet normal -1.045761e-001 9.945168e-001 0.000000e+000
      outer loop
         vertex 7.999997e-002 6.000000e-001 3.000000e-002
         vertex 6.748524e-002 5.990151e-001 0.000000e+000
         vertex 6.748524e-002 5.990151e-001 3.000000e-002
      endloop
   endfacet
   facet normal -2.078648e-001 9.781576e-001 0.000000e+000
      outer loop
         vertex 6.748524e-002 5.990151e-001 3.000000e-002
         vertex 6.748524e-002 5.990151e-001 0.000000e+000
         vertex 5.527862e-002 5.960845e-001 0.000000e+000
      endloop
   endfacet
   facet normal -2.588653e-001 9.659134e-001 0.000000e+000
      outer loop
         vertex 6.748524e-002 5.990151e-001 3.000000e-002
         vertex 5.527862e-002 5.960845e-001 0.000000e+000
         vertex 5.527862e-002 5.960845e-001 3.000000e-002
      endloop
   endfacet
   facet normal -3.583232e-001 9.335976e-001 0.000000e+000
      outer loop
         vertex 5.527862e-002 5.960845e-001 3.000000e-002
         vertex 5.527862e-002 5.960845e-001 0.000000e+000
         vertex 4.368075e-002 5.912805e-001 0.000000e+000
      endloop
   endfacet
   facet normal -4.067805e-001 9.135259e-001 0.000000e+000
      outer loop
         vertex 5.527862e-002 5.960845e-001 3.000000e-002
         vertex 4.368075e-002 5.912805e-001 0.000000e+000
         vertex 4.368075e-002 5.912805e-001 3.000000e-002
      endloop
   endfacet
   facet normal -4.999584e-001 8.660494e-001 0.000000e+000
      outer loop
         vertex 4.368075e-002 5.912805e-001 3.000000e-002
         vertex 4.368075e-002 5.912805e-001 0.000000e+000
         vertex 3.297717e-002 5.847214e-001 0.000000e+000
      endloop
   endfacet
   facet normal -5.446792e-001 8.386444e-001 0.000000e+000
      outer loop
         vertex 4.368075e-002 5.912805e-001 3.000000e-002
         vertex 3.297717e-002 5.847214e-001 0.000000e+000
         vertex 3.297717e-002 5.847214e-001 3.000000e-002
      endloop
   endfacet
   facet normal -6.292831e-001 7.771761e-001 0.000000e+000
      outer loop
         vertex 3.297717e-002 5.847214e-001 3.000000e-002
         vertex 3.297717e-002 5.847214e-001 0.000000e+000
         vertex 2.343144e-002 5.765685e-001 0.000000e+000
      endloop
   endfacet
   facet normal -6.691663e-001 7.431127e-001 0.000000e+000
      outer loop
         vertex 3.297717e-002 5.847214e-001 3.000000e-002
         vertex 2.343144e-002 5.765685e-001 0.000000e+000
         vertex 2.343144e-002 5.765685e-001 3.000000e-002
      endloop
   endfacet
   facet normal -7.431127e-001 6.691663e-001 0.000000e+000
      outer loop
         vertex 2.343144e-002 5.765685e-001 3.000000e-002
         vertex 2.343144e-002 5.765685e-001 0.000000e+000
         vertex 1.527861e-002 5.670228e-001 0.000000e+000
      endloop
   endfacet
   facet normal -7.771761e-001 6.292831e-001 0.000000e+000
      outer loop
         vertex 2.343144e-002 5.765685e-001 3.000000e-002
         vertex 1.527861e-002 5.670228e-001 0.000000e+000
         vertex 1.527861e-002 5.670228e-001 3.000000e-002
      endloop
   endfacet
   facet normal -8.386444e-001 5.446792e-001 0.000000e+000
      outer loop
         vertex 1.527861e-002 5.670228e-001 3.000000e-002
         vertex 1.527861e-002 5.670228e-001 0.000000e+000
         vertex 8.719450e-003 5.563192e-001 0.000000e+000
      endloop
   endfacet
   facet normal -8.660494e-001 4.999584e-001 0.000000e+000
      outer loop
         vertex 1.527861e-002 5.670228e-001 3.000000e-002
         vertex 8.719450e-003 5.563192e-001 0.000000e+000
         vertex 8.719450e-003 5.563192e-001 3.000000e-002
      endloop
   endfacet
   facet normal -9.135259e-001 4.067805e-001 0.000000e+000
      outer loop
         vertex 8.719450e-003 5.563192e-001 3.000000e-002
         vertex 8.719450e-003 5.563192e-001 0.000000e+000
         vertex 3.915455e-003 5.447214e-001 0.000000e+000
      endloop
   endfacet
   facet normal -9.335976e-001 3.583232e-001 0.000000e+000
      outer loop
         vertex 8.719450e-003 5.563192e-001 3.000000e-002
         vertex 3.915455e-003 5.447214e-001 0.000000e+000
         vertex 3.915455e-003 5.447214e-001 3.000000e-002
      endloop
   endfacet
   facet normal -9.659134e-001 2.588653e-001 0.000000e+000
      outer loop
         vertex 3.915455e-003 5.447214e-001 3.000000e-002
         vertex 3.915455e-003 5.447214e-001 0.000000e+000
         vertex 9.849318e-004 5.325148e-001 0.000000e+000
      endloop
   endfacet
   facet normal -9.781575e-001 2.078648e-001 0.000000e+000
      outer loop
         vertex 3.915455e-003 5.447214e-001 3.000000e-002
         vertex 9.849318e-004 5.325148e-001 0.000000e+000
         vertex 9.849318e-004 5.325148e-001 3.000000e-002
      endloop
   endfacet
   facet normal -9.945168e-001 1.045761e-001 0.000000e+000
      outer loop
         vertex 9.849318e-004 5.325148e-001 3.000000e-002
         vertex 9.849318e-004 5.325148e-001 0.000000e+000
         vertex 0.000000e+000 5.200000e-001 0.000000e+000
      endloop
   endfacet
   facet normal -9.986320e-001 5.228807e-002 0.000000e+000
      outer loop
         vertex 9.849318e-004 5.325148e-001 3.000000e-002
         vertex 0.000000e+000 5.200000e-001 0.000000e+000
         vertex 0.000000e+000 5.200000e-001 3.000000e-002
      endloop
   endfacet
   facet normal -1.000000e+000 0.000000e+000 0.000000e+000
      outer loop
         vertex 0.000000e+000 4.800000e-001 3.000000e-002
         vertex 0.000000e+000 5.200000e-001 3.000000e-002
         vertex 0.000000e+000 4.800000e-001 0.000000e+000
      endloop
   endfacet
   facet normal -1.000000e+000 0.000000e+000 0.000000e+000
      outer loop
         vertex 0.000000e+000 4.800000e-001 0.000000e+000
         vertex 0.000000e+000 5.200000e-001 3.000000e-002
         vertex 0.000000e+000 5.200000e-001 0.000000e+000
      endloop
   endfacet
   facet normal -9.986320e-001 -5.228807e-002 0.000000e+000
      outer loop
         vertex 0.000000e+000 4.800000e-001 3.000000e-002
         vertex 0.000000e+000 4.800000e-001 0.000000e+000
         vertex 9.849318e-004 4.674853e-001 0.000000e+000
      endloop
   endfacet
   facet normal -9.945168e-001 -1.045761e-001 0.000000e+000
      outer loop
         vertex 0.000000e+000 4.800000e-001 3.000000e-002
         vertex 9.849318e-004 4.674853e-001 0.000000e+000
         vertex 9.849318e-004 4.674853e-001 3.000000e-002
      endloop
   endfacet
   facet normal -9.781576e-001 -2.078648e-001 0.000000e+000
      outer loop
         vertex 9.849318e-004 4.674853e-001 3.000000e-002
         vertex 9.849318e-004 4.674853e-001 0.000000e+000
         vertex 3.915455e-003 4.552787e-001 0.000000e+000
      endloop
   endfacet
   facet normal -9.659134e-001 -2.588653e-001 0.000000e+000
      outer loop
         vertex 9.849318e-004 4.674853e-001 3.000000e-002
         vertex 3.915455e-003 4.552787e-001 0.000000e+000
         vertex 3.915455e-003 4.552787e-001 3.000000e-002
      endloop
   endfacet
   facet normal -9.335976e-001 -3.583232e-001 0.000000e+000
      outer loop
         vertex 3.915455e-003 4.552787e-001 3.000000e-002
         vertex 3.915455e-003 4.552787e-001 0.000000e+000
         vertex 8.719450e-003 4.436808e-001 0.000000e+000
      endloop
   endfacet
   facet normal -9.135259e-001 -4.067805e-001 0.000000e+000
      outer loop
         vertex 3.915455e-003 4.552787e-001 3.000000e-002
         vertex 8.719450e-003 4.436808e-001 0.000000e+000
         vertex 8.719450e-003 4.436808e-001 3.000000e-002
      endloop
   endfacet
   facet normal -8.660494e-001 -4.999584e-001 0.000000e+000
      outer loop
         vertex 8.719450e-003 4.436808e-001 3.000000e-002
         vertex 8.719450e-003 4.436808e-001 0.000000e+000
         vertex 1.527861e-002 4.329772e-001 0.000000e+000
      endloop
   endfacet
   facet normal -8.386444e-001 -5.446792e-001 0.000000e+000
      outer loop
         vertex 8.719450e-003 4.436808e-001 3.000000e-002
         vertex 1.527861e-002 4.329772e-001 0.000000e+000
         vertex 1.527861e-002 4.329772e-001 3.000000e-002
      endloop
   endfacet
   facet normal -7.771761e-001 -6.292831e-001 0.000000e+000
      outer loop
         vertex 1.527861e-002 4.329772e-001 3.000000e-002
         vertex 1.527861e-002 4.329772e-001 0.000000e+000
         vertex 2.343144e-002 4.234315e-001 0.000000e+000
      endloop
   endfacet
   facet normal -7.431127e-001 -6.691663e-001 0.000000e+000
      outer loop
         vertex 1.527861e-002 4.329772e-001 3.000000e-002
         vertex 2.343144e-002 4.234315e-001 0.000000e+000
         vertex 2.343144e-002 4.234315e-001 3.000000e-002
      endloop
   endfacet
   facet normal -6.691663e-001 -7.431127e-001 0.000000e+000
      outer loop
         vertex 2.343144e-002 4.234315e-001 3.000000e-002
         vertex 2.343144e-002 4.234315e-001 0.000000e+000
         vertex 3.297717e-002 4.152786e-001 0.000000e+000
      endloop
   endfacet
   facet normal -6.292831e-001 -7.771761e-001 0.000000e+000
      outer loop
         vertex 2.343144e-002 4.234315e-001 3.000000e-002
         vertex 3.297717e-002 4.152786e-001 0.000000e+000
         vertex 3.297717e-002 4.152786e-001 3.000000e-002
      endloop
   endfacet
   facet normal -5.446792e-001 -8.386444e-001 0.000000e+000
      outer loop
         vertex 3.297717e-002 4.152786e-001 3.000000e-002
         vertex 3.297717e-002 4.152786e-001 0.000000e+000
         vertex 4.368075e-002 4.087195e-001 0.000000e+000
      endloop
   endfacet
   facet normal -4.999584e-001 -8.660494e-001 0.000000e+000
      outer loop
         vertex 3.297717e-002 4.152786e-001 3.000000e-002
         vertex 4.368075e-002 4.087195e-001 0.000000e+000
         vertex 4.368075e-002 4.087195e-001 3.000000e-002
      endloop
   endfacet
   facet normal -4.067805e-001 -9.135259e-001 0.000000e+000
      outer loop
         vertex 4.368075e-002 4.087195e-001 3.000000e-002
         vertex 4.368075e-002 4.087195e-001 0.000000e+000
         vertex 5.527862e-002 4.039155e-001 0.000000e+000
      endloop
   endfacet
   facet normal -3.583232e-001 -9.335976e-001 0.000000e+000
      outer loop
         vertex 4.368075e-002 4.087195e-001 3.000000e-002
         vertex 5.527862e-002 4.039155e-001 0.000000e+000
         vertex 5.527862e-002 4.039155e-001 3.000000e-002
      endloop
   endfacet
   facet normal -2.588653e-001 -9.659134e-001 0.000000e+000
      outer loop
         vertex 5.527862e-002 4.039155e-001 3.000000e-002
         vertex 5.527862e-002 4.039155e-001 0.000000e+000
         vertex 6.748524e-002 4.009849e-001 0.000000e+000
      endloop
   endfacet
   facet normal -2.078648e-001 -9.781575e-001 0.000000e+000
      outer loop
         vertex 5.527862e-002 4.039155e-001 3.000000e-002
         vertex 6.748524e-002 4.009849e-001 0.000000e+000
         vertex 6.748524e-002 4.009849e-001 3.000000e-002
      endloop
   endfacet
   facet normal -1.045761e-001 -9.945168e-001 0.000000e+000
      outer loop
         vertex 6.748524e-002 4.009849e-001 3.000000e-002
         vertex 6.748524e-002 4.009849e-001 0.000000e+000
         vertex 7.999997e-002 4.000000e-001 0.000000e+000
      endloop
   endfacet
   facet normal -5.228807e-002 -9.986320e-001 0.000000e+000
      outer loop
         vertex 6.748524e-002 4.009849e-001 3.000000e-002
         vertex 7.999997e-002 4.000000e-001 0.000000e+000
         vertex 7.999997e-002 4.000000e-001 3.000000e-002
      endloop
   endfacet
   facet normal 1.136979e-016 -1.000000e+000 0.000000e+000
      outer loop
         vertex 1.991976e-001 4.000000e-001 3.000000e-002
         vertex 7.999997e-002 4.000000e-001 3.000000e-002
         vertex 1.991976e-001 4.000000e-001 0.000000e+000
      endloop
   endfacet
   facet normal 1.136979e-016 -1.000000e+000 0.000000e+000
      outer loop
         vertex 1.991976e-001 4.000000e-001 0.000000e+000
         vertex 7.999997e-002 4.000000e-001 3.000000e-002
         vertex 7.999997e-002 4.000000e-001 0.000000e+000
      endloop
   endfacet
   facet normal -1.000000e+000 -2.710505e-016 0.000000e+000
      outer loop
         vertex 1.991976e-001 2.000000e-001 3.000000e-002
         vertex 1.991976e-001 4.000000e-001 3.000000e-002
         vertex 1.991976e-001 2.000000e-001 0.000000e+000
      endloop
   endfacet
   facet normal -1.000000e+000 -2.710505e-016 0.000000e+000
      outer loop
         vertex 1.991976e-001 2.000000e-001 0.000000e+000
         vertex 1.991976e-001 4.000000e-001 3.000000e-002
         vertex 1.991976e-001 4.000000e-001 0.000000e+000
      endloop
   endfacet
   facet normal 0.000000e+000 -1.000000e+000 0.000000e+000
      outer loop
         vertex 3.991976e-001 2.000000e-001 3.000000e-002
         vertex 1.991976e-001 2.000000e-001 3.000000e-002
         vertex 3.991976e-001 2.000000e-001 0.000000e+000
      endloop
   endfacet
   facet normal 0.000000e+000 -1.000000e+000 0.000000e+000
      outer loop
         vertex 3.991976e-001 2.000000e-001 0.000000e+000
         vertex 1.991976e-001 2.000000e-001 3.000000e-002
         vertex 1.991976e-001 2.000000e-001 0.000000e+000
      endloop
   endfacet
   facet normal -1.000000e+000 1.129377e-016 0.000000e+000
      outer loop
         vertex 3.991976e-001 8.000003e-002 3.000000e-002
         vertex 3.991976e-001 2.000000e-001 3.000000e-002
         vertex 3.991976e-001 8.000003e-002 0.000000e+000
      endloop
   endfacet
   facet normal -1.000000e+000 1.129377e-016 0.000000e+000
      outer loop
         vertex 3.991976e-001 8.000003e-002 0.000000e+000
         vertex 3.991976e-001 2.000000e-001 3.000000e-002
         vertex 3.991976e-001 2.000000e-001 0.000000e+000
      endloop
   endfacet
   facet normal -9.986320e-001 -5.228807e-002 0.000000e+000
      outer loop
         vertex 3.991976e-001 8.000003e-002 3.000000e-002
         vertex 3.991976e-001 8.000003e-002 0.000000e+000
         vertex 4.001825e-001 6.748527e-002 0.000000e+000
      endloop
   endfacet
   facet normal -9.945168e-001 -1.045761e-001 0.000000e+000
      outer loop
         vertex 3.991976e-001 8.000003e-002 3.000000e-002
         vertex 4.001825e-001 6.748527e-002 0.000000e+000
         vertex 4.001825e-001 6.748527e-002 3.000000e-002
      endloop
   endfacet
   facet normal -9.781576e-001 -2.078648e-001 0.000000e+000
      outer loop
         vertex 4.001825e-001 6.748527e-002 3.000000e-002
         vertex 4.001825e-001 6.748527e-002 0.000000e+000
         vertex 4.031131e-001 5.527865e-002 0.000000e+000
      endloop
   endfacet
   facet normal -9.659134e-001 -2.588653e-001 0.000000e+000
      outer loop
         vertex 4.001825e-001 6.748527e-002 3.000000e-002
         vertex 4.031131e-001 5.527865e-002 0.000000e+000
         vertex 4.031131e-001 5.527865e-002 3.000000e-002
      endloop
   endfacet
   facet normal -9.335976e-001 -3.583232e-001 0.000000e+000
      outer loop
         vertex 4.031131e-001 5.527865e-002 3.000000e-002
         vertex 4.031131e-001 5.527865e-002 0.000000e+000
         vertex 4.079171e-001 4.368078e-002 0.000000e+000
      endloop
   endfacet
   facet normal -9.135259e-001 -4.067805e-001 0.000000e+000
      outer loop
         vertex 4.031131e-001 5.527865e-002 3.000000e-002
         vertex 4.079171e-001 4.368078e-002 0.000000e+000
         vertex 4.079171e-001 4.368078e-002 3.000000e-002
      endloop
   endfacet
   facet normal -8.660494e-001 -4.999584e-001 0.000000e+000
      outer loop
         vertex 4.079171e-001 4.368078e-002 3.000000e-002
         vertex 4.079171e-001 4.368078e-002 0.000000e+000
         vertex 4.144763e-001 3.297720e-002 0.000000e+000
      endloop
   endfacet
   facet normal -8.386444e-001 -5.446792e-001 0.000000e+000
      outer loop
         vertex 4.079171e-001 4.368078e-002 3.000000e-002
         vertex 4.144763e-001 3.297720e-002 0.000000e+000
         vertex 4.144763e-001 3.297720e-002 3.000000e-002
      endloop
   endfacet
   facet normal -7.771761e-001 -6.292831e-001 0.000000e+000
      outer loop
         vertex 4.144763e-001 3.297720e-002 3.000000e-002
         vertex 4.144763e-001 3.297720e-002 0.000000e+000
         vertex 4.226291e-001 2.343149e-002 0.000000e+000
      endloop
   endfacet
   facet normal -7.431127e-001 -6.691663e-001 0.000000e+000
      outer loop
         vertex 4.144763e-001 3.297720e-002 3.000000e-002
         vertex 4.226291e-001 2.343149e-002 0.000000e+000
         vertex 4.226291e-001 2.343149e-002 3.000000e-002
      endloop
   endfacet
   facet normal -6.691663e-001 -7.431127e-001 0.000000e+000
      outer loop
         vertex 4.226291e-001 2.343149e-002 3.000000e-002
         vertex 4.226291e-001 2.343149e-002 0.000000e+000
         vertex 4.321748e-001 1.527867e-002 0.000000e+000
      endloop
   endfacet
   facet normal -6.292831e-001 -7.771761e-001 0.000000e+000
      outer loop
         vertex 4.226291e-001 2.343149e-002 3.000000e-002
         vertex 4.321748e-001 1.527867e-002 0.000000e+000
         vertex 4.321748e-001 1.527867e-002 3.000000e-002
      endloop
   endfacet
   facet normal -5.446792e-001 -8.386444e-001 0.000000e+000
      outer loop
         vertex 4.321748e-001 1.527867e-002 3.000000e-002
         vertex 4.321748e-001 1.527867e-002 0.000000e+000
         vertex 4.428784e-001 8.719508e-003 0.000000e+000
      endloop
   endfacet
   facet normal -4.999584e-001 -8.660494e-001 0.000000e+000
      outer loop
         vertex 4.321748e-001 1.527867e-002 3.000000e-002
         vertex 4.428784e-001 8.719508e-003 0.000000e+000
         vertex 4.428784e-001 8.719508e-003 3.000000e-002
      endloop
   endfacet
   facet normal -4.067805e-001 -9.135259e-001 0.000000e+000
      outer loop
         vertex 4.428784e-001 8.719508e-003 3.000000e-002
         vertex 4.428784e-001 8.719508e-003 0.000000e+000
         vertex 4.544763e-001 3.915513e-003 0.000000e+000
      endloop
   endfacet
   facet normal -3.583232e-001 -9.335976e-001 0.000000e+000
      outer loop
         vertex 4.428784e-001 8.719508e-003 3.000000e-002
         vertex 4.544763e-001 3.915513e-003 0.000000e+000
         vertex 4.544763e-001 3.915513e-003 3.000000e-002
      endloop
   endfacet
   facet normal -2.588653e-001 -9.659134e-001 0.000000e+000
      outer loop
         vertex 4.544763e-001 3.915513e-003 3.000000e-002
         vertex 4.544763e-001 3.915513e-003 0.000000e+000
         vertex 4.666829e-001 9.849318e-004 0.000000e+000
      endloop
   endfacet
   facet normal -2.078648e-001 -9.781575e-001 0.000000e+000
      outer loop
         vertex 4.544763e-001 3.915513e-003 3.000000e-002
         vertex 4.666829e-001 9.849318e-004 0.000000e+000
         vertex 4.666829e-001 9.849318e-004 3.000000e-002
      endloop
   endfacet
   facet normal -1.045761e-001 -9.945168e-001 0.000000e+000
      outer loop
         vertex 4.666829e-001 9.849318e-004 3.000000e-002
         vertex 4.666829e-001 9.849318e-004 0.000000e+000
         vertex 4.791976e-001 0.000000e+000 0.000000e+000
      endloop
   endfacet
   facet normal -5.228807e-002 -9.986320e-001 0.000000e+000
      outer loop
         vertex 4.666829e-001 9.849318e-004 3.000000e-002
         vertex 4.791976e-001 0.000000e+000 0.000000e+000
         vertex 4.791976e-001 0.000000e+000 3.000000e-002
      endloop
   endfacet
   facet normal 0.000000e+000 -1.000000e+000 0.000000e+000
      outer loop
         vertex 5.191976e-001 0.000000e+000 3.000000e-002
         vertex 4.791976e-001 0.000000e+000 3.000000e-002
         vertex 5.191976e-001 0.000000e+000 0.000000e+000
      endloop
   endfacet
   facet normal 0.000000e+000 -1.000000e+000 0.000000e+000
      outer loop
         vertex 5.191976e-001 0.000000e+000 0.000000e+000
         vertex 4.791976e-001 0.000000e+000 3.000000e-002
         vertex 4.791976e-001 0.000000e+000 0.000000e+000
      endloop
   endfacet
   facet normal 5.228807e-002 -9.986320e-001 0.000000e+000
      outer loop
         vertex 5.191976e-001 0.000000e+000 3.000000e-002
         vertex 5.191976e-001 0.000000e+000 0.000000e+000
         vertex 5.317124e-001 9.849318e-004 0.000000e+000
      endloop
   endfacet
   facet normal 1.045761e-001 -9.945168e-001 0.000000e+000
      outer loop
         vertex 5.191976e-001 0.000000e+000 3.000000e-002
         vertex 5.317124e-001 9.849318e-004 0.000000e+000
         vertex 5.317124e-001 9.849318e-004 3.000000e-002
      endloop
   endfacet
   facet normal 2.078648e-001 -9.781576e-001 0.000000e+000
      outer loop
         vertex 5.317124e-001 9.849318e-004 3.000000e-002
         vertex 5.317124e-001 9.849318e-004 0.000000e+000
         vertex 5.439190e-001 3.915513e-003 0.000000e+000
      endloop
   endfacet
   facet normal 2.588653e-001 -9.659134e-001 0.000000e+000
      outer loop
         vertex 5.317124e-001 9.849318e-004 3.000000e-002
         vertex 5.439190e-001 3.915513e-003 0.000000e+000
         vertex 5.439190e-001 3.915513e-003 3.000000e-002
      endloop
   endfacet
   facet normal 3.583232e-001 -9.335976e-001 0.000000e+000
      outer loop
         vertex 5.439190e-001 3.915513e-003 3.000000e-002
         vertex 5.439190e-001 3.915513e-003 0.000000e+000
         vertex 5.555168e-001 8.719508e-003 0.000000e+000
      endloop
   endfacet
   facet normal 4.067805e-001 -9.135259e-001 0.000000e+000
      outer loop
         vertex 5.439190e-001 3.915513e-003 3.000000e-002
         vertex 5.555168e-001 8.719508e-003 0.000000e+000
         vertex 5.555168e-001 8.719508e-003 3.000000e-002
      endloop
   endfacet
   facet normal 4.999584e-001 -8.660494e-001 0.000000e+000
      outer loop
         vertex 5.555168e-001 8.719508e-003 3.000000e-002
         vertex 5.555168e-001 8.719508e-003 0.000000e+000
         vertex 5.662205e-001 1.527867e-002 0.000000e+000
      endloop
   endfacet
   facet normal 5.446792e-001 -8.386444e-001 0.000000e+000
      outer loop
         vertex 5.555168e-001 8.719508e-003 3.000000e-002
         vertex 5.662205e-001 1.527867e-002 0.000000e+000
         vertex 5.662205e-001 1.527867e-002 3.000000e-002
      endloop
   endfacet
   facet normal 6.292831e-001 -7.771761e-001 0.000000e+000
      outer loop
         vertex 5.662205e-001 1.527867e-002 3.000000e-002
         vertex 5.662205e-001 1.527867e-002 0.000000e+000
         vertex 5.757662e-001 2.343149e-002 0.000000e+000
      endloop
   endfacet
   facet normal 6.691663e-001 -7.431127e-001 0.000000e+000
      outer loop
         vertex 5.662205e-001 1.527867e-002 3.000000e-002
         vertex 5.757662e-001 2.343149e-002 0.000000e+000
         vertex 5.757662e-001 2.343149e-002 3.000000e-002
      endloop
   endfacet
   facet normal 7.431127e-001 -6.691663e-001 0.000000e+000
      outer loop
         vertex 5.757662e-001 2.343149e-002 3.000000e-002
         vertex 5.757662e-001 2.343149e-002 0.000000e+000
         vertex 5.839190e-001 3.297720e-002 0.000000e+000
      endloop
   endfacet
   facet normal 7.771761e-001 -6.292831e-001 0.000000e+000
      outer loop
         vertex 5.757662e-001 2.343149e-002 3.000000e-002
         vertex 5.839190e-001 3.297720e-002 0.000000e+000
         vertex 5.839190e-001 3.297720e-002 3.000000e-002
      endloop
   endfacet
   facet normal 8.386444e-001 -5.446792e-001 0.000000e+000
      outer loop
         vertex 5.839190e-001 3.297720e-002 3.000000e-002
         vertex 5.839190e-001 3.297720e-002 0.000000e+000
         vertex 5.904781e-001 4.368078e-002 0.000000e+000
      endloop
   endfacet
   facet normal 8.660494e-001 -4.999584e-001 0.000000e+000
      outer loop
         vertex 5.839190e-001 3.297720e-002 3.000000e-002
         vertex 5.904781e-001 4.368078e-002 0.000000e+000
         vertex 5.904781e-001 4.368078e-002 3.000000e-002
      endloop
   endfacet
   facet normal 9.135259e-001 -4.067805e-001 0.000000e+000
      outer loop
         vertex 5.904781e-001 4.368078e-002 3.000000e-002
         vertex 5.904781e-001 4.368078e-002 0.000000e+000
         vertex 5.952822e-001 5.527865e-002 0.000000e+000
      endloop
   endfacet
   facet normal 9.335976e-001 -3.583232e-001 0.000000e+000
      outer loop
         vertex 5.904781e-001 4.368078e-002 3.000000e-002
         vertex 5.952822e-001 5.527865e-002 0.000000e+000
         vertex 5.952822e-001 5.527865e-002 3.000000e-002
      endloop
   endfacet
   facet normal 9.659134e-001 -2.588653e-001 0.000000e+000
      outer loop
         vertex 5.952822e-001 5.527865e-002 3.000000e-002
         vertex 5.952822e-001 5.527865e-002 0.000000e+000
         vertex 5.982127e-001 6.748527e-002 0.000000e+000
      endloop
   endfacet
   facet normal 9.781575e-001 -2.078648e-001 0.000000e+000
      outer loop
         vertex 5.952822e-001 5.527865e-002 3.000000e-002
         vertex 5.982127e-001 6.748527e-002 0.000000e+000
         vertex 5.982127e-001 6.748527e-002 3.000000e-002
      endloop
   endfacet
   facet normal 9.945168e-001 -1.045761e-001 0.000000e+000
      outer loop
         vertex 5.982127e-001 6.748527e-002 3.000000e-002
         vertex 5.982127e-001 6.748527e-002 0.000000e+000
         vertex 5.991976e-001 8.000003e-002 0.000000e+000
      endloop
   endfacet
   facet normal 9.986320e-001 -5.228807e-002 0.000000e+000
      outer loop
         vertex 5.982127e-001 6.748527e-002 3.000000e-002
         vertex 5.991976e-001 8.000003e-002 0.000000e+000
         vertex 5.991976e-001 8.000003e-002 3.000000e-002
      endloop
   endfacet
   facet normal 1.000000e+000 1.129377e-016 0.000000e+000
      outer loop
         vertex 5.991976e-001 2.000000e-001 3.000000e-002
         vertex 5.991976e-001 8.000003e-002 3.000000e-002
         vertex 5.991976e-001 2.000000e-001 0.000000e+000
      endloop
   endfacet
   facet normal 1.000000e+000 1.129377e-016 0.000000e+000
      outer loop
         vertex 5.991976e-001 2.000000e-001 0.000000e+000
         vertex 5.991976e-001 8.000003e-002 3.000000e-002
         vertex 5.991976e-001 8.000003e-002 0.000000e+000
      endloop
   endfacet
   facet normal 0.000000e+000 0.000000e+000 1.000000e+000
      outer loop
         vertex 5.991976e-001 2.000000e-001 3.000000e-002
         vertex 7.991977e-001 2.000000e-001 3.000000e-002
         vertex 7.991977e-001 8.000000e-001 3.000000e-002
      endloop
   endfacet
   facet normal 0.000000e+000 0.000000e+000 1.000000e+000
      outer loop
         vertex 0.000000e+000 5.200000e-001 3.000000e-002
         vertex 1.991976e-001 6.000000e-001 3.000000e-002
         vertex 7.999997e-002 6.000000e-001 3.000000e-002
      endloop
   endfacet
   facet normal 0.000000e+000 0.000000e+000 1.000000e+000
      outer loop
         vertex 1.991976e-001 2.000000e-001 3.000000e-002
         vertex 3.991976e-001 2.000000e-001 3.000000e-002
         vertex 1.991976e-001 4.000000e-001 3.000000e-002
      endloop
   endfacet
   facet normal 0.000000e+000 0.000000e+000 1.000000e+000
      outer loop
         vertex 1.991976e-001 4.000000e-001 3.000000e-002
         vertex 3.991976e-001 2.000000e-001 3.000000e-002
         vertex 5.991976e-001 2.000000e-001 3.000000e-002
      endloop
   endfacet
   facet normal 0.000000e+000 0.000000e+000 1.000000e+000
      outer loop
         vertex 1.991976e-001 4.000000e-001 3.000000e-002
         vertex 5.991976e-001 2.000000e-001 3.000000e-002
         vertex 1.991976e-001 6.000000e-001 3.000000e-002
      endloop
   endfacet
   facet normal 0.000000e+000 0.000000e+000 1.000000e+000
      outer loop
         vertex 1.991976e-001 6.000000e-001 3.000000e-002
         vertex 5.991976e-001 2.000000e-001 3.000000e-002
         vertex 7.991977e-001 8.000000e-001 3.000000e-002
      endloop
   endfacet
   facet normal 0.000000e+000 0.000000e+000 1.000000e+000
      outer loop
         vertex 1.991976e-001 6.000000e-001 3.000000e-002
         vertex 7.991977e-001 8.000000e-001 3.000000e-002
         vertex 1.991976e-001 8.000000e-001 3.000000e-002
      endloop
   endfacet
   facet normal 0.000000e+000 0.000000e+000 1.000000e+000
      outer loop
         vertex 4.666829e-001 9.849318e-004 3.000000e-002
         vertex 4.791976e-001 0.000000e+000 3.000000e-002
         vertex 3.991976e-001 8.000003e-002 3.000000e-002
      endloop
   endfacet
   facet normal 0.000000e+000 0.000000e+000 1.000000e+000
      outer loop
         vertex 3.297717e-002 4.152786e-001 3.000000e-002
         vertex 4.368075e-002 4.087195e-001 3.000000e-002
         vertex 5.527862e-002 4.039155e-001 3.000000e-002
      endloop
   endfacet
   facet normal 0.000000e+000 0.000000e+000 1.000000e+000
      outer loop
         vertex 5.982127e-001 6.748527e-002 3.000000e-002
         vertex 5.991976e-001 8.000003e-002 3.000000e-002
         vertex 5.191976e-001 0.000000e+000 3.000000e-002
      endloop
   endfacet
   facet normal 0.000000e+000 0.000000e+000 1.000000e+000
      outer loop
         vertex 5.191976e-001 0.000000e+000 3.000000e-002
         vertex 5.991976e-001 8.000003e-002 3.000000e-002
         vertex 5.991976e-001 2.000000e-001 3.000000e-002
      endloop
   endfacet
   facet normal 0.000000e+000 0.000000e+000 1.000000e+000
      outer loop
         vertex 5.191976e-001 0.000000e+000 3.000000e-002
         vertex 5.991976e-001 2.000000e-001 3.000000e-002
         vertex 4.791976e-001 0.000000e+000 3.000000e-002
      endloop
   endfacet
   facet normal 0.000000e+000 0.000000e+000 1.000000e+000
      outer loop
         vertex 4.791976e-001 0.000000e+000 3.000000e-002
         vertex 5.991976e-001 2.000000e-001 3.000000e-002
         vertex 3.991976e-001 2.000000e-001 3.000000e-002
      endloop
   endfacet
   facet normal 0.000000e+000 0.000000e+000 1.000000e+000
      outer loop
         vertex 4.791976e-001 0.000000e+000 3.000000e-002
         vertex 3.991976e-001 2.000000e-001 3.000000e-002
         vertex 3.991976e-001 8.000003e-002 3.000000e-002
      endloop
   endfacet
   facet normal 0.000000e+000 0.000000e+000 1.000000e+000
      outer loop
         vertex 1.991976e-001 6.000000e-001 3.000000e-002
         vertex 0.000000e+000 5.200000e-001 3.000000e-002
         vertex 1.991976e-001 4.000000e-001 3.000000e-002
      endloop
   endfacet
   facet normal 0.000000e+000 0.000000e+000 1.000000e+000
      outer loop
         vertex 1.991976e-001 4.000000e-001 3.000000e-002
         vertex 0.000000e+000 5.200000e-001 3.000000e-002
         vertex 0.000000e+000 4.800000e-001 3.000000e-002
      endloop
   endfacet
   facet normal 0.000000e+000 0.000000e+000 1.000000e+000
      outer loop
         vertex 1.991976e-001 4.000000e-001 3.000000e-002
         vertex 0.000000e+000 4.800000e-001 3.000000e-002
         vertex 7.999997e-002 4.000000e-001 3.000000e-002
      endloop
   endfacet
   facet normal 0.000000e+000 0.000000e+000 1.000000e+000
      outer loop
         vertex 7.999997e-002 4.000000e-001 3.000000e-002
         vertex 0.000000e+000 4.800000e-001 3.000000e-002
         vertex 9.849318e-004 4.674853e-001 3.000000e-002
      endloop
   endfacet
   facet normal 0.000000e+000 0.000000e+000 1.000000e+000
      outer loop
         vertex 7.999997e-002 4.000000e-001 3.000000e-002
         vertex 9.849318e-004 4.674853e-001 3.000000e-002
         vertex 3.915455e-003 4.552787e-001 3.000000e-002
      endloop
   endfacet
   facet normal 0.000000e+000 0.000000e+000 1.000000e+000
      outer loop
         vertex 3.915455e-003 4.552787e-001 3.000000e-002
         vertex 8.719450e-003 4.436808e-001 3.000000e-002
         vertex 7.999997e-002 4.000000e-001 3.000000e-002
      endloop
   endfacet
   facet normal 0.000000e+000 0.000000e+000 1.000000e+000
      outer loop
         vertex 7.999997e-002 4.000000e-001 3.000000e-002
         vertex 8.719450e-003 4.436808e-001 3.000000e-002
         vertex 1.527861e-002 4.329772e-001 3.000000e-002
      endloop
   endfacet
   facet normal 0.000000e+000 0.000000e+000 1.000000e+000
      outer loop
         vertex 7.999997e-002 4.000000e-001 3.000000e-002
         vertex 1.527861e-002 4.329772e-001 3.000000e-002
         vertex 6.748524e-002 4.009849e-001 3.000000e-002
      endloop
   endfacet
   facet normal 0.000000e+000 0.000000e+000 1.000000e+000
      outer loop
         vertex 6.748524e-002 5.990151e-001 3.000000e-002
         vertex 3.915455e-003 5.447214e-001 3.000000e-002
         vertex 7.999997e-002 6.000000e-001 3.000000e-002
      endloop
   endfacet
   facet normal 0.000000e+000 0.000000e+000 1.000000e+000
      outer loop
         vertex 7.999997e-002 6.000000e-001 3.000000e-002
         vertex 3.915455e-003 5.447214e-001 3.000000e-002
         vertex 9.849318e-004 5.325148e-001 3.000000e-002
      endloop
   endfacet
   facet normal 0.000000e+000 0.000000e+000 1.000000e+000
      outer loop
         vertex 7.999997e-002 6.000000e-001 3.000000e-002
         vertex 9.849318e-004 5.325148e-001 3.000000e-002
         vertex 0.000000e+000 5.200000e-001 3.000000e-002
      endloop
   endfacet
   facet normal 0.000000e+000 0.000000e+000 1.000000e+000
      outer loop
         vertex 6.748524e-002 4.009849e-001 3.000000e-002
         vertex 1.527861e-002 4.329772e-001 3.000000e-002
         vertex 5.527862e-002 4.039155e-001 3.000000e-002
      endloop
   endfacet
   facet normal 0.000000e+000 0.000000e+000 1.000000e+000
      outer loop
         vertex 5.527862e-002 4.039155e-001 3.000000e-002
         vertex 1.527861e-002 4.329772e-001 3.000000e-002
         vertex 2.343144e-002 4.234315e-001 3.000000e-002
      endloop
   endfacet
   facet normal 0.000000e+000 0.000000e+000 1.000000e+000
      outer loop
         vertex 5.527862e-002 4.039155e-001 3.000000e-002
         vertex 2.343144e-002 4.234315e-001 3.000000e-002
         vertex 3.297717e-002 4.152786e-001 3.000000e-002
      endloop
   endfacet
   facet normal 0.000000e+000 0.000000e+000 1.000000e+000
      outer loop
         vertex 4.031131e-001 5.527865e-002 3.000000e-002
         vertex 4.079171e-001 4.368078e-002 3.000000e-002
         vertex 4.544763e-001 3.915513e-003 3.000000e-002
      endloop
   endfacet
   facet normal 0.000000e+000 0.000000e+000 1.000000e+000
      outer loop
         vertex 6.748524e-002 5.990151e-001 3.000000e-002
         vertex 5.527862e-002 5.960845e-001 3.000000e-002
         vertex 3.915455e-003 5.447214e-001 3.000000e-002
      endloop
   endfacet
   facet normal 0.000000e+000 0.000000e+000 1.000000e+000
      outer loop
         vertex 3.915455e-003 5.447214e-001 3.000000e-002
         vertex 5.527862e-002 5.960845e-001 3.000000e-002
         vertex 4.368075e-002 5.912805e-001 3.000000e-002
      endloop
   endfacet
   facet normal 0.000000e+000 0.000000e+000 1.000000e+000
      outer loop
         vertex 3.915455e-003 5.447214e-001 3.000000e-002
         vertex 4.368075e-002 5.912805e-001 3.000000e-002
         vertex 3.297717e-002 5.847214e-001 3.000000e-002
      endloop
   endfacet
   facet normal 0.000000e+000 0.000000e+000 1.000000e+000
      outer loop
         vertex 3.297717e-002 5.847214e-001 3.000000e-002
         vertex 2.343144e-002 5.765685e-001 3.000000e-002
         vertex 3.915455e-003 5.447214e-001 3.000000e-002
      endloop
   endfacet
   facet normal 0.000000e+000 0.000000e+000 1.000000e+000
      outer loop
         vertex 3.915455e-003 5.447214e-001 3.000000e-002
         vertex 2.343144e-002 5.765685e-001 3.000000e-002
         vertex 1.527861e-002 5.670228e-001 3.000000e-002
      endloop
   endfacet
   facet normal 0.000000e+000 0.000000e+000 1.000000e+000
      outer loop
         vertex 3.915455e-003 5.447214e-001 3.000000e-002
         vertex 1.527861e-002 5.670228e-001 3.000000e-002
         vertex 8.719450e-003 5.563192e-001 3.000000e-002
      endloop
   endfacet
   facet normal 0.000000e+000 0.000000e+000 1.000000e+000
      outer loop
         vertex 4.666829e-001 9.849318e-004 3.000000e-002
         vertex 3.991976e-001 8.000003e-002 3.000000e-002
         vertex 4.544763e-001 3.915513e-003 3.000000e-002
      endloop
   endfacet
   facet normal 0.000000e+000 0.000000e+000 1.000000e+000
      outer loop
         vertex 4.544763e-001 3.915513e-003 3.000000e-002
         vertex 3.991976e-001 8.000003e-002 3.000000e-002
         vertex 4.001825e-001 6.748527e-002 3.000000e-002
      endloop
   endfacet
   facet normal 0.000000e+000 0.000000e+000 1.000000e+000
      outer loop
         vertex 4.544763e-001 3.915513e-003 3.000000e-002
         vertex 4.001825e-001 6.748527e-002 3.000000e-002
         vertex 4.031131e-001 5.527865e-002 3.000000e-002
      endloop
   endfacet
   facet normal 0.000000e+000 0.000000e+000 1.000000e+000
      outer loop
         vertex 4.079171e-001 4.368078e-002 3.000000e-002
         vertex 4.144763e-001 3.297720e-002 3.000000e-002
         vertex 4.544763e-001 3.915513e-003 3.000000e-002
      endloop
   endfacet
   facet normal 0.000000e+000 0.000000e+000 1.000000e+000
      outer loop
         vertex 4.544763e-001 3.915513e-003 3.000000e-002
         vertex 4.144763e-001 3.297720e-002 3.000000e-002
         vertex 4.226291e-001 2.343149e-002 3.000000e-002
      endloop
   endfacet
   facet normal 0.000000e+000 0.000000e+000 1.000000e+000
      outer loop
         vertex 4.544763e-001 3.915513e-003 3.000000e-002
         vertex 4.226291e-001 2.343149e-002 3.000000e-002
         vertex 4.428784e-001 8.719508e-003 3.000000e-002
      endloop
   endfacet
   facet normal 0.000000e+000 0.000000e+000 1.000000e+000
      outer loop
         vertex 4.428784e-001 8.719508e-003 3.000000e-002
         vertex 4.226291e-001 2.343149e-002 3.000000e-002
         vertex 4.321748e-001 1.527867e-002 3.000000e-002
      endloop
   endfacet
   facet normal 0.000000e+000 0.000000e+000 1.000000e+000
      outer loop
         vertex 5.317124e-001 9.849318e-004 3.000000e-002
         vertex 5.904781e-001 4.368078e-002 3.000000e-002
         vertex 5.191976e-001 0.000000e+000 3.000000e-002
      endloop
   endfacet
   facet normal 0.000000e+000 0.000000e+000 1.000000e+000
      outer loop
         vertex 5.191976e-001 0.000000e+000 3.000000e-002
         vertex 5.904781e-001 4.368078e-002 3.000000e-002
         vertex 5.952822e-001 5.527865e-002 3.000000e-002
      endloop
   endfacet
   facet normal 0.000000e+000 0.000000e+000 1.000000e+000
      outer loop
         vertex 5.191976e-001 0.000000e+000 3.000000e-002
         vertex 5.952822e-001 5.527865e-002 3.000000e-002
         vertex 5.982127e-001 6.748527e-002 3.000000e-002
      endloop
   endfacet
   facet normal 0.000000e+000 0.000000e+000 1.000000e+000
      outer loop
         vertex 5.317124e-001 9.849318e-004 3.000000e-002
         vertex 5.439190e-001 3.915513e-003 3.000000e-002
         vertex 5.904781e-001 4.368078e-002 3.000000e-002
      endloop
   endfacet
   facet normal 0.000000e+000 0.000000e+000 1.000000e+000
      outer loop
         vertex 5.904781e-001 4.368078e-002 3.000000e-002
         vertex 5.439190e-001 3.915513e-003 3.000000e-002
         vertex 5.555168e-001 8.719508e-003 3.000000e-002
      endloop
   endfacet
   facet normal 0.000000e+000 0.000000e+000 1.000000e+000
      outer loop
         vertex 5.904781e-001 4.368078e-002 3.000000e-002
         vertex 5.555168e-001 8.719508e-003 3.000000e-002
         vertex 5.839190e-001 3.297720e-002 3.000000e-002
      endloop
   endfacet
   facet normal 0.000000e+000 0.000000e+000 1.000000e+000
      outer loop
         vertex 5.839190e-001 3.297720e-002 3.000000e-002
         vertex 5.555168e-001 8.719508e-003 3.000000e-002
         vertex 5.662205e-001 1.527867e-002 3.000000e-002
      endloop
   endfacet
   facet normal 0.000000e+000 0.000000e+000 1.000000e+000
      outer loop
         vertex 5.839190e-001 3.297720e-002 3.000000e-002
         vertex 5.662205e-001 1.527867e-002 3.000000e-002
         vertex 5.757662e-001 2.343149e-002 3.000000e-002
      endloop
   endfacet
   facet normal 0.000000e+000 0.000000e+000 -1.000000e+000
      outer loop
         vertex 1.991976e-001 6.000000e-001 0.000000e+000
         vertex 1.991976e-001 8.000000e-001 0.000000e+000
         vertex 5.991976e-001 2.000000e-001 0.000000e+000
      endloop
   endfacet
   facet normal 0.000000e+000 0.000000e+000 -1.000000e+000
      outer loop
         vertex 5.991976e-001 2.000000e-001 0.000000e+000
         vertex 1.991976e-001 8.000000e-001 0.000000e+000
         vertex 7.991977e-001 8.000000e-001 0.000000e+000
      endloop
   endfacet
   facet normal 0.000000e+000 0.000000e+000 -1.000000e+000
      outer loop
         vertex 5.991976e-001 2.000000e-001 0.000000e+000
         vertex 7.991977e-001 8.000000e-001 0.000000e+000
         vertex 7.991977e-001 2.000000e-001 0.000000e+000
      endloop
   endfacet
   facet normal 0.000000e+000 0.000000e+000 -1.000000e+000
      outer loop
         vertex 3.991976e-001 2.000000e-001 0.000000e+000
         vertex 1.991976e-001 2.000000e-001 0.000000e+000
         vertex 1.991976e-001 4.000000e-001 0.000000e+000
      endloop
   endfacet
   facet normal 0.000000e+000 0.000000e+000 -1.000000e+000
      outer loop
         vertex 5.991976e-001 2.000000e-001 0.000000e+000
         vertex 3.991976e-001 2.000000e-001 0.000000e+000
         vertex 1.991976e-001 6.000000e-001 0.000000e+000
      endloop
   endfacet
   facet normal 0.000000e+000 0.000000e+000 -1.000000e+000
      outer loop
         vertex 1.991976e-001 6.000000e-001 0.000000e+000
         vertex 3.991976e-001 2.000000e-001 0.000000e+000
         vertex 1.991976e-001 4.000000e-001 0.000000e+000
      endloop
   endfacet
   facet normal 0.000000e+000 0.000000e+000 -1.000000e+000
      outer loop
         vertex 1.991976e-001 6.000000e-001 0.000000e+000
         vertex 1.991976e-001 4.000000e-001 0.000000e+000
         vertex 7.999997e-002 6.000000e-001 0.000000e+000
      endloop
   endfacet
   facet normal 0.000000e+000 0.000000e+000 -1.000000e+000
      outer loop
         vertex 7.999997e-002 6.000000e-001 0.000000e+000
         vertex 1.991976e-001 4.000000e-001 0.000000e+000
         vertex 6.748524e-002 5.990151e-001 0.000000e+000
      endloop
   endfacet
   facet normal 0.000000e+000 0.000000e+000 -1.000000e+000
      outer loop
         vertex 5.991976e-001 2.000000e-001 0.000000e+000
         vertex 5.991976e-001 8.000003e-002 0.000000e+000
         vertex 5.191976e-001 0.000000e+000 0.000000e+000
      endloop
   endfacet
   facet normal 0.000000e+000 0.000000e+000 -1.000000e+000
      outer loop
         vertex 5.191976e-001 0.000000e+000 0.000000e+000
         vertex 5.991976e-001 8.000003e-002 0.000000e+000
         vertex 5.982127e-001 6.748527e-002 0.000000e+000
      endloop
   endfacet
   facet normal 0.000000e+000 0.000000e+000 -1.000000e+000
      outer loop
         vertex 5.191976e-001 0.000000e+000 0.000000e+000
         vertex 5.982127e-001 6.748527e-002 0.000000e+000
         vertex 5.952822e-001 5.527865e-002 0.000000e+000
      endloop
   endfacet
   facet normal 0.000000e+000 0.000000e+000 -1.000000e+000
      outer loop
         vertex 5.991976e-001 2.000000e-001 0.000000e+000
         vertex 5.191976e-001 0.000000e+000 0.000000e+000
         vertex 3.991976e-001 2.000000e-001 0.000000e+000
      endloop
   endfacet
   facet normal 0.000000e+000 0.000000e+000 -1.000000e+000
      outer loop
         vertex 3.991976e-001 2.000000e-001 0.000000e+000
         vertex 5.191976e-001 0.000000e+000 0.000000e+000
         vertex 4.791976e-001 0.000000e+000 0.000000e+000
      endloop
   endfacet
   facet normal 0.000000e+000 0.000000e+000 -1.000000e+000
      outer loop
         vertex 3.991976e-001 2.000000e-001 0.000000e+000
         vertex 4.791976e-001 0.000000e+000 0.000000e+000
         vertex 3.991976e-001 8.000003e-002 0.000000e+000
      endloop
   endfacet
   facet normal 0.000000e+000 0.000000e+000 -1.000000e+000
      outer loop
         vertex 3.991976e-001 8.000003e-002 0.000000e+000
         vertex 4.791976e-001 0.000000e+000 0.000000e+000
         vertex 4.666829e-001 9.849318e-004 0.000000e+000
      endloop
   endfacet
   facet normal 0.000000e+000 0.000000e+000 -1.000000e+000
      outer loop
         vertex 3.991976e-001 8.000003e-002 0.000000e+000
         vertex 4.666829e-001 9.849318e-004 0.000000e+000
         vertex 4.544763e-001 3.915513e-003 0.000000e+000
      endloop
   endfacet
   facet normal 0.000000e+000 0.000000e+000 -1.000000e+000
      outer loop
         vertex 4.428784e-001 8.719508e-003 0.000000e+000
         vertex 4.321748e-001 1.527867e-002 0.000000e+000
         vertex 4.226291e-001 2.343149e-002 0.000000e+000
      endloop
   endfacet
   facet normal 0.000000e+000 0.000000e+000 -1.000000e+000
      outer loop
         vertex 5.527862e-002 4.039155e-001 0.000000e+000
         vertex 4.368075e-002 4.087195e-001 0.000000e+000
         vertex 3.297717e-002 4.152786e-001 0.000000e+000
      endloop
   endfacet
   facet normal 0.000000e+000 0.000000e+000 -1.000000e+000
      outer loop
         vertex 3.915455e-003 4.552787e-001 0.000000e+000
         vertex 7.999997e-002 4.000000e-001 0.000000e+000
         vertex 8.719450e-003 4.436808e-001 0.000000e+000
      endloop
   endfacet
   facet normal 0.000000e+000 0.000000e+000 -1.000000e+000
      outer loop
         vertex 8.719450e-003 4.436808e-001 0.000000e+000
         vertex 7.999997e-002 4.000000e-001 0.000000e+000
         vertex 1.527861e-002 4.329772e-001 0.000000e+000
      endloop
   endfacet
   facet normal 0.000000e+000 0.000000e+000 -1.000000e+000
      outer loop
         vertex 0.000000e+000 5.200000e-001 0.000000e+000
         vertex 1.991976e-001 4.000000e-001 0.000000e+000
         vertex 0.000000e+000 4.800000e-001 0.000000e+000
      endloop
   endfacet
   facet normal 0.000000e+000 0.000000e+000 -1.000000e+000
      outer loop
         vertex 0.000000e+000 4.800000e-001 0.000000e+000
         vertex 1.991976e-001 4.000000e-001 0.000000e+000
         vertex 7.999997e-002 4.000000e-001 0.000000e+000
      endloop
   endfacet
   facet normal 0.000000e+000 0.000000e+000 -1.000000e+000
      outer loop
         vertex 0.000000e+000 4.800000e-001 0.000000e+000
         vertex 7.999997e-002 4.000000e-001 0.000000e+000
         vertex 9.849318e-004 4.674853e-001 0.000000e+000
      endloop
   endfacet
   facet normal 0.000000e+000 0.000000e+000 -1.000000e+000
      outer loop
         vertex 9.849318e-004 4.674853e-001 0.000000e+000
         vertex 7.999997e-002 4.000000e-001 0.000000e+000
         vertex 3.915455e-003 4.552787e-001 0.000000e+000
      endloop
   endfacet
   facet normal 0.000000e+000 0.000000e+000 -1.000000e+000
      outer loop
         vertex 5.757662e-001 2.343149e-002 0.000000e+000
         vertex 5.662205e-001 1.527867e-002 0.000000e+000
         vertex 5.839190e-001 3.297720e-002 0.000000e+000
      endloop
   endfacet
   facet normal 0.000000e+000 0.000000e+000 -1.000000e+000
      outer loop
         vertex 5.839190e-001 3.297720e-002 0.000000e+000
         vertex 5.662205e-001 1.527867e-002 0.000000e+000
         vertex 5.555168e-001 8.719508e-003 0.000000e+000
      endloop
   endfacet
   facet normal 0.000000e+000 0.000000e+000 -1.000000e+000
      outer loop
         vertex 5.839190e-001 3.297720e-002 0.000000e+000
         vertex 5.555168e-001 8.719508e-003 0.000000e+000
         vertex 5.439190e-001 3.915513e-003 0.000000e+000
      endloop
   endfacet
   facet normal 0.000000e+000 0.000000e+000 -1.000000e+000
      outer loop
         vertex 4.428784e-001 8.719508e-003 0.000000e+000
         vertex 4.226291e-001 2.343149e-002 0.000000e+000
         vertex 4.544763e-001 3.915513e-003 0.000000e+000
      endloop
   endfacet
   facet normal 0.000000e+000 0.000000e+000 -1.000000e+000
      outer loop
         vertex 4.544763e-001 3.915513e-003 0.000000e+000
         vertex 4.226291e-001 2.343149e-002 0.000000e+000
         vertex 4.144763e-001 3.297720e-002 0.000000e+000
      endloop
   endfacet
   facet normal 0.000000e+000 0.000000e+000 -1.000000e+000
      outer loop
         vertex 4.544763e-001 3.915513e-003 0.000000e+000
         vertex 4.144763e-001 3.297720e-002 0.000000e+000
         vertex 4.079171e-001 4.368078e-002 0.000000e+000
      endloop
   endfacet
   facet normal 0.000000e+000 0.000000e+000 -1.000000e+000
      outer loop
         vertex 4.079171e-001 4.368078e-002 0.000000e+000
         vertex 4.031131e-001 5.527865e-002 0.000000e+000
         vertex 4.544763e-001 3.915513e-003 0.000000e+000
      endloop
   endfacet
   facet normal 0.000000e+000 0.000000e+000 -1.000000e+000
      outer loop
         vertex 4.544763e-001 3.915513e-003 0.000000e+000
         vertex 4.031131e-001 5.527865e-002 0.000000e+000
         vertex 4.001825e-001 6.748527e-002 0.000000e+000
      endloop
   endfacet
   facet normal 0.000000e+000 0.000000e+000 -1.000000e+000
      outer loop
         vertex 4.544763e-001 3.915513e-003 0.000000e+000
         vertex 4.001825e-001 6.748527e-002 0.000000e+000
         vertex 3.991976e-001 8.000003e-002 0.000000e+000
      endloop
   endfacet
   facet normal 0.000000e+000 0.000000e+000 -1.000000e+000
      outer loop
         vertex 7.999997e-002 4.000000e-001 0.000000e+000
         vertex 6.748524e-002 4.009849e-001 0.000000e+000
         vertex 1.527861e-002 4.329772e-001 0.000000e+000
      endloop
   endfacet
   facet normal 0.000000e+000 0.000000e+000 -1.000000e+000
      outer loop
         vertex 1.527861e-002 4.329772e-001 0.000000e+000
         vertex 6.748524e-002 4.009849e-001 0.000000e+000
         vertex 5.527862e-002 4.039155e-001 0.000000e+000
      endloop
   endfacet
   facet normal 0.000000e+000 0.000000e+000 -1.000000e+000
      outer loop
         vertex 1.527861e-002 4.329772e-001 0.000000e+000
         vertex 5.527862e-002 4.039155e-001 0.000000e+000
         vertex 2.343144e-002 4.234315e-001 0.000000e+000
      endloop
   endfacet
   facet normal 0.000000e+000 0.000000e+000 -1.000000e+000
      outer loop
         vertex 2.343144e-002 4.234315e-001 0.000000e+000
         vertex 5.527862e-002 4.039155e-001 0.000000e+000
         vertex 3.297717e-002 4.152786e-001 0.000000e+000
      endloop
   endfacet
   facet normal 0.000000e+000 0.000000e+000 -1.000000e+000
      outer loop
         vertex 5.952822e-001 5.527865e-002 0.000000e+000
         vertex 5.904781e-001 4.368078e-002 0.000000e+000
         vertex 5.191976e-001 0.000000e+000 0.000000e+000
      endloop
   endfacet
   facet normal 0.000000e+000 0.000000e+000 -1.000000e+000
      outer loop
         vertex 5.191976e-001 0.000000e+000 0.000000e+000
         vertex 5.904781e-001 4.368078e-002 0.000000e+000
         vertex 5.839190e-001 3.297720e-002 0.000000e+000
      endloop
   endfacet
   facet normal 0.000000e+000 0.000000e+000 -1.000000e+000
      outer loop
         vertex 5.191976e-001 0.000000e+000 0.000000e+000
         vertex 5.839190e-001 3.297720e-002 0.000000e+000
         vertex 5.317124e-001 9.849318e-004 0.000000e+000
      endloop
   endfacet
   facet normal 0.000000e+000 0.000000e+000 -1.000000e+000
      outer loop
         vertex 5.317124e-001 9.849318e-004 0.000000e+000
         vertex 5.839190e-001 3.297720e-002 0.000000e+000
         vertex 5.439190e-001 3.915513e-003 0.000000e+000
      endloop
   endfacet
   facet normal 0.000000e+000 0.000000e+000 -1.000000e+000
      outer loop
         vertex 0.000000e+000 5.200000e-001 0.000000e+000
         vertex 9.849318e-004 5.325148e-001 0.000000e+000
         vertex 1.991976e-001 4.000000e-001 0.000000e+000
      endloop
   endfacet
   facet normal 0.000000e+000 0.000000e+000 -1.000000e+000
      outer loop
         vertex 1.991976e-001 4.000000e-001 0.000000e+000
         vertex 9.849318e-004 5.325148e-001 0.000000e+000
         vertex 3.915455e-003 5.447214e-001 0.000000e+000
      endloop
   endfacet
   facet normal 0.000000e+000 0.000000e+000 -1.000000e+000
      outer loop
         vertex 1.991976e-001 4.000000e-001 0.000000e+000
         vertex 3.915455e-003 5.447214e-001 0.000000e+000
         vertex 8.719450e-003 5.563192e-001 0.000000e+000
      endloop
   endfacet
   facet normal 0.000000e+000 0.000000e+000 -1.000000e+000
      outer loop
         vertex 8.719450e-003 5.563192e-001 0.000000e+000
         vertex 1.527861e-002 5.670228e-001 0.000000e+000
         vertex 1.991976e-001 4.000000e-001 0.000000e+000
      endloop
   endfacet
   facet normal 0.000000e+000 0.000000e+000 -1.000000e+000
      outer loop
         vertex 1.991976e-001 4.000000e-001 0.000000e+000
         vertex 1.527861e-002 5.670228e-001 0.000000e+000
         vertex 2.343144e-002 5.765685e-001 0.000000e+000
      endloop
   endfacet
   facet normal 0.000000e+000 0.000000e+000 -1.000000e+000
      outer loop
         vertex 1.991976e-001 4.000000e-001 0.000000e+000
         vertex 2.343144e-002 5.765685e-001 0.000000e+000
         vertex 3.297717e-002 5.847214e-001 0.000000e+000
      endloop
   endfacet
   facet normal 0.000000e+000 0.000000e+000 -1.000000e+000
      outer loop
         vertex 3.297717e-002 5.847214e-001 0.000000e+000
         vertex 4.368075e-002 5.912805e-001 0.000000e+000
         vertex 1.991976e-001 4.000000e-001 0.000000e+000
      endloop
   endfacet
   facet normal 0.000000e+000 0.000000e+000 -1.000000e+000
      outer loop
         vertex 1.991976e-001 4.000000e-001 0.000000e+000
         vertex 4.368075e-002 5.912805e-001 0.000000e+000
         vertex 5.527862e-002 5.960845e-001 0.000000e+000
      endloop
   endfacet
   facet normal 0.000000e+000 0.000000e+000 -1.000000e+000
      outer loop
         vertex 1.991976e-001 4.000000e-001 0.000000e+000
         vertex 5.527862e-002 5.960845e-001 0.000000e+000
         vertex 6.748524e-002 5.990151e-001 0.000000e+000
      endloop
   endfacet
endsolid