ply
format ascii 1.0
comment VCGLIB generated
element vertex 104
property float x
property float y
property float z
property float nx
property float ny
property float nz
property int flags
element face 204
property list uchar int vertex_indices
property int flags
end_header
0.799198 0.2 0 0 -1.42191 0 0 
0.599198 0.2 0.03 0 -1.42191 0 0 
0.799198 0.8 0 1.52084 0 0 0 
0.199198 0.8 0 0 0.0499581 0 0 
0.799198 0.8 0.03 0 1.52084 0 0 
0.199198 0.6 0.03 -1.5708 0 0 0 
0.199198 0.6 0 -1.42191 0 0 0 
0.199198 0.8 0.03 -1.42191 0 0 0 
0.08 0.6 0.03 0 1.5708 0 0 
0.0674852 0.599015 0 -0.0310932 0.395086 0 0 
0.0674852 0.599015 0.03 -0.0925193 0.385359 0 0 
0.0552786 0.596084 0.03 -0.366706 1.52739 0 0 
0.0329772 0.584721 0.03 -0.762772 0.893083 0 0 
0.0234314 0.576568 0.03 -1.02016 1.19444 0 0 
0.0152786 0.567023 0.03 -1.19444 1.02015 0 0 
0.00871945 0.556319 0.03 -0.366138 0.151661 0 0 
0.000984932 0.532515 0 -1.14204 0.274176 0 0 
0 0.52 0 -1.5708 0 0 0 
0 0.48 0 -1.56595 -0.123244 0 0 
0.000984932 0.467485 0 -1.5274 -0.366692 0 0 
0.00391546 0.455279 0 -0.385359 -0.0925156 0 0 
0.0152786 0.432977 0.03 -0.301355 -0.257382 0 0 
0.0152786 0.432977 0 -1.19444 -1.02015 0 0 
0.0329772 0.415279 0 -0.762771 -0.893084 0 0 
0.0329772 0.415279 0.03 -0.207069 -0.337909 0 0 
0.0436807 0.40872 0 -0.613665 -1.00142 0 0 
0.0436807 0.40872 0.03 -0.820734 -1.33933 0 0 
0.0552786 0.403915 0 -0.366699 -1.52739 0 0 
0.199198 0.2 0 -1.42191 0 0 0 
0.199198 0.4 0.03 -1.42191 0 0 0 
0.399198 0.2 0 0 -0.14889 0 0 
0.399198 0.08 0.03 -1.5708 0 0 0 
0.399198 0.08 0 -1.32582 0 0 0 
0.400182 0.0674853 0 -1.52739 -0.366702 0 0 
0.403113 0.0552787 0 -1.14203 -0.274184 0 0 
0.403113 0.0552787 0.03 -1.52739 -0.366702 0 0 
0.407917 0.0436808 0 -1.08508 -0.449459 0 0 
0.407917 0.0436808 0.03 -0.337908 -0.207072 0 0 
0.414476 0.0329772 0.03 -0.301355 -0.257381 0 0 
0.422629 0.0234315 0 -0.893089 -0.762768 0 0 
0.432175 0.0152787 0 -0.762769 -0.893087 0 0 
0.466683 0.000984932 0 -0.0925175 -0.385359 0 0 
0.466683 0.000984932 0.03 -0.0921499 -1.17087 0 0 
0.519198 0 0 0 -0.643501 0 0 
0.479198 0 0 0 -1.5708 0 0 
0.531712 0.000984932 0.03 0.123242 -1.56595 0 0 
0.543919 0.00391551 0.03 0.366699 -1.52739 0 0 
0.555517 0.00871951 0.03 0.20707 -0.337913 0 0 
0.555517 0.00871951 0 0.82073 -1.33933 0 0 
0.566221 0.0152787 0 0.20707 -0.337913 0 0 
0.575766 0.0234315 0 0.257382 -0.301354 0 0 
0.575766 0.0234315 0.03 0.301355 -0.257381 0 0 
0.590478 0.0436808 0 1.00142 -0.613667 0 0 
0.590478 0.0436808 0.03 1.33933 -0.820736 0 0 
0.595282 0.0552787 0.03 1.45122 -0.601126 0 0 
0.595282 0.0552787 0 1.5274 -0.366692 0 0 
0.598213 0.0674853 0 1.56595 -0.12324 0 0 
0.599198 0.08 0.03 0.244979 0 0 0 
0.799198 0.2 0.03 0 0 1.5708 0 
0.199198 0.2 0.03 0 0 1.5708 0 
0.399198 0.2 0.03 0 0 2.35619 0 
0.519198 0 0.03 0 0 1.9513 0 
0.479198 0 0.03 0 0 0.404892 0 
0 0.52 0.03 0 0 1.0286 0 
0 0.48 0.03 0 0 0.706858 0 
0.000984932 0.467485 0.03 0 0 0.62832 0 
0.00391546 0.455279 0.03 0 0 0.549779 0 
0.08 0.4 0.03 0 0 0.0785409 0 
0.00871945 0.443681 0.03 0 0 0.471239 0 
0.0674852 0.400985 0.03 0 0 2.67035 0 
0.000984932 0.532515 0.03 0 0 0.628321 0 
0.0234314 0.423431 0.03 0 0 2.82743 0 
0.0552786 0.403915 0.03 0 0 0.0785417 0 
0.00391546 0.544721 0.03 0 0 0.0785409 0 
0.0436807 0.591281 0.03 0 0 2.67035 0 
0.400182 0.0674853 0.03 0 0 2.51327 0 
0.454476 0.00391551 0.03 0 0 0.15708 0 
0.422629 0.0234315 0.03 0 0 0.0785409 0 
0.442878 0.00871951 0.03 0 0 2.90597 0 
0.432175 0.0152787 0.03 0 0 2.98451 0 
0.598213 0.0674853 0.03 0 0 0.628321 0 
0.566221 0.0152787 0.03 0 0 2.90596 0 
0.583919 0.0329772 0.03 0 0 0.0785402 0 
0.599198 0.2 0 0 0 -0.909753 0 
0.199198 0.4 0 0 0 -0.785398 0 
0.08 0.6 0 0 0 -2.02972 0 
0.599198 0.08 0 0 0 -0.70686 0 
0.442878 0.00871951 0 0 0 -0.0785402 0 
0.00871945 0.443681 0 0 0 -0.471239 0 
0.08 0.4 0 0 0 -2.35619 0 
0.414476 0.0329772 0 0 0 -0.235621 0 
0.454476 0.00391551 0 0 0 -0.0785394 0 
0.0674852 0.400985 0 0 0 -0.314157 0 
0.0234314 0.423431 0 0 0 -0.157082 0 
0.531712 0.000984932 0 0 0 -2.67035 0 
0.583919 0.0329772 0 0 0 -0.0785386 0 
0.543919 0.00391551 0 0 0 -2.7489 0 
0.00391546 0.544721 0 0 0 -1.16864 0 
0.00871945 0.556319 0 0 0 -1.27628 0 
0.0152786 0.567023 0 0 0 -1.60123 0 
0.0234314 0.576568 0 0 0 -1.49454 0 
0.0329772 0.584721 0 0 0 -1.59666 0 
0.0436807 0.591281 0 0 0 -1.28086 0 
0.0552786 0.596084 0 0 0 -1.81126 0 
3 58 1 0 0 
3 0 1 83 0 
3 4 58 2 0 
3 2 58 0 0 
3 7 4 3 0 
3 3 4 2 0 
3 5 7 6 0 
3 6 7 3 0 
3 8 5 85 0 
3 85 5 6 0 
3 8 85 9 0 
3 8 9 10 0 
3 10 9 103 0 
3 10 103 11 0 
3 11 103 102 0 
3 11 102 74 0 
3 74 102 101 0 
3 74 101 12 0 
3 12 101 100 0 
3 12 100 13 0 
3 13 100 99 0 
3 13 99 14 0 
3 14 99 98 0 
3 14 98 15 0 
3 15 98 97 0 
3 15 97 73 0 
3 73 97 16 0 
3 73 16 70 0 
3 70 16 17 0 
3 70 17 63 0 
3 64 63 18 0 
3 18 63 17 0 
3 64 18 19 0 
3 64 19 65 0 
3 65 19 20 0 
3 65 20 66 0 
3 66 20 88 0 
3 66 88 68 0 
3 68 88 22 0 
3 68 22 21 0 
3 21 22 93 0 
3 21 93 71 0 
3 71 93 23 0 
3 71 23 24 0 
3 24 23 25 0 
3 24 25 26 0 
3 26 25 27 0 
3 26 27 72 0 
3 72 27 92 0 
3 72 92 69 0 
3 69 92 89 0 
3 69 89 67 0 
3 29 67 84 0 
3 84 67 89 0 
3 59 29 28 0 
3 28 29 84 0 
3 60 59 30 0 
3 30 59 28 0 
3 31 60 32 0 
3 32 60 30 0 
3 31 32 33 0 
3 31 33 75 0 
3 75 33 34 0 
3 75 34 35 0 
3 35 34 36 0 
3 35 36 37 0 
3 37 36 90 0 
3 37 90 38 0 
3 38 90 39 0 
3 38 39 77 0 
3 77 39 40 0 
3 77 40 79 0 
3 79 40 87 0 
3 79 87 78 0 
3 78 87 91 0 
3 78 91 76 0 
3 76 91 41 0 
3 76 41 42 0 
3 42 41 44 0 
3 42 44 62 0 
3 61 62 43 0 
3 43 62 44 0 
3 61 43 94 0 
3 61 94 45 0 
3 45 94 96 0 
3 45 96 46 0 
3 46 96 48 0 
3 46 48 47 0 
3 47 48 49 0 
3 47 49 81 0 
3 81 49 50 0 
3 81 50 51 0 
3 51 50 95 0 
3 51 95 82 0 
3 82 95 52 0 
3 82 52 53 0 
3 53 52 55 0 
3 53 55 54 0 
3 54 55 56 0 
3 54 56 80 0 
3 80 56 86 0 
3 80 86 57 0 
3 1 57 83 0 
3 83 57 86 0 
3 1 58 4 0 
3 63 5 8 0 
3 59 60 29 0 
3 29 60 1 0 
3 29 1 5 0 
3 5 1 4 0 
3 5 4 7 0 
3 42 62 31 0 
3 24 26 72 0 
3 80 57 61 0 
3 61 57 1 0 
3 61 1 62 0 
3 62 1 60 0 
3 62 60 31 0 
3 5 63 29 0 
3 29 63 64 0 
3 29 64 67 0 
3 67 64 65 0 
3 67 65 66 0 
3 66 68 67 0 
3 67 68 21 0 
3 67 21 69 0 
3 10 73 8 0 
3 8 73 70 0 
3 8 70 63 0 
3 69 21 72 0 
3 72 21 71 0 
3 72 71 24 0 
3 35 37 76 0 
3 10 11 73 0 
3 73 11 74 0 
3 73 74 12 0 
3 12 13 73 0 
3 73 13 14 0 
3 73 14 15 0 
3 42 31 76 0 
3 76 31 75 0 
3 76 75 35 0 
3 37 38 76 0 
3 76 38 77 0 
3 76 77 78 0 
3 78 77 79 0 
3 45 53 61 0 
3 61 53 54 0 
3 61 54 80 0 
3 45 46 53 0 
3 53 46 47 0 
3 53 47 82 0 
3 82 47 81 0 
3 82 81 51 0 
3 6 3 83 0 
3 83 3 2 0 
3 83 2 0 0 
3 30 28 84 0 
3 83 30 6 0 
3 6 30 84 0 
3 6 84 85 0 
3 85 84 9 0 
3 83 86 43 0 
3 43 86 56 0 
3 43 56 55 0 
3 83 43 30 0 
3 30 43 44 0 
3 30 44 32 0 
3 32 44 41 0 
3 32 41 91 0 
3 87 40 39 0 
3 27 25 23 0 
3 20 89 88 0 
3 88 89 22 0 
3 17 84 18 0 
3 18 84 89 0 
3 18 89 19 0 
3 19 89 20 0 
3 50 49 95 0 
3 95 49 48 0 
3 95 48 96 0 
3 87 39 91 0 
3 91 39 90 0 
3 91 90 36 0 
3 36 34 91 0 
3 91 34 33 0 
3 91 33 32 0 
3 89 92 22 0 
3 22 92 27 0 
3 22 27 93 0 
3 93 27 23 0 
3 55 52 43 0 
3 43 52 95 0 
3 43 95 94 0 
3 94 95 96 0 
3 17 16 84 0 
3 84 16 97 0 
3 84 97 98 0 
3 98 99 84 0 
3 84 99 100 0 
3 84 100 101 0 
3 101 102 84 0 
3 84 102 103 0 
3 84 103 9 0 
