ply
format ascii 1.0
comment VCGLIB generated
element vertex 10
property float x
property float y
property float z
property float nx
property float ny
property float nz
property int flags
element face 16
property list uchar int vertex_indices
property int flags
end_header
0.6 0.4 0 1.34505 0.672526 0 0 
0.8 0 0 1.40496 0.702481 0 0 
0.6 0.8 0 1.49594 0 0 0 
0.6 0.8 0.03 0 1.52084 0 0 
0 0 0.03 0 -0.0374824 0 0 
0.6 0.4 0.03 0 0 1.17601 0 
0 0.8 0.03 0 0 0.982794 0 
0.8 0 0.03 0 0 1.10715 0 
0 0.8 0 0 0 -1.5708 0 
0 0 0 0 0 -0.643501 0 
3 5 7 0 0 
3 0 7 1 0 
3 3 5 2 0 
3 2 5 0 0 
3 6 3 8 0 
3 8 3 2 0 
3 4 6 9 0 
3 9 6 8 0 
3 7 4 1 0 
3 1 4 9 0 
3 3 6 5 0 
3 5 6 4 0 
3 5 4 7 0 
3 8 2 9 0 
3 9 2 0 0 
3 9 0 1 0 
