solid ShoeTarget
   facet normal 8.944272e-001 4.472136e-001 0.000000e+000
      outer loop
         vertex 6.000000e-001 4.000000e-001 3.000000e-002
         vertex 8.000000e-001 0.000000e+000 3.000000e-002
         vertex 6.000000e-001 4.000000e-001 0.000000e+000
      endloop
   endfacet
   facet normal 8.944272e-001 4.472136e-001 0.000000e+000
      outer loop
         vertex 6.000000e-001 4.000000e-001 0.000000e+000
         vertex 8.000000e-001 0.000000e+000 3.000000e-002
         vertex 8.000000e-001 0.000000e+000 0.000000e+000
      endloop
   endfacet
   facet normal 1.000000e+000 1.355253e-016 0.000000e+000
      outer loop
         vertex 6.000000e-001 8.000000e-001 3.000000e-002
         vertex 6.000000e-001 4.000000e-001 3.000000e-002
         vertex 6.000000e-001 8.000000e-001 0.000000e+000
      endloop
   endfacet
   facet normal 1.000000e+000 1.355253e-016 0.000000e+000
      outer loop
         vertex 6.000000e-001 8.000000e-001 0.000000e+000
         vertex 6.000000e-001 4.000000e-001 3.000000e-002
         vertex 6.000000e-001 4.000000e-001 0.000000e+000
      endloop
   endfacet
   facet normal 0.000000e+000 1.000000e+000 0.000000e+000
      outer loop
         vertex 0.000000e+000 8.000000e-001 3.000000e-002
         vertex 6.000000e-001 8.000000e-001 3.000000e-002
         vertex 0.000000e+000 8.000000e-001 0.000000e+000
      endloop
   endfacet
   facet normal 0.000000e+000 1.000000e+000 0.000000e+000
      outer loop
         vertex 0.000000e+000 8.000000e-001 0.000000e+000
         vertex 6.000000e-001 8.000000e-001 3.000000e-002
         vertex 6.000000e-001 8.000000e-001 0.000000e+000
      endloop
   endfacet
   facet normal -1.000000e+000 -1.355253e-016 0.000000e+000
      outer loop
         vertex 0.000000e+000 0.000000e+000 3.000000e-002
         vertex 0.000000e+000 8.000000e-001 3.000000e-002
         vertex 0.000000e+000 0.000000e+000 0.000000e+000
      endloop
   endfacet
   facet normal -1.000000e+000 -1.355253e-016 0.000000e+000
      outer loop
         vertex 0.000000e+000 0.000000e+000 0.000000e+000
         vertex 0.000000e+000 8.000000e-001 3.000000e-002
         vertex 0.000000e+000 8.000000e-001 0.000000e+000
      endloop
   endfacet
   facet normal 0.000000e+000 -1.000000e+000 0.000000e+000
      outer loop
         vertex 8.000000e-001 0.000000e+000 3.000000e-002
         vertex 0.000000e+000 0.000000e+000 3.000000e-002
         vertex 8.000000e-001 0.000000e+000 0.000000e+000
      endloop
   endfacet
   facet normal 0.000000e+000 -1.000000e+000 0.000000e+000
      outer loop
         vertex 8.000000e-001 0.000000e+000 0.000000e+000
         vertex 0.000000e+000 0.000000e+000 3.000000e-002
         vertex 0.000000e+000 0.000000e+000 0.000000e+000
      endloop
   endfacet
   facet normal 0.000000e+000 0.000000e+000 1.000000e+000
      outer loop
         vertex 6.000000e-001 8.000000e-001 3.000000e-002
         vertex 0.000000e+000 8.000000e-001 3.000000e-002
         vertex 6.000000e-001 4.000000e-001 3.000000e-002
      endloop
   endfacet
   facet normal 0.000000e+000 0.000000e+000 1.000000e+000
      outer loop
         vertex 6.000000e-001 4.000000e-001 3.000000e-002
         vertex 0.000000e+000 8.000000e-001 3.000000e-002
         vertex 0.000000e+000 0.000000e+000 3.000000e-002
      endloop
   endfacet
   facet normal 0.000000e+000 0.000000e+000 1.000000e+000
      outer loop
         vertex 6.000000e-001 4.000000e-001 3.000000e-002
         vertex 0.000000e+000 0.000000e+000 3.000000e-002
         vertex 8.000000e-001 0.000000e+000 3.000000e-002
      endloop
   endfacet
   facet normal 0.000000e+000 0.000000e+000 -1.000000e+000
      outer loop
         vertex 0.000000e+000 8.000000e-001 0.000000e+000
         vertex 6.000000e-001 8.000000e-001 0.000000e+000
         vertex 0.000000e+000 0.000000e+000 0.000000e+000
      endloop
   endfacet
   facet normal 0.000000e+000 0.000000e+000 -1.000000e+000
      outer loop
         vertex 0.000000e+000 0.000000e+000 0.000000e+000
         vertex 6.000000e-001 8.000000e-001 0.000000e+000
         vertex 6.000000e-001 4.000000e-001 0.000000e+000
      endloop
   endfacet
   facet normal 0.000000e+000 0.000000e+000 -1.000000e+000
      outer loop
         vertex 0.000000e+000 0.000000e+000 0.000000e+000
         vertex 6.000000e-001 4.000000e-001 0.000000e+000
         vertex 8.000000e-001 0.000000e+000 0.000000e+000
      endloop
   endfacet
endsolid