ply
format ascii 1.0
comment VCGLIB generated
element vertex 8
property float x
property float y
property float z
property float nx
property float ny
property float nz
property int flags
element face 12
property list uchar int vertex_indices
property int flags
end_header
0.6 0.6 0 0 1.5708 0 0 
0 0 0.03 -1.5708 0 0 0 
0 0 0 -1.52084 0 0 0 
0 0.6 0.03 -1.52084 0 0 0 
0.6 0.6 0.03 0 0 1.89255 0 
0.8 0 0.03 0 0 0.605545 0 
0 0.6 0 0 0 -1.5708 0 
0.8 0 0 0 0 -1.24905 0 
3 5 1 7 0 
3 7 1 2 0 
3 4 5 0 0 
3 0 5 7 0 
3 3 4 6 0 
3 6 4 0 0 
3 1 3 2 0 
3 2 3 6 0 
3 4 3 5 0 
3 5 3 1 0 
3 6 0 2 0 
3 2 0 7 0 
