ply
format ascii 1.0
comment VCGLIB generated
element vertex 58
property float x
property float y
property float z
property float nx
property float ny
property float nz
element face 112
property list uchar int vertex_indices
end_header
0.243986 0.0867139 0.205918 0.691794 0.350405 0.631378
0.296895 0.181432 0.0973135 0.344649 0.617007 -0.707474
0.303523 0.174079 0.0941304 0.344649 0.617007 -0.707474
0.0356193 0.0486306 -0.140079 0.293186 0.590006 -0.752286
0.0311546 0.034285 -0.150215 0.0744354 0.451938 -0.888939
0.0131539 0.0336205 -0.152195 0.0744354 0.451938 -0.888939
0.0197833 0.0262675 -0.155378 -0.0380836 0.367872 -0.929096
-0.0136742 -0.00221492 -0.159266 -0.256441 0.179906 -0.949669
-0.0238508 -0.0125413 -0.156607 -0.357576 0.080384 -0.930418
-0.0331843 -0.0229391 -0.152027 -0.450664 -0.0199716 -0.89247
-0.0481144 -0.0258434 -0.142438 -0.606394 -0.215369 -0.765443
-0.0552125 -0.0357518 -0.134334 -0.666562 -0.306887 -0.679349
-0.17546 -0.269305 0.120757 -0.691794 -0.350405 -0.631378
-0.0543349 -0.052462 -0.12788 -0.691794 -0.350405 -0.631378
-0.182089 -0.261951 0.123939 -0.34465 -0.617006 0.707475
-0.0276545 -0.118187 0.0795101 0.691794 0.350405 0.631378
-0.0211307 -0.107494 0.0683988 0.6146 0.227102 0.755441
-0.013181 -0.0962066 0.0588807 0.55008 0.139516 0.823376
0.00643186 -0.0726222 0.0452479 0.393523 -0.0427374 0.918321
0.0232168 -0.041687 0.0427229 0.303676 -0.134528 0.94323
0.0177587 -0.0607287 0.0413658 0.303678 -0.134529 0.943229
0.055468 -0.0270673 0.0421459 0.107859 -0.311464 0.944117
0.0749203 -0.000849251 0.0560719 -0.0978122 -0.46833 0.878123
0.0942057 -0.00034771 0.0611034 -0.29754 -0.592382 0.748701
0.106315 0.00626994 0.0710362 -0.29754 -0.592383 0.748701
0.0488384 -0.0197144 0.0453289 -0.63749 0.707051 0.306081
0.0619339 -0.00980732 0.0497171 -0.63749 0.707051 0.306082
0.0462111 0.0544564 -0.131477 -0.63749 0.707051 0.306082
-0.0277603 -0.100142 0.0715816 -0.63749 0.707051 0.306082
-0.0198108 -0.0888536 0.0620637 -0.63749 0.707051 0.306081
-0.0936831 -0.217172 0.204624 -0.63749 0.707051 0.306081
-0.0342841 -0.110834 0.0826932 -0.63749 0.707051 0.306081
-0.0105703 -0.0771627 0.0543028 -0.63749 0.707051 0.306081
-0.0609643 -0.045109 -0.124697 -0.63749 0.707051 0.306081
-0.000197819 -0.0652691 0.048431 -0.63749 0.707051 0.306081
0.0111293 -0.0533758 0.0445489 -0.63749 0.707051 0.306081
-0.0398141 -0.0155861 -0.148845 -0.63749 0.707051 0.306081
-0.00949122 0.0151829 -0.156767 -0.63749 0.707051 0.30608
0.0358589 -0.0304019 0.0429846 -0.63749 0.707051 0.306081
-0.0203038 0.00513755 -0.156083 -0.63749 0.707051 0.306081
-0.0304802 -0.0051886 -0.153424 -0.63749 0.707051 0.306081
0.0245251 0.0416378 -0.147032 -0.63749 0.707051 0.306082
0.00173784 0.0247421 -0.155462 -0.63749 0.707051 0.306081
0.0996848 0.0136228 0.0742192 -0.63749 0.707051 0.306082
0.0875765 0.0070052 0.0642863 -0.63749 0.707051 0.306081
-0.002861 0.00782972 -0.15995 0.63749 -0.707051 -0.30608
0.00836723 0.0173892 -0.158645 0.63749 -0.707051 -0.306081
-0.0414847 -0.0331964 -0.14562 0.63749 -0.707051 -0.306082
-0.048583 -0.0431047 -0.137517 0.63749 -0.707051 -0.306081
-0.00394076 -0.084516 0.0511198 0.63749 -0.707051 -0.306081
-0.087054 -0.224525 0.20144 0.63749 -0.707051 -0.306081
0.250616 0.0793609 0.202735 0.63749 -0.707051 -0.306081
0.0298464 -0.0490399 0.0395399 0.63749 -0.707051 -0.306081
0.0815496 -0.00820235 0.0528886 0.63749 -0.707051 -0.306081
0.0685631 -0.0171602 0.0465336 0.63749 -0.707051 -0.306081
0.0528407 0.0471034 -0.13466 0.63749 -0.707051 -0.306081
0.0422487 0.0412777 -0.143262 0.63749 -0.707051 -0.306082
0.0424884 -0.037755 0.0398015 0.63749 -0.707051 -0.306081
3 0 43 51
3 51 43 24
3 1 0 2
3 2 0 51
3 27 1 55
3 55 1 2
3 27 55 56
3 27 56 3
3 3 56 4
3 3 4 41
3 41 4 6
3 41 6 5
3 5 6 46
3 5 46 42
3 42 46 45
3 42 45 37
3 37 45 7
3 37 7 39
3 39 7 8
3 39 8 40
3 40 8 9
3 40 9 36
3 36 9 47
3 36 47 10
3 10 47 48
3 10 48 11
3 11 48 13
3 11 13 33
3 14 33 12
3 12 33 13
3 30 14 50
3 50 14 12
3 31 30 15
3 15 30 50
3 31 15 28
3 28 15 16
3 28 16 29
3 29 16 17
3 29 17 32
3 32 17 49
3 32 49 34
3 34 49 18
3 34 18 35
3 35 18 20
3 35 20 19
3 19 20 52
3 19 52 38
3 38 52 57
3 38 57 25
3 25 57 21
3 25 21 26
3 26 21 54
3 26 54 22
3 22 54 53
3 22 53 44
3 44 53 23
3 44 23 43
3 43 23 24
3 25 26 27
3 27 26 22
3 33 28 29
3 14 30 33
3 33 30 31
3 33 31 28
3 29 32 33
3 33 32 34
3 33 34 11
3 11 34 35
3 11 35 10
3 10 35 19
3 10 19 36
3 42 37 38
3 38 37 39
3 38 39 19
3 19 39 40
3 19 40 36
3 27 3 25
3 25 3 41
3 25 41 38
3 38 41 5
3 38 5 42
3 0 1 43
3 43 1 27
3 43 27 44
3 44 27 22
3 45 46 57
3 49 17 13
3 48 47 20
3 20 47 52
3 48 20 13
3 13 20 18
3 13 18 49
3 50 12 15
3 15 12 13
3 15 13 16
3 16 13 17
3 2 51 55
3 55 51 24
3 55 24 23
3 47 9 52
3 52 9 8
3 52 8 57
3 57 8 7
3 57 7 45
3 23 53 55
3 55 53 54
3 55 54 56
3 56 54 21
3 56 21 4
3 4 21 57
3 4 57 6
3 6 57 46
