ply
format ascii 1.0
comment VCGLIB generated
element vertex 96
property float x
property float y
property float z
property float nx
property float ny
property float nz
element face 188
property list uchar int vertex_indices
end_header
0.0528118 0.275557 0.153954 -0.0999999 -0.3 0.948683
0.0410996 0.279461 0.153954 -0.0999999 -0.3 0.948683
-0.00361155 0.145327 0.187717 0.3 0.9 0.316228
-0.00462716 0.14228 0.195128 0.263896 0.791687 0.55099
-0.0060341 0.13806 0.20187 0.263896 0.791688 0.55099
0.00187233 0.122738 0.212551 0.14142 0.42426 0.894429
-0.00983981 0.126642 0.212551 0.14142 0.42426 0.894429
-0.0121228 0.119793 0.216165 0.14142 0.42426 0.894429
-0.0145693 0.112454 0.218471 0.0901577 0.270473 0.958497
-0.00285721 0.10855 0.218471 0.0901579 0.270474 0.958497
-0.0332458 0.0564246 0.205328 -0.0999999 -0.3 0.948683
-0.023875 0.0454965 0.202118 -0.125766 -0.377299 0.917512
-0.0377166 0.0430121 0.19767 -0.174239 -0.522717 0.83451
-0.029377 0.0289903 0.185632 -0.253988 -0.761965 0.595735
-0.0422298 0.0294723 0.178409 -0.282843 -0.848529 0.447211
-0.0305177 0.0255682 0.178409 -0.303103 -0.909309 0.285105
-0.0429568 0.0272915 0.170668 -0.303103 -0.909309 0.285105
-0.0432478 0.0264184 0.162643 -0.31566 -0.946979 -0.0599184
-0.0315357 0.0225144 0.162643 -0.315659 -0.946979 -0.0599193
-0.0307883 0.0247565 0.146724 -0.307574 -0.922722 -0.232342
-0.0231142 0.0477789 0.0739208 -0.3 -0.9 -0.316228
-0.0348263 0.051683 0.0739208 -0.0999999 -0.3 0.948683
-0.0601512 -0.0633322 0.0348804 -0.3 -0.9 -0.316228
-0.0709414 -0.0957029 -0.106757 -0.0999999 -0.3 0.948683
-0.0889772 -0.11077 -0.119967 -0.217417 -0.65225 0.726154
-0.077265 -0.114674 -0.119967 -0.253987 -0.761962 0.595739
-0.090497 -0.115329 -0.126453 -0.282843 -0.84853 0.44721
-0.0916376 -0.118751 -0.133677 -0.282843 -0.84853 0.447209
-0.0799255 -0.122655 -0.133677 -0.303103 -0.90931 0.285104
-0.0923646 -0.120932 -0.141418 -0.303103 -0.90931 0.285104
-0.0926557 -0.121805 -0.149442 -0.31566 -0.946979 -0.0599141
-0.092502 -0.121344 -0.157505 -0.31566 -0.946979 -0.0599149
-0.0807899 -0.125248 -0.157505 -0.307574 -0.922722 -0.232341
-0.0919082 -0.119563 -0.165361 -0.307574 -0.922722 -0.232341
-0.0882009 -0.108441 -0.200533 -0.3 -0.9 -0.316228
-0.0740662 -0.105077 -0.214686 -0.263896 -0.791687 -0.550991
-0.084023 -0.0959072 -0.220554 -0.229631 -0.688892 -0.68753
-0.0796896 -0.0829069 -0.228981 -0.141421 -0.424262 -0.894428
-0.0702605 -0.09366 -0.225367 -0.141421 -0.424262 -0.894428
-0.0679774 -0.0868109 -0.228981 -0.141421 -0.424264 -0.894427
-0.0772431 -0.0755673 -0.231287 -0.0901573 -0.270472 -0.958497
-0.0629955 -0.071865 -0.232213 0.0189468 0.0568407 -0.998203
-0.0721601 -0.0603183 -0.231731 0.0734717 0.220415 -0.972635
-0.0604479 -0.0642223 -0.231731 0.0734717 0.220415 -0.972635
-0.0696778 -0.0528714 -0.229857 0.0734717 0.220415 -0.972635
-0.0465296 0.016573 -0.205456 0.0999999 0.3 -0.948683
-0.0348175 0.012669 -0.205456 -0.3 -0.9 -0.316228
-0.0224596 0.0497427 -0.322694 0.0999999 0.3 -0.948683
-0.0341717 0.0536468 -0.322694 0.0999999 0.3 -0.948683
0.0905034 0.388632 -0.203621 0.948683 -0.316228 -4.37114e-08
-0.0215336 0.0525205 0.205328 0.948683 -0.316228 -4.37114e-08
0.00567803 0.134155 0.20187 0.948683 -0.316228 -4.37114e-08
0.00392274 0.12889 0.207737 0.948683 -0.316228 -4.37114e-08
0.00810059 0.141423 0.187717 0.948683 -0.316228 -4.37114e-08
-0.0104225 0.0858538 0.21704 0.948683 -0.316228 -4.37114e-08
0.00708497 0.138376 0.195128 0.948683 -0.316228 -4.37114e-08
-0.00794023 0.0933007 0.218915 0.948683 -0.316228 -4.37114e-08
-0.00539286 0.100943 0.219396 0.948683 -0.316228 -4.37114e-08
-0.0801961 -0.123467 -0.165361 0.948683 -0.316228 -4.37114e-08
-0.0732829 -0.102727 -0.109968 0.948683 -0.316228 -4.37114e-08
-0.0754123 -0.109116 -0.114416 0.948683 -0.316228 -4.37114e-08
-0.0787848 -0.119233 -0.126453 0.948683 -0.316228 -4.37114e-08
-0.0764887 -0.112345 -0.200533 0.948683 -0.316228 -4.37114e-08
-0.0754731 -0.109298 -0.207944 0.948683 -0.316228 -4.37114e-08
-0.000410698 0.115889 0.216165 0.948683 -0.316228 -4.37114e-08
0.0157747 0.164446 0.114913 0.948683 -0.316228 -4.37114e-08
-0.0260044 0.0391081 0.19767 0.948683 -0.316228 -4.37114e-08
-0.0278572 0.0335498 0.192118 0.948683 -0.316228 -4.37114e-08
-0.031382 0.0229754 0.15458 0.948683 -0.316228 -4.37114e-08
-0.0806525 -0.124836 -0.141418 0.948683 -0.316228 -4.37114e-08
-0.0809435 -0.125709 -0.149442 0.948683 -0.316228 -4.37114e-08
-0.0723109 -0.0998112 -0.220554 0.948683 -0.316228 -4.37114e-08
-0.0312446 0.0233875 0.170668 0.948683 -0.316228 -4.37114e-08
-0.0477933 -0.0262585 -0.082357 0.948683 -0.316228 -4.37114e-08
-0.0579656 -0.0567755 -0.229857 0.948683 -0.316228 -4.37114e-08
-0.0655309 -0.0794714 -0.231287 0.948683 -0.316228 -4.37114e-08
-0.0221346 0.0897579 0.21704 -0.948683 0.316228 4.37114e-08
0.0787912 0.392536 -0.203621 -0.948683 0.316228 4.37114e-08
-0.0718633 -0.0594281 0.0348804 -0.948683 0.316228 4.37114e-08
0.00406259 0.16835 0.114913 -0.948683 0.316228 4.37114e-08
-0.0425004 0.0286605 0.146724 -0.948683 0.316228 4.37114e-08
-0.0595054 -0.0223544 -0.082357 -0.948683 0.316228 4.37114e-08
-0.0857783 -0.101173 -0.214686 -0.948683 0.316228 4.37114e-08
-0.0871245 -0.105212 -0.114416 -0.948683 0.316228 4.37114e-08
-0.084995 -0.0988232 -0.109968 -0.948683 0.316228 4.37114e-08
-0.0826536 -0.0917989 -0.106757 -0.948683 0.316228 4.37114e-08
-0.0871852 -0.105394 -0.207944 -0.948683 0.316228 4.37114e-08
-0.0196524 0.0972048 0.218915 -0.948683 0.316228 4.37114e-08
-0.00778939 0.132794 0.207737 -0.948683 0.316228 4.37114e-08
-0.0747076 -0.0679609 -0.232213 -0.948683 0.316228 4.37114e-08
-0.0430941 0.0268795 0.15458 -0.948683 0.316228 4.37114e-08
-0.0410891 0.0328944 0.185632 -0.948683 0.316228 4.37114e-08
-0.0395693 0.0374538 0.192118 -0.948683 0.316228 4.37114e-08
-0.0355871 0.0494005 0.202118 -0.948683 0.316228 4.37114e-08
-0.017105 0.104847 0.219396 -0.948683 0.316228 4.37114e-08
-0.0819726 -0.089756 -0.225367 -0.948683 0.316228 4.37114e-08
3 0 49 1
3 1 49 77
3 65 0 79
3 79 0 1
3 53 65 2
3 2 65 79
3 53 2 3
3 53 3 55
3 55 3 4
3 55 4 51
3 51 4 88
3 51 88 52
3 52 88 6
3 52 6 5
3 5 6 7
3 5 7 64
3 64 7 8
3 64 8 9
3 9 8 94
3 9 94 57
3 57 94 87
3 57 87 56
3 56 87 76
3 56 76 54
3 50 54 10
3 10 54 76
3 50 10 93
3 50 93 11
3 11 93 12
3 11 12 66
3 66 12 92
3 66 92 67
3 67 92 91
3 67 91 13
3 13 91 14
3 13 14 15
3 15 14 16
3 15 16 72
3 72 16 17
3 72 17 18
3 18 17 90
3 18 90 68
3 68 90 80
3 68 80 19
3 20 19 21
3 21 19 80
3 22 20 78
3 78 20 21
3 73 22 81
3 81 22 78
3 23 73 85
3 85 73 81
3 23 85 84
3 23 84 59
3 59 84 83
3 59 83 60
3 60 83 24
3 60 24 25
3 25 24 26
3 25 26 61
3 61 26 27
3 61 27 28
3 28 27 29
3 28 29 69
3 69 29 30
3 69 30 70
3 70 30 31
3 70 31 32
3 32 31 33
3 32 33 58
3 62 58 34
3 34 58 33
3 62 34 86
3 62 86 63
3 63 86 82
3 63 82 35
3 35 82 36
3 35 36 71
3 71 36 95
3 71 95 38
3 38 95 37
3 38 37 39
3 39 37 40
3 39 40 75
3 75 40 89
3 75 89 41
3 41 89 42
3 41 42 43
3 43 42 44
3 43 44 74
3 46 74 45
3 45 74 44
3 47 46 48
3 48 46 45
3 49 47 77
3 77 47 48
3 49 0 65
3 65 54 50
3 47 49 46
3 46 49 65
3 46 65 73
3 73 65 20
3 73 20 22
3 9 57 55
3 51 52 5
3 65 53 54
3 54 53 55
3 54 55 56
3 56 55 57
3 72 18 65
3 23 59 58
3 58 59 60
3 60 25 58
3 58 25 61
3 58 61 28
3 23 58 73
3 73 58 62
3 73 62 63
3 51 5 55
3 55 5 64
3 55 64 9
3 50 11 65
3 65 11 66
3 65 66 67
3 18 68 65
3 65 68 19
3 65 19 20
3 28 69 58
3 58 69 70
3 58 70 32
3 63 35 73
3 73 35 71
3 73 71 38
3 67 13 65
3 65 13 15
3 65 15 72
3 41 43 73
3 73 43 74
3 73 74 46
3 38 39 73
3 73 39 75
3 73 75 41
3 2 79 76
3 85 81 33
3 79 1 45
3 45 1 77
3 45 77 48
3 81 45 44
3 76 79 10
3 81 78 21
3 45 81 79
3 79 81 21
3 79 21 80
3 81 36 82
3 24 33 26
3 26 33 27
3 24 83 33
3 33 83 84
3 33 84 85
3 82 86 81
3 81 86 34
3 81 34 33
3 31 30 33
3 33 30 29
3 33 29 27
3 2 76 3
3 3 76 87
3 3 87 94
3 3 6 4
3 4 6 88
3 44 42 81
3 81 42 89
3 81 89 40
3 80 90 79
3 79 90 17
3 79 17 16
3 16 14 79
3 79 14 91
3 79 91 92
3 92 12 79
3 79 12 93
3 79 93 10
3 94 8 3
3 3 8 7
3 3 7 6
3 40 37 81
3 81 37 95
3 81 95 36
