ply
format ascii 1.0
comment VCGLIB generated
element vertex 10
property float x
property float y
property float z
property float nx
property float ny
property float nz
element face 16
property list uchar int vertex_indices
end_header
0.283314 0.040667 0.221809 0.461659 -0.610295 0.643747
0.295388 0.0380101 0.210632 0.461659 -0.610295 0.643747
-0.00429061 0.0709945 -0.120915 -0.6703 0.0642083 -0.739307
-0.144346 -0.12034 -0.201868 -0.511927 -0.775967 -0.368519
-0.132272 -0.122997 -0.213045 -0.511927 -0.775967 -0.368519
-0.0163645 0.0736515 -0.109738 -0.724432 0.159421 0.670659
0.0273504 -0.347316 0.0375501 -0.724432 0.159421 0.670659
0.0524846 0.345815 -0.100064 -0.724432 0.159421 0.670659
0.0394244 -0.349973 0.0263725 0.724432 -0.159421 -0.670659
0.0645583 0.343158 -0.111242 0.724432 -0.159421 -0.670659
3 0 6 1
3 1 6 8
3 7 0 9
3 9 0 1
3 5 7 2
3 2 7 9
3 3 5 4
3 4 5 2
3 6 3 8
3 8 3 4
3 3 6 5
3 5 6 0
3 5 0 7
3 8 4 1
3 1 4 2
3 1 2 9
