ply
format ascii 1.0
comment VCGLIB generated
element vertex 96
property float x
property float y
property float z
property float nx
property float ny
property float nz
element face 188
property list uchar int vertex_indices
end_header
-0.0587594 0.302921 0.0133 -0.986428 -0.0134631 0.163642
-0.0607135 0.304459 0.00164764 -0.986428 -0.0134631 0.163642
-0.134724 0.185326 -0.00167056 0.0080132 0.991538 0.129571
-0.14239 0.184549 -0.000487429 -0.24757 0.954279 0.167513
-0.149834 0.182448 0.000483623 -0.247569 0.954279 0.167513
-0.161212 0.173036 0.0133318 -0.691866 0.691615 0.20734
-0.163165 0.174574 0.0016792 -0.691866 0.691616 0.20734
-0.168647 0.169039 0.0018679 -0.691866 0.691615 0.20734
-0.173109 0.162654 0.00177295 -0.803458 0.557706 0.208373
-0.171155 0.161115 0.0134255 -0.803458 0.557707 0.208372
-0.179485 0.104982 -0.00477237 -0.986428 -0.0134631 0.163642
-0.176923 0.0957592 0.00576363 -0.983368 -0.0998311 0.151726
-0.176947 0.0898661 -0.00719376 -0.954877 -0.269635 0.124528
-0.16744 0.0751079 0.00144651 -0.81261 -0.579739 0.0597288
-0.164 0.0712599 -0.0118219 -0.703157 -0.710627 0.0240897
-0.162046 0.0697215 -0.000169361 -0.572345 -0.819921 -0.0122762
-0.157737 0.066917 -0.0134456 -0.572344 -0.819922 -0.0122758
-0.150793 0.0637482 -0.015028 -0.263041 -0.961225 -0.0828023
-0.14884 0.0622097 -0.00337597 -0.26304 -0.961225 -0.0828017
-0.133773 0.0597443 -0.00622784 -0.0939559 -0.988934 -0.114816
-0.0607169 0.0607412 -0.0183475 -0.0080132 -0.991538 -0.129571
-0.062671 0.0622798 -0.0299997 -0.986428 -0.0134631 0.163642
-0.061672 -0.0573949 -0.0337853 -0.0080132 -0.991538 -0.129571
0.0553752 -0.129624 -0.0629504 -0.986428 -0.0134631 0.163642
0.0591526 -0.150156 -0.078478 -0.897375 -0.431239 0.09355
0.0611065 -0.151695 -0.0668256 -0.812614 -0.579734 0.0597296
0.063512 -0.15642 -0.0800361 -0.703156 -0.710627 0.0240901
0.068906 -0.161808 -0.081652 -0.703156 -0.710628 0.0240902
0.0708598 -0.163346 -0.0699994 -0.572343 -0.819923 -0.0122763
0.0751696 -0.166151 -0.083276 -0.572342 -0.819923 -0.0122766
0.0821123 -0.169319 -0.0848584 -0.263045 -0.961224 -0.0828011
0.0895245 -0.171216 -0.0863519 -0.263045 -0.961224 -0.0828015
0.0914785 -0.172756 -0.0746993 -0.0939564 -0.988934 -0.114817
0.0971795 -0.171785 -0.0877105 -0.0939564 -0.988934 -0.114817
0.132473 -0.171303 -0.0935657 -0.0080132 -0.991538 -0.129571
0.149537 -0.169964 -0.0840671 0.24757 -0.954279 -0.167513
0.154579 -0.165067 -0.0964493 0.409628 -0.892965 -0.186594
0.166396 -0.155017 -0.0971038 0.691864 -0.691617 -0.20734
0.162868 -0.16209 -0.085263 0.691864 -0.691617 -0.20734
0.16835 -0.156556 -0.0854516 0.691862 -0.691619 -0.20734
0.170858 -0.148631 -0.0970092 0.803458 -0.557705 -0.208373
0.176119 -0.143127 -0.0849814 0.950754 -0.243627 -0.191604
0.176215 -0.134102 -0.0959895 0.98198 -0.07301 -0.174314
0.178169 -0.135641 -0.084337 0.98198 -0.0730098 -0.174314
0.176947 -0.1264 -0.0950951 0.98198 -0.07301 -0.174314
0.177545 -0.0525647 -0.0854465 0.986428 0.0134631 -0.163642
0.179499 -0.054103 -0.0737943 -0.0080132 -0.991538 -0.129571
0.297142 -0.0524973 -0.0933107 0.986428 0.0134631 -0.163642
0.295189 -0.0509586 -0.104963 0.986428 0.0134631 -0.163642
0.300055 0.307818 -0.0462255 0.164002 -0.129124 0.977973
-0.177531 0.103443 0.00688008 0.164002 -0.129124 0.977973
-0.14788 0.18091 0.0121358 0.164002 -0.129124 0.977973
-0.154877 0.177551 0.0128656 0.164002 -0.129124 0.977973
-0.13277 0.183787 0.00998162 0.164002 -0.129124 0.977973
-0.177245 0.138884 0.0115115 0.164002 -0.129124 0.977973
-0.140436 0.18301 0.0111646 0.164002 -0.129124 0.977973
-0.176512 0.146586 0.0124055 0.164002 -0.129124 0.977973
-0.174462 0.154072 0.01305 0.164002 -0.129124 0.977973
0.0991335 -0.173323 -0.0760581 0.164002 -0.129124 0.977973
0.0559831 -0.137308 -0.0640667 0.164002 -0.129124 0.977973
0.0579134 -0.14474 -0.0653719 0.164002 -0.129124 0.977973
0.0654665 -0.15796 -0.068384 0.164002 -0.129124 0.977973
0.134427 -0.172842 -0.0819132 0.164002 -0.129124 0.977973
0.142093 -0.172064 -0.0830962 0.164002 -0.129124 0.977973
-0.166694 0.167501 0.0135203 0.164002 -0.129124 0.977973
-0.0597142 0.184784 -0.00213792 0.164002 -0.129124 0.977973
-0.174993 0.0883275 0.00445869 0.164002 -0.129124 0.977973
-0.1718 0.0813732 0.00300475 0.164002 -0.129124 0.977973
-0.141428 0.0603125 -0.00486913 0.164002 -0.129124 0.977973
0.0771236 -0.167689 -0.0716238 0.164002 -0.129124 0.977973
0.0840668 -0.170858 -0.0732058 0.164002 -0.129124 0.977973
0.156534 -0.166606 -0.0847972 0.164002 -0.129124 0.977973
-0.155783 0.0653784 -0.00179305 0.164002 -0.129124 0.977973
0.055972 -0.0557891 -0.0533018 0.164002 -0.129124 0.977973
0.178902 -0.127938 -0.0834427 0.164002 -0.129124 0.977973
0.172812 -0.150169 -0.0853569 0.164002 -0.129124 0.977973
-0.179199 0.140422 -0.000140975 -0.164002 0.129124 -0.977973
0.298101 0.309357 -0.0578782 -0.164002 0.129124 -0.977973
-0.0636259 -0.0558565 -0.0454374 -0.164002 0.129124 -0.977973
-0.0616688 0.186323 -0.0137904 -0.164002 0.129124 -0.977973
-0.135727 0.0612825 -0.0178804 -0.164002 0.129124 -0.977973
0.0540181 -0.0542508 -0.064954 -0.164002 0.129124 -0.977973
0.147583 -0.168426 -0.0957194 -0.164002 0.129124 -0.977973
0.0559589 -0.143202 -0.0770242 -0.164002 0.129124 -0.977973
0.0540291 -0.13577 -0.0757192 -0.164002 0.129124 -0.977973
0.0534213 -0.128086 -0.0746027 -0.164002 0.129124 -0.977973
0.140139 -0.170526 -0.0947483 -0.164002 0.129124 -0.977973
-0.178466 0.148125 0.00075302 -0.164002 0.129124 -0.977973
-0.15683 0.179089 0.0012131 -0.164002 0.129124 -0.977973
0.174165 -0.141588 -0.0966339 -0.164002 0.129124 -0.977973
-0.143382 0.0618508 -0.0165218 -0.164002 0.129124 -0.977973
-0.169394 0.0766461 -0.0102056 -0.164002 0.129124 -0.977973
-0.173754 0.0829114 -0.00864773 -0.164002 0.129124 -0.977973
-0.178877 0.0972979 -0.0058888 -0.164002 0.129124 -0.977973
-0.176416 0.15561 0.00139766 -0.164002 0.129124 -0.977973
0.160914 -0.160551 -0.0969154 -0.164002 0.129124 -0.977973
3 0 49 1
3 1 49 77
3 65 0 79
3 79 0 1
3 53 65 2
3 2 65 79
3 53 2 3
3 53 3 55
3 55 3 4
3 55 4 51
3 51 4 88
3 51 88 52
3 52 88 6
3 52 6 5
3 5 6 7
3 5 7 64
3 64 7 8
3 64 8 9
3 9 8 94
3 9 94 57
3 57 94 87
3 57 87 56
3 56 87 76
3 56 76 54
3 50 54 10
3 10 54 76
3 50 10 93
3 50 93 11
3 11 93 12
3 11 12 66
3 66 12 92
3 66 92 67
3 67 92 91
3 67 91 13
3 13 91 14
3 13 14 15
3 15 14 16
3 15 16 72
3 72 16 17
3 72 17 18
3 18 17 90
3 18 90 68
3 68 90 80
3 68 80 19
3 20 19 21
3 21 19 80
3 22 20 78
3 78 20 21
3 73 22 81
3 81 22 78
3 23 73 85
3 85 73 81
3 23 85 84
3 23 84 59
3 59 84 83
3 59 83 60
3 60 83 24
3 60 24 25
3 25 24 26
3 25 26 61
3 61 26 27
3 61 27 28
3 28 27 29
3 28 29 69
3 69 29 30
3 69 30 70
3 70 30 31
3 70 31 32
3 32 31 33
3 32 33 58
3 62 58 34
3 34 58 33
3 62 34 86
3 62 86 63
3 63 86 82
3 63 82 35
3 35 82 36
3 35 36 71
3 71 36 95
3 71 95 38
3 38 95 37
3 38 37 39
3 39 37 40
3 39 40 75
3 75 40 89
3 75 89 41
3 41 89 42
3 41 42 43
3 43 42 44
3 43 44 74
3 46 74 45
3 45 74 44
3 47 46 48
3 48 46 45
3 49 47 77
3 77 47 48
3 49 0 65
3 65 54 50
3 47 49 46
3 46 49 65
3 46 65 73
3 73 65 20
3 73 20 22
3 9 57 55
3 51 52 5
3 65 53 54
3 54 53 55
3 54 55 56
3 56 55 57
3 72 18 65
3 23 59 58
3 58 59 60
3 60 25 58
3 58 25 61
3 58 61 28
3 23 58 73
3 73 58 62
3 73 62 63
3 51 5 55
3 55 5 64
3 55 64 9
3 50 11 65
3 65 11 66
3 65 66 67
3 18 68 65
3 65 68 19
3 65 19 20
3 28 69 58
3 58 69 70
3 58 70 32
3 63 35 73
3 73 35 71
3 73 71 38
3 67 13 65
3 65 13 15
3 65 15 72
3 41 43 73
3 73 43 74
3 73 74 46
3 38 39 73
3 73 39 75
3 73 75 41
3 2 79 76
3 85 81 33
3 79 1 45
3 45 1 77
3 45 77 48
3 81 45 44
3 76 79 10
3 81 78 21
3 45 81 79
3 79 81 21
3 79 21 80
3 81 36 82
3 24 33 26
3 26 33 27
3 24 83 33
3 33 83 84
3 33 84 85
3 82 86 81
3 81 86 34
3 81 34 33
3 31 30 33
3 33 30 29
3 33 29 27
3 2 76 3
3 3 76 87
3 3 87 94
3 3 6 4
3 4 6 88
3 44 42 81
3 81 42 89
3 81 89 40
3 80 90 79
3 79 90 17
3 79 17 16
3 16 14 79
3 79 14 91
3 79 91 92
3 92 12 79
3 79 12 93
3 79 93 10
3 94 8 3
3 3 8 7
3 3 7 6
3 40 37 81
3 81 37 95
3 81 95 36
