ply
format ascii 1.0
comment VCGLIB generated
element vertex 58
property float x
property float y
property float z
property float nx
property float ny
property float nz
element face 112
property list uchar int vertex_indices
end_header
0.0192517 0.308367 -0.160327 0.0346491 0.927575 -0.372028
-0.145199 0.321607 -0.142637 -0.991094 0.0797892 0.106612
-0.146605 0.317616 -0.152718 -0.991094 0.0797892 0.106612
-0.157829 -0.0464691 0.00483284 -0.991041 0.0134123 0.13288
-0.156438 -0.0648657 6.44497e-05 -0.940716 -0.249396 0.229901
-0.150072 -0.0748718 0.0149949 -0.940716 -0.249396 0.229901
-0.151478 -0.0788628 0.00491394 -0.886471 -0.37451 0.271865
-0.124835 -0.115625 0.0157518 -0.725313 -0.599477 0.33845
-0.112637 -0.125303 0.0178823 -0.62168 -0.694749 0.361715
-0.0991669 -0.133343 0.0191867 -0.505394 -0.775876 0.377615
-0.0832942 -0.135589 0.0297192 -0.244531 -0.889418 0.386188
-0.068124 -0.139895 0.0293086 -0.105264 -0.91952 0.378685
0.32252 -0.176484 -0.0225352 -0.0346491 -0.927575 0.372028
-0.0539658 -0.146174 0.0179632 -0.0346491 -0.927575 0.372028
0.323926 -0.172493 -0.0124542 0.991094 -0.0797892 -0.106612
0.14255 -0.0369365 -0.0526823 0.0346491 0.927575 -0.372028
0.124703 -0.0344119 -0.0511932 0.227336 0.894187 -0.385678
0.107243 -0.029762 -0.0505992 0.351389 0.852703 -0.386553
0.0746638 -0.014437 -0.0521231 0.579433 0.726925 -0.368561
0.0484396 0.0119834 -0.0470686 0.679526 0.644782 -0.35
0.060103 -0.00402489 -0.0542146 0.679526 0.644782 -0.35
0.0262359 0.0359996 -0.0653365 0.843316 0.448994 -0.295333
0.0150931 0.0716652 -0.0660449 0.949636 0.222606 -0.220539
0.0107981 0.0842187 -0.0822721 0.991239 -0.0189515 -0.130715
0.0102436 0.100859 -0.0887822 0.991239 -0.0189515 -0.130715
0.0276416 0.0399903 -0.0552555 0.128574 0.36502 0.922079
0.0202689 0.0554999 -0.0603672 0.128574 0.36502 0.922079
-0.158406 -0.031947 -0.000835603 0.128574 0.36502 0.922079
0.126109 -0.0304211 -0.0411122 0.128574 0.36502 0.922079
0.108648 -0.0257713 -0.0405183 0.128574 0.36502 0.922079
0.328584 -0.0478094 -0.0624617 0.128574 0.36502 0.922079
0.143956 -0.0329458 -0.0426014 0.128574 0.36502 0.922079
0.0918729 -0.0190746 -0.0408301 0.128574 0.36502 0.922079
-0.0525601 -0.142184 0.0280442 0.128574 0.36502 0.922079
0.0760695 -0.0104462 -0.0420421 0.128574 0.36502 0.922079
0.0615087 -3.42203e-05 -0.0441336 0.128574 0.36502 0.922079
-0.0977611 -0.129353 0.0292677 0.128574 0.36502 0.922079
-0.134108 -0.100512 0.0229191 0.128574 0.36502 0.922079
0.0370859 0.0254018 -0.0507973 0.128574 0.36502 0.922079
-0.123429 -0.111634 0.0258329 0.128574 0.36502 0.922079
-0.111231 -0.121313 0.0279633 0.128574 0.36502 0.922079
-0.155032 -0.0608749 0.0101455 0.128574 0.36502 0.922079
-0.14305 -0.0881747 0.0192818 0.128574 0.36502 0.922079
0.0116493 0.10485 -0.0787013 0.128574 0.36502 0.922079
0.0122038 0.0882095 -0.0721913 0.128574 0.36502 0.922079
-0.135514 -0.104503 0.012838 -0.128574 -0.36502 -0.922079
-0.144455 -0.0921654 0.00920077 -0.128574 -0.36502 -0.922079
-0.0846998 -0.13958 0.0196382 -0.128574 -0.36502 -0.922079
-0.0695297 -0.143886 0.0192276 -0.128574 -0.36502 -0.922079
0.0904672 -0.0230653 -0.0509111 -0.128574 -0.36502 -0.922079
0.327177 -0.0518 -0.0725426 -0.128574 -0.36502 -0.922079
0.0178458 0.304377 -0.170408 -0.128574 -0.36502 -0.922079
0.0470339 0.00799264 -0.0571496 -0.128574 -0.36502 -0.922079
0.0136874 0.0676745 -0.0761258 -0.128574 -0.36502 -0.922079
0.0188632 0.0515092 -0.0704482 -0.128574 -0.36502 -0.922079
-0.159811 -0.0359378 -0.0109166 -0.128574 -0.36502 -0.922079
-0.159235 -0.0504598 -0.00524821 -0.128574 -0.36502 -0.922079
0.0356802 0.0214111 -0.0608783 -0.128574 -0.36502 -0.922079
3 0 43 51
3 51 43 24
3 1 0 2
3 2 0 51
3 27 1 55
3 55 1 2
3 27 55 56
3 27 56 3
3 3 56 4
3 3 4 41
3 41 4 6
3 41 6 5
3 5 6 46
3 5 46 42
3 42 46 45
3 42 45 37
3 37 45 7
3 37 7 39
3 39 7 8
3 39 8 40
3 40 8 9
3 40 9 36
3 36 9 47
3 36 47 10
3 10 47 48
3 10 48 11
3 11 48 13
3 11 13 33
3 14 33 12
3 12 33 13
3 30 14 50
3 50 14 12
3 31 30 15
3 15 30 50
3 31 15 28
3 28 15 16
3 28 16 29
3 29 16 17
3 29 17 32
3 32 17 49
3 32 49 34
3 34 49 18
3 34 18 35
3 35 18 20
3 35 20 19
3 19 20 52
3 19 52 38
3 38 52 57
3 38 57 25
3 25 57 21
3 25 21 26
3 26 21 54
3 26 54 22
3 22 54 53
3 22 53 44
3 44 53 23
3 44 23 43
3 43 23 24
3 25 26 27
3 27 26 22
3 33 28 29
3 14 30 33
3 33 30 31
3 33 31 28
3 29 32 33
3 33 32 34
3 33 34 11
3 11 34 35
3 11 35 10
3 10 35 19
3 10 19 36
3 42 37 38
3 38 37 39
3 38 39 19
3 19 39 40
3 19 40 36
3 27 3 25
3 25 3 41
3 25 41 38
3 38 41 5
3 38 5 42
3 0 1 43
3 43 1 27
3 43 27 44
3 44 27 22
3 45 46 57
3 49 17 13
3 48 47 20
3 20 47 52
3 48 20 13
3 13 20 18
3 13 18 49
3 50 12 15
3 15 12 13
3 15 13 16
3 16 13 17
3 2 51 55
3 55 51 24
3 55 24 23
3 47 9 52
3 52 9 8
3 52 8 57
3 57 8 7
3 57 7 45
3 23 53 55
3 55 53 54
3 55 54 56
3 56 54 21
3 56 21 4
3 4 21 57
3 4 57 6
3 6 57 46
