ply
format ascii 1.0
comment VCGLIB generated
element vertex 58
property float x
property float y
property float z
property float nx
property float ny
property float nz
property uchar red
property uchar green
property uchar blue
property uchar alpha
element face 112
property list uchar int vertex_indices
end_header
-0.143404 0.448637 0.01 0 1.50423 0 0 0 0 255 
-0.443404 0.448637 0.01 -1.54212 0 0 0 0 0 255 
-0.443404 0.448637 -0.01 -1.5708 0 0 0 0 0 255 
-0.441369 -0.2771 0.01 -1.56679 -0.11206 0 0 0 0 255 
-0.435303 -0.304983 -0.01 -1.47176 -0.548937 0 0 0 0 255 
-0.425331 -0.33172 0.01 -1.47176 -0.548937 0 0 0 0 255 
-0.425331 -0.33172 -0.01 -1.37866 -0.752802 0 0 0 0 255 
-0.374376 -0.399787 -0.01 -0.678457 -0.678456 0 0 0 0 255 
-0.351532 -0.416887 -0.01 -0.366347 -0.489383 0 0 0 0 255 
-0.326487 -0.430563 -0.01 -0.292972 -0.536538 0 0 0 0 255 
-0.299751 -0.440535 0.01 -0.129945 -0.597344 0 0 0 0 255 
-0.271867 -0.446601 0.01 -0.0436103 -0.609756 0 0 0 0 255 
0.443404 -0.448637 -0.01 0 -0.0291142 0 0 0 0 255 
-0.243404 -0.448637 -0.01 0 -1.5708 0 0 0 0 255 
0.443404 -0.448637 0.01 1.48964 0 0 0 0 0 255 
0.106596 -0.202738 -0.01 0 0.0593102 0 0 0 0 255 
0.0739641 -0.200599 -0.01 0.107085 0.538354 0 0 0 0 255 
0.041891 -0.19422 -0.01 0.176438 0.519769 0 0 0 0 255 
-0.0184043 -0.169244 -0.01 0.304951 0.456393 0 0 0 0 255 
-0.070181 -0.129515 0.01 0.673783 0.768302 0 0 0 0 255 
-0.0455947 -0.151076 -0.01 0.361915 0.412685 0 0 0 0 255 
-0.109911 -0.077738 -0.01 1.30607 0.872691 0 0 0 0 255 
-0.134886 -0.0174429 0.01 0.967665 0.328479 0 0 0 0 255 
-0.141265 0.0146303 -0.01 0.547723 0.0358998 0 0 0 0 255 
-0.143404 0.047262 -0.01 1.56743 0.102735 0 0 0 0 255 
-0.109911 -0.077738 0.01 0 0 1.58621 0 0 0 255 
-0.124374 -0.048409 0.01 0 0 1.46847 0 0 0 255 
-0.443404 -0.248637 0.01 0 0 0.0869181 0 0 0 255 
0.0739641 -0.200599 0.01 0 0 0.859735 0 0 0 255 
0.041891 -0.19422 0.01 0 0 2.217 0 0 0 255 
0.443404 -0.202738 0.01 0 0 0.343811 0 0 0 255 
0.106596 -0.202738 0.01 0 0 2.52915 0 0 0 255 
0.0109249 -0.183708 0.01 0 0 2.00854 0 0 0 255 
-0.243404 -0.448637 0.01 0 0 0.0775609 0 0 0 255 
-0.0184043 -0.169244 0.01 0 0 1.79062 0 0 0 255 
-0.0455947 -0.151076 0.01 0 0 1.6352 0 0 0 255 
-0.326487 -0.430563 0.01 0 0 1.2225 0 0 0 255 
-0.394554 -0.379609 0.01 0 0 1.47667 0 0 0 255 
-0.0917426 -0.104928 0.01 0 0 0.0698384 0 0 0 255 
-0.374376 -0.399787 0.01 0 0 0.0801494 0 0 0 255 
-0.351532 -0.416887 0.01 0 0 1.70301 0 0 0 255 
-0.435303 -0.304983 0.01 0 0 1.17536 0 0 0 255 
-0.411655 -0.356765 0.01 0 0 1.40371 0 0 0 255 
-0.143404 0.047262 0.01 0 0 0.641855 0 0 0 255 
-0.141265 0.0146303 0.01 0 0 1.05039 0 0 0 255 
-0.394554 -0.379609 -0.01 0 0 -1.47667 0 0 0 255 
-0.411655 -0.356765 -0.01 0 0 -1.59509 0 0 0 255 
-0.299751 -0.440535 -0.01 0 0 -0.0846953 0 0 0 255 
-0.271867 -0.446601 -0.01 0 0 -0.988745 0 0 0 255 
0.0109249 -0.183708 -0.01 0 0 -1.26396 0 0 0 255 
0.443404 -0.202738 -0.01 0 0 -1.5708 0 0 0 255 
-0.143404 0.448637 -0.01 0 0 -0.406307 0 0 0 255 
-0.070181 -0.129515 -0.01 0 0 -0.0695182 0 0 0 255 
-0.134886 -0.0174429 -0.01 0 0 -1.25495 0 0 0 255 
-0.124374 -0.048409 -0.01 0 0 -1.80402 0 0 0 255 
-0.443404 -0.248637 -0.01 0 0 -2.05987 0 0 0 255 
-0.441369 -0.2771 -0.01 0 0 -0.0834675 0 0 0 255 
-0.0917426 -0.104928 -0.01 0 0 -0.0697743 0 0 0 255 
3 0 43 51 
3 51 43 24 
3 1 0 2 
3 2 0 51 
3 27 1 55 
3 55 1 2 
3 27 55 56 
3 27 56 3 
3 3 56 4 
3 3 4 41 
3 41 4 6 
3 41 6 5 
3 5 6 46 
3 5 46 42 
3 42 46 45 
3 42 45 37 
3 37 45 7 
3 37 7 39 
3 39 7 8 
3 39 8 40 
3 40 8 9 
3 40 9 36 
3 36 9 47 
3 36 47 10 
3 10 47 48 
3 10 48 11 
3 11 48 13 
3 11 13 33 
3 14 33 12 
3 12 33 13 
3 30 14 50 
3 50 14 12 
3 31 30 15 
3 15 30 50 
3 31 15 28 
3 28 15 16 
3 28 16 29 
3 29 16 17 
3 29 17 32 
3 32 17 49 
3 32 49 34 
3 34 49 18 
3 34 18 35 
3 35 18 20 
3 35 20 19 
3 19 20 52 
3 19 52 38 
3 38 52 57 
3 38 57 25 
3 25 57 21 
3 25 21 26 
3 26 21 54 
3 26 54 22 
3 22 54 53 
3 22 53 44 
3 44 53 23 
3 44 23 43 
3 43 23 24 
3 25 26 27 
3 27 26 22 
3 33 28 29 
3 14 30 33 
3 33 30 31 
3 33 31 28 
3 29 32 33 
3 33 32 34 
3 33 34 11 
3 11 34 35 
3 11 35 10 
3 10 35 19 
3 10 19 36 
3 42 37 38 
3 38 37 39 
3 38 39 19 
3 19 39 40 
3 19 40 36 
3 27 3 25 
3 25 3 41 
3 25 41 38 
3 38 41 5 
3 38 5 42 
3 0 1 43 
3 43 1 27 
3 43 27 44 
3 44 27 22 
3 45 46 57 
3 49 17 13 
3 48 47 20 
3 20 47 52 
3 48 20 13 
3 13 20 18 
3 13 18 49 
3 50 12 15 
3 15 12 13 
3 15 13 16 
3 16 13 17 
3 2 51 55 
3 55 51 24 
3 55 24 23 
3 47 9 52 
3 52 9 8 
3 52 8 57 
3 57 8 7 
3 57 7 45 
3 23 53 55 
3 55 53 54 
3 55 54 56 
3 56 54 21 
3 56 21 4 
3 4 21 57 
3 4 57 6 
3 6 57 46 
