ply
format ascii 1.0
comment VCGLIB generated
element vertex 96
property float x
property float y
property float z
property float nx
property float ny
property float nz
property uchar red
property uchar green
property uchar blue
property uchar alpha
element face 188
property list uchar int vertex_indices
end_header
-0.205401 0.405 0.01 -1.47113 0 0 0 0 0 255 
-0.205401 0.405 -0.01 -1.5708 0 0 0 0 0 255 
-0.329599 0.205 -0.01 0 1.41113 0 0 0 0 255 
-0.342622 0.203861 -0.01 -0.406552 1.51727 0 0 0 0 255 
-0.35525 0.200477 -0.01 -0.256709 0.958051 0 0 0 0 255 
-0.377808 0.187453 0.01 -0.409382 0.409378 0 0 0 0 255 
-0.377808 0.187453 -0.01 -1.11073 1.11072 0 0 0 0 255 
-0.387052 0.178209 -0.01 -0.409382 0.409378 0 0 0 0 255 
-0.394551 0.1675 -0.01 -0.812472 0.568899 0 0 0 0 255 
-0.394551 0.1675 0.01 -1.28672 0.900972 0 0 0 0 255 
-0.404599 0.07 -0.01 -0.32175 0 0 0 0 0 255 
-0.403459 0.0569764 0.01 -1.56482 -0.136904 0 0 0 0 255 
-0.400076 0.0443485 -0.01 -0.559222 -0.149845 0 0 0 0 255 
-0.387052 0.0217909 0.01 -1.28672 -0.900972 0 0 0 0 255 
-0.377808 0.0125467 -0.01 -0.701341 -0.701345 0 0 0 0 255 
-0.377808 0.0125467 0.01 -0.568901 -0.812472 0 0 0 0 255 
-0.367099 0.0050481 -0.01 -0.332073 -0.474248 0 0 0 0 255 
-0.35525 -0.000477016 -0.01 -0.406546 -1.51727 0 0 0 0 255 
-0.35525 -0.000477016 0.01 -0.256705 -0.958052 0 0 0 0 255 
-0.329599 -0.005 0.01 -0.136902 -1.56482 0 0 0 0 255 
-0.205401 -0.005 0.01 0 -1.5708 0 0 0 0 255 
-0.205401 -0.005 -0.01 -1.5708 0 0 0 0 0 255 
-0.205401 -0.205 0.01 0 -0.0996686 0 0 0 0 255 
-0.00540116 -0.33 0.01 -1.5708 0 0 0 0 0 255 
0.00464693 -0.3675 -0.01 -0.524706 -0.244676 0 0 0 0 255 
0.00464693 -0.3675 0.01 -0.812477 -0.568897 0 0 0 0 255 
0.0121454 -0.378209 -0.01 -1.11072 -1.11073 0 0 0 0 255 
0.0213898 -0.387453 -0.01 -0.409378 -0.409382 0 0 0 0 255 
0.0213898 -0.387453 0.01 -0.5689 -0.812473 0 0 0 0 255 
0.0320988 -0.394952 -0.01 -0.332072 -0.474248 0 0 0 0 255 
0.0439473 -0.400477 -0.01 -0.406553 -1.51727 0 0 0 0 255 
0.0565752 -0.403861 -0.01 -0.256709 -0.95805 0 0 0 0 255 
0.0565752 -0.403861 0.01 -0.0504587 -0.576746 0 0 0 0 255 
0.0695988 -0.405 -0.01 -0.0864452 -0.988074 0 0 0 0 255 
0.129599 -0.405 -0.01 0 -1.24905 0 0 0 0 255 
0.15525 -0.400477 0.01 0.406553 -1.51727 0 0 0 0 255 
0.167099 -0.394952 -0.01 0.419172 -0.898918 0 0 0 0 255 
0.187052 -0.378209 -0.01 0.701345 -0.701341 0 0 0 0 255 
0.177808 -0.387453 0.01 0.701345 -0.701341 0 0 0 0 255 
0.187052 -0.378209 0.01 1.11072 -1.11072 0 0 0 0 255 
0.194551 -0.3675 -0.01 0.474248 -0.332071 0 0 0 0 255 
0.200076 -0.355652 0.01 0.559222 -0.149843 0 0 0 0 255 
0.203459 -0.343024 -0.01 1.56482 -0.136909 0 0 0 0 255 
0.203459 -0.343024 0.01 0.988072 -0.0864484 0 0 0 0 255 
0.204599 -0.33 -0.01 0.576747 -0.0504607 0 0 0 0 255 
0.204599 -0.205 -0.01 1.41214 0 0 0 0 0 255 
0.204599 -0.205 0.01 0 -0.0996686 0 0 0 0 255 
0.404599 -0.205 0.01 1.53802 0 0 0 0 0 255 
0.404599 -0.205 -0.01 1.5708 0 0 0 0 0 255 
0.404599 0.405 0.01 0 0 0.316825 0 0 0 255 
-0.404599 0.07 0.01 0 0 0.975181 0 0 0 255 
-0.35525 0.200477 0.01 0 0 0.0872642 0 0 0 255 
-0.367099 0.194952 0.01 0 0 2.96706 0 0 0 255 
-0.329599 0.205 0.01 0 0 2.35619 0 0 0 255 
-0.404599 0.13 0.01 0 0 0.0872662 0 0 0 255 
-0.342622 0.203861 0.01 0 0 0.0872662 0 0 0 255 
-0.403459 0.143024 0.01 0 0 2.44346 0 0 0 255 
-0.400076 0.155651 0.01 0 0 2.53073 0 0 0 255 
0.0695988 -0.405 0.01 0 0 0.0872676 0 0 0 255 
-0.00426176 -0.343024 0.01 0 0 0.610867 0 0 0 255 
-0.000878155 -0.355652 0.01 0 0 2.44346 0 0 0 255 
0.0121454 -0.378209 0.01 0 0 2.61799 0 0 0 255 
0.129599 -0.405 0.01 0 0 0.977047 0 0 0 255 
0.142622 -0.403861 0.01 0 0 1.01818 0 0 0 255 
-0.387052 0.178209 0.01 0 0 0.261803 0 0 0 255 
-0.205401 0.205 0.01 0 0 0.0462028 0 0 0 255 
-0.400076 0.0443485 0.01 0 0 1.8244 0 0 0 255 
-0.394551 0.0325 0.01 0 0 1.26773 0 0 0 255 
-0.342622 -0.00386059 0.01 0 0 1.07678 0 0 0 255 
0.0320988 -0.394952 0.01 0 0 0.174532 0 0 0 255 
0.0439473 -0.400477 0.01 0 0 0.0872676 0 0 0 255 
0.167099 -0.394952 0.01 0 0 1.26984 0 0 0 255 
-0.367099 0.0050481 0.01 0 0 1.63994 0 0 0 255 
-0.00540116 -0.205 0.01 0 0 0.0470456 0 0 0 255 
0.204599 -0.33 0.01 0 0 2.02044 0 0 0 255 
0.194551 -0.3675 0.01 0 0 1.32469 0 0 0 255 
-0.404599 0.13 -0.01 0 0 -0.425304 0 0 0 255 
0.404599 0.405 -0.01 0 0 -0.316825 0 0 0 255 
-0.205401 -0.205 -0.01 0 0 -1.5708 0 0 0 255 
-0.205401 0.205 -0.01 0 0 -0.331554 0 0 0 255 
-0.329599 -0.005 -0.01 0 0 -1.03671 0 0 0 255 
-0.00540116 -0.205 -0.01 0 0 -0.0493661 0 0 0 255 
0.15525 -0.400477 -0.01 0 0 -1.82238 0 0 0 255 
-0.000878155 -0.355652 -0.01 0 0 -2.44346 0 0 0 255 
-0.00426176 -0.343024 -0.01 0 0 -2.35619 0 0 0 255 
-0.00540116 -0.33 -0.01 0 0 -0.698133 0 0 0 255 
0.142622 -0.403861 -0.01 0 0 -1.94888 0 0 0 255 
-0.403459 0.143024 -0.01 0 0 -2.44346 0 0 0 255 
-0.367099 0.194952 -0.01 0 0 -2.96706 0 0 0 255 
0.200076 -0.355652 -0.01 0 0 -1.76712 0 0 0 255 
-0.342622 -0.00386059 -0.01 0 0 -1.07678 0 0 0 255 
-0.387052 0.0217909 -0.01 0 0 -1.39199 0 0 0 255 
-0.394551 0.0325 -0.01 0 0 -1.69932 0 0 0 255 
-0.403459 0.0569764 -0.01 0 0 -1.95081 0 0 0 255 
-0.400076 0.155651 -0.01 0 0 -0.436334 0 0 0 255 
0.177808 -0.387453 -0.01 0 0 -1.39419 0 0 0 255 
3 0 49 1 
3 1 49 77 
3 65 0 79 
3 79 0 1 
3 53 65 2 
3 2 65 79 
3 53 2 3 
3 53 3 55 
3 55 3 4 
3 55 4 51 
3 51 4 88 
3 51 88 52 
3 52 88 6 
3 52 6 5 
3 5 6 7 
3 5 7 64 
3 64 7 8 
3 64 8 9 
3 9 8 94 
3 9 94 57 
3 57 94 87 
3 57 87 56 
3 56 87 76 
3 56 76 54 
3 50 54 10 
3 10 54 76 
3 50 10 93 
3 50 93 11 
3 11 93 12 
3 11 12 66 
3 66 12 92 
3 66 92 67 
3 67 92 91 
3 67 91 13 
3 13 91 14 
3 13 14 15 
3 15 14 16 
3 15 16 72 
3 72 16 17 
3 72 17 18 
3 18 17 90 
3 18 90 68 
3 68 90 80 
3 68 80 19 
3 20 19 21 
3 21 19 80 
3 22 20 78 
3 78 20 21 
3 73 22 81 
3 81 22 78 
3 23 73 85 
3 85 73 81 
3 23 85 84 
3 23 84 59 
3 59 84 83 
3 59 83 60 
3 60 83 24 
3 60 24 25 
3 25 24 26 
3 25 26 61 
3 61 26 27 
3 61 27 28 
3 28 27 29 
3 28 29 69 
3 69 29 30 
3 69 30 70 
3 70 30 31 
3 70 31 32 
3 32 31 33 
3 32 33 58 
3 62 58 34 
3 34 58 33 
3 62 34 86 
3 62 86 63 
3 63 86 82 
3 63 82 35 
3 35 82 36 
3 35 36 71 
3 71 36 95 
3 71 95 38 
3 38 95 37 
3 38 37 39 
3 39 37 40 
3 39 40 75 
3 75 40 89 
3 75 89 41 
3 41 89 42 
3 41 42 43 
3 43 42 44 
3 43 44 74 
3 46 74 45 
3 45 74 44 
3 47 46 48 
3 48 46 45 
3 49 47 77 
3 77 47 48 
3 49 0 65 
3 65 54 50 
3 47 49 46 
3 46 49 65 
3 46 65 73 
3 73 65 20 
3 73 20 22 
3 9 57 55 
3 51 52 5 
3 65 53 54 
3 54 53 55 
3 54 55 56 
3 56 55 57 
3 72 18 65 
3 23 59 58 
3 58 59 60 
3 60 25 58 
3 58 25 61 
3 58 61 28 
3 23 58 73 
3 73 58 62 
3 73 62 63 
3 51 5 55 
3 55 5 64 
3 55 64 9 
3 50 11 65 
3 65 11 66 
3 65 66 67 
3 18 68 65 
3 65 68 19 
3 65 19 20 
3 28 69 58 
3 58 69 70 
3 58 70 32 
3 63 35 73 
3 73 35 71 
3 73 71 38 
3 67 13 65 
3 65 13 15 
3 65 15 72 
3 41 43 73 
3 73 43 74 
3 73 74 46 
3 38 39 73 
3 73 39 75 
3 73 75 41 
3 2 79 76 
3 85 81 33 
3 79 1 45 
3 45 1 77 
3 45 77 48 
3 81 45 44 
3 76 79 10 
3 81 78 21 
3 45 81 79 
3 79 81 21 
3 79 21 80 
3 81 36 82 
3 24 33 26 
3 26 33 27 
3 24 83 33 
3 33 83 84 
3 33 84 85 
3 82 86 81 
3 81 86 34 
3 81 34 33 
3 31 30 33 
3 33 30 29 
3 33 29 27 
3 2 76 3 
3 3 76 87 
3 3 87 94 
3 3 6 4 
3 4 6 88 
3 44 42 81 
3 81 42 89 
3 81 89 40 
3 80 90 79 
3 79 90 17 
3 79 17 16 
3 16 14 79 
3 79 14 91 
3 79 91 92 
3 92 12 79 
3 79 12 93 
3 79 93 10 
3 94 8 3 
3 3 8 7 
3 3 7 6 
3 40 37 81 
3 81 37 95 
3 81 95 36 
