ply
format ascii 1.0
comment VCGLIB generated
element vertex 92
property float x
property float y
property float z
property float nx
property float ny
property float nz
property uchar red
property uchar green
property uchar blue
property uchar alpha
element face 180
property list uchar int vertex_indices
end_header
-0.0244972 0.263474 -0.01 1.50146 0 0 0 0 0 255 
-0.0244972 0.263474 0.01 -0.0925 0.628284 0 0 0 0 255 
-0.0513489 0.259521 -0.01 -0.387053 1.52236 0 0 0 0 255 
-0.0776531 0.252833 -0.01 -0.156482 0.615478 0 0 0 0 255 
-0.103132 0.243481 -0.01 -0.689671 1.4113 0 0 0 0 255 
-0.150551 0.217209 -0.01 -0.963252 1.24078 0 0 0 0 255 
-0.17199 0.200565 -0.01 -0.389433 0.501637 0 0 0 0 255 
-0.150551 0.217209 0.01 -0.389433 0.501637 0 0 0 0 255 
-0.17199 0.200565 0.01 -0.963252 1.24078 0 0 0 0 255 
-0.191608 0.18181 -0.01 -0.438849 0.45903 0 0 0 0 255 
-0.191608 0.18181 0.01 -1.08548 1.1354 0 0 0 0 255 
-0.209198 0.16114 -0.01 -0.483635 0.411577 0 0 0 0 255 
-0.224574 0.138775 0.01 -1.2944 0.889899 0 0 0 0 255 
-0.237575 0.11495 -0.01 -0.557469 0.304182 0 0 0 0 255 
-0.248061 0.0899164 -0.01 -1.50344 0.455057 0 0 0 0 255 
-0.26108 0.0372922 0.01 -1.5422 0.298388 0 0 0 0 255 
-0.263474 0.0102568 -0.01 -0.932093 0.0825451 0 0 0 0 255 
-0.263474 0.0102568 0.01 -0.634992 -0.00918444 0 0 0 0 255 
-0.263082 -0.0168814 -0.01 -0.93564 -0.013533 0 0 0 0 255 
-0.263082 -0.0168814 0.01 -1.57063 -0.0227174 0 0 0 0 255 
-0.259906 -0.0438362 -0.01 -0.929315 -0.109468 0 0 0 0 255 
-0.259906 -0.0438362 0.01 -1.56001 -0.18376 0 0 0 0 255 
-0.245371 -0.0960619 -0.01 -0.60225 -0.201477 0 0 0 0 255 
-0.234165 -0.120781 -0.01 -0.852252 -0.38636 0 0 0 0 255 
-0.220481 -0.144221 -0.01 -0.548439 -0.320176 0 0 0 0 255 
-0.220481 -0.144221 0.01 -0.755435 -0.552201 0 0 0 0 255 
-0.204465 -0.166132 -0.01 -1.16631 -1.05219 0 0 0 0 255 
-0.204465 -0.166132 0.01 -0.471529 -0.425391 0 0 0 0 255 
-0.120781 -0.234165 -0.01 -0.471771 -0.808109 0 0 0 0 255 
-0.120781 -0.234165 0.01 -0.26221 -0.578397 0 0 0 0 255 
-0.0703229 -0.253982 0.01 -0.204246 -0.913176 0 0 0 0 255 
-0.0168814 -0.263082 0.01 -0.00918444 -0.634992 0 0 0 0 255 
0.0102568 -0.263474 -0.01 -0.013533 -0.93564 0 0 0 0 255 
0.0102568 -0.263474 0.01 -0.0227174 -1.57063 0 0 0 0 255 
0.0372922 -0.26108 -0.01 0.0825451 -0.932093 0 0 0 0 255 
0.0372922 -0.26108 0.01 0.138566 -1.56467 0 0 0 0 255 
0.0639391 -0.255924 0.01 0.298388 -1.5422 0 0 0 0 255 
0.0899164 -0.248061 0.01 0.455057 -1.50344 0 0 0 0 255 
0.11495 -0.237575 0.01 0.448203 -0.821414 0 0 0 0 255 
0.11495 -0.237575 -0.01 0.752385 -1.37888 0 0 0 0 255 
0.16114 -0.209198 -0.01 1.01802 -1.19626 0 0 0 0 255 
0.18181 -0.191608 -0.01 0.411577 -0.483635 0 0 0 0 255 
0.200565 -0.17199 -0.01 1.24078 -0.963252 0 0 0 0 255 
0.217209 -0.150551 -0.01 1.33308 -0.830848 0 0 0 0 255 
0.231565 -0.127518 -0.01 1.4113 -0.689671 0 0 0 0 255 
0.243481 -0.103132 0.01 1.4113 -0.689671 0 0 0 0 255 
0.252833 -0.0776531 -0.01 1.52236 -0.387053 0 0 0 0 255 
0.259521 -0.0513489 -0.01 0.615478 -0.156482 0 0 0 0 255 
0.259521 -0.0513489 0.01 0.92576 -0.136296 0 0 0 0 255 
0.263474 -0.0244972 -0.01 0.92576 -0.136296 0 0 0 0 255 
0.263474 -0.0244972 0.01 0 0.0693404 0 0 0 0 255 
0.252833 -0.0776531 0.01 0 0 1.63039 0 0 0 255 
-0.186284 -0.186284 0.01 0 0 1.5194 0 0 0 255 
-0.166132 -0.204465 0.01 0 0 1.50356 0 0 0 255 
-0.144221 -0.220481 0.01 0 0 1.48797 0 0 0 255 
-0.0513489 0.259521 0.01 0 0 1.41609 0 0 0 255 
-0.0776531 0.252833 0.01 0 0 1.63039 0 0 0 255 
-0.103132 0.243481 0.01 0 0 1.63713 0 0 0 255 
-0.127518 0.231565 0.01 0 0 1.64284 0 0 0 255 
-0.0960619 -0.245371 0.01 0 0 1.4585 0 0 0 255 
-0.209198 0.16114 0.01 0 0 1.38515 0 0 0 255 
-0.237575 0.11495 0.01 0 0 1.65079 0 0 0 255 
-0.0244972 -0.0244972 0.01 0 0 0.106471 0 0 0 255 
-0.248061 0.0899164 0.01 0 0 1.39169 0 0 0 255 
-0.255924 0.0639391 0.01 0 0 1.6419 0 0 0 255 
-0.0438362 -0.259906 0.01 0 0 1.60608 0 0 0 255 
0.231565 -0.127518 0.01 0 0 1.39596 0 0 0 255 
-0.253982 -0.0703229 0.01 0 0 1.44506 0 0 0 255 
-0.245371 -0.0960619 0.01 0 0 1.4585 0 0 0 255 
0.138775 -0.224574 0.01 0 0 1.38584 0 0 0 255 
0.16114 -0.209198 0.01 0 0 1.38515 0 0 0 255 
-0.234165 -0.120781 0.01 0 0 1.47287 0 0 0 255 
0.18181 -0.191608 0.01 0 0 1.65291 0 0 0 255 
0.200565 -0.17199 0.01 0 0 1.65081 0 0 0 255 
0.217209 -0.150551 0.01 0 0 1.39137 0 0 0 255 
-0.0960619 -0.245371 -0.01 0 0 -1.5803 0 0 0 255 
-0.0703229 -0.253982 -0.01 0 0 -1.44506 0 0 0 255 
-0.144221 -0.220481 -0.01 0 0 -1.48797 0 0 0 255 
-0.166132 -0.204465 -0.01 0 0 -1.50356 0 0 0 255 
-0.186284 -0.186284 -0.01 0 0 -1.5194 0 0 0 255 
-0.253982 -0.0703229 -0.01 0 0 -1.44506 0 0 0 255 
-0.26108 0.0372922 -0.01 0 0 -1.63514 0 0 0 255 
-0.255924 0.0639391 -0.01 0 0 -1.39691 0 0 0 255 
-0.0244972 -0.0244972 -0.01 0 0 -0.106471 0 0 0 255 
-0.224574 0.138775 -0.01 0 0 -1.38584 0 0 0 255 
-0.127518 0.231565 -0.01 0 0 -1.39596 0 0 0 255 
0.243481 -0.103132 -0.01 0 0 -1.63713 0 0 0 255 
0.138775 -0.224574 -0.01 0 0 -1.38584 0 0 0 255 
-0.0168814 -0.263082 -0.01 0 0 -1.42163 0 0 0 255 
-0.0438362 -0.259906 -0.01 0 0 -1.43272 0 0 0 255 
0.0899164 -0.248061 -0.01 0 0 -1.39169 0 0 0 255 
0.0639391 -0.255924 -0.01 0 0 -1.6419 0 0 0 255 
3 1 62 0 
3 0 62 83 
3 1 0 2 
3 1 2 55 
3 55 2 3 
3 55 3 56 
3 56 3 4 
3 56 4 57 
3 57 4 85 
3 57 85 58 
3 58 85 5 
3 58 5 7 
3 7 5 6 
3 7 6 8 
3 8 6 9 
3 8 9 10 
3 10 9 11 
3 10 11 60 
3 60 11 84 
3 60 84 12 
3 12 84 13 
3 12 13 61 
3 61 13 14 
3 61 14 63 
3 63 14 82 
3 63 82 64 
3 64 82 81 
3 64 81 15 
3 15 81 16 
3 15 16 17 
3 17 16 18 
3 17 18 19 
3 19 18 20 
3 19 20 21 
3 21 20 80 
3 21 80 67 
3 67 80 22 
3 67 22 68 
3 68 22 23 
3 68 23 71 
3 71 23 24 
3 71 24 25 
3 25 24 26 
3 25 26 27 
3 27 26 79 
3 27 79 52 
3 52 79 78 
3 52 78 53 
3 53 78 77 
3 53 77 54 
3 54 77 28 
3 54 28 29 
3 29 28 75 
3 29 75 59 
3 59 75 76 
3 59 76 30 
3 30 76 89 
3 30 89 65 
3 65 89 88 
3 65 88 31 
3 31 88 32 
3 31 32 33 
3 33 32 34 
3 33 34 35 
3 35 34 91 
3 35 91 36 
3 36 91 90 
3 36 90 37 
3 37 90 39 
3 37 39 38 
3 38 39 87 
3 38 87 69 
3 69 87 40 
3 69 40 70 
3 70 40 41 
3 70 41 72 
3 72 41 42 
3 72 42 73 
3 73 42 43 
3 73 43 74 
3 74 43 44 
3 74 44 66 
3 66 44 86 
3 66 86 45 
3 45 86 46 
3 45 46 51 
3 51 46 47 
3 51 47 48 
3 48 47 49 
3 48 49 50 
3 62 50 83 
3 83 50 49 
3 50 62 48 
3 48 62 51 
3 62 1 55 
3 52 53 62 
3 62 53 54 
3 62 54 29 
3 55 56 62 
3 62 56 57 
3 62 57 58 
3 29 59 62 
3 62 59 30 
3 62 30 65 
3 58 7 62 
3 62 7 8 
3 62 8 10 
3 10 60 62 
3 62 60 12 
3 62 12 61 
3 61 63 62 
3 62 63 64 
3 62 64 15 
3 15 17 62 
3 62 17 19 
3 62 19 21 
3 65 31 62 
3 62 31 33 
3 62 33 35 
3 74 66 62 
3 62 66 45 
3 62 45 51 
3 21 67 62 
3 62 67 68 
3 62 68 71 
3 38 69 62 
3 62 69 70 
3 71 25 62 
3 62 25 27 
3 62 27 52 
3 35 36 62 
3 62 36 37 
3 62 37 38 
3 70 72 62 
3 62 72 73 
3 62 73 74 
3 2 0 83 
3 46 83 47 
3 47 83 49 
3 28 83 75 
3 75 83 76 
3 28 77 83 
3 83 77 78 
3 83 78 79 
3 79 26 83 
3 83 26 24 
3 83 24 23 
3 23 22 83 
3 83 22 80 
3 83 80 20 
3 20 18 83 
3 83 18 16 
3 83 16 81 
3 81 82 83 
3 83 82 14 
3 83 14 13 
3 13 84 83 
3 83 84 11 
3 83 11 9 
3 9 6 83 
3 83 6 5 
3 83 5 85 
3 46 86 83 
3 83 86 44 
3 83 44 43 
3 85 4 83 
3 83 4 3 
3 83 3 2 
3 43 42 83 
3 83 42 41 
3 83 41 40 
3 40 87 83 
3 83 87 39 
3 83 39 90 
3 32 88 83 
3 83 88 89 
3 83 89 76 
3 90 91 83 
3 83 91 34 
3 83 34 32 
