ply
format ascii 1.0
comment VCGLIB generated
element vertex 10
property float x
property float y
property float z
property float nx
property float ny
property float nz
property uchar red
property uchar green
property uchar blue
property uchar alpha
element face 16
property list uchar int vertex_indices
end_header
-0.401764 -0.3 0.01 -1.5708 0 0 0 0 0 255 
-0.401764 -0.3 -0.01 -1.53748 0 0 0 0 0 255 
0.19592 0 -0.01 1.24994 0.857639 0 0 0 0 255 
0.19592 0.3 0.01 0 0.0334479 0 0 0 0 255 
0.19592 0.3 -0.01 0 1.5708 0 0 0 0 255 
0.19592 0 0.01 0 0 0.930393 0 0 0 255 
-0.401764 0.3 0.01 0 0 1.1056 0 0 0 255 
0.401764 -0.3 0.01 0 0 0.96943 0 0 0 255 
-0.401764 0.3 -0.01 0 0 -1.5708 0 0 0 255 
0.401764 -0.3 -0.01 0 0 -0.96943 0 0 0 255 
3 0 6 1 
3 1 6 8 
3 7 0 9 
3 9 0 1 
3 5 7 2 
3 2 7 9 
3 3 5 4 
3 4 5 2 
3 6 3 8 
3 8 3 4 
3 3 6 5 
3 5 6 0 
3 5 0 7 
3 8 4 1 
3 1 4 2 
3 1 2 9 
