ply
format ascii 1.0
comment VCGLIB generated
element vertex 157
property float x
property float y
property float z
property float nx
property float ny
property float nz
property uchar red
property uchar green
property uchar blue
property uchar alpha
element face 314
property list uchar int vertex_indices
end_header
0.184684 0.3 0.025 -0.165148 0 0 0 0 0 255 
0.184684 0 -0.025 -1.40565 0 0 0 0 0 255 
0.184684 0.3 -0.025 -1.5708 0 0 0 0 0 255 
0.186182 0.00102821 0.022838 0.00372366 -0.000113087 0.0135431 0 0 0 255 
0.193227 0.308544 0.0234688 0.207041 -0.00628781 0.753018 0 0 0 255 
0.184684 0 0.025 0.98003 -0.0130624 0.673093 0 0 0 255 
0.194942 0.00703833 0.0102006 0.00618253 -0.000245778 0.00243776 0 0 0 255 
0.197221 0.0086019 0.00691269 0.979948 -0.0375212 0.661358 0 0 0 255 
0.199428 0.0101169 0.00372719 0.00678444 -0.000215819 0.00144415 0 0 0 255 
0.209312 0.324628 0.0042982 0.00954515 -0.000311694 0.00646777 0 0 0 255 
0.209591 0.324907 -0.00215714 1.42741 -0.0285553 -0.183549 0 0 0 255 
0.204991 0.0139336 -0.00429823 1.45475 -0.0203911 -1.41327 0 0 0 255 
0.200299 0.0107143 -0.00908133 0.00626647 -0.000153538 -0.00252291 0 0 0 255 
0.208843 0.324159 -0.00642832 1.20747 -0.0297814 -0.370198 0 0 0 255 
0.205213 0.320529 -0.0142678 0.816559 -0.0246337 -0.605514 0 0 0 255 
0.203835 0.319151 -0.0160697 0.00893226 -0.000296402 -0.00856228 0 0 0 255 
0.200754 0.31607 -0.0191511 0.00456731 -0.000151188 -0.0043785 0 0 0 255 
0.191168 0.00444901 -0.01839 0.805156 -0.023913 -0.773671 0 0 0 255 
0.18886 0.0028654 -0.0207427 0.805157 -0.0185142 -0.777376 0 0 0 255 
0.18673 0.00140402 -0.0229141 1.43413 0 -1.40681 0 0 0 255 
0.414263 -0.3125 -0.0216506 0.185682 0.135488 -0.465582 0 0 0 255 
0.193585 0.00610751 -0.0159258 0.00534253 0.00386165 -0.00897352 0 0 0 255 
0.421042 -0.31607 -0.0191511 0.271216 0.196039 -0.455545 0 0 0 255 
0.194961 0.00705183 -0.0145228 0.00640213 0.00458784 -0.00756929 0 0 0 255 
0.197672 0.008912 -0.011759 0.818553 0.582038 -1.19473 0 0 0 255 
0.43164 -0.321651 -0.0125 1.66699 1.17094 -1.03491 0 0 0 255 
0.433604 -0.322685 -0.0105061 0.00504301 0.00356036 -0.00734317 0 0 0 255 
0.202763 0.0124049 -0.00656946 0.00426523 0.00296021 -0.00161523 0 0 0 255 
0.435137 -0.323492 -0.00855049 1.63552 1.1351 -0.619365 0 0 0 255 
0.203372 0.012823 -0.00196297 0.00437527 0.00303769 -0.000691494 0 0 0 255 
0.2015 0.011538 0.000738993 0.979456 0.686101 1.0052 0 0 0 255 
0.437823 -0.324907 0.0021572 1.08107 0.760066 0.168418 0 0 0 255 
0.435193 -0.323522 0.00846849 1.61785 1.14231 0.60277 0 0 0 255 
0.433604 -0.322685 0.0105061 0.614206 0.442379 0.380145 0 0 0 255 
0.421022 -0.316059 0.0191368 0.00621457 0.00452719 0.00646031 0 0 0 255 
0.193788 0.00624672 0.0118651 0.968383 0.705447 1.00667 0 0 0 255 
0.191687 0.00480533 0.014896 0.969507 0.706266 1.00784 0 0 0 255 
0.18968 0.00342831 0.0177914 0.00404329 0.00299636 0.0100576 0 0 0 255 
0.40675 -0.308543 0.0234689 0.00572215 0.00408904 0.00591079 0 0 0 255 
0.398764 -0.304338 0.02459 0.586888 0.438059 2.53742 0 0 0 255 
0.187827 0.00215662 0.0204653 0.979395 0.68758 1.0058 0 0 0 255 
0.390527 -0.3 0.025 0.00490214 0.00336357 0.00499756 0 0 0 255 
-0.113 0.308118 -0.0236454 1.68775e-006 0.00372708 -0.013916 0 0 0 255 
0.189025 0.304341 -0.0246202 4.94473e-005 0.068501 -0.783558 0 0 0 255 
0.193234 0.308551 -0.0234923 0.000375125 0.969649 -2.08022 0 0 0 255 
-0.113 0.311899 -0.0219868 -0.000171661 0.626162 -1.42752 0 0 0 255 
0.197184 0.3125 -0.0216506 -2.03514e-006 0.00728225 -0.0111461 0 0 0 255 
-0.113 0.318393 -0.016932 3.23484e-006 0.00979463 -0.00979772 0 0 0 255 
-0.113 0.320929 -0.0136737 -0.000337468 1.23214 -0.959032 0 0 0 255 
0.206335 0.321651 -0.0125 6.68118e-005 0.90728 -0.575866 0 0 0 255 
0.208176 0.323492 -0.00855049 -3.24717e-006 0.0121576 -0.00417375 0 0 0 255 
-0.113 0.322894 -0.0100424 3.37133e-007 0.00609745 -0.00251647 0 0 0 255 
0.207369 0.322685 -0.0105061 9.88282e-005 1.78743 -0.737687 0 0 0 255 
0.209304 0.32462 -0.0043412 -0.00142596 1.67238 -0.219298 0 0 0 255 
-0.113 0.324915 -0.00206447 -0.000409026 1.54235 -0.257375 0 0 0 255 
-0.113 0.324235 -0.00613714 2.28987e-007 0.00649392 -0.00143381 0 0 0 255 
-0.113 0.324537 0.00432729 -0.000412428 1.54924 0.258524 0 0 0 255 
0.209591 0.324907 0.0021572 -0.000424745 1.60577 0.0693293 0 0 0 255 
0.209684 0.325 0 -0.000403703 1.52621 -0.0658962 0 0 0 255 
0.208843 0.324159 0.00642829 -0.000453404 1.73429 0.381192 0 0 0 255 
0.20633 0.321646 0.0124971 -0.00167049 1.76506 0.920407 0 0 0 255 
0.207369 0.322685 0.0105061 -0.000959946 1.01429 0.528912 0 0 0 255 
0.208173 0.323489 0.00854909 -0.000290809 1.11728 0.458695 0 0 0 255 
-0.113 0.321584 0.0124639 -1.44502e-006 0.00555606 0.00350487 0 0 0 255 
0.205213 0.320529 0.0142679 -0.000451896 1.73753 1.09607 0 0 0 255 
-0.113 0.318393 0.0169321 -0.000205611 1.05692 1.14816 0 0 0 255 
0.200743 0.316059 0.0191367 0.000613197 1.5375 1.54039 0 0 0 255 
0.203825 0.319141 0.0160597 -0.00178337 1.66613 1.28917 0 0 0 255 
0.197175 0.312491 0.0216316 0.000586282 1.28665 1.84123 0 0 0 255 
-0.113 0.3 0.025 0 0.129725 1.56543 0 0 0 255 
0.189022 0.304338 0.02459 0.000124373 0.073916 0.783392 0 0 0 255 
-0.113 0.304115 0.024659 0 0.128588 1.55171 0 0 0 255 
-0.413 0.3 0.025 0 0.001137 0.0137205 0 0 0 255 
-0.113 0.308118 0.0236454 -0.000330767 0.624765 1.4244 0 0 0 255 
-0.113 0.311899 0.0219869 3.06187e-006 0.00789622 0.0112728 0 0 0 255 
-0.113 0.315355 0.0197285 -0.000461126 0.86075 1.31742 0 0 0 255 
-0.432151 0.319151 0.0160697 -4.9085e-006 0.00875887 0.009515 0 0 0 255 
-0.113 0.323416 0.00852419 3.36119e-006 0.0129726 0.00347517 0 0 0 255 
-0.43762 0.32462 0.00434119 0.000326389 1.25971 0.337457 0 0 0 255 
-0.437915 0.324915 0.0020645 0 0.0069544 0.00116049 0 0 0 255 
-0.113 0.324915 0.0020645 0 1.54937 0.258546 0 0 0 255 
-0.113 0.324915 0 1.66811e-006 0.00635163 -0.000262533 0 0 0 255 
-0.437235 0.324235 -0.00613714 0 1.18874 -0.408099 0 0 0 255 
-0.431393 0.318393 -0.016932 0 1.66399 -1.29516 0 0 0 255 
-0.113 0.315355 -0.0197285 0 0.0072405 -0.0110822 0 0 0 255 
-0.421117 0.308118 -0.0236454 0 0.923434 -2.10524 0 0 0 255 
-0.113 0.304115 -0.024659 -0.000194861 0.129769 -1.56617 0 0 0 255 
-0.113 0.3 -0.025 0 -1.40565 0 0 0 0 255 
-0.417337 -0.304337 -0.0246028 -2.32004e-005 -0.0718016 -0.784211 0 0 0 255 
-0.421537 -0.308537 -0.0234613 -4.00361e-007 -0.00304333 -0.00652644 0 0 0 255 
0.184684 -0.3125 -0.0216506 -8.69319e-005 -0.660811 -1.41711 0 0 0 255 
-0.432097 -0.319097 -0.0160274 -0.000233252 -1.70193 -1.23217 0 0 0 255 
-0.434651 -0.321651 -0.0125 1.03197e-010 -0.00396966 -0.00277957 0 0 0 255 
0.184684 -0.320862 -0.0136265 3.34975e-008 -1.28854 -0.902242 0 0 0 255 
0.184684 -0.322814 -0.010005 0.0002328 -1.47998 -0.506261 0 0 0 255 
-0.437915 -0.324915 -0.00206447 0.000208026 -1.38195 -0.23057 0 0 0 255 
0.184684 -0.32482 -0.0020562 0.000238615 -1.54952 -0.257705 0 0 0 255 
0.184684 -0.325 0 0 -1.56482 -0.136901 0 0 0 255 
-0.438 -0.325 0 0 -1.52819 0.0632081 0 0 0 255 
-0.437915 -0.324915 0.0020645 0.000219718 -1.43132 0.185065 0 0 0 255 
-0.43762 -0.32462 0.00434119 0.000257996 -1.68068 0.217306 0 0 0 255 
0.184684 -0.323492 0.00855049 0 -1.41725 0.660867 0 0 0 255 
0.184684 -0.319151 0.0160697 0 -1.28672 0.90097 0 0 0 255 
-0.432151 -0.319151 0.0160697 0 -0.675506 0.675513 0 0 0 255 
-0.42907 -0.31607 0.0191511 0 -1.5409 1.54092 0 0 0 255 
0.184684 -0.31607 0.0191511 0 -1.11072 1.11073 0 0 0 255 
-0.4255 -0.3125 0.0216506 0 -0.00409699 0.00585119 0 0 0 255 
-0.42155 -0.308551 0.0234923 0 -0.207764 0.775376 0 0 0 255 
0.184684 -0.304341 -0.0246202 0 -0.0018447 -0.0210856 0 0 0 255 
0.398771 -0.304341 -0.0246202 0 -0.678646 -2.53274 0 0 0 255 
0.406764 -0.308551 -0.0234923 0 -0.129191 -0.482146 0 0 0 255 
0.184684 -0.304341 0.0246202 0 -0.135058 1.54373 0 0 0 255 
0.184684 -0.308551 0.0234923 0.000171232 -0.663851 1.42361 0 0 0 255 
0.184684 -0.3125 0.0216506 0.000169096 -0.655571 1.40585 0 0 0 255 
0.414245 -0.31249 0.0216317 1.73212e-006 -0.0108867 0.015548 0 0 0 255 
0.184684 -0.321651 0.0125 9.18005e-005 -1.27199 0.890656 0 0 0 255 
0.426874 -0.319141 0.0160597 0.000105719 -1.94962 1.36751 0 0 0 255 
0.431622 -0.321642 0.0124939 -0.00176666 -2.01618 1.05689 0 0 0 255 
0.436404 -0.324159 0.00642829 1.4442e-005 -1.90409 0.418653 0 0 0 255 
0.184684 -0.32462 0.00434119 6.41458e-008 -0.00845727 0.0018595 0 0 0 255 
0.437293 -0.324628 0.0042982 -1.35252e-007 -0.00904802 0.000791611 0 0 0 255 
0.184684 -0.32482 0.0020562 0 -1.5567 0.136191 0 0 0 255 
0.437823 -0.324907 -0.00215714 0 -1.64257 -0.0710046 0 0 0 255 
0.438 -0.325 0 0 -1.48757 -0.0643046 0 0 0 255 
0.184684 -0.324145 -0.00611312 -3.80448e-006 -0.00847534 -0.00266188 0 0 0 255 
0.436404 -0.324159 -0.00642832 -0.000451543 -1.00591 -0.315931 0 0 0 255 
0.437279 -0.32462 -0.0043412 2.27359e-010 -0.0081467 -0.00071273 0 0 0 255 
0.426893 -0.319151 -0.0160697 -8.82704e-008 -1.95494 -1.36886 0 0 0 255 
0.184684 -0.319151 -0.0160697 0 -1.09768 -1.09769 0 0 0 255 
0.184684 -0.31607 -0.0191511 0 -1.11072 -1.11072 0 0 0 255 
0.184684 -0.308551 -0.0234923 0 -0.401284 -1.49761 0 0 0 255 
0.390527 -0.3 -0.025 0 -0.0018447 -0.0210856 0 0 0 255 
0.184684 -0.3 0.025 0 1.5708 0 0 0 0 255 
0.184684 -0.3 -0.025 0 0.238288 0 0 0 0 255 
-0.413 -0.3 0.025 1.5708 0 0 0 0 0 255 
-0.413 -0.3 -0.025 1.48766 0 0 0 0 0 255 
-0.417341 0.304341 0.0246202 -0.0686174 0 0.784309 0 0 0 255 
-0.417341 -0.304341 0.0246202 -0.000627613 0 0.00717373 0 0 0 255 
-0.42155 0.308551 0.0234923 -0.207764 0 0.775374 0 0 0 255 
-0.4255 0.3125 0.0216506 -1.29064 0 1.84325 0 0 0 255 
-0.42907 0.31607 0.0191511 -1.54107 0 1.54108 0 0 0 255 
-0.434651 0.321651 0.0125 -0.86013 0 0.602268 0 0 0 255 
-0.434651 -0.321651 0.0125 -0.00612395 0 0.00285561 0 0 0 255 
-0.436492 0.323492 0.00855049 -0.00612395 0 0.00285561 0 0 0 255 
-0.436492 -0.323492 0.00855049 -1.75541 0 0.470365 0 0 0 255 
-0.438 0.325 0 -1.5282 0 -0.0632095 0 0 0 255 
-0.437915 0.324915 -0.00206447 -1.60753 0 -0.0664905 0 0 0 255 
-0.437235 -0.324235 -0.00613714 -1.2279 0 -0.377882 0 0 0 255 
-0.436492 -0.323492 -0.00855049 -1.771 0 -0.545017 0 0 0 255 
-0.435894 0.322894 -0.0100424 -1.78027 0.000236132 -0.611246 0 0 0 255 
-0.433929 0.320929 -0.0136737 -0.00551577 -1.10144e-006 -0.0039936 0 0 0 255 
-0.42903 -0.31603 -0.0191075 -1.54463 -0.000477486 -1.53868 0 0 0 255 
-0.428355 0.315355 -0.0197285 -1.49248 -1.04635e-008 -1.62128 0 0 0 255 
-0.425474 -0.312474 -0.0216107 -1.29541 -0.000426285 -1.84059 0 0 0 255 
-0.424899 0.311899 -0.0219868 -1.23977 -4.11445e-008 -1.89759 0 0 0 255 
-0.417337 0.304337 -0.0246028 -0.0711669 0 -0.777026 0 0 0 255 
-0.413 0.3 -0.025 -0.214711 0 -2.3443 0 0 0 255 
3 5 0 1 
3 1 0 2 
3 37 68 40 
3 40 68 4 
3 40 4 3 
3 3 4 70 
3 3 70 5 
3 5 70 0 
3 37 66 68 
3 35 67 36 
3 36 67 66 
3 36 66 37 
3 62 6 7 
3 62 61 6 
3 6 61 60 
3 6 60 35 
3 35 60 64 
3 35 64 67 
3 62 7 8 
3 62 8 59 
3 59 8 9 
3 9 8 30 
3 9 30 57 
3 57 30 58 
3 58 30 10 
3 10 30 29 
3 10 29 53 
3 29 11 53 
3 53 11 27 
3 53 27 13 
3 13 27 12 
3 49 52 12 
3 52 50 12 
3 12 50 13 
3 15 14 24 
3 49 12 24 
3 49 24 14 
3 15 24 23 
3 15 23 16 
3 16 23 21 
3 16 21 46 
3 21 17 46 
3 46 17 44 
3 17 18 44 
3 44 18 43 
3 18 19 43 
3 43 19 2 
3 1 2 19 
3 131 1 19 
3 131 19 109 
3 19 18 109 
3 109 18 110 
3 110 18 17 
3 110 17 20 
3 20 17 21 
3 20 21 22 
3 22 21 23 
3 22 23 127 
3 127 23 24 
3 127 24 25 
3 25 24 12 
3 25 12 26 
3 26 12 27 
3 26 27 28 
3 11 125 27 
3 27 125 28 
3 29 126 11 
3 11 126 125 
3 123 122 29 
3 29 122 126 
3 123 29 30 
3 123 30 31 
3 30 120 31 
3 32 118 30 
3 30 118 120 
3 30 8 32 
3 32 8 7 
3 34 116 6 
3 6 116 117 
3 6 117 7 
3 7 117 33 
3 7 33 32 
3 6 35 34 
3 34 35 36 
3 34 36 114 
3 114 36 37 
3 114 37 38 
3 38 37 40 
3 38 40 39 
3 39 40 3 
3 39 3 41 
3 41 3 5 
3 5 1 41 
3 41 1 131 
3 42 44 43 
3 2 87 86 
3 2 86 43 
3 43 86 42 
3 45 46 44 
3 44 42 45 
3 84 16 46 
3 46 45 84 
3 47 15 16 
3 16 84 47 
3 15 47 48 
3 51 49 48 
3 48 49 14 
3 48 14 15 
3 55 50 51 
3 51 50 52 
3 51 52 49 
3 10 53 81 
3 81 53 54 
3 54 53 55 
3 55 53 13 
3 55 13 50 
3 56 9 80 
3 80 9 57 
3 80 57 81 
3 81 57 58 
3 81 58 10 
3 77 62 56 
3 56 62 59 
3 56 59 9 
3 63 60 77 
3 77 60 61 
3 77 61 62 
3 63 64 60 
3 65 75 66 
3 65 66 67 
3 65 67 63 
3 63 67 64 
3 75 74 68 
3 75 68 66 
3 74 73 4 
3 74 4 68 
3 73 71 70 
3 73 70 4 
3 71 69 0 
3 71 0 70 
3 69 87 0 
3 0 87 2 
3 69 71 72 
3 72 71 136 
3 136 71 138 
3 138 71 73 
3 138 73 139 
3 139 73 74 
3 139 74 140 
3 140 74 75 
3 140 75 76 
3 76 75 65 
3 76 65 141 
3 141 65 63 
3 141 63 143 
3 143 63 77 
3 143 77 78 
3 78 77 56 
3 78 56 79 
3 79 56 80 
3 79 80 145 
3 145 80 81 
3 145 81 146 
3 146 81 54 
3 146 54 82 
3 82 54 55 
3 82 55 149 
3 149 55 51 
3 149 51 150 
3 150 51 48 
3 150 48 83 
3 83 48 47 
3 83 47 152 
3 152 47 84 
3 152 84 154 
3 154 84 45 
3 154 45 85 
3 85 45 42 
3 85 42 155 
3 155 42 86 
3 155 86 87 
3 155 87 156 
3 69 72 87 
3 87 72 156 
3 133 108 135 
3 135 108 88 
3 130 89 88 
3 88 108 130 
3 90 153 89 
3 89 130 90 
3 129 151 153 
3 153 90 129 
3 151 129 128 
3 92 91 128 
3 128 91 151 
3 92 128 93 
3 92 93 148 
3 148 93 94 
3 148 94 147 
3 147 94 124 
3 147 124 95 
3 95 124 96 
3 95 96 98 
3 98 96 97 
3 98 97 99 
3 99 97 121 
3 99 121 100 
3 100 121 119 
3 100 119 144 
3 144 119 101 
3 144 101 142 
3 142 101 115 
3 142 115 103 
3 103 115 102 
3 103 102 104 
3 104 102 105 
3 104 105 106 
3 106 105 113 
3 106 113 107 
3 107 113 112 
3 107 112 137 
3 137 112 111 
3 137 111 132 
3 137 132 134 
3 132 133 134 
3 134 133 135 
3 131 109 108 
3 109 110 130 
3 110 20 90 
3 20 22 129 
3 22 127 128 
3 111 39 41 
3 41 132 111 
3 39 111 112 
3 39 112 38 
3 38 112 113 
3 38 113 114 
3 114 113 105 
3 114 105 34 
3 34 105 102 
3 34 102 116 
3 116 102 115 
3 116 115 117 
3 117 115 101 
3 117 101 33 
3 33 101 32 
3 32 101 119 
3 32 119 118 
3 118 119 120 
3 120 119 121 
3 120 121 31 
3 97 123 121 
3 121 123 31 
3 97 122 123 
3 94 28 124 
3 124 28 125 
3 124 125 126 
3 124 126 96 
3 96 126 97 
3 97 126 122 
3 94 26 28 
3 128 127 93 
3 93 127 25 
3 93 25 94 
3 94 25 26 
3 22 128 129 
3 20 129 90 
3 110 90 130 
3 109 130 108 
3 131 108 133 
3 132 41 133 
3 133 41 131 
3 134 135 72 
3 72 135 156 
3 137 134 72 
3 72 136 137 
3 137 136 107 
3 136 138 107 
3 107 138 106 
3 138 139 106 
3 106 139 104 
3 139 140 104 
3 104 140 103 
3 140 76 103 
3 103 76 142 
3 76 141 142 
3 142 141 143 
3 142 143 144 
3 144 143 78 
3 144 78 100 
3 100 78 99 
3 99 78 79 
3 99 79 98 
3 79 145 98 
3 98 145 146 
3 98 146 95 
3 95 146 82 
3 95 82 147 
3 147 82 148 
3 148 82 149 
3 148 149 92 
3 92 149 150 
3 92 150 91 
3 91 150 83 
3 91 83 151 
3 151 83 152 
3 151 152 153 
3 153 152 154 
3 153 154 89 
3 89 154 85 
3 89 85 88 
3 155 156 135 
3 85 155 88 
3 88 155 135 
