ply
format ascii 1.0
comment VCGLIB generated
element vertex 99
property float x
property float y
property float z
property float nx
property float ny
property float nz
property uchar red
property uchar green
property uchar blue
property uchar alpha
element face 198
property list uchar int vertex_indices
end_header
-0.299974 -0.299974 0.015 0.0499581 0 0 0 0 0 255 
-0.299974 0.300026 -0.015 1.52084 0 0 0 0 0 255 
-0.313711 0.313762 0.00602543 -0.00361887 -3.2259e-007 0.00158752 0 0 0 255 
-0.31101 0.311062 0.0101592 -1.67423 0 1.30311 0 0 0 255 
-0.307114 0.307165 0.0131921 -0.331515 0 0.755775 0 0 0 255 
-0.302443 -0.302443 0.0147954 -0.573598 0 2.26508 0 0 0 255 
-0.314923 0.314974 -0.00123869 -1.3865 0.000114375 -0.231375 0 0 0 255 
-0.31477 -0.31477 -0.00246892 -1.28746 -0.000108201 -0.326053 0 0 0 255 
-0.314515 0.314567 -0.00368228 -0.00380147 -3.19483e-007 -0.000962734 0 0 0 255 
-0.313166 -0.313166 -0.00713921 -1.78645 -0.000159247 -0.783676 0 0 0 255 
-0.313711 0.313762 -0.00602543 -0.989038 9.20038e-005 -0.535282 0 0 0 255 
-0.312532 0.312583 -0.00820422 -1.77038 0.000164687 -0.958157 0 0 0 255 
-0.309188 -0.309188 -0.0118371 -0.00220228 0 -0.00337082 0 0 0 255 
-0.307114 -0.307114 -0.0131921 -0.00162335 0 -0.00370087 0 0 0 255 
-0.307114 0.307165 -0.0131921 -0.333138 0 -0.759483 0 0 0 255 
-0.302443 0.302495 -0.0147954 -0.00100288 0 -0.00396025 0 0 0 255 
-0.302443 -0.302443 -0.0147954 -0.0646594 0 -0.780322 0 0 0 255 
-0.299974 0.300026 0.015 0 0.000681883 0.00822941 0 0 0 255 
-0.302443 0.302495 0.0147954 0 0.572613 2.26111 0 0 0 255 
-0.304845 0.304896 0.0141873 0 0.196621 0.776408 0 0 0 255 
2.56002e-005 0.304896 0.0141873 0 0.630983 1.43849 0 0 0 255 
-0.309188 0.309239 0.0118371 0 0.00542391 0.00589204 0 0 0 255 
2.56002e-005 0.312583 0.00820422 0 1.23331 0.959892 0 0 0 255 
-0.312532 0.312583 0.00820422 0 0.804923 0.626476 0 0 0 255 
-0.314515 0.314567 0.00368228 0 0.00745392 0.00255881 0 0 0 255 
-0.314923 0.314974 0.00123869 0 0.00775844 0.00129482 0 0 0 255 
2.56002e-005 0.314567 -0.00368228 0 1.54937 -0.258577 0 0 0 255 
2.56002e-005 0.313762 -0.00602543 0 0.00697744 -0.00377599 0 0 0 255 
2.56002e-005 0.312583 -0.00820422 0 1.38148 -0.747615 0 0 0 255 
2.56002e-005 0.311062 -0.0101592 0 1.23334 -0.959915 0 0 0 255 
-0.31101 0.311062 -0.0101592 0 0.00539356 -0.00585911 0 0 0 255 
-0.309188 0.309239 -0.0118371 0 0.00438016 -0.00670441 0 0 0 255 
2.56002e-005 0.304896 -0.0141873 0 0.0032378 -0.00738147 0 0 0 255 
-0.304845 0.304896 -0.0141873 0 0.00199505 -0.00787795 0 0 0 255 
2.56002e-005 0.302495 -0.0147954 0 0.00199505 -0.00787795 0 0 0 255 
2.56002e-005 0.300026 -0.015 0 0.129034 -1.55727 0 0 0 255 
2.56002e-005 0.300026 0.015 0 -0.099668 0 0 0 0 255 
0.304896 0.304896 -0.0141873 0 0.196626 -0.776425 0 0 0 255 
2.56002e-005 0.307165 -0.0131921 0 0.627715 -1.43105 0 0 0 255 
0.307165 0.307165 -0.0131921 0 0.333138 -0.759483 0 0 0 255 
2.56002e-005 0.309239 -0.0118371 0 1.06386 -1.15569 0 0 0 255 
0.314567 0.314567 -0.00368228 0 0.00776591 -0.00129607 0 0 0 255 
2.56002e-005 0.314974 -0.00123869 0 1.5416 -0.25728 0 0 0 255 
0.314974 0.314974 -0.00123869 0 1.38844 -0.231719 0 0 0 255 
2.56002e-005 0.314974 0.00123869 0 1.54937 0.258576 0 0 0 255 
0.314974 0.314974 0.00123869 0 1.38068 0.230424 0 0 0 255 
0.314567 0.314567 0.00368228 0 1.71029 0.285434 0 0 0 255 
2.56002e-005 0.314567 0.00368228 0 0.00746821 0.00256371 0 0 0 255 
0.313762 0.313762 0.00602543 0 0.990795 0.53619 0 0 0 255 
2.56002e-005 0.313762 0.00602543 0 0.00696422 0.00376884 0 0 0 255 
0.312583 0.312583 0.00820422 0 1.76518 0.955268 0 0 0 255 
0.307152 0.307152 0.0131647 0.000277077 1.24122 1.8871 0 0 0 255 
0.309217 0.309217 0.0118062 0.000107316 0.480741 0.730902 0 0 0 255 
2.56002e-005 0.309239 0.0118371 0.000191288 1.06385 1.15567 0 0 0 255 
2.56002e-005 0.311062 0.0101592 0.000190316 1.05844 1.1498 0 0 0 255 
2.56002e-005 0.307165 0.0131921 0.00010907 0.627723 1.43106 0 0 0 255 
2.56002e-005 0.302495 0.0147954 5.85049e-005 0.385621 1.52272 0 0 0 255 
0.302493 0.302493 0.0147841 0 0.0679023 0.77615 0 0 0 255 
0.300026 0.300026 0.015 0 -1.5708 0 0 0 0 255 
-0.304845 -0.304845 0.0141873 8.07053e-005 -0.928892 2.11747 0 0 0 255 
-0.307114 -0.307114 0.0131921 -0.000104941 -1.23992 1.89801 0 0 0 255 
-0.31101 -0.31101 0.0101592 -5.33942e-005 -0.632136 0.686744 0 0 0 255 
-0.309188 -0.309188 0.0118371 -0.000126091 -1.4928 1.62176 0 0 0 255 
-0.31477 -0.31477 0.00246892 -0.000134288 -1.64559 0.136381 0 0 0 255 
0.314567 -0.314515 0.00368228 -3.19483e-007 -0.00380147 0.000962734 0 0 0 255 
-0.314162 -0.314162 0.00487049 3.20992e-007 -0.00372331 0.00127836 0 0 0 255 
-0.313166 -0.313166 0.00713921 -0.000115966 -0.846009 0.604122 0 0 0 255 
-0.31101 -0.31101 -0.0101592 0 -1.70679 -1.21862 0 0 0 255 
-0.314162 -0.314162 -0.00487049 3.2099e-007 -0.00372331 -0.00127836 0 0 0 255 
0.314567 -0.314515 -0.00368228 0.000102322 -1.18687 -0.407502 0 0 0 255 
0.314974 -0.314923 -0.00123869 -3.18919e-007 -0.00390808 -0.00032389 0 0 0 255 
-0.314974 -0.314974 0 -0.000120886 -1.48135 -0.12277 0 0 0 255 
0.314974 -0.314923 0.00123869 0.000127638 -1.56883 0 0 0 0 255 
0.309239 -0.309188 -0.0118371 0 -0.00270691 -0.00294052 0 0 0 255 
0.304896 -0.304845 -0.0141873 0 -0.196623 -0.776444 0 0 0 255 
-0.304845 -0.304845 -0.0141873 0 -0.92882 -2.11751 0 0 0 255 
0.302495 -0.302443 -0.0147954 0 -0.000338561 -0.00408582 0 0 0 255 
-0.299974 -0.299974 -0.015 0 -0.194092 -2.34234 0 0 0 255 
0.300026 -0.299974 -0.015 -1.5708 0 0 0 0 0 255 
0.300026 -0.299974 0.015 -1.52084 0 0 0 0 0 255 
0.300026 0.300026 -0.015 -0.0499581 0 0 0 0 0 255 
0.302495 0.302495 -0.0147954 0.0649965 0 -0.784421 0 0 0 255 
0.307165 -0.307114 -0.0131921 0.331512 0 -0.755776 0 0 0 255 
0.309239 0.309239 -0.0118371 0.477919 0 -0.731517 0 0 0 255 
0.311062 0.311062 -0.0101592 0.634259 0 -0.689005 0 0 0 255 
0.311062 -0.31101 -0.0101592 1.67427 0 -1.30309 0 0 0 255 
0.312583 -0.312532 -0.00820422 0.801788 0 -0.624036 0 0 0 255 
0.312583 0.312583 -0.00820422 0.804934 0 -0.626485 0 0 0 255 
0.313762 -0.313711 -0.00602543 0.00347547 0 -0.00188083 0 0 0 255 
0.313762 0.313762 -0.00602543 0.00373767 0 -0.00128308 0 0 0 255 
0.313762 -0.313711 0.00602543 0.00347547 0 0.00188083 0 0 0 255 
0.311516 -0.311465 0.00964181 0.00308636 4.64596e-007 0.002492 0 0 0 255 
0.312583 -0.312532 0.00820422 1.77215 0 0.959037 0 0 0 255 
0.309667 -0.309616 0.0114907 1.54369 1.11936e-007 1.54376 0 0 0 255 
0.31103 0.31103 0.0101281 0.634742 0.000112407 0.685947 0 0 0 255 
0.307526 -0.307474 0.0129904 1.29272 -7.47191e-008 1.84617 0 0 0 255 
0.30489 -0.304839 0.0141666 0.940155 -2.57402e-005 2.10653 0 0 0 255 
0.302493 -0.302442 0.0147841 0.582836 0 2.26218 0 0 0 255 
0.30489 0.30489 0.0141666 0.198944 0 0.772171 0 0 0 255 
3 17 0 1 
3 1 0 77 
3 25 71 63 
3 25 63 24 
3 24 63 65 
3 24 65 2 
3 2 65 66 
3 2 66 23 
3 23 66 61 
3 23 61 3 
3 3 61 62 
3 3 62 21 
3 21 62 60 
3 21 60 4 
3 4 60 59 
3 4 59 19 
3 19 59 5 
3 19 5 18 
3 18 5 0 
3 18 0 17 
3 71 25 6 
3 71 6 7 
3 7 6 8 
3 7 8 68 
3 68 8 10 
3 68 10 9 
3 9 10 11 
3 9 11 30 
3 9 30 67 
3 67 30 31 
3 67 31 12 
3 12 31 14 
3 12 14 13 
3 13 14 33 
3 13 33 75 
3 75 33 15 
3 75 15 16 
3 16 15 1 
3 16 1 77 
3 17 36 56 
3 17 56 18 
3 18 56 20 
3 18 20 19 
3 19 20 55 
3 19 55 4 
3 4 55 53 
3 4 53 21 
3 21 53 54 
3 21 54 3 
3 3 54 22 
3 3 22 23 
3 23 22 2 
3 2 22 49 
3 2 49 24 
3 24 49 47 
3 24 47 25 
3 25 47 44 
3 25 44 6 
3 6 44 42 
3 6 42 8 
3 8 42 26 
3 8 26 10 
3 10 26 27 
3 10 27 11 
3 11 27 28 
3 11 28 29 
3 11 29 30 
3 30 29 40 
3 30 40 31 
3 31 40 38 
3 31 38 14 
3 14 38 32 
3 14 32 33 
3 33 32 34 
3 33 34 15 
3 15 34 35 
3 15 35 1 
3 35 36 1 
3 1 36 17 
3 35 34 80 
3 80 34 81 
3 81 34 32 
3 81 32 37 
3 37 32 38 
3 37 38 39 
3 39 38 40 
3 39 40 83 
3 83 40 29 
3 83 29 84 
3 84 29 28 
3 84 28 87 
3 87 28 27 
3 87 27 89 
3 89 27 26 
3 89 26 41 
3 41 26 42 
3 41 42 43 
3 43 42 44 
3 43 44 45 
3 45 44 47 
3 45 47 46 
3 46 47 48 
3 48 47 49 
3 48 49 50 
3 50 49 22 
3 54 94 22 
3 22 94 50 
3 53 55 51 
3 53 51 52 
3 53 52 54 
3 54 52 94 
3 20 57 98 
3 20 98 55 
3 55 98 51 
3 20 56 57 
3 57 56 36 
3 57 36 58 
3 58 36 80 
3 80 36 35 
3 0 79 77 
3 77 79 78 
3 79 0 5 
3 59 97 5 
3 5 97 79 
3 60 96 59 
3 59 96 97 
3 62 95 60 
3 60 95 96 
3 61 93 62 
3 62 93 95 
3 71 72 63 
3 63 72 64 
3 63 64 65 
3 65 64 90 
3 65 90 66 
3 66 90 92 
3 66 92 91 
3 66 91 61 
3 61 91 93 
3 9 67 85 
3 9 85 86 
3 9 86 68 
3 68 86 88 
3 68 88 69 
3 68 69 7 
3 7 69 70 
3 7 70 71 
3 71 70 72 
3 12 13 82 
3 12 82 73 
3 12 73 67 
3 67 73 85 
3 75 76 74 
3 75 74 13 
3 13 74 82 
3 75 16 76 
3 76 16 77 
3 76 77 78 
3 78 79 80 
3 80 79 58 
3 78 80 76 
3 76 80 81 
3 76 81 74 
3 74 81 37 
3 74 37 82 
3 82 37 39 
3 82 39 73 
3 73 39 83 
3 73 83 85 
3 85 83 84 
3 85 84 86 
3 86 84 87 
3 86 87 88 
3 88 87 89 
3 88 89 69 
3 69 89 41 
3 69 41 43 
3 69 43 70 
3 70 43 72 
3 72 43 45 
3 72 45 46 
3 72 46 64 
3 64 46 48 
3 64 48 90 
3 90 48 50 
3 94 91 50 
3 50 91 92 
3 50 92 90 
3 91 94 93 
3 93 94 52 
3 93 52 95 
3 95 52 51 
3 95 51 96 
3 96 51 98 
3 96 98 97 
3 97 98 57 
3 97 57 79 
3 79 57 58 
