ply
format ascii 1.0
comment VCGLIB generated
element vertex 8
property float x
property float y
property float z
property float nx
property float ny
property float nz
property uchar red
property uchar green
property uchar blue
property uchar alpha
element face 12
property list uchar int vertex_indices
end_header
0.3 -0.3 0.01 0.0333211 0 0 0 0 0 255 
0.3 -0.3 -0.01 1.5708 0 0 0 0 0 255 
-0.3 0.3 0.01 -0.0333211 0 0 0 0 0 255 
-0.3 0.3 -0.01 -1.5708 0 0 0 0 0 255 
-0.3 -0.3 0.01 0 -0.0333211 0 0 0 0 255 
-0.3 -0.3 -0.01 0 -1.5708 0 0 0 0 255 
0.3 0.3 0.01 0 0 0.785398 0 0 0 255 
0.3 0.3 -0.01 0 0 -1.5708 0 0 0 255 
3 6 0 7 
3 7 0 1 
3 2 6 3 
3 3 6 7 
3 4 2 5 
3 5 2 3 
3 0 4 1 
3 1 4 5 
3 2 4 6 
3 6 4 0 
3 5 3 1 
3 1 3 7 
