ply
format ascii 1.0
comment VCGLIB generated
element vertex 10
property float x
property float y
property float z
property float nx
property float ny
property float nz
property uchar red
property uchar green
property uchar blue
property uchar alpha
element face 12
property list uchar int vertex_indices
end_header
-0.4 -0.3 0.01 -1.5708 0 0 0 0 0 255 
-0.4 0.3 0.01 -0.0333211 0 0 0 0 0 255 
-0.4 -0.3 -0.01 -1.53748 0 0 0 0 0 255 
0.4 -0.3 -0.01 0 -1.5458 0 0 0 0 255 
-0.4 -0.3 0.01 0 -1.5458 0 0 0 0 255 
-0.4 -0.3 -0.01 0 -1.5708 0 0 0 0 255 
0.4 -0.3 0.01 0.0299894 0.00999648 0 0 0 0 255 
0.2 0.3 -0.01 1.4602 0.486733 0 0 0 0 255 
0.2 0.3 0.01 0 0 1.89255 0 0 0 255 
-0.4 0.3 -0.01 0 0 -1.5708 0 0 0 255 
3 1 8 9 
3 9 8 7 
3 0 1 2 
3 2 1 9 
3 6 4 3 
3 3 4 5 
3 8 6 7 
3 7 6 3 
3 4 6 1 
3 1 6 8 
3 3 5 7 
3 7 5 9 
