ply
format ascii 1.0
comment VCGLIB generated
element vertex 77
property float x
property float y
property float z
property float nx
property float ny
property float nz
property uchar red
property uchar green
property uchar blue
property uchar alpha
element face 154
property list uchar int vertex_indices
end_header
-0.254936 0.0992697 0.025 1.38785 0.735705 0 0 0 0 255 
-0.254936 0.0992697 -0.025 1.21761 0.645458 0 0 0 0 255 
-0.14739 -0.147898 0.0096153 -1.05179 -0.557558 0.550308 0 0 0 255 
-0.145131 -0.144145 0.0163626 -0.774915 -0.410785 0.798314 0 0 0 255 
-0.288584 0.131795 0.0191041 -1.75821 -0.932035 1.81127 7 7 7 255 
-0.141835 -0.138668 0.0214698 -1.09763 -0.581855 1.56601 0 0 0 255 
-0.140003 -0.135622 0.0231575 -0.00502687 -0.00266476 0.0102683 0 0 0 255 
-0.267169 0.111094 0.0243029 -0.0489454 -0.0259461 0.302664 0 0 0 255 
-0.259595 0.103773 0.0249001 -0.0135124 -0.00716298 0.307254 0 0 0 255 
-0.134908 -0.127154 0.025 -0.000336727 -0.0001785 0.00765671 0 0 0 255 
-0.299265 0.14212 0.0131781 -1.97351 -1.04749 1.14013 28 28 28 255 
-0.301236 0.144025 0.0115175 -1.98429 -1.05188 0.942509 31 31 31 255 
-0.148067 -0.149024 0.00575306 -0.00791922 -0.00419684 0.00210495 0 0 0 255 
-0.304491 0.147171 0.00780934 -1.87198 -0.992067 0.497577 37 37 37 255 
-0.30613 0.148756 0.004801 -1.67272 -0.886714 0.223067 40 40 40 255 
-0.148365 -0.149519 -0.00244245 -0.00777622 -0.00412471 6.12435e-005 0 0 0 255 
-0.306983 0.14958 0.00168382 -1.3958 -0.740366 0.0109929 40 40 40 255 
-0.307031 0.149627 -0.00129655 -1.14843 -0.608682 -0.114273 39 39 39 255 
-0.306568 0.149179 -0.003565 -1.61079 -0.853743 -0.160281 37 37 37 255 
-0.148205 -0.149253 -0.00453986 -1.24947 -0.66235 -0.29106 0 0 0 255 
-0.147949 -0.148828 -0.00660858 -1.19307 -0.632452 -0.389771 0 0 0 255 
-0.147592 -0.148235 -0.00866276 -1.12559 -0.5967 -0.47997 0 0 0 255 
-0.30378 0.146484 -0.00877739 -0.60877 -0.322711 -0.26136 28 28 28 255 
-0.147142 -0.147487 -0.0106465 -1.05406 -0.558762 -0.563307 0 0 0 255 
-0.302134 0.144893 -0.0106465 -0.513521 -0.27221 -0.275797 24 24 24 255 
-0.146592 -0.146573 -0.0125828 -0.978071 -0.518496 -0.639113 0 0 0 255 
-0.299906 0.142739 -0.01267 -0.00494247 -0.00262011 -0.00322962 18 18 18 255 
-0.145957 -0.145517 -0.0144119 -1.42082 -0.753204 -0.928421 0 0 0 255 
-0.297561 0.140473 -0.0144119 -1.96094 -1.0395 -1.28712 12 12 12 255 
-0.144606 -0.143273 -0.0174207 -1.357 -0.719348 -1.14575 0 0 0 255 
-0.292351 0.135436 -0.0174207 -0.264379 -0.140148 -0.305655 0 0 0 255 
-0.27914 0.122667 -0.0221459 -1.39625 -0.740158 -2.2508 0 0 0 255 
-0.141182 -0.137581 -0.0221459 -0.00475105 -0.00251855 -0.0112858 0 0 0 255 
-0.139249 -0.134369 -0.0236766 -0.248737 -0.131856 -0.994029 0 0 0 255 
-0.263851 0.107887 -0.0246322 -0.00309922 -0.00164291 -0.0123854 0 0 0 255 
-0.137219 -0.130995 -0.0246322 -0.00125689 -0.00066628 -0.0148547 0 0 0 255 
-0.134908 -0.127154 -0.025 0 1.42668 0 0 0 0 255 
0.20963 -0.127154 0.025 0 1.42668 0 0 0 0 255 
-0.146399 -0.146251 0.0131781 0 -1.0354 0.684867 0 0 0 255 
0.283272 -0.144145 0.0163626 0 -0.00740932 0.00490092 0 0 0 255 
0.272457 -0.14165 0.0191041 0 -0.00656471 0.00597515 0 0 0 255 
-0.14363 -0.14165 0.0191041 0 -1.44627 1.31638 0 0 0 255 
0.259532 -0.138668 0.0214698 0 -1.7686 2.22942 0 0 0 255 
0.24633 -0.135622 0.0231575 0 -0.0810484 0.226261 0 0 0 255 
0.232471 -0.132424 0.0243029 0 -0.975299 2.72273 0 0 0 255 
-0.138079 -0.132424 0.0243029 0 -0.703513 1.96398 0 0 0 255 
0.218329 -0.129161 0.0249001 0 -0.0016761 0.00915732 0 0 0 255 
-0.136115 -0.129161 0.0249001 0 -0.0509006 1.02261 0 0 0 255 
0.296036 -0.14709 0.0115395 -1.46955e-006 -0.00803903 0.00371675 0 0 0 255 
0.302106 -0.14849 0.0078499 0 -0.591215 0.198277 0 0 0 255 
0.306529 -0.149511 0.00253792 -0.000139186 -0.98567 0.14922 0 0 0 255 
0.304418 -0.149024 0.00575306 0 -0.00898711 0.00121934 0 0 0 255 
0.305486 -0.14927 -0.00443766 7.53135e-006 -0.839774 -0.171182 0 0 0 255 
-0.148399 -0.149576 0.00168382 0 -1.55334 -0.0212605 0 0 0 255 
0.306567 -0.149519 -0.00244245 -0.000521739 -1.75833 -0.0815934 0 0 0 255 
0.303568 -0.148828 -0.00660858 0 -0.00457481 -0.000941502 0 0 0 255 
0.297759 -0.147487 -0.0106465 -3.44545e-005 -2.39382 -0.909616 0 0 0 255 
0.289219 -0.145517 -0.0144119 -3.1455e-005 -2.34023 -1.3586 0 0 0 255 
0.293545 -0.146515 -0.0126926 3.07664e-005 -2.39176 -1.13641 0 0 0 255 
0.226276 -0.130995 -0.0246322 0 -0.789327 -2.78703 0 0 0 255 
0.2409 -0.134369 -0.0236766 0 -1.23969 -2.60182 0 0 0 255 
-0.143021 -0.140638 -0.02 0 -0.634272 -0.903379 0 0 0 255 
0.268071 -0.140638 -0.02 0 -1.97299 -2.01536 0 0 0 255 
0.279491 -0.143273 -0.0174207 0 -0.218481 -0.223173 0 0 0 255 
0.20963 -0.127154 -0.025 0.000304546 0.000624854 -0.0072584 0 0 0 255 
-0.271683 0.115458 -0.0236766 0.038222 0.0784221 -0.308041 0 0 0 255 
0.254824 -0.137581 -0.0221459 0.720174 1.47762 -2.34119 0 0 0 255 
-0.286235 0.129525 -0.02 0.00155977 0.00320026 -0.0050706 0 0 0 255 
-0.305246 0.147901 -0.00660858 0.00143758 0.00294956 -0.000957053 33 33 33 255 
0.300789 -0.148186 -0.00880683 0.00122485 0.00251311 -0.00106054 0 0 0 255 
0.307031 -0.149627 -0.000135651 0.601505 1.23476 -0.0637482 0 0 0 255 
0.29954 -0.147898 0.0096153 1.04305 2.14008 0.798394 0 0 0 255 
-0.303089 0.145816 0.0096153 0.00126283 0.00259102 0.00121122 36 36 36 255 
-0.294376 0.137394 0.0163626 0.146041 0.29964 0.3034 19 19 19 255 
0.292401 -0.146251 0.0131781 0.00111073 0.00227894 0.00129575 0 0 0 255 
-0.274591 0.118269 0.0231575 0.0483325 0.0991663 0.307975 0 0 0 255 
-0.281661 0.125104 0.0214698 0.00125707 0.0025792 0.00517833 0 0 0 255 
3 0 9 1 
3 1 9 36 
3 2 38 10 
3 10 38 3 
3 10 3 73 
3 73 3 41 
3 73 41 4 
3 4 41 5 
3 4 5 76 
3 76 5 6 
3 76 6 75 
3 75 6 45 
3 75 45 7 
3 7 45 47 
3 7 47 8 
3 8 47 9 
3 8 9 0 
3 10 11 2 
3 2 11 72 
3 2 72 12 
3 72 13 12 
3 12 13 14 
3 12 14 53 
3 53 14 16 
3 53 16 15 
3 15 16 17 
3 15 17 18 
3 15 18 19 
3 19 18 68 
3 19 68 20 
3 20 68 21 
3 21 68 22 
3 21 22 23 
3 23 22 24 
3 23 24 25 
3 25 24 26 
3 25 26 27 
3 26 28 27 
3 27 28 30 
3 27 30 29 
3 29 30 67 
3 29 67 61 
3 61 67 31 
3 61 31 32 
3 32 31 65 
3 32 65 33 
3 33 65 34 
3 33 34 35 
3 35 34 1 
3 35 1 36 
3 9 37 36 
3 36 37 64 
3 57 27 29 
3 69 55 21 
3 38 39 3 
3 3 39 40 
3 3 40 41 
3 41 40 42 
3 41 42 5 
3 5 42 43 
3 5 43 6 
3 6 43 44 
3 6 44 45 
3 45 44 46 
3 45 46 47 
3 47 46 37 
3 47 37 9 
3 2 48 38 
3 38 48 74 
3 38 74 39 
3 12 49 2 
3 2 49 71 
3 2 71 48 
3 53 50 51 
3 53 51 12 
3 12 51 49 
3 53 70 50 
3 19 55 52 
3 19 52 54 
3 19 54 15 
3 15 54 53 
3 53 54 70 
3 55 19 20 
3 55 20 21 
3 69 21 56 
3 56 21 23 
3 56 23 25 
3 27 57 25 
3 25 57 58 
3 25 58 56 
3 36 64 35 
3 35 64 59 
3 35 59 33 
3 33 59 60 
3 33 60 32 
3 32 60 66 
3 32 66 61 
3 61 66 62 
3 61 62 29 
3 29 62 63 
3 29 63 57 
3 64 37 1 
3 1 37 0 
3 64 1 34 
3 64 34 59 
3 59 34 65 
3 59 65 60 
3 60 65 31 
3 60 31 66 
3 66 31 67 
3 66 67 62 
3 62 67 30 
3 62 30 63 
3 63 30 28 
3 63 28 57 
3 24 56 58 
3 57 28 58 
3 58 28 26 
3 58 26 24 
3 68 55 69 
3 56 24 69 
3 69 24 22 
3 69 22 68 
3 55 18 52 
3 55 68 18 
3 17 54 18 
3 18 54 52 
3 54 17 16 
3 54 16 70 
3 16 14 70 
3 51 50 14 
3 14 50 70 
3 51 14 49 
3 49 14 13 
3 49 13 71 
3 71 13 72 
3 71 72 48 
3 48 72 11 
3 48 11 74 
3 4 39 73 
3 73 39 74 
3 73 74 10 
3 10 74 11 
3 0 37 8 
3 8 37 46 
3 8 46 7 
3 7 46 44 
3 7 44 75 
3 75 44 43 
3 75 43 76 
3 76 43 42 
3 76 42 4 
3 4 42 40 
3 4 40 39 
